<?xml version="1.0" encoding="utf-8"?>
<!-- Generator: Adobe Illustrator 17.1.0, SVG Export Plug-In . SVG Version: 6.00 Build 0)  -->
<!DOCTYPE svg PUBLIC "-//W3C//DTD SVG 1.1//EN" "http://www.w3.org/Graphics/SVG/1.1/DTD/svg11.dtd">
<svg version="1.1" id="Layer_1" xmlns="http://www.w3.org/2000/svg" xmlns:xlink="http://www.w3.org/1999/xlink" x="0px" y="0px"
	 width="141.7px" height="255.1px" viewBox="0 0 141.7 255.1" style="enable-background:new 0 0 141.7 255.1;" xml:space="preserve"
	>
<title>05_calend_icon_192</title>
<g>
	<path d="M129.3,111.3h-0.3C126.2,80.1,99.9,55.6,68,55.6c-33.8,0-61.3,27.5-61.3,61.3v7.6c-3.4,4-5.6,9.3-5.6,14.7
		c0,8.8,5.3,16.7,13.1,20.3c6.5,24,28.7,41.1,53.8,41.1c17.6,0,34-8.3,44.6-22.3h0.1c10.8,0,19.9-7.8,21.9-18c3.6-1.9,6-5.6,6-9.9
		v-27.9C140.5,116.3,135.5,111.3,129.3,111.3z M129.3,150.4h-5.6v-27.9h5.6L129.3,150.4z M68,66.7c24.4,0,44.8,17.5,49.3,40.7
		c-2.7-1.1-5.8-1.6-8.3-1.9c-9.6-1.3-18.6-2.6-18.6-22H79.1c0,7.5-1.7,12.8-5.1,16.2c-6.2,6.2-18,6.1-29.5,6.1
		c-10.3,0-20-0.1-26.3,4.7C21.4,85.8,42.5,66.7,68,66.7z M112.6,167.1H78.7c-1.1-3.2-4.2-5.6-7.9-5.6c-4.6,0-8.4,3.7-8.4,8.4
		s3.7,8.4,8.4,8.4c0,0,0,0,0,0h26.7c-8.1,7.1-18.5,11.2-29.5,11.2c-20.9,0-39.3-14.8-43.6-35.3l-0.7-3.3l-3.3-0.9
		c-4.8-1.3-8.2-5.7-8.2-10.7c0-5,3.7-9.4,7-10.3l4.1-1.1v-4.3c0-2.4,0.7-3.4,1.2-3.9c2.8-2.8,11.9-2.8,19.9-2.8
		c13.1,0.1,28,0.1,37.5-9.3c0.9-0.9,1.7-1.8,2.4-2.8c6.2,9.4,16.5,10.9,23,11.8c1.7,0.2,4.1,0.6,5.2,1v44h9.6
		C120.3,164.9,116.7,167.1,112.6,167.1z"/>
	<circle cx="87.5" cy="136.4" r="8.4"/>
	<circle cx="48.5" cy="136.4" r="8.4"/>
</g>
</svg>
