<?xml version="1.0" encoding="utf-8"?>
<!-- Generator: Adobe Illustrator 17.1.0, SVG Export Plug-In . SVG Version: 6.00 Build 0)  -->
<!DOCTYPE svg PUBLIC "-//W3C//DTD SVG 1.1//EN" "http://www.w3.org/Graphics/SVG/1.1/DTD/svg11.dtd">
<svg version="1.1" id="Layer_1" xmlns="http://www.w3.org/2000/svg" xmlns:xlink="http://www.w3.org/1999/xlink" x="0px" y="0px"
	 width="141.7px" height="255.1px" viewBox="0 0 141.7 255.1" style="enable-background:new 0 0 141.7 255.1;" xml:space="preserve"
	>
<title>05_calend_icon_192</title>
<path d="M132.9,105.6v79.2H8.9v-79.2H132.9 M141.7,96.7H0v96.8h141.7V96.7L141.7,96.7L141.7,96.7z"/>
<path d="M132.9,79.1v17.6H8.9V79.1H132.9 M141.7,70.3H0v35.2h141.7V70.3L141.7,70.3L141.7,70.3z"/>
<rect x="106.3" y="61.5" width="11.9" height="26.4"/>
<rect x="24.1" y="61.5" width="11.4" height="26.4"/>
<rect x="41.5" y="139.4" width="11.5" height="11.6"/>
<rect x="19.3" y="139.4" width="11.5" height="11.6"/>
<rect x="19.3" y="116.2" width="11.5" height="11.6"/>
<rect x="41.5" y="116.2" width="11.5" height="11.6"/>
<rect x="88" y="139.4" width="11.5" height="11.6"/>
<rect x="65" y="139.4" width="11.5" height="11.6"/>
<rect x="65" y="116.2" width="11.5" height="11.6"/>
<rect x="88" y="116.2" width="11.5" height="11.6"/>
<rect x="110.9" y="139.4" width="11.5" height="11.6"/>
<rect x="110.9" y="116.2" width="11.5" height="11.6"/>
<rect x="19.3" y="162.6" width="11.5" height="11.6"/>
<rect x="41.5" y="162.6" width="11.5" height="11.6"/>
<rect x="65" y="162.6" width="11.5" height="11.6"/>
</svg>
