<?xml version="1.0" encoding="utf-8"?>
<!-- Generator: Adobe Illustrator 17.1.0, SVG Export Plug-In . SVG Version: 6.00 Build 0)  -->
<!DOCTYPE svg PUBLIC "-//W3C//DTD SVG 1.1//EN" "http://www.w3.org/Graphics/SVG/1.1/DTD/svg11.dtd">
<svg version="1.1" id="Layer_1" xmlns="http://www.w3.org/2000/svg" xmlns:xlink="http://www.w3.org/1999/xlink" x="0px" y="0px"
	 width="141.7px" height="255.1px" viewBox="0 0 141.7 255.1" style="enable-background:new 0 0 141.7 255.1;" xml:space="preserve"
	>
<title>05_calend_icon_192</title>
<g>
	<path d="M95.2,158.5c-2.4,0-10.4,9.7-12.6,10.7c-2.2,1.1-15.7,0.7-30.8-14.4c-15.1-15.1-20.3-32.5-20.3-35.2
		c0-2.7,12.6-11.2,13-13.2c0.3-2-16.6-31.4-19.4-31.4c-2.8,0-23.7,25.4-23.7,27.5s1.9,29.4,36.4,63.9C72.3,201,95.1,199,97.8,199
		c2.8,0,27.5-18.3,27.5-20.7C125.4,176,97.6,158.5,95.2,158.5z"/>
	<path d="M109.9,77.3H83.5l17-17L92.3,52L61.3,83.1l31.1,31.1l8.2-8.2l-17-17h26.4c11.7,0,21.1,9.5,21.1,21.1s-9.5,21.1-21.1,21.1
		h-6.7v11.6h6.7c18.1,0,32.8-14.7,32.8-32.8S128,77.3,109.9,77.3z"/>
</g>
</svg>
