<?xml version="1.0" encoding="utf-8"?>
<!-- Generator: Adobe Illustrator 17.1.0, SVG Export Plug-In . SVG Version: 6.00 Build 0)  -->
<!DOCTYPE svg PUBLIC "-//W3C//DTD SVG 1.1//EN" "http://www.w3.org/Graphics/SVG/1.1/DTD/svg11.dtd">
<svg version="1.1" id="Layer_1" xmlns="http://www.w3.org/2000/svg" xmlns:xlink="http://www.w3.org/1999/xlink" x="0px" y="0px"
	 width="141.7px" height="255.1px" viewBox="0 0 141.7 255.1" style="enable-background:new 0 0 141.7 255.1;" xml:space="preserve"
	>
<title>05_circle_question_icon_192</title>
<rect x="64.1" y="151.9" width="13.6" height="13.6"/>
<path d="M78,142.8H63.8V125h7.1c4.9,0,8.9-4,8.9-8.9c0-4.9-4-8.9-8.9-8.9c-4.9,0-8.9,4-8.9,8.9l0,0H47.8c0-12.7,10.3-23,23-23
	s23,10.3,23,23c0,10-6.4,18.8-15.9,21.9V142.8L78,142.8z"/>
<path d="M70.9,198.4C31.7,198.4,0,166.7,0,127.6c0-39.1,31.7-70.9,70.9-70.9c39.1,0,70.9,31.7,70.9,70.9
	C141.7,166.7,110,198.4,70.9,198.4z M70.9,70.9c-31.3,0-56.7,25.4-56.7,56.7s25.4,56.7,56.7,56.7s56.7-25.4,56.7-56.7
	C127.5,96.3,102.2,70.9,70.9,70.9L70.9,70.9z"/>
</svg>
