<?xml version="1.0" encoding="utf-8"?>
<!-- Generator: Adobe Illustrator 17.1.0, SVG Export Plug-In . SVG Version: 6.00 Build 0)  -->
<!DOCTYPE svg PUBLIC "-//W3C//DTD SVG 1.1//EN" "http://www.w3.org/Graphics/SVG/1.1/DTD/svg11.dtd">
<svg version="1.1" id="Layer_1" xmlns="http://www.w3.org/2000/svg" xmlns:xlink="http://www.w3.org/1999/xlink" x="0px" y="0px"
	 width="141.7px" height="255.1px" viewBox="0 0 141.7 255.1" style="enable-background:new 0 0 141.7 255.1;" xml:space="preserve"
	>
<title>05_calend_icon_192</title>
<path style="fill:#231F20;" d="M70.5,65.1c33.4,0,60.4,27.1,60.4,60.4c0,33.4-27.1,60.4-60.4,60.4s-60.4-27.1-60.4-60.4
	C10.1,92.1,37.1,65.1,70.5,65.1 M70.5,55C31.6,55,0,86.6,0,125.5S31.6,196,70.5,196s70.5-31.6,70.5-70.5S109.4,55,70.5,55L70.5,55z"
	/>
<polygon style="fill:#EB1751;" points="70.5,65.1 70.5,65.1 70.5,65.1 "/>
<rect x="67" y="91.9" style="fill:#343B43;" width="6.9" height="26.9"/>
<rect x="88.4" y="121.4" transform="matrix(-0.5066 0.8622 -0.8622 -0.5066 257.4361 128.8189)" style="fill:#343B43;" width="6.9" height="33.2"/>
<circle style="fill:#343B43;" cx="70.5" cy="125.5" r="13.4"/>
<circle style="fill:#FFFFFF;" cx="70.5" cy="125.5" r="6.7"/>
<circle style="fill:#231F20;" cx="70.5" cy="125.5" r="3.5"/>
<circle style="fill:#343B43;" cx="70.5" cy="75.1" r="3.4"/>
<circle style="fill:#343B43;" cx="45.3" cy="81.9" r="3.4"/>
<circle style="fill:#343B43;" cx="26.9" cy="100.3" r="3.4"/>
<circle style="fill:#343B43;" cx="20.1" cy="125.5" r="3.4"/>
<circle style="fill:#343B43;" cx="26.9" cy="150.7" r="3.4"/>
<path style="fill:#343B43;" d="M47,166.2c1.6,0.9,2.2,3,1.2,4.6c-0.9,1.6-3,2.2-4.6,1.2c-1.6-0.9-2.2-3-1.2-4.6c0,0,0,0,0,0
	C43.4,165.8,45.4,165.3,47,166.2z"/>
<circle style="fill:#343B43;" cx="70.5" cy="175.9" r="3.4"/>
<path style="fill:#343B43;" d="M94,166.2c1.6-0.9,3.6-0.4,4.6,1.2c0.9,1.6,0.4,3.7-1.2,4.6c-1.6,0.9-3.7,0.4-4.6-1.2
	C91.8,169.2,92.4,167.2,94,166.2C94,166.2,94,166.2,94,166.2z"/>
<path style="fill:#343B43;" d="M111.2,149c0.9-1.6,3-2.2,4.6-1.2c1.6,0.9,2.2,3,1.2,4.6c-0.9,1.6-3,2.2-4.6,1.2
	C110.9,152.7,110.3,150.6,111.2,149L111.2,149z"/>
<circle style="fill:#343B43;" cx="120.9" cy="125.5" r="3.4"/>
<path style="fill:#343B43;" d="M111.2,102c-0.9-1.6-0.4-3.7,1.2-4.6c1.6-0.9,3.7-0.4,4.6,1.2c0.9,1.6,0.4,3.6-1.2,4.6
	C114.2,104.2,112.2,103.6,111.2,102C111.2,102,111.2,102,111.2,102z"/>
<path style="fill:#343B43;" d="M94,84.8c-1.6-0.9-2.2-3-1.3-4.6c0.9-1.6,3-2.2,4.6-1.3c1.6,0.9,2.2,3,1.3,4.6c0,0,0,0,0,0
	C97.7,85.1,95.6,85.7,94,84.8z"/>
</svg>
