<?xml version="1.0" encoding="utf-8"?>
<!-- Generator: Adobe Illustrator 17.1.0, SVG Export Plug-In . SVG Version: 6.00 Build 0)  -->
<!DOCTYPE svg PUBLIC "-//W3C//DTD SVG 1.1//EN" "http://www.w3.org/Graphics/SVG/1.1/DTD/svg11.dtd">
<svg version="1.1" id="Layer_1" xmlns="http://www.w3.org/2000/svg" xmlns:xlink="http://www.w3.org/1999/xlink" x="0px" y="0px"
	 width="141.7px" height="255.1px" viewBox="0 0 141.7 255.1" style="enable-background:new 0 0 141.7 255.1;" xml:space="preserve"
	>
<title>05_calend_icon_192</title>
<g>
	<path d="M71.7,196.7c-26.3,0-49.5-17.9-56.3-43c-8.2-3.7-13.7-12-13.7-21.2c0-8.4,4.6-16.1,11.7-20.2c1.4-31,27-55.7,58.3-55.7
		s56.9,24.8,58.3,55.7c7.2,4.1,11.7,11.8,11.7,20.2c0,9.2-5.5,17.5-13.7,21.2C121.2,178.8,98,196.7,71.7,196.7z M71.7,68.3
		C46,68.3,25,89.2,25,115v5.2l-3.9,1.4c-4.7,1.7-7.8,6.1-7.8,10.9c0,5.2,3.5,9.8,8.6,11.2l3.4,1l0.7,3.5c4.6,21.4,23.8,37,45.7,37
		s41.1-15.5,45.7-37l0.7-3.5l3.4-1c5-1.4,8.6-6,8.6-11.2c0-4.9-3.1-9.3-7.8-10.9l-3.9-1.4V115C118.4,89.2,97.5,68.3,71.7,68.3z"/>
</g>
<g>
	<rect x="65.9" y="150" width="11.7" height="11.7"/>
</g>
<g>
	<path d="M77.6,144.2H65.9v-17.5h5.8c6.4,0,11.7-5.2,11.7-11.7c0-6.4-5.2-11.7-11.7-11.7S60,108.5,60,115H48.4
		c0-12.9,10.5-23.4,23.4-23.4s23.4,10.5,23.4,23.4c0,10.9-7.5,20-17.5,22.6V144.2z"/>
</g>
</svg>
