<svg xmlns="http://www.w3.org/2000/svg" width="141.7" height="255.1" viewBox="0 0 141.7 255.1"><path d="M133.8 137.8l-7.8-3.2c.5-3 .8-6.1.8-9.3 0-3.2-.3-6.2-.8-9.3l7.8-3.2c6.3-2.6 9.3-9.9 6.7-16.2-2.6-6.3-9.9-9.3-16.2-6.7l-7.8 3.2c-3.6-5.1-8-9.5-13.1-13.1l3.2-7.8c2.6-6.3-.4-13.6-6.7-16.2-6.4-2.6-13.6.4-16.2 6.7l-3.2 7.8c-3-.5-6.1-.8-9.3-.8-3.2 0-6.2.3-9.3.8l-3.2-7.8c-2.6-6.3-9.9-9.4-16.2-6.7-6.3 2.6-9.3 9.9-6.7 16.2L39 80c-5.1 3.6-9.5 8-13.1 13.1L18 89.8c-6.4-2.6-13.6.4-16.2 6.7-2.6 6.3.4 13.6 6.7 16.2l7.8 3.2c-.5 3-.8 6.1-.8 9.3 0 3.2.3 6.2.8 9.3l-7.8 3.2c-6.3 2.6-9.3 9.9-6.7 16.2 2 4.8 6.6 7.7 11.5 7.7 1.6 0 3.2-.3 4.7-.9l7.8-3.2c3.6 5.1 8 9.5 13.1 13.1l-3.2 7.8c-2.6 6.3.4 13.6 6.7 16.2 1.6.6 3.2.9 4.7.9 4.9 0 9.5-2.9 11.5-7.7l3.2-7.8c3 .5 6.1.8 9.3.8 3.2 0 6.2-.3 9.3-.8l3.2 7.8c2 4.8 6.6 7.7 11.5 7.7 1.6 0 3.2-.3 4.7-.9 6.3-2.6 9.3-9.9 6.7-16.2l-3.2-7.8c5.1-3.6 9.5-8 13.1-13.1l7.8 3.2c1.6.6 3.2.9 4.7.9 4.9 0 9.5-2.9 11.5-7.7 2.7-6.3-.3-13.5-6.6-16.1zm-87.3-12.5c0-13.6 11-24.6 24.6-24.6s24.6 11 24.6 24.6-11 24.6-24.6 24.6-24.6-11.1-24.6-24.6z"/></svg>