<?xml version="1.0" encoding="utf-8"?>
<!-- Generator: Adobe Illustrator 17.1.0, SVG Export Plug-In . SVG Version: 6.00 Build 0)  -->
<!DOCTYPE svg PUBLIC "-//W3C//DTD SVG 1.1//EN" "http://www.w3.org/Graphics/SVG/1.1/DTD/svg11.dtd">
<svg version="1.1" id="Layer_1" xmlns="http://www.w3.org/2000/svg" xmlns:xlink="http://www.w3.org/1999/xlink" x="0px" y="0px"
	 width="141.7px" height="255.1px" viewBox="0 0 141.7 255.1" style="enable-background:new 0 0 141.7 255.1;" xml:space="preserve"
	>
<title>05_calend_icon_192</title>
<g>
	<path style="fill:#324C5E;" d="M49,146.9c-0.1,0-0.1,0-0.2,0c-1.6-0.1-2.8-1.5-2.7-3.1c0-0.3,0-0.5,0.1-0.8
		c0.9-8.1,8.3-13.9,16.4-13c1.5,0.2,3,0.6,4.4,1.2c4.3-3.7,10.6-5.6,16-5.9c0.8-3.2,1.7-6.9,2.8-9.9c-2.9-2.2-6.5-6.3-8.4-11.2
		c-2.5-6.4-3.3-16.5,7.4-28.5c5.2-5.8,12.4-7.3,20-8.9c7.5-1.5,15.3-3.2,22.8-9c1-0.8,2.4-0.8,3.4-0.1c1,0.7,1.5,2,1.1,3.2
		c-2.7,8.9-3,16.2-3.2,22.1c-0.1,3.4-0.2,6.3-0.7,9c-2.7,15-9.6,22-14.9,25.3c-6.2,3.8-13.8,4.6-20.9,2.5c-0.7-0.2-1.2-0.6-1.5-1.1
		c-0.9,2.6-1.8,6.1-2.7,10.1c-0.3,1.3-1.5,2.2-2.8,2.2c-0.1,0-0.3,0-0.5,0c-5.2,0-11.9,1.9-15.1,5.7c-0.9,1.1-2.6,1.3-3.8,0.5
		c-1.2-0.8-2.5-1.3-4-1.4c-5-0.6-9.5,3-10,7.9l0,0.5C51.8,145.7,50.5,146.9,49,146.9z M93.1,114.2c0.3,0,0.6,0,0.8,0.1
		c5.6,1.7,11.5,1,16.2-1.9c6.2-3.8,10.4-11.2,12.3-21.4c0.4-2.3,0.5-5,0.6-8.2c0.2-4.6,0.4-10,1.6-16.4c-6.5,3.4-13,4.8-18.9,6
		C99,74,93,75.2,89.1,79.6c-6,6.7-8.4,13.2-7.3,19.3c1.3,7.1,7,11.7,8.4,12.6c0.2,0.1,0.3,0.1,0.5,0.2c1,0.5,1.6,1.6,1.6,2.7
		C92.5,114.3,92.8,114.2,93.1,114.2z"/>
</g>
<g>
	<path style="fill:#324C5E;" d="M89.3,117.2c-0.3,0-0.7-0.1-1-0.2c-1.5-0.6-2.2-2.2-1.7-3.7c5.1-13.2,13.2-25.7,24-37
		c1.1-1.2,2.9-1.2,4.1-0.1c1.2,1.1,1.2,2.9,0.1,4.1C104.5,91,96.8,102.8,92,115.3C91.6,116.5,90.5,117.2,89.3,117.2z"/>
</g>
<g>
	<path style="fill:#324C5E;" d="M119.3,158.3c-0.3,0-0.6,0-0.9-0.1c-1.5-0.5-2.3-2.1-1.8-3.6c0.6-1.7,0.2-3.6-1.1-5.6
		c-2.6-4.1-8.1-7-10.2-7.3c-2.2-0.3-2.9-0.3-3-0.2c-0.3,0.1-0.6,0.2-1.3,0.4c-1.4,0.2-2.8-0.6-3.2-2c-1.3-4.6-7.8-6.9-12.1-8.5
		l-1.3-0.5c-1.5-0.6-2.2-2.2-1.7-3.7c0.6-1.5,2.2-2.3,3.7-1.7l1.3,0.5c4.4,1.6,11.5,4.1,14.6,9.8c0.8,0,1.9,0.1,3.8,0.3
		c4.2,0.5,11,4.6,14.4,9.9c2.2,3.4,2.8,7.1,1.7,10.5C121.7,157.6,120.5,158.3,119.3,158.3z"/>
</g>
<g>
	<path style="fill:#324C5E;" d="M67.5,200c-3.6,0-6.7-0.6-8.6-1.5c-6-1.6-10.8-3.1-15.1-4.4c-10.8-3.4-17.3-5.5-30.2-3.9
		c-1.6,0.2-3-0.9-3.2-2.5c-0.2-1.6,0.9-3,2.5-3.2c14.2-1.8,21.5,0.5,32.7,4.1c4.3,1.4,9.1,2.9,15.1,4.4c0.3,0.1,0.5,0.2,0.8,0.3
		c2.7,1.6,15.1,1.7,24.6-4.3l48.6-30.7c1.4-0.7,1.6-1.8,1.6-2.4c0-0.9-0.4-2-1.6-2.6c-2.3-1.2-6.3,0-10.8,3.2
		c-0.1,0.1-0.3,0.2-0.5,0.3l-26.1,12.2c-1.4,0.7-3.2,0.1-3.8-1.4c-0.7-1.4-0.1-3.2,1.4-3.8l25.8-12.1c8.5-6.1,14-4.9,16.5-3.6
		c2.9,1.5,4.8,4.5,4.8,7.7c0,3.2-1.7,5.9-4.5,7.3L89,193.9C82.2,198.3,73.9,200,67.5,200z"/>
</g>
<g>
	<path style="fill:#324C5E;" d="M71.8,177c-10,0-18.8-3.9-28.8-9c-1.4-0.7-2-2.5-1.3-3.9c0.7-1.4,2.5-2,3.9-1.2
		c17.6,9,27.6,11.5,44.2,3.9c1.2-0.5,3-1.4,2.7-2.9c-0.1-0.9-0.9-1.7-1.7-1.7c-4-0.2-7.3-0.3-10-0.4c-11.2-0.2-15.4-0.3-29.5-10.7
		l-12.1-9c-1.4-1-6.6-1.8-11.7,0.3l-22.3,9.1c-1.5,0.6-3.2-0.1-3.8-1.6c-0.6-1.5,0.1-3.2,1.6-3.8l22.3-9.1
		c6.1-2.5,13.6-2.3,17.3,0.4l12.1,9c12.6,9.3,15.5,9.4,26.1,9.6c2.8,0.1,6.2,0.1,10.3,0.4c3.5,0.2,6.5,3,7.1,6.6
		c0.5,3.1-0.9,7-6.2,9.1C84.5,175.6,77.9,177,71.8,177z"/>
</g>
</svg>
