<?xml version="1.0" encoding="utf-8"?>
<!-- Generator: Adobe Illustrator 17.1.0, SVG Export Plug-In . SVG Version: 6.00 Build 0)  -->
<!DOCTYPE svg PUBLIC "-//W3C//DTD SVG 1.1//EN" "http://www.w3.org/Graphics/SVG/1.1/DTD/svg11.dtd">
<svg version="1.1" id="Слой_1" xmlns="http://www.w3.org/2000/svg" xmlns:xlink="http://www.w3.org/1999/xlink" x="0px" y="0px"
	 width="192.3px" height="192px" viewBox="0 0 192.3 192" style="enable-background:new 0 0 192.3 192;" xml:space="preserve">
<title>04_g+_icon_192</title>
<rect x="0.3" y="0" style="display:none;fill:#3E5C9A;" width="192" height="192"/>
<path style="display:none;fill:#FFFFFF;" d="M115.4,83.7h-14V73.4c0-3.1,3.2-3.9,4.8-3.9h9V55.7h-10.3c-14.2,0-17.4,10.3-17.4,16.9
	v11.1H77.2v14.2h10.3v38.4h13.9V97.9h11.8L115.4,83.7z"/>
<rect x="0.3" y="0" style="display:none;fill:#32CCFE;" width="192" height="192"/>
<path style="display:none;fill:#FFFFFF;" d="M136.3,69.4c-2.9,1.5-6,2.4-9.2,2.8c2.4-1.4,6-6,6.9-9.7c-2.3,1.6-7.7,3.9-10.3,3.9l0,0
	c-3-3.5-7.3-5.5-11.9-5.5c-9.1,0-16.5,8-16.5,17.8c0,1.3,0.1,2.7,0.4,4l0,0c-12.4-0.3-26.8-7-35-18.4c-5,9.3-0.7,19.7,5,23.5
	c-1.9,0.2-5.5-0.2-7.2-2c-0.1,6.2,2.7,14.4,12.7,17.4c-1.9,1.1-5.4,0.8-6.9,0.6c0.6,5.2,7.4,12,14.8,12c-2.7,3.3-11.7,9.3-22.9,7.4
	c7.7,5.1,16.6,7.8,25.8,7.9c26.6,0,47.3-23.2,46.2-51.9c0,0,0-0.1,0-0.1s0-0.2,0-0.2s0-0.2,0-0.3C131.5,76,134.3,73,136.3,69.4z"/>
<rect x="0.3" y="0" style="display:none;fill:#E5322E;" width="192" height="192"/>
<path style="display:none;fill:#FFFFFF;" d="M119.5,67.6H72.7c-15.2,0-16.6,12.6-16.6,28.1l0,0c0,15.5,1.7,28.1,16.9,28.1h46.7
	c15.2,0,16.6-12.6,16.6-28.1l0,0C136.4,80.2,134.7,67.6,119.5,67.6z M88.1,110.9V80.5l23.1,15.2L88.1,110.9z"/>
<rect y="0" style="display:none;fill:#DC4E41;" width="192" height="192"/>
<polygon style="fill:#150C17;" points="139.7,91.8 132.6,91.8 132.6,84.7 123,84.7 123,91.8 116,91.8 116,101.4 123,101.4 
	123,108.4 132.6,108.4 132.6,101.4 139.7,101.4 "/>
<path style="fill:#150C17;" d="M97,91.7H80.4v9.7h16.1c-3.2,8.9-13,13.5-21.9,10.3s-13.5-13-10.3-21.9c3.2-8.9,13-13.5,21.9-10.3
	c2.2,0.8,4.2,2,5.9,3.6l7.5-8c-11.3-10.6-29.1-10-39.6,1.3s-10,29.1,1.3,39.6c11.3,10.6,29.1,10,39.6-1.3c4.9-5.2,7.6-12.1,7.6-19.2
	c0-1.3-0.1-2.6-0.3-3.9L97,91.7L97,91.7z"/>
</svg>
