<svg xmlns="http://www.w3.org/2000/svg" viewBox="0 0 130.48 176.14"><title>02_lock_op_icon_192</title><path d="M96,184a65.24,65.24,0,1,1,65.24-65.24A65.31,65.31,0,0,1,96,184ZM96,66.57a52.19,52.19,0,1,0,52.19,52.19A52.25,52.25,0,0,0,96,66.57Z" transform="translate(-30.76 -7.86)"/><circle cx="65.24" cy="110.9" r="13.05"/><rect x="58.71" y="111.41" width="13.05" height="32.11"/><path d="M119,30.4l9.22-9.22A45.64,45.64,0,0,0,50.33,53.52V73.9h13V53.52A32.6,32.6,0,0,1,119,30.4Z" transform="translate(-30.76 -7.86)"/></svg>