<svg xmlns="http://www.w3.org/2000/svg" viewBox="0 0 176 126"><title>03_mail_icon_192</title><polygon points="129.4 53.28 176 99.88 176 19.38 129.4 53.28"/><path d="M16.47,40.78L96,98.62l79.53-57.84a7.55,7.55,0,0,1,5.1-1.37C177.7,36,173.13,34,167.44,34H24.56c-5.69,0-10.26,2-13.19,5.41A7.54,7.54,0,0,1,16.47,40.78Z" transform="translate(-8 -34)"/><polygon points="0 19.38 0 99.88 46.6 53.28 0 19.38"/><path d="M180,148.17a7.61,7.61,0,0,1-5.4-2.24L125.06,96.37l-24.57,17.87a7.63,7.63,0,0,1-9,0L66.94,96.37,17.38,145.93a7.61,7.61,0,0,1-5.4,2.24,7.33,7.33,0,0,1-3-.15c2.39,6.67,8.46,12,15.62,12H167.44c7.16,0,13.23-5.3,15.62-12A7.32,7.32,0,0,1,180,148.17Z" transform="translate(-8 -34)"/></svg>