<?xml version="1.0" encoding="utf-8"?>
<!-- Generator: Adobe Illustrator 17.1.0, SVG Export Plug-In . SVG Version: 6.00 Build 0)  -->
<!DOCTYPE svg PUBLIC "-//W3C//DTD SVG 1.1//EN" "http://www.w3.org/Graphics/SVG/1.1/DTD/svg11.dtd">
<svg version="1.1" id="Layer_1" xmlns="http://www.w3.org/2000/svg" xmlns:xlink="http://www.w3.org/1999/xlink" x="0px" y="0px"
	 width="141.7px" height="255.1px" viewBox="0 0 141.7 255.1" style="enable-background:new 0 0 141.7 255.1;" xml:space="preserve"
	>
<title>05_calend_icon_192</title>
<g>
	<path d="M121.9,141.8c-0.7,0-1.4-0.3-2-0.8c-1.1-1.1-1.1-2.9,0-4l8.6-8.6c13.9-13.9,6.2-32.3-4.5-43.9c-3.9-4.1-8.2-7.6-12.4-10
		c-3.9-2.2-22.2-8.5-34.3,3.3l-25.9,25.7c-1.2,1.2-0.8,1.6-0.3,2.1c2.5,2.5,10.9,3.7,15.9-1.2l6.5-6.4c5.7-5.1,12-3.2,17.6-1.5
		c6.4,1.9,12.4,3.8,19.5-1.8c1.2-1,3-0.8,3.9,0.5c1,1.2,0.7,3-0.5,3.9c-9.3,7.4-17.8,4.8-24.6,2.8c-5.7-1.7-9-2.5-12.1,0.2l-6.4,6.3
		c-7.3,7.2-19.3,5.7-23.8,1.1c-2.9-3-2.8-6.9,0.3-10l25.9-25.8c13.4-13,33.4-8.5,41-4.2c4.8,2.7,9.6,6.5,13.8,11.1
		c13.5,14.5,20,36.1,4.4,51.7l-8.6,8.6C123.4,141.6,122.7,141.8,121.9,141.8z"/>
</g>
<g>
	<path d="M21.2,137.8c-0.7,0-1.4-0.3-2-0.8l-8.6-8.6c-15.9-15.9-9.6-36.9,3-49.7c13.4-13.6,35.3-19.3,51.1-3.8l5.8,5.8
		c1.1,1.1,1.1,2.9,0,4c-1.1,1.1-2.9,1.1-4,0l-5.8-5.8c-13.8-13.5-32.1-7.5-43.2,3.8c-10.7,10.9-16.2,28.6-3,41.8l8.6,8.6
		c1.1,1.1,1.1,2.9,0,4C22.6,137.5,21.9,137.8,21.2,137.8z"/>
</g>
<g>
	<path d="M116.7,158.7c-2.6,0-5.5-1.1-8.1-3.8L93,138.8c-1.1-1.1-1.1-2.9,0.1-4c1.1-1.1,2.9-1.1,4,0.1l15.6,16.1
		c3.4,3.5,6.1,1.9,7.3,0.7c2.2-2.1,3.1-6,0.7-8.5l-33.3-34.9c-1.1-1.1-1-2.9,0.1-4c1.1-1.1,2.9-1,4,0.1l33.3,34.9
		c4.8,5,3.3,12.5-0.8,16.4C122,157.6,119.5,158.7,116.7,158.7z"/>
</g>
<g>
	<path d="M104.1,170.5c-2.7,0-5.3-1-7.5-3.2l-17.2-17.6c-1.1-1.1-1.1-2.9,0.1-4c1.1-1.1,2.9-1.1,4,0.1l17.2,17.6
		c2.6,2.7,6.4,1.3,8.3-0.6c1.2-1.1,3.4-4.1-0.2-7.9l-16.8-17.3c-1.1-1.1-1-2.9,0.1-4c1.1-1.1,2.9-1.1,4,0.1l16.8,17.3
		c5.5,5.7,3.9,12.2,0.1,15.8C110.5,169.1,107.3,170.5,104.1,170.5z"/>
</g>
<g>
	<path d="M90.3,181c-2.7,0-5.4-1-7.6-3.2l-8.6-8.7c-1.1-1.1-1.1-2.9,0-4c1.1-1.1,2.9-1.1,4,0l8.6,8.7c2.6,2.6,6.4,1.4,8.2-0.4
		c1.1-1.1,3.2-4-0.4-7.8c-1.1-1.1-1-2.9,0.1-4c1.1-1.1,2.9-1,4,0.1c5.4,5.7,4.1,12,0.3,15.7C96.6,179.7,93.5,181,90.3,181z"/>
</g>
<g>
	<path d="M25,157.1c-2.9,0-5.6-1.1-7.6-3.1l-0.9-0.9c-2-2-3.1-4.7-3.1-7.6c0-2.9,1.1-5.6,3.1-7.6l11.9-11.9c4.1-4.1,11.2-4.1,15.2,0
		l0.9,0.9c2,2,3.1,4.7,3.1,7.6c0,2.9-1.1,5.6-3.1,7.6l-11.9,11.9C30.6,155.9,27.9,157.1,25,157.1z M36,128.3c-1.4,0-2.7,0.5-3.7,1.5
		l-11.9,11.9c-1,1-1.5,2.3-1.5,3.7c0,1.4,0.5,2.7,1.5,3.7l0.9,0.9c1.9,1.9,5.4,1.9,7.3,0l11.9-11.9c1-1,1.5-2.3,1.5-3.7
		c0-1.4-0.5-2.7-1.5-3.7l-0.9-0.9C38.7,128.9,37.4,128.3,36,128.3z"/>
</g>
<g>
	<path d="M38,169.5c-2.9,0-5.6-1.1-7.6-3.1l-0.9-0.9c-2-2-3.1-4.7-3.1-7.6c0-2.9,1.1-5.6,3.1-7.6l18.9-18.9c4.1-4.1,11.2-4.1,15.2,0
		l0.9,0.9c2,2,3.1,4.7,3.1,7.6c0,2.9-1.1,5.6-3.1,7.6l-18.9,18.9C43.6,168.4,40.8,169.5,38,169.5z M56,133.8c-1.4,0-2.7,0.5-3.7,1.5
		l-18.9,18.9c-1,1-1.5,2.3-1.5,3.7c0,1.4,0.5,2.7,1.5,3.7l0.9,0.9c1.9,1.9,5.4,1.9,7.3,0l18.9-18.9c1-1,1.5-2.3,1.5-3.7
		s-0.5-2.7-1.5-3.7l-0.9-0.9C58.6,134.3,57.3,133.8,56,133.8z"/>
</g>
<g>
	<path d="M51.6,181.3c-2.9,0-5.6-1.1-7.6-3.1l-0.9-0.9c-4.2-4.2-4.2-11,0-15.2l13-13c4.1-4.1,11.2-4.1,15.2,0l0.9,0.9
		c2,2,3.1,4.7,3.1,7.6c0,2.9-1.1,5.6-3.1,7.6l-13,13C57.2,180.1,54.5,181.3,51.6,181.3z M63.7,151.4c-1.4,0-2.7,0.5-3.7,1.5l-13,13
		c-2,2-2,5.3,0,7.3l0.9,0.9c1.9,1.9,5.4,1.9,7.3,0l13-13c1-1,1.5-2.3,1.5-3.7c0-1.4-0.5-2.7-1.5-3.7l-0.9-0.9
		C66.4,152,65.1,151.4,63.7,151.4z"/>
</g>
<g>
	<path d="M65,193.1c-2.9,0-5.6-1.1-7.6-3.1l-0.9-0.9c-4.2-4.2-4.2-11,0-15.2l8-8c4.1-4.1,11.2-4.1,15.2,0l0.9,0.9
		c4.2,4.2,4.2,11,0,15.2l-8,8C70.6,192,67.9,193.1,65,193.1z M72,168.3c-1.4,0-2.7,0.5-3.7,1.5l-8,8c-2,2-2,5.3,0,7.3l0.9,0.9
		c1.9,1.9,5.4,1.9,7.3,0l8-8c2-2,2-5.3,0-7.3l-0.9-0.9C74.7,168.8,73.4,168.3,72,168.3z"/>
</g>
</svg>
