<?xml version="1.0" encoding="utf-8"?>
<!-- Generator: Adobe Illustrator 17.1.0, SVG Export Plug-In . SVG Version: 6.00 Build 0)  -->
<!DOCTYPE svg PUBLIC "-//W3C//DTD SVG 1.1//EN" "http://www.w3.org/Graphics/SVG/1.1/DTD/svg11.dtd">
<svg version="1.1" id="Layer_1" xmlns="http://www.w3.org/2000/svg" xmlns:xlink="http://www.w3.org/1999/xlink" x="0px" y="0px"
	 width="141.7px" height="255.1px" viewBox="0 0 141.7 255.1" style="enable-background:new 0 0 141.7 255.1;" xml:space="preserve"
	>
<title>05_calend_icon_192</title>
<g>
	<path style="fill:#334D5E;" d="M80.8,192c-1.5,0-2.7-1.1-3-2.6c-0.2-1.6,0.9-3.2,2.5-3.4c6.9-1,16.4-3.6,22.6-9.8
		c7.5-7.5,12.7-19.8,12.7-30v-39.4c0-9.9-4.9-21-12.7-28.8c-7.8-7.8-18.9-12.7-28.8-12.7h-5.8c-9.9,0-21,4.9-28.8,12.7
		c-7.8,7.8-12.7,18.9-12.7,28.8v39.4c0,1.7-1.3,3-3,3s-3-1.3-3-3v-39.4c0-11.5,5.5-24.1,14.5-33c8.9-8.9,21.6-14.5,33-14.5h5.8
		c11.5,0,24.1,5.5,33,14.5c8.9,8.9,14.4,21.6,14.4,33v39.4c0,11.8-5.8,25.6-14.4,34.3c-5.8,5.9-14.8,9.8-26,11.5
		C81.1,192,81,192,80.8,192z"/>
</g>
<g>
	<path style="fill:#334D5E;" d="M87.7,124c-3.3,0-6-2.7-6-6c0-3.3,2.7-6,6-6c3.3,0,6,2.7,6,6C93.8,121.2,91.1,124,87.7,124z
		 M54.9,124c-3.3,0-6-2.7-6-6c0-3.3,2.7-6,6-6c3.3,0,6,2.7,6,6C60.9,121.2,58.2,124,54.9,124z"/>
</g>
<g>
	<path style="fill:#334D5E;" d="M71.2,158.3c-10.1,0-18.8-5.7-21.1-13.8c-0.4-1.6,0.5-3.2,2.1-3.7c1.6-0.5,3.2,0.5,3.7,2.1
		c1.5,5.5,8,9.4,15.3,9.4s13.8-4,15.3-9.4c0.4-1.6,2.1-2.5,3.7-2.1c1.6,0.4,2.5,2.1,2.1,3.7C90,152.7,81.3,158.3,71.2,158.3z
		 M119.9,149.9c-1.5,0-2.9-1.2-3-2.8c-0.1-1.6,1.1-3.1,2.8-3.2c9.4-0.7,16.8-9.3,16.8-19.5c0-10.2-7.4-18.7-16.8-19.5
		c-1.6-0.1-2.9-1.6-2.8-3.2c0.1-1.6,1.6-2.9,3.2-2.8c12.5,1,22.3,12.1,22.3,25.4s-9.8,24.5-22.3,25.4
		C120.1,149.9,120,149.9,119.9,149.9z M22.5,149.9c-0.1,0-0.2,0-0.2,0C9.8,148.9,0,137.8,0,124.5S9.8,100,22.3,99.1
		c1.6-0.1,3.1,1.1,3.2,2.8c0.1,1.6-1.1,3.1-2.8,3.2C13.3,105.7,6,114.3,6,124.5c0,10.2,7.4,18.7,16.8,19.5c1.6,0.1,2.9,1.6,2.8,3.2
		C25.4,148.7,24.1,149.9,22.5,149.9z"/>
</g>
<g>
	<path style="fill:#334D5E;" d="M71.2,201.7c-6.9,0-12.5-5.6-12.5-12.5s5.6-12.5,12.5-12.5c6.9,0,12.5,5.6,12.5,12.5
		S78.1,201.7,71.2,201.7z M71.2,182.6c-3.6,0-6.5,2.9-6.5,6.5s2.9,6.5,6.5,6.5c3.6,0,6.6-2.9,6.6-6.5S74.9,182.6,71.2,182.6z"/>
</g>
<g>
	<path style="fill:#334D5E;" d="M23.1,106.2c-1.4,0-2.6-1-2.9-2.4c-0.3-1.6,0.7-3.2,2.3-3.5c12.9-2.6,24-10.8,30.3-22.5
		c0.5-0.8,1.3-1.4,2.2-1.5c0.9-0.1,1.9,0.2,2.6,0.9c8.5,8.8,19.9,13.6,32.1,13.6c7.7,0,15.3-2,22-5.8c1.4-0.8,3.3-0.3,4.1,1.1
		c0.8,1.4,0.3,3.3-1.1,4.1c-7.6,4.3-16.2,6.6-24.9,6.6c-12.5,0-24.3-4.5-33.6-12.7c-7.4,11.4-19,19.4-32.4,22.2
		C23.5,106.2,23.3,106.2,23.1,106.2z"/>
</g>
</svg>
