<?xml version="1.0" encoding="utf-8"?>
<!-- Generator: Adobe Illustrator 17.1.0, SVG Export Plug-In . SVG Version: 6.00 Build 0)  -->
<!DOCTYPE svg PUBLIC "-//W3C//DTD SVG 1.1//EN" "http://www.w3.org/Graphics/SVG/1.1/DTD/svg11.dtd">
<svg version="1.1" id="Layer_1" xmlns="http://www.w3.org/2000/svg" xmlns:xlink="http://www.w3.org/1999/xlink" x="0px" y="0px"
	 width="141.7px" height="255.1px" viewBox="0 0 141.7 255.1" style="enable-background:new 0 0 141.7 255.1;" xml:space="preserve"
	>
<title>05_calend_icon_192</title>
<g>
	<g>
		<path style="fill:#334D5E;" d="M71.1,161.1C71.1,161.1,71.1,161.1,71.1,161.1c-1.2,0-2.3-0.7-2.8-1.8l-8.7-20
			c-0.5-1.2-0.2-2.6,0.8-3.5c0.1-0.1,0.3-0.2,0.4-0.4c1.5-1.7,1.5-3.7,1.4-4.5c-0.1-1.7,1.1-3.1,2.8-3.3c1.6-0.1,3.1,1.1,3.3,2.8
			c0.3,3-0.6,6-2.3,8.3l5.2,12.1l5.6-11.8c-2.3-3-2.3-7-2.2-8.6c0.1-1.7,1.6-2.9,3.2-2.8c1.7,0.1,2.9,1.6,2.8,3.2
			c-0.1,1.4,0.1,3.5,1.1,4.6c0.2,0.2,0.4,0.3,0.6,0.5c1.1,0.9,1.5,2.4,0.9,3.7l-9.3,19.7C73.3,160.4,72.3,161.1,71.1,161.1z"/>
	</g>
	<g>
		<path style="fill:#334D5E;" d="M100.4,170.7c-0.2,0-0.4,0-0.6-0.1c-1.6-0.3-2.7-1.9-2.4-3.5c2.9-15,0.7-20.9-17.8-25.8
			c-1.6-0.4-2.6-2.1-2.1-3.7c0.4-1.6,2.1-2.6,3.7-2.1c20.5,5.5,25.8,13.5,22.2,32.8C103.1,169.6,101.9,170.7,100.4,170.7z"/>
	</g>
	<g>
		<path style="fill:#334D5E;" d="M42.2,170.7c-1.4,0-2.6-0.9-2.9-2.3c-4.2-17.5-0.8-24.6,14.5-30.3l7.6-2.8c1.6-0.6,3.3,0.2,3.9,1.8
			c0.6,1.6-0.2,3.3-1.8,3.9l-7.6,2.8c-11.8,4.4-14.5,7.8-10.7,23.2c0.4,1.6-0.6,3.3-2.2,3.7C42.6,170.6,42.4,170.7,42.2,170.7z"/>
	</g>
	<g>
		<path style="fill:#334D5E;" d="M72.3,135.2c-9.1,0-16.5-8.1-16.5-18.1c0-7.7,0-16.5,10.7-16.5c5.5,0,10.7-1.2,11.8-2.8
			c0.5-0.8,1.3-1.2,2.2-1.3c1-0.1,1.8,0.3,2.4,0.9c3.4,3.6,5.6,12.8,5.6,17.6C88.6,124.6,81.9,135.2,72.3,135.2z M80.1,104
			c-4.3,2.4-10.6,2.7-13.6,2.7c-3.9,0-4.7,0.8-4.7,10.5c0,6.6,4.7,12,10.4,12c5.2,0,10.3-7,10.3-14.2C82.6,111.8,81.4,107,80.1,104z
			"/>
	</g>
	<g>
		<path style="fill:#334D5E;" d="M94,145.5c-0.7,0-1.4-0.2-2-0.7c-1.3-1.1-1.4-3-0.3-4.3c2.2-2.6,2-5.1,1.3-10.1
			c-0.3-2.3-0.7-5-0.7-8c0-9.6,0-21.5-6.1-27.3c-3.2-3-7.9-4.3-14.3-4c-20,1-20.9,9.9-20.9,27c0,10,0.2,17.4,2.9,21
			c1,1.3,0.8,3.2-0.6,4.2c-1.3,1-3.2,0.8-4.2-0.6c-3.9-5.1-4.2-13.1-4.2-24.6c0-15.6,0-31.8,26.7-33.1c8.1-0.4,14.4,1.5,18.8,5.7
			c8,7.6,8,20.9,8,31.6c0,2.6,0.3,4.9,0.6,7.1c0.7,5.2,1.4,10.1-2.7,14.9C95.7,145.1,94.8,145.5,94,145.5z"/>
	</g>
</g>
<g>
	<path style="fill:#334D5E;" d="M139,170.8H3c-1.7,0-3-1.4-3-3v-95c0-1.7,1.4-3,3-3h136c1.7,0,3,1.4,3,3v95
		C142,169.5,140.7,170.8,139,170.8z M6.1,164.8H136v-89H6.1V164.8z"/>
</g>
<g>
	<path style="fill:#334D5E;" d="M104.2,194.4H40.3c-1.7,0-3-1.4-3-3s1.4-3,3-3h63.9c1.7,0,3,1.4,3,3S105.8,194.4,104.2,194.4z"/>
</g>
<g>
	<path style="fill:#334D5E;" d="M56.1,191.2c-1.7,0-3-1.4-3-3v-18.9c0-1.7,1.4-3,3-3s3,1.4,3,3v18.9
		C59.1,189.8,57.8,191.2,56.1,191.2z"/>
</g>
<g>
	<path style="fill:#334D5E;" d="M88.3,191.2c-1.7,0-3-1.4-3-3v-18.9c0-1.7,1.4-3,3-3s3,1.4,3,3v18.9C91.3,189.8,90,191.2,88.3,191.2
		z"/>
</g>
</svg>
