<?xml version="1.0" encoding="utf-8"?>
<!-- Generator: Adobe Illustrator 17.1.0, SVG Export Plug-In . SVG Version: 6.00 Build 0)  -->
<!DOCTYPE svg PUBLIC "-//W3C//DTD SVG 1.1//EN" "http://www.w3.org/Graphics/SVG/1.1/DTD/svg11.dtd">
<svg version="1.1" id="Слой_1" xmlns="http://www.w3.org/2000/svg" xmlns:xlink="http://www.w3.org/1999/xlink" x="0px" y="0px"
	 width="192px" height="192px" viewBox="0 0 192 192" style="enable-background:new 0 0 192 192;" xml:space="preserve">
<title>04_yt_icon_192</title>
<rect y="0" style="display:none;fill:#3E5C9A;" width="192" height="192"/>
<path style="display:none;fill:#FFFFFF;" d="M115.1,83.7h-14V73.4c0-3.1,3.2-3.9,4.8-3.9h9V55.7h-10.3c-14.2,0-17.4,10.3-17.4,16.9
	v11.1H76.9v14.2h10.3v38.4h13.9V97.9h11.8L115.1,83.7z"/>
<rect y="0" style="display:none;fill:#32CCFE;" width="192" height="192"/>
<rect y="0" style="display:none;fill:#E5322E;" width="192" height="192"/>
<path style="fill:#160C18;" d="M119.2,67.6H72.5c-15.2,0-16.6,12.6-16.6,28.1l0,0c0,15.5,1.7,28.1,16.9,28.1h46.7
	c15.2,0,16.6-12.6,16.6-28.1l0,0C136.1,80.2,134.4,67.6,119.2,67.6z M87.9,110.9V80.5L111,95.7L87.9,110.9z"/>
</svg>
