<svg id="Layer_1" xmlns="http://www.w3.org/2000/svg" viewBox="0 0 23.1 23.1"><style>.st0{fill:#000}</style><path class="arrow-bg" d="M11.5 1.5c-5.5 0-10 4.5-10 10s4.5 10 10 10 10-4.5 10-10c.1-5.5-4.4-10-10-10zM17 13.2L12.2 18c-.2.2-.4.3-.6.2-.2 0-.5-.1-.6-.2l-4.8-4.8c-.3-.3-.3-.9 0-1.2.3-.3.9-.3 1.2 0l3.4 3.4V5.7c0-.5.4-.9.9-.9s.9.4.9.9v9.6l3.4-3.4c.3-.3.9-.3 1.2 0 .1.4.1.9-.2 1.3z"/><path class="arrow-border" d="M15.8 11.9l-3.4 3.4V5.7c0-.5-.4-.9-.9-.9s-.9.4-.9.9v9.6l-3.4-3.4c-.3-.3-.9-.3-1.2 0-.3.3-.3.9 0 1.2l4.8 4.8c.2.2.4.3.6.2.2 0 .5-.1.6-.2l4.8-4.9c.3-.3.3-.9 0-1.2-.1-.2-.7-.2-1 .1z"/><path class="arrow" d="M11.5 0C5.2 0 0 5.2 0 11.5 0 17.9 5.2 23 11.5 23S23 17.8 23 11.5C23.1 5.2 17.9 0 11.5 0zm0 21.6c-5.5 0-10-4.5-10-10s4.5-10 10-10 10 4.5 10 10c.1 5.5-4.4 10-10 10z"/></svg>