<svg id="Layer_1" xmlns="http://www.w3.org/2000/svg" viewBox="0 0 140 140"><style>.st0{fill:#fff}.st1{fill:url(#SVGID_1_)}.st2{fill:url(#SVGID_2_)}.st3{fill:url(#SVGID_3_)}.st4{fill:url(#SVGID_4_)}.st5{fill:url(#SVGID_5_)}</style><path class="st0" d="M76.5 91.4c-.2 1.1-.4 2.1-.6 3.2 0 .1-.3.4-.4.4-1.1 0-2.2.1-3.2-.1-.9-.1-1.6-.7-1.9-1.8-.7 1-1.6 1.7-2.7 2-2.4.6-4.6-.5-5.4-2.8-1.3-3.7.3-8.5 4.7-9.7 1.6-.5 3.3-.6 4.8.7.1-.6.2-1.2.4-1.9h-1.5c.2-1.1.4-2.2.6-3.2 0-.2.3-.4.5-.4h6.1c-.2 1-.3 1.8-.5 2.7-.6 3.2-1.2 6.4-1.9 9.6-.4.9-.1 1.2 1 1.3zm-7.2-5c-1 0-1.7.6-2.1 1.4-.4.9-.6 1.8 0 2.7.3.5.8.6 1.3.5 1.8-.3 2.7-2.3 2.1-3.8-.2-.5-.7-.9-1.3-.8zM45.4 86h.4c1 0 1.1.1.9 1.1l-.6 3-.9 4.8h5c.3-1.3.5-2.6.8-3.9.3-1.1.6-2.2 1.1-3.2.2-.5.9-.8 1.4-1 .8-.2 1.2.2 1.1 1-.2 1.3-.5 2.6-.6 4-.1 1.6.5 2.6 1.8 3 1.3.4 2.6.3 3.9.2.2-1.2.4-2.3.7-3.4-1.3-.2-1.3-.3-1.2-1.5.2-1.2.4-2.3.6-3.5.4-2.1-.8-3.9-2.8-4.2-1.4-.2-2.8.1-3.9 1-.4.3-.7.6-1.1 1 0-1.3-.3-1.8-1.2-1.8H46c-.2 1.1-.4 2.2-.6 3.4zm-4.6-3c2.7 1.3 3.7 4.3 2.5 7.3-1.7 4.3-7.6 6.2-11.5 3.8-2.1-1.3-3-3.8-2.3-6.4.9-3.3 4-5.5 7.8-5.5.1-.1 2.4.3 3.5.8zm-2.1 5.2c0-1.5-1-2.2-2.4-1.8-1.3.4-2.3 2.1-1.9 3.5.2.7.6 1 1.3 1.1 1.7.2 3-1 3-2.8zM83 89.4c0 1.2.8 1.8 2.1 1.6.9-.2 1.8-.5 2.6-.8.2-.1.5-.2.7-.3l1.2 3.3c0 .1-.1.4-.2.4-2.4 1.5-6.4 2.1-9 .4-1.9-1.3-2.6-3.2-2.4-5.4.4-4.6 4.9-7.6 9.4-6.2 3.1 1 3.8 4 2.9 6.6-.1.2-.4.3-.6.3h-5.8c-.3.1-.6.1-.9.1zm.5-2.2h2.2c.3-.9 0-1.5-.5-1.7-.8-.1-1.4.5-1.7 1.7zM26.7 86h2.4c.2-1.2.4-2.3.7-3.5h-2.4c.4-1.8 1.8-1 2.8-1.3.2-1.2.5-2.5.7-3.8-2-.1-3.8-.1-5.5.7-1.8.9-2.7 2.4-3 4.4h-1.5c-.2 1.2-.4 2.3-.7 3.5h1.5c-.6 3-1.1 5.9-1.7 8.8h5c.6-2.9 1.1-5.9 1.7-8.8z"/><linearGradient id="SVGID_1_" gradientUnits="userSpaceOnUse" x1="90.704" y1="88.59" x2="117.572" y2="88.59"><stop offset="0" stop-color="#88d1cf"/><stop offset=".118" stop-color="#50b6bf"/><stop offset=".23" stop-color="#0ea5b5"/><stop offset=".328" stop-color="#009baf"/><stop offset=".403" stop-color="#0098ac"/><stop offset=".572" stop-color="#36adba"/><stop offset=".742" stop-color="#65bfc4"/><stop offset=".89" stop-color="#7ecbcb"/><stop offset="1" stop-color="#88d1cf"/></linearGradient><path class="st1" d="M114.3 90.6l-3.9-7.6c-.2-.5-.7-.8-1.3-.8h-5.9c-.4 0-.8.2-1.1.5l-7.8 8.2c-.3.3-.7.5-1.1.5h-1.4c-.3 0-.5.2-.5.4l-.6 3.2h4.2c.4 0 .8-.2 1.1-.5l7.8-8.2c.3-.3.7-.5 1.1-.5h2.2c.5 0 1.1.3 1.3.8l3.8 7.6c.2.5.8.8 1.3.8h3.6l.6-3c.1-.4-.2-.7-.6-.7h-1.4c-.7 0-1.2-.3-1.4-.7z"/><linearGradient id="SVGID_2_" gradientUnits="userSpaceOnUse" x1="96.773" y1="88.132" x2="101.573" y2="88.132"><stop offset="0" stop-color="#3a7289"/><stop offset="1" stop-color="#123d4c"/></linearGradient><path class="st2" d="M99.6 90.6l1.9-2-2.3-2.8-2.5 2.6c1.6.1 2.5 1 2.9 2.2z"/><linearGradient id="SVGID_3_" gradientUnits="userSpaceOnUse" x1="110.369" y1="76.867" x2="99.957" y2="94.899"><stop offset="0" stop-color="#88d1cf"/><stop offset=".11" stop-color="#7ecbcb"/><stop offset=".258" stop-color="#65bfc4"/><stop offset=".428" stop-color="#36adba"/><stop offset=".597" stop-color="#0098ac"/><stop offset=".672" stop-color="#009baf"/><stop offset=".77" stop-color="#0ea5b5"/><stop offset=".881" stop-color="#50b6bf"/><stop offset="1" stop-color="#88d1cf"/></linearGradient><path class="st3" d="M114.9 82.6l-7.8 8.2c-.3.3-.7.5-1.1.5h-3.4c-.5 0-1.1-.3-1.3-.8L97.6 83c-.2-.5-.8-.8-1.3-.8H94c-.2 0-.4.2-.5.4l-.6 3.2h1.2c.5 0 1.1.3 1.3.8l3.8 7.6c.2.5.8.8 1.3.8h7.2c.4 0 .8-.2 1.1-.5l7.8-8.2c.3-.3.7-.5 1.1-.5h.9c.2 0 .5-.2.5-.4l.6-3.2H116c-.4 0-.8.2-1.1.4z"/><linearGradient id="SVGID_4_" gradientUnits="userSpaceOnUse" x1="110.72" y1="87.889" x2="114.35" y2="87.889"><stop offset="0" stop-color="#3a7289"/><stop offset="1" stop-color="#123d4c"/></linearGradient><path class="st4" d="M112.1 85.7l-1.4 1.4c1.2.5 2.1 1.6 2.2 3l1.4-1.5-2.2-2.9z"/><linearGradient id="SVGID_5_" gradientUnits="userSpaceOnUse" x1="91.432" y1="89.244" x2="117.696" y2="89.244"><stop offset="0" stop-color="#0098ac"/><stop offset="1" stop-color="#88d1cf"/></linearGradient><path class="st5" d="M111.9 91.9c.4-.8 1.3-1.4 2.2-1.7l-2.5-4.8c-.5 1.2-1.6 2.2-2.8 2.5l2.6 5.1c.1-.4.3-.8.5-1.1z"/></svg>