<svg xmlns="http://www.w3.org/2000/svg"><symbol viewBox="0 0 141.7 255.1" id="icon-ar_down"><title>ar_down</title><path d="M141.8 104.7l-17.5-17.6-53.4 53.4-53.4-53.4L0 104.6l71 71L88.5 158z"/></symbol><symbol viewBox="0 0 141.7 255.1" id="icon-ask"><title>ask</title><path d="M129.3 111.3h-.3c-2.8-31.2-29.1-55.7-61-55.7-33.8 0-61.3 27.5-61.3 61.3v7.6c-3.4 4-5.6 9.3-5.6 14.7 0 8.8 5.3 16.7 13.1 20.3 6.5 24 28.7 41.1 53.8 41.1 17.6 0 34-8.3 44.6-22.3h.1c10.8 0 19.9-7.8 21.9-18 3.6-1.9 6-5.6 6-9.9v-27.9c-.1-6.2-5.1-11.2-11.3-11.2zm0 39.1h-5.6v-27.9h5.6v27.9zM68 66.7c24.4 0 44.8 17.5 49.3 40.7-2.7-1.1-5.8-1.6-8.3-1.9-9.6-1.3-18.6-2.6-18.6-22H79.1c0 7.5-1.7 12.8-5.1 16.2-6.2 6.2-18 6.1-29.5 6.1-10.3 0-20-.1-26.3 4.7C21.4 85.8 42.5 66.7 68 66.7zm44.6 100.4H78.7c-1.1-3.2-4.2-5.6-7.9-5.6-4.6 0-8.4 3.7-8.4 8.4s3.7 8.4 8.4 8.4h26.7c-8.1 7.1-18.5 11.2-29.5 11.2-20.9 0-39.3-14.8-43.6-35.3l-.7-3.3-3.3-.9c-4.8-1.3-8.2-5.7-8.2-10.7 0-5 3.7-9.4 7-10.3l4.1-1.1v-4.3c0-2.4.7-3.4 1.2-3.9 2.8-2.8 11.9-2.8 19.9-2.8 13.1.1 28 .1 37.5-9.3.9-.9 1.7-1.8 2.4-2.8 6.2 9.4 16.5 10.9 23 11.8 1.7.2 4.1.6 5.2 1v44h9.6c-1.8 3.3-5.4 5.5-9.5 5.5z"/><circle cx="87.5" cy="136.4" r="8.4"/><circle cx="48.5" cy="136.4" r="8.4"/></symbol><symbol viewBox="0 0 141.7 255.1" id="icon-calendar"><title>calendar</title><path d="M132.9 105.6v79.2H8.9v-79.2h124m8.8-8.9H0v96.8h141.7V96.7z"/><path d="M132.9 79.1v17.6H8.9V79.1h124m8.8-8.8H0v35.2h141.7V70.3z"/><path d="M106.3 61.5h11.9v26.4h-11.9zM24.1 61.5h11.4v26.4H24.1zM41.5 139.4H53V151H41.5zM19.3 139.4h11.5V151H19.3zM19.3 116.2h11.5v11.6H19.3zM41.5 116.2H53v11.6H41.5zM88 139.4h11.5V151H88zM65 139.4h11.5V151H65zM65 116.2h11.5v11.6H65zM88 116.2h11.5v11.6H88zM110.9 139.4h11.5V151h-11.5zM110.9 116.2h11.5v11.6h-11.5zM19.3 162.6h11.5v11.6H19.3zM41.5 162.6H53v11.6H41.5zM65 162.6h11.5v11.6H65z"/></symbol><symbol viewBox="0 0 141.7 255.1" id="icon-callus"><title>callus</title><path d="M95.2 158.5c-2.4 0-10.4 9.7-12.6 10.7-2.2 1.1-15.7.7-30.8-14.4-15.1-15.1-20.3-32.5-20.3-35.2 0-2.7 12.6-11.2 13-13.2.3-2-16.6-31.4-19.4-31.4-2.8 0-23.7 25.4-23.7 27.5s1.9 29.4 36.4 63.9C72.3 201 95.1 199 97.8 199c2.8 0 27.5-18.3 27.5-20.7.1-2.3-27.7-19.8-30.1-19.8zM109.9 77.3H83.5l17-17-8.2-8.3-31 31.1 31.1 31.1 8.2-8.2-17-17H110c11.7 0 21.1 9.5 21.1 21.1s-9.5 21.1-21.1 21.1h-6.7v11.6h6.7c18.1 0 32.8-14.7 32.8-32.8S128 77.3 109.9 77.3z"/></symbol><symbol viewBox="0 0 141.7 255.1" id="icon-checkmark"><title>checkmark</title><path d="M121.5 66.8l-8.1 10.1-64.8 70.9-20.2-20.2-10.1-10.1L0 137.7l10.1 10.1 28.3 30.4 10.1 10.1 10.1-10.1 74.9-81 8.1-12.1-20.1-18.3z"/></symbol><symbol viewBox="0 0 141.7 255.1" id="icon-circle_ok"><title>circle_ok</title><path d="M64.5 154.3l-25.8-25.7 10.1-10.1 15.7 15.8L95.8 103l10 10z"/><path d="M70.9 198.4C31.7 198.4 0 166.7 0 127.6c0-39.1 31.7-70.9 70.9-70.9 39.1 0 70.9 31.7 70.9 70.9-.1 39.1-31.8 70.8-70.9 70.8zm0-127.5c-31.3 0-56.7 25.4-56.7 56.7s25.4 56.7 56.7 56.7 56.7-25.4 56.7-56.7c-.1-31.3-25.4-56.7-56.7-56.7z"/></symbol><symbol viewBox="0 0 141.7 255.1" id="icon-circle_ok_filled"><title>circle_ok_filled</title><path d="M70.9 56.7C31.7 56.7 0 88.5 0 127.6c0 39.1 31.7 70.8 70.9 70.8 39.1 0 70.8-31.7 70.9-70.8 0-39.2-31.8-70.9-70.9-70.9zm-6.4 97.6l-25.8-25.7 10.1-10.1 15.7 15.8L95.8 103l10 10-41.3 41.3z"/></symbol><symbol viewBox="0 0 141.7 255.1" id="icon-circle_question"><title>circle_question</title><path d="M64.1 151.9h13.6v13.6H64.1zM78 142.8H63.8V125h7.1c4.9 0 8.9-4 8.9-8.9s-4-8.9-8.9-8.9-8.9 4-8.9 8.9H47.8c0-12.7 10.3-23 23-23s23 10.3 23 23c0 10-6.4 18.8-15.9 21.9v4.8h.1z"/><path d="M70.9 198.4C31.7 198.4 0 166.7 0 127.6c0-39.1 31.7-70.9 70.9-70.9 39.1 0 70.9 31.7 70.9 70.9-.1 39.1-31.8 70.8-70.9 70.8zm0-127.5c-31.3 0-56.7 25.4-56.7 56.7s25.4 56.7 56.7 56.7 56.7-25.4 56.7-56.7c-.1-31.3-25.4-56.7-56.7-56.7z"/></symbol><symbol viewBox="0 0 141.7 255.1" id="icon-clock"><title>clock</title><path d="M70.5 65.1c33.4 0 60.4 27.1 60.4 60.4 0 33.4-27.1 60.4-60.4 60.4s-60.4-27.1-60.4-60.4c0-33.4 27-60.4 60.4-60.4m0-10.1C31.6 55 0 86.6 0 125.5S31.6 196 70.5 196s70.5-31.6 70.5-70.5S109.4 55 70.5 55z"/><path d="M70.5 65.1z"/><path d="M67 91.9h6.9v26.9H67zM107.982 143.536l-3.496 5.95-28.625-16.82 3.496-5.949z"/><circle cx="70.5" cy="125.5" r="13.4"/><circle cx="70.5" cy="125.5" r="6.7"/><circle cx="70.5" cy="125.5" r="3.5"/><circle cx="70.5" cy="75.1" r="3.4"/><circle cx="45.3" cy="81.9" r="3.4"/><circle cx="26.9" cy="100.3" r="3.4"/><circle cx="20.1" cy="125.5" r="3.4"/><circle cx="26.9" cy="150.7" r="3.4"/><path d="M47 166.2c1.6.9 2.2 3 1.2 4.6-.9 1.6-3 2.2-4.6 1.2-1.6-.9-2.2-3-1.2-4.6 1-1.6 3-2.1 4.6-1.2z"/><circle cx="70.5" cy="175.9" r="3.4"/><path d="M94 166.2c1.6-.9 3.6-.4 4.6 1.2.9 1.6.4 3.7-1.2 4.6-1.6.9-3.7.4-4.6-1.2-1-1.6-.4-3.6 1.2-4.6zM111.2 149c.9-1.6 3-2.2 4.6-1.2 1.6.9 2.2 3 1.2 4.6-.9 1.6-3 2.2-4.6 1.2-1.5-.9-2.1-3-1.2-4.6z"/><circle cx="120.9" cy="125.5" r="3.4"/><path d="M111.2 102c-.9-1.6-.4-3.7 1.2-4.6 1.6-.9 3.7-.4 4.6 1.2.9 1.6.4 3.6-1.2 4.6-1.6 1-3.6.4-4.6-1.2zM94 84.8c-1.6-.9-2.2-3-1.3-4.6.9-1.6 3-2.2 4.6-1.3 1.6.9 2.2 3 1.3 4.6-.9 1.6-3 2.2-4.6 1.3z"/></symbol><symbol viewBox="0 0 192 192" id="icon-facebook"><title>facebook</title><path d="M115.1 83.7h-14V73.4c0-3.1 3.2-3.9 4.8-3.9h9V55.7h-10.3c-14.2 0-17.4 10.3-17.4 16.9v11.1H76.9v14.2h10.3v38.4h13.9V97.9h11.8l2.2-14.2z"/></symbol><symbol viewBox="0 0 141.7 255.1" id="icon-faq"><title>faq</title><path d="M71.7 196.7c-26.3 0-49.5-17.9-56.3-43-8.2-3.7-13.7-12-13.7-21.2 0-8.4 4.6-16.1 11.7-20.2 1.4-31 27-55.7 58.3-55.7s56.9 24.8 58.3 55.7c7.2 4.1 11.7 11.8 11.7 20.2 0 9.2-5.5 17.5-13.7 21.2-6.8 25.1-30 43-56.3 43zm0-128.4C46 68.3 25 89.2 25 115v5.2l-3.9 1.4c-4.7 1.7-7.8 6.1-7.8 10.9 0 5.2 3.5 9.8 8.6 11.2l3.4 1 .7 3.5c4.6 21.4 23.8 37 45.7 37s41.1-15.5 45.7-37l.7-3.5 3.4-1c5-1.4 8.6-6 8.6-11.2 0-4.9-3.1-9.3-7.8-10.9l-3.9-1.4V115c0-25.8-20.9-46.7-46.7-46.7z"/><path d="M65.9 150h11.7v11.7H65.9zM77.6 144.2H65.9v-17.5h5.8c6.4 0 11.7-5.2 11.7-11.7 0-6.4-5.2-11.7-11.7-11.7S60 108.5 60 115H48.4c0-12.9 10.5-23.4 23.4-23.4s23.4 10.5 23.4 23.4c0 10.9-7.5 20-17.5 22.6v6.6z"/></symbol><symbol viewBox="0 0 141.7 255.1" id="icon-gear"><title>gear</title><path d="M133.8 137.8l-7.8-3.2c.5-3 .8-6.1.8-9.3 0-3.2-.3-6.2-.8-9.3l7.8-3.2c6.3-2.6 9.3-9.9 6.7-16.2-2.6-6.3-9.9-9.3-16.2-6.7l-7.8 3.2c-3.6-5.1-8-9.5-13.1-13.1l3.2-7.8c2.6-6.3-.4-13.6-6.7-16.2-6.4-2.6-13.6.4-16.2 6.7l-3.2 7.8c-3-.5-6.1-.8-9.3-.8-3.2 0-6.2.3-9.3.8l-3.2-7.8c-2.6-6.3-9.9-9.4-16.2-6.7-6.3 2.6-9.3 9.9-6.7 16.2L39 80c-5.1 3.6-9.5 8-13.1 13.1L18 89.8c-6.4-2.6-13.6.4-16.2 6.7-2.6 6.3.4 13.6 6.7 16.2l7.8 3.2c-.5 3-.8 6.1-.8 9.3 0 3.2.3 6.2.8 9.3l-7.8 3.2c-6.3 2.6-9.3 9.9-6.7 16.2 2 4.8 6.6 7.7 11.5 7.7 1.6 0 3.2-.3 4.7-.9l7.8-3.2c3.6 5.1 8 9.5 13.1 13.1l-3.2 7.8c-2.6 6.3.4 13.6 6.7 16.2 1.6.6 3.2.9 4.7.9 4.9 0 9.5-2.9 11.5-7.7l3.2-7.8c3 .5 6.1.8 9.3.8 3.2 0 6.2-.3 9.3-.8l3.2 7.8c2 4.8 6.6 7.7 11.5 7.7 1.6 0 3.2-.3 4.7-.9 6.3-2.6 9.3-9.9 6.7-16.2l-3.2-7.8c5.1-3.6 9.5-8 13.1-13.1l7.8 3.2c1.6.6 3.2.9 4.7.9 4.9 0 9.5-2.9 11.5-7.7 2.7-6.3-.3-13.5-6.6-16.1zm-87.3-12.5c0-13.6 11-24.6 24.6-24.6s24.6 11 24.6 24.6-11 24.6-24.6 24.6-24.6-11.1-24.6-24.6z"/></symbol><symbol viewBox="0 0 141.7 255.1" id="icon-go-green"><title>go-green</title><path d="M49 146.9h-.2c-1.6-.1-2.8-1.5-2.7-3.1 0-.3 0-.5.1-.8.9-8.1 8.3-13.9 16.4-13 1.5.2 3 .6 4.4 1.2 4.3-3.7 10.6-5.6 16-5.9.8-3.2 1.7-6.9 2.8-9.9-2.9-2.2-6.5-6.3-8.4-11.2-2.5-6.4-3.3-16.5 7.4-28.5 5.2-5.8 12.4-7.3 20-8.9 7.5-1.5 15.3-3.2 22.8-9 1-.8 2.4-.8 3.4-.1 1 .7 1.5 2 1.1 3.2-2.7 8.9-3 16.2-3.2 22.1-.1 3.4-.2 6.3-.7 9-2.7 15-9.6 22-14.9 25.3-6.2 3.8-13.8 4.6-20.9 2.5-.7-.2-1.2-.6-1.5-1.1-.9 2.6-1.8 6.1-2.7 10.1-.3 1.3-1.5 2.2-2.8 2.2h-.5c-5.2 0-11.9 1.9-15.1 5.7-.9 1.1-2.6 1.3-3.8.5-1.2-.8-2.5-1.3-4-1.4-5-.6-9.5 3-10 7.9v.5c-.2 1.5-1.5 2.7-3 2.7zm44.1-32.7c.3 0 .6 0 .8.1 5.6 1.7 11.5 1 16.2-1.9 6.2-3.8 10.4-11.2 12.3-21.4.4-2.3.5-5 .6-8.2.2-4.6.4-10 1.6-16.4-6.5 3.4-13 4.8-18.9 6C99 74 93 75.2 89.1 79.6c-6 6.7-8.4 13.2-7.3 19.3 1.3 7.1 7 11.7 8.4 12.6.2.1.3.1.5.2 1 .5 1.6 1.6 1.6 2.7.2-.1.5-.2.8-.2z"/><path d="M89.3 117.2c-.3 0-.7-.1-1-.2-1.5-.6-2.2-2.2-1.7-3.7 5.1-13.2 13.2-25.7 24-37 1.1-1.2 2.9-1.2 4.1-.1 1.2 1.1 1.2 2.9.1 4.1-10.3 10.7-18 22.5-22.8 35-.4 1.2-1.5 1.9-2.7 1.9zM119.3 158.3c-.3 0-.6 0-.9-.1-1.5-.5-2.3-2.1-1.8-3.6.6-1.7.2-3.6-1.1-5.6-2.6-4.1-8.1-7-10.2-7.3-2.2-.3-2.9-.3-3-.2-.3.1-.6.2-1.3.4-1.4.2-2.8-.6-3.2-2-1.3-4.6-7.8-6.9-12.1-8.5l-1.3-.5c-1.5-.6-2.2-2.2-1.7-3.7.6-1.5 2.2-2.3 3.7-1.7l1.3.5c4.4 1.6 11.5 4.1 14.6 9.8.8 0 1.9.1 3.8.3 4.2.5 11 4.6 14.4 9.9 2.2 3.4 2.8 7.1 1.7 10.5-.5 1.1-1.7 1.8-2.9 1.8z"/><path d="M67.5 200c-3.6 0-6.7-.6-8.6-1.5-6-1.6-10.8-3.1-15.1-4.4-10.8-3.4-17.3-5.5-30.2-3.9-1.6.2-3-.9-3.2-2.5-.2-1.6.9-3 2.5-3.2 14.2-1.8 21.5.5 32.7 4.1 4.3 1.4 9.1 2.9 15.1 4.4.3.1.5.2.8.3 2.7 1.6 15.1 1.7 24.6-4.3l48.6-30.7c1.4-.7 1.6-1.8 1.6-2.4 0-.9-.4-2-1.6-2.6-2.3-1.2-6.3 0-10.8 3.2-.1.1-.3.2-.5.3L97.3 169c-1.4.7-3.2.1-3.8-1.4-.7-1.4-.1-3.2 1.4-3.8l25.8-12.1c8.5-6.1 14-4.9 16.5-3.6 2.9 1.5 4.8 4.5 4.8 7.7s-1.7 5.9-4.5 7.3L89 193.9c-6.8 4.4-15.1 6.1-21.5 6.1z"/><path d="M71.8 177c-10 0-18.8-3.9-28.8-9-1.4-.7-2-2.5-1.3-3.9s2.5-2 3.9-1.2c17.6 9 27.6 11.5 44.2 3.9 1.2-.5 3-1.4 2.7-2.9-.1-.9-.9-1.7-1.7-1.7-4-.2-7.3-.3-10-.4-11.2-.2-15.4-.3-29.5-10.7l-12.1-9c-1.4-1-6.6-1.8-11.7.3l-22.3 9.1c-1.5.6-3.2-.1-3.8-1.6-.6-1.5.1-3.2 1.6-3.8l22.3-9.1c6.1-2.5 13.6-2.3 17.3.4l12.1 9c12.6 9.3 15.5 9.4 26.1 9.6 2.8.1 6.2.1 10.3.4 3.5.2 6.5 3 7.1 6.6.5 3.1-.9 7-6.2 9.1-7.5 3.5-14.1 4.9-20.2 4.9z"/></symbol><symbol viewBox="0 0 192.3 192" id="icon-google_plus"><title>google_plus</title><path d="M139.7 91.8h-7.1v-7.1H123v7.1h-7v9.6h7v7h9.6v-7h7.1zM97 91.7H80.4v9.7h16.1c-3.2 8.9-13 13.5-21.9 10.3s-13.5-13-10.3-21.9c3.2-8.9 13-13.5 21.9-10.3 2.2.8 4.2 2 5.9 3.6l7.5-8c-11.3-10.6-29.1-10-39.6 1.3s-10 29.1 1.3 39.6c11.3 10.6 29.1 10 39.6-1.3 4.9-5.2 7.6-12.1 7.6-19.2 0-1.3-.1-2.6-.3-3.9l-11.2.1z"/></symbol><symbol viewBox="0 0 130.48 176.14" id="icon-lock_cl"><title>lock_cl</title><path d="M65.24 176.14a65.24 65.24 0 1 1 65.24-65.24 65.31 65.31 0 0 1-65.24 65.24zm0-117.43a52.19 52.19 0 1 0 52.19 52.19 52.25 52.25 0 0 0-52.19-52.19z"/><circle cx="65.24" cy="110.9" r="13.05"/><path d="M58.71 111.41h13.05v32.11H58.71zM110.91 66.04h-13V45.66a32.62 32.62 0 1 0-65.24 0v20.38h-13V45.66a45.67 45.67 0 1 1 91.33 0v20.38z"/></symbol><symbol viewBox="0 0 130.48 176.14" id="icon-lock_op"><title>lock_op</title><path d="M65.24 176.14a65.24 65.24 0 1 1 65.24-65.24 65.31 65.31 0 0 1-65.24 65.24zm0-117.43a52.19 52.19 0 1 0 52.19 52.19 52.25 52.25 0 0 0-52.19-52.19z"/><circle cx="65.24" cy="110.9" r="13.05"/><path d="M58.71 111.41h13.05v32.11H58.71zM88.24 22.54l9.22-9.22a45.64 45.64 0 0 0-77.89 32.34v20.38h13V45.66a32.6 32.6 0 0 1 55.67-23.12z"/></symbol><symbol viewBox="0 0 176 126" id="icon-mail"><title>mail</title><path d="M129.4 53.28l46.6 46.6v-80.5l-46.6 33.9zM8.47 6.78L88 64.62l79.53-57.84a7.55 7.55 0 0 1 5.1-1.37C169.7 2 165.13 0 159.44 0H16.56C10.87 0 6.3 2 3.37 5.41a7.54 7.54 0 0 1 5.1 1.37zM0 19.38v80.5l46.6-46.6L0 19.38z"/><path d="M172 114.17a7.61 7.61 0 0 1-5.4-2.24l-49.54-49.56-24.57 17.87a7.63 7.63 0 0 1-9 0L58.94 62.37 9.38 111.93a7.61 7.61 0 0 1-5.4 2.24 7.33 7.33 0 0 1-3-.15c2.39 6.67 8.46 12 15.62 12h142.84c7.16 0 13.23-5.3 15.62-12a7.32 7.32 0 0 1-3.06.15z"/></symbol><symbol viewBox="81 143.6 60.7 76.5" id="icon-map-marker"><title>map-marker</title><path d="M111.6 144.7c-16.7 0-30.2 13.5-30.2 30.2 0 20.1 30.2 45.3 30.2 45.3s30.2-25.1 30.2-45.3c0-16.7-13.5-30.2-30.2-30.2zm0 43.2c-7.2 0-13.1-5.9-13.1-13.1s5.9-13.1 13.1-13.1c7.2 0 13.1 5.9 13.1 13.1s-5.9 13.1-13.1 13.1z"/></symbol><symbol viewBox="0 0 141.7 255.1" id="icon-save-donbass"><title>save-donbass</title><path d="M121.9 141.8c-.7 0-1.4-.3-2-.8-1.1-1.1-1.1-2.9 0-4l8.6-8.6c13.9-13.9 6.2-32.3-4.5-43.9-3.9-4.1-8.2-7.6-12.4-10-3.9-2.2-22.2-8.5-34.3 3.3l-25.9 25.7c-1.2 1.2-.8 1.6-.3 2.1 2.5 2.5 10.9 3.7 15.9-1.2l6.5-6.4c5.7-5.1 12-3.2 17.6-1.5 6.4 1.9 12.4 3.8 19.5-1.8 1.2-1 3-.8 3.9.5 1 1.2.7 3-.5 3.9-9.3 7.4-17.8 4.8-24.6 2.8-5.7-1.7-9-2.5-12.1.2l-6.4 6.3c-7.3 7.2-19.3 5.7-23.8 1.1-2.9-3-2.8-6.9.3-10l25.9-25.8c13.4-13 33.4-8.5 41-4.2 4.8 2.7 9.6 6.5 13.8 11.1 13.5 14.5 20 36.1 4.4 51.7l-8.6 8.6c-.5.7-1.2.9-2 .9z"/><path d="M21.2 137.8c-.7 0-1.4-.3-2-.8l-8.6-8.6c-15.9-15.9-9.6-36.9 3-49.7C27 65.1 48.9 59.4 64.7 74.9l5.8 5.8c1.1 1.1 1.1 2.9 0 4s-2.9 1.1-4 0l-5.8-5.8c-13.8-13.5-32.1-7.5-43.2 3.8-10.7 10.9-16.2 28.6-3 41.8l8.6 8.6c1.1 1.1 1.1 2.9 0 4-.5.4-1.2.7-1.9.7zM116.7 158.7c-2.6 0-5.5-1.1-8.1-3.8L93 138.8c-1.1-1.1-1.1-2.9.1-4 1.1-1.1 2.9-1.1 4 .1l15.6 16.1c3.4 3.5 6.1 1.9 7.3.7 2.2-2.1 3.1-6 .7-8.5l-33.3-34.9c-1.1-1.1-1-2.9.1-4s2.9-1 4 .1l33.3 34.9c4.8 5 3.3 12.5-.8 16.4-2 1.9-4.5 3-7.3 3z"/><path d="M104.1 170.5c-2.7 0-5.3-1-7.5-3.2l-17.2-17.6c-1.1-1.1-1.1-2.9.1-4 1.1-1.1 2.9-1.1 4 .1l17.2 17.6c2.6 2.7 6.4 1.3 8.3-.6 1.2-1.1 3.4-4.1-.2-7.9L92 137.6c-1.1-1.1-1-2.9.1-4s2.9-1.1 4 .1l16.8 17.3c5.5 5.7 3.9 12.2.1 15.8-2.5 2.3-5.7 3.7-8.9 3.7z"/><path d="M90.3 181c-2.7 0-5.4-1-7.6-3.2l-8.6-8.7c-1.1-1.1-1.1-2.9 0-4s2.9-1.1 4 0l8.6 8.7c2.6 2.6 6.4 1.4 8.2-.4 1.1-1.1 3.2-4-.4-7.8-1.1-1.1-1-2.9.1-4s2.9-1 4 .1c5.4 5.7 4.1 12 .3 15.7-2.3 2.3-5.4 3.6-8.6 3.6zM25 157.1c-2.9 0-5.6-1.1-7.6-3.1l-.9-.9c-2-2-3.1-4.7-3.1-7.6 0-2.9 1.1-5.6 3.1-7.6L28.4 126c4.1-4.1 11.2-4.1 15.2 0l.9.9c2 2 3.1 4.7 3.1 7.6 0 2.9-1.1 5.6-3.1 7.6L32.6 154c-2 1.9-4.7 3.1-7.6 3.1zm11-28.8c-1.4 0-2.7.5-3.7 1.5l-11.9 11.9c-1 1-1.5 2.3-1.5 3.7 0 1.4.5 2.7 1.5 3.7l.9.9c1.9 1.9 5.4 1.9 7.3 0l11.9-11.9c1-1 1.5-2.3 1.5-3.7 0-1.4-.5-2.7-1.5-3.7l-.9-.9c-.9-.9-2.2-1.5-3.6-1.5z"/><path d="M38 169.5c-2.9 0-5.6-1.1-7.6-3.1l-.9-.9c-2-2-3.1-4.7-3.1-7.6 0-2.9 1.1-5.6 3.1-7.6l18.9-18.9c4.1-4.1 11.2-4.1 15.2 0l.9.9c2 2 3.1 4.7 3.1 7.6 0 2.9-1.1 5.6-3.1 7.6l-18.9 18.9c-2 2-4.8 3.1-7.6 3.1zm18-35.7c-1.4 0-2.7.5-3.7 1.5l-18.9 18.9c-1 1-1.5 2.3-1.5 3.7 0 1.4.5 2.7 1.5 3.7l.9.9c1.9 1.9 5.4 1.9 7.3 0l18.9-18.9c1-1 1.5-2.3 1.5-3.7s-.5-2.7-1.5-3.7l-.9-.9c-1-1-2.3-1.5-3.6-1.5z"/><path d="M51.6 181.3c-2.9 0-5.6-1.1-7.6-3.1l-.9-.9c-4.2-4.2-4.2-11 0-15.2l13-13c4.1-4.1 11.2-4.1 15.2 0l.9.9c2 2 3.1 4.7 3.1 7.6 0 2.9-1.1 5.6-3.1 7.6l-13 13c-2 1.9-4.7 3.1-7.6 3.1zm12.1-29.9c-1.4 0-2.7.5-3.7 1.5l-13 13c-2 2-2 5.3 0 7.3l.9.9c1.9 1.9 5.4 1.9 7.3 0l13-13c1-1 1.5-2.3 1.5-3.7 0-1.4-.5-2.7-1.5-3.7l-.9-.9c-.9-.8-2.2-1.4-3.6-1.4z"/><path d="M65 193.1c-2.9 0-5.6-1.1-7.6-3.1l-.9-.9c-4.2-4.2-4.2-11 0-15.2l8-8c4.1-4.1 11.2-4.1 15.2 0l.9.9c4.2 4.2 4.2 11 0 15.2l-8 8c-2 2-4.7 3.1-7.6 3.1zm7-24.8c-1.4 0-2.7.5-3.7 1.5l-8 8c-2 2-2 5.3 0 7.3l.9.9c1.9 1.9 5.4 1.9 7.3 0l8-8c2-2 2-5.3 0-7.3l-.9-.9c-.9-1-2.2-1.5-3.6-1.5z"/></symbol><symbol viewBox="0 0 141.7 255.1" id="icon-search"><title>search</title><path d="M89.9 163.3c-29.1 0-52.7-23.7-52.7-52.7s23.7-52.7 52.7-52.7 52.7 23.7 52.7 52.7-23.6 52.7-52.7 52.7zm0-94.3c-23 0-41.6 18.7-41.6 41.6s18.7 41.6 41.6 41.6 41.6-18.7 41.6-41.6S112.9 69 89.9 69z"/><path d="M55.495 137.16l7.85 7.848-55.508 55.507-7.849-7.848z"/></symbol><symbol viewBox="0 0 176 176" id="icon-skype"><title>skype</title><path d="M164.13 88.2a78 78 0 0 0-90.34-77.46A44.69 44.69 0 0 0 9 71.59 78.41 78.41 0 0 0 101.9 165a44.7 44.7 0 0 0 61.25-65 78.2 78.2 0 0 0 .98-11.8zm-41.85 34.17q-4.62 6.59-13.57 10.31t-21.16 3.74q-14.69 0-24.23-5.1a31.2 31.2 0 0 1-11-9.8q-4.22-6.11-4.23-11.9a7.61 7.61 0 0 1 2.53-5.75 9.05 9.05 0 0 1 6.47-2.4 8 8 0 0 1 5.38 1.87 14.48 14.48 0 0 1 3.75 5.52 36.09 36.09 0 0 0 4.09 7.27 16.19 16.19 0 0 0 6.2 4.87A24.6 24.6 0 0 0 87 122.87q8.94 0 14.51-3.82t5.59-9.55a9.62 9.62 0 0 0-3-7.36 19.76 19.76 0 0 0-7.79-4.33c-3.18-1-7.41-2.05-12.75-3.17a100.43 100.43 0 0 1-17.88-5.37 28.61 28.61 0 0 1-11.43-8.4A20.58 20.58 0 0 1 50 67.65a21.37 21.37 0 0 1 4.47-13.37c3-3.89 7.27-6.9 12.92-9a57 57 0 0 1 19.88-3.14 53.29 53.29 0 0 1 15.79 2.07 34.32 34.32 0 0 1 11.06 5.53 23.92 23.92 0 0 1 6.43 7.26 15.62 15.62 0 0 1 2 7.39 8.82 8.82 0 0 1-8.83 8.61 7.7 7.7 0 0 1-5.24-1.59 21.32 21.32 0 0 1-3.89-5.19 23.71 23.71 0 0 0-6.5-8.06q-3.79-2.88-12.18-2.89-7.77 0-12.54 3.14C70.18 60.5 68.6 63 68.6 66a7.22 7.22 0 0 0 1.62 4.73 13.27 13.27 0 0 0 4.47 3.42 32.38 32.38 0 0 0 5.75 2.26c1.93.53 5.13 1.32 9.6 2.35q8.38 1.8 15.18 4A48.22 48.22 0 0 1 116.79 88a22.37 22.37 0 0 1 7.44 7.87 23.47 23.47 0 0 1 2.68 11.67 25.28 25.28 0 0 1-4.63 14.84z"/></symbol><symbol viewBox="0 0 175.31 175.32" id="icon-tel"><title>tel</title><path d="M136.37 175.29c3.91 0 38.95-25.9 38.95-29.21s-39.22-28-42.61-28-14.78 13.65-17.85 15.17-22.26 1-43.62-20.4-28.68-45.96-28.68-49.82 17.83-15.79 18.32-18.6S37.38 0 33.49 0 0 35.96 0 38.95s2.71 41.54 51.51 90.33 80.95 45.99 84.86 46.01z"/></symbol><symbol viewBox="0 0 192 192" id="icon-twitter"><title>twitter</title><path d="M136 69.4c-2.9 1.5-6 2.4-9.2 2.8 2.4-1.4 6-6 6.9-9.7-2.3 1.6-7.7 3.9-10.3 3.9-3-3.5-7.3-5.5-11.9-5.5C102.4 61 95 69 95 78.8c0 1.3.1 2.7.4 4-12.4-.3-26.8-7-35-18.4-5 9.3-.7 19.7 5 23.5-1.9.2-5.5-.2-7.2-2-.1 6.2 2.7 14.4 12.7 17.4-1.9 1.1-5.4.8-6.9.6.6 5.2 7.4 12 14.8 12-2.7 3.3-11.7 9.3-22.9 7.4 7.7 5.1 16.6 7.8 25.8 7.9 26.6 0 47.3-23.2 46.2-51.9v-.1-.2-.3c3.4-2.7 6.1-5.7 8.1-9.3z"/></symbol><symbol viewBox="0 0 141.7 255.1" id="icon-voice-call"><title>voice-call</title><path d="M80.8 192c-1.5 0-2.7-1.1-3-2.6-.2-1.6.9-3.2 2.5-3.4 6.9-1 16.4-3.6 22.6-9.8 7.5-7.5 12.7-19.8 12.7-30v-39.4c0-9.9-4.9-21-12.7-28.8-7.8-7.8-18.9-12.7-28.8-12.7h-5.8c-9.9 0-21 4.9-28.8 12.7-7.8 7.8-12.7 18.9-12.7 28.8v39.4c0 1.7-1.3 3-3 3s-3-1.3-3-3v-39.4c0-11.5 5.5-24.1 14.5-33 8.9-8.9 21.6-14.5 33-14.5h5.8c11.5 0 24.1 5.5 33 14.5 8.9 8.9 14.4 21.6 14.4 33v39.4c0 11.8-5.8 25.6-14.4 34.3-5.8 5.9-14.8 9.8-26 11.5h-.3z"/><path d="M87.7 124c-3.3 0-6-2.7-6-6s2.7-6 6-6 6 2.7 6 6c.1 3.2-2.6 6-6 6zm-32.8 0c-3.3 0-6-2.7-6-6s2.7-6 6-6 6 2.7 6 6c0 3.2-2.7 6-6 6zM71.2 158.3c-10.1 0-18.8-5.7-21.1-13.8-.4-1.6.5-3.2 2.1-3.7s3.2.5 3.7 2.1c1.5 5.5 8 9.4 15.3 9.4s13.8-4 15.3-9.4c.4-1.6 2.1-2.5 3.7-2.1 1.6.4 2.5 2.1 2.1 3.7-2.3 8.2-11 13.8-21.1 13.8zm48.7-8.4c-1.5 0-2.9-1.2-3-2.8-.1-1.6 1.1-3.1 2.8-3.2 9.4-.7 16.8-9.3 16.8-19.5s-7.4-18.7-16.8-19.5c-1.6-.1-2.9-1.6-2.8-3.2.1-1.6 1.6-2.9 3.2-2.8 12.5 1 22.3 12.1 22.3 25.4s-9.8 24.5-22.3 25.4c0 .2-.1.2-.2.2zm-97.4 0h-.2C9.8 148.9 0 137.8 0 124.5S9.8 100 22.3 99.1c1.6-.1 3.1 1.1 3.2 2.8.1 1.6-1.1 3.1-2.8 3.2-9.4.6-16.7 9.2-16.7 19.4s7.4 18.7 16.8 19.5c1.6.1 2.9 1.6 2.8 3.2-.2 1.5-1.5 2.7-3.1 2.7zM71.2 201.7c-6.9 0-12.5-5.6-12.5-12.5s5.6-12.5 12.5-12.5 12.5 5.6 12.5 12.5-5.6 12.5-12.5 12.5zm0-19.1c-3.6 0-6.5 2.9-6.5 6.5s2.9 6.5 6.5 6.5 6.6-2.9 6.6-6.5-2.9-6.5-6.6-6.5z"/><path d="M23.1 106.2c-1.4 0-2.6-1-2.9-2.4-.3-1.6.7-3.2 2.3-3.5 12.9-2.6 24-10.8 30.3-22.5.5-.8 1.3-1.4 2.2-1.5.9-.1 1.9.2 2.6.9 8.5 8.8 19.9 13.6 32.1 13.6 7.7 0 15.3-2 22-5.8 1.4-.8 3.3-.3 4.1 1.1.8 1.4.3 3.3-1.1 4.1-7.6 4.3-16.2 6.6-24.9 6.6-12.5 0-24.3-4.5-33.6-12.7-7.4 11.4-19 19.4-32.4 22.2-.3-.1-.5-.1-.7-.1z"/></symbol><symbol viewBox="0 0 141.7 255.1" id="icon-webinar"><title>webinar</title><path d="M71.1 161.1c-1.2 0-2.3-.7-2.8-1.8l-8.7-20c-.5-1.2-.2-2.6.8-3.5.1-.1.3-.2.4-.4 1.5-1.7 1.5-3.7 1.4-4.5-.1-1.7 1.1-3.1 2.8-3.3 1.6-.1 3.1 1.1 3.3 2.8.3 3-.6 6-2.3 8.3l5.2 12.1 5.6-11.8c-2.3-3-2.3-7-2.2-8.6.1-1.7 1.6-2.9 3.2-2.8 1.7.1 2.9 1.6 2.8 3.2-.1 1.4.1 3.5 1.1 4.6.2.2.4.3.6.5 1.1.9 1.5 2.4.9 3.7l-9.3 19.7c-.6 1.1-1.6 1.8-2.8 1.8z"/><path d="M100.4 170.7c-.2 0-.4 0-.6-.1-1.6-.3-2.7-1.9-2.4-3.5 2.9-15 .7-20.9-17.8-25.8-1.6-.4-2.6-2.1-2.1-3.7.4-1.6 2.1-2.6 3.7-2.1 20.5 5.5 25.8 13.5 22.2 32.8-.3 1.3-1.5 2.4-3 2.4zM42.2 170.7c-1.4 0-2.6-.9-2.9-2.3-4.2-17.5-.8-24.6 14.5-30.3l7.6-2.8c1.6-.6 3.3.2 3.9 1.8.6 1.6-.2 3.3-1.8 3.9l-7.6 2.8c-11.8 4.4-14.5 7.8-10.7 23.2.4 1.6-.6 3.3-2.2 3.7-.4-.1-.6 0-.8 0zM72.3 135.2c-9.1 0-16.5-8.1-16.5-18.1 0-7.7 0-16.5 10.7-16.5 5.5 0 10.7-1.2 11.8-2.8.5-.8 1.3-1.2 2.2-1.3 1-.1 1.8.3 2.4.9 3.4 3.6 5.6 12.8 5.6 17.6.1 9.6-6.6 20.2-16.2 20.2zm7.8-31.2c-4.3 2.4-10.6 2.7-13.6 2.7-3.9 0-4.7.8-4.7 10.5 0 6.6 4.7 12 10.4 12 5.2 0 10.3-7 10.3-14.2.1-3.2-1.1-8-2.4-11z"/><path d="M94 145.5c-.7 0-1.4-.2-2-.7-1.3-1.1-1.4-3-.3-4.3 2.2-2.6 2-5.1 1.3-10.1-.3-2.3-.7-5-.7-8 0-9.6 0-21.5-6.1-27.3-3.2-3-7.9-4.3-14.3-4-20 1-20.9 9.9-20.9 27 0 10 .2 17.4 2.9 21 1 1.3.8 3.2-.6 4.2-1.3 1-3.2.8-4.2-.6-3.9-5.1-4.2-13.1-4.2-24.6 0-15.6 0-31.8 26.7-33.1 8.1-.4 14.4 1.5 18.8 5.7 8 7.6 8 20.9 8 31.6 0 2.6.3 4.9.6 7.1.7 5.2 1.4 10.1-2.7 14.9-.6.8-1.5 1.2-2.3 1.2z"/><g><path d="M139 170.8H3c-1.7 0-3-1.4-3-3v-95c0-1.7 1.4-3 3-3h136c1.7 0 3 1.4 3 3v95c0 1.7-1.3 3-3 3zm-132.9-6H136v-89H6.1v89z"/></g><g><path d="M104.2 194.4H40.3c-1.7 0-3-1.4-3-3s1.4-3 3-3h63.9c1.7 0 3 1.4 3 3s-1.4 3-3 3z"/></g><g><path d="M56.1 191.2c-1.7 0-3-1.4-3-3v-18.9c0-1.7 1.4-3 3-3s3 1.4 3 3v18.9c0 1.6-1.3 3-3 3z"/></g><g><path d="M88.3 191.2c-1.7 0-3-1.4-3-3v-18.9c0-1.7 1.4-3 3-3s3 1.4 3 3v18.9c0 1.6-1.3 3-3 3z"/></g></symbol><symbol viewBox="0 0 192 192" id="icon-youtube"><title>youtube</title><path d="M119.2 67.6H72.5c-15.2 0-16.6 12.6-16.6 28.1 0 15.5 1.7 28.1 16.9 28.1h46.7c15.2 0 16.6-12.6 16.6-28.1 0-15.5-1.7-28.1-16.9-28.1zm-31.3 43.3V80.5L111 95.7l-23.1 15.2z"/></symbol></svg>