<svg xmlns="http://www.w3.org/2000/svg"><defs><linearGradient id="fondex-logo-SVGID_1_" gradientUnits="userSpaceOnUse" x1="90.7035" y1="88.5896" x2="117.5715" y2="88.5896"> <stop offset="0" style="stop-color:#88D1CF"/> <stop offset="0.1185" style="stop-color:#50B6BF"/> <stop offset="0.23" style="stop-color:#0EA5B5"/> <stop offset="0.3284" style="stop-color:#009BAF"/> <stop offset="0.4031" style="stop-color:#0098AC"/> <stop offset="0.572" style="stop-color:#36ADBA"/> <stop offset="0.7417" style="stop-color:#65BFC4"/> <stop offset="0.8901" style="stop-color:#7ECBCB"/> <stop offset="1" style="stop-color:#88D1CF"/> </linearGradient><linearGradient id="fondex-logo-SVGID_2_" gradientUnits="userSpaceOnUse" x1="96.7729" y1="88.1319" x2="101.5729" y2="88.1319"> <stop offset="0" style="stop-color:#3A7289"/> <stop offset="1" style="stop-color:#123D4C"/> </linearGradient><linearGradient id="fondex-logo-SVGID_3_" gradientUnits="userSpaceOnUse" x1="110.3686" y1="76.8668" x2="99.9575" y2="94.8994"> <stop offset="0" style="stop-color:#88D1CF"/> <stop offset="0.1099" style="stop-color:#7ECBCB"/> <stop offset="0.2583" style="stop-color:#65BFC4"/> <stop offset="0.428" style="stop-color:#36ADBA"/> <stop offset="0.5969" style="stop-color:#0098AC"/> <stop offset="0.6716" style="stop-color:#009BAF"/> <stop offset="0.77" style="stop-color:#0EA5B5"/> <stop offset="0.8815" style="stop-color:#50B6BF"/> <stop offset="1" style="stop-color:#88D1CF"/> </linearGradient><linearGradient id="fondex-logo-SVGID_4_" gradientUnits="userSpaceOnUse" x1="110.7198" y1="87.8889" x2="114.3502" y2="87.8889"> <stop offset="0" style="stop-color:#3A7289"/> <stop offset="1" style="stop-color:#123D4C"/> </linearGradient><linearGradient id="fondex-logo-SVGID_5_" gradientUnits="userSpaceOnUse" x1="91.4318" y1="89.2443" x2="117.6964" y2="89.2443"> <stop offset="0" style="stop-color:#0098AC"/> <stop offset="1" style="stop-color:#88D1CF"/> </linearGradient></defs><symbol viewBox="0 0 140 140" id="fondex-logo"><title>fondex-logo</title> <style type="text/css"> .st0{fill:#FFFFFF;} .st1{fill:url(#SVGID_1_);} .st2{fill:url(#SVGID_2_);} .st3{fill:url(#SVGID_3_);} .st4{fill:url(#SVGID_4_);} .st5{fill:url(#SVGID_5_);} </style> <g> <path class="st0" d="M76.5,91.4c-0.2,1.1-0.4,2.1-0.6,3.2c0,0.1-0.3,0.4-0.4,0.4c-1.1,0-2.2,0.1-3.2-0.1c-0.9-0.1-1.6-0.7-1.9-1.8
		c-0.7,1-1.6,1.7-2.7,2c-2.4,0.6-4.6-0.5-5.4-2.8c-1.3-3.7,0.3-8.5,4.7-9.7c1.6-0.5,3.3-0.6,4.8,0.7c0.1-0.6,0.2-1.2,0.4-1.9
		c-0.5,0-1,0-1.5,0c0.2-1.1,0.4-2.2,0.6-3.2c0-0.2,0.3-0.4,0.5-0.4c2,0,4,0,6.1,0c-0.2,1-0.3,1.8-0.5,2.7c-0.6,3.2-1.2,6.4-1.9,9.6
		C75.1,91,75.4,91.3,76.5,91.4z M69.3,86.4c-1,0-1.7,0.6-2.1,1.4c-0.4,0.9-0.6,1.8,0,2.7c0.3,0.5,0.8,0.6,1.3,0.5
		c1.8-0.3,2.7-2.3,2.1-3.8C70.4,86.7,69.9,86.3,69.3,86.4z M45.4,86c0.2,0,0.3,0,0.4,0c1,0,1.1,0.1,0.9,1.1c-0.2,1-0.4,2-0.6,3
		c-0.3,1.6-0.6,3.2-0.9,4.8c1.7,0,3.3,0,5,0c0.3-1.3,0.5-2.6,0.8-3.9c0.3-1.1,0.6-2.2,1.1-3.2c0.2-0.5,0.9-0.8,1.4-1
		c0.8-0.2,1.2,0.2,1.1,1c-0.2,1.3-0.5,2.6-0.6,4c-0.1,1.6,0.5,2.6,1.8,3c1.3,0.4,2.6,0.3,3.9,0.2c0.2-1.2,0.4-2.3,0.7-3.4
		c-1.3-0.2-1.3-0.3-1.2-1.5c0.2-1.2,0.4-2.3,0.6-3.5c0.4-2.1-0.8-3.9-2.8-4.2c-1.4-0.2-2.8,0.1-3.9,1c-0.4,0.3-0.7,0.6-1.1,1
		c0-1.3-0.3-1.8-1.2-1.8c-1.6,0-3.1,0-4.8,0C45.8,83.7,45.6,84.8,45.4,86z M40.8,83c2.7,1.3,3.7,4.3,2.5,7.3
		c-1.7,4.3-7.6,6.2-11.5,3.8c-2.1-1.3-3-3.8-2.3-6.4c0.9-3.3,4-5.5,7.8-5.5C37.4,82.1,39.7,82.5,40.8,83z M38.7,88.2
		c0-1.5-1-2.2-2.4-1.8c-1.3,0.4-2.3,2.1-1.9,3.5c0.2,0.7,0.6,1,1.3,1.1C37.4,91.2,38.7,90,38.7,88.2z M83,89.4
		c0,1.2,0.8,1.8,2.1,1.6c0.9-0.2,1.8-0.5,2.6-0.8c0.2-0.1,0.5-0.2,0.7-0.3c0.4,1.1,0.8,2.2,1.2,3.3c0,0.1-0.1,0.4-0.2,0.4
		c-2.4,1.5-6.4,2.1-9,0.4c-1.9-1.3-2.6-3.2-2.4-5.4c0.4-4.6,4.9-7.6,9.4-6.2c3.1,1,3.8,4,2.9,6.6c-0.1,0.2-0.4,0.3-0.6,0.3
		c-1.9,0-3.9,0-5.8,0C83.6,89.4,83.3,89.4,83,89.4z M83.5,87.2c0.8,0,1.5,0,2.2,0c0.3-0.9,0-1.5-0.5-1.7
		C84.4,85.4,83.8,86,83.5,87.2z M26.7,86c0.8,0,1.6,0,2.4,0c0.2-1.2,0.4-2.3,0.7-3.5c-0.8,0-1.5,0-2.4,0c0.4-1.8,1.8-1,2.8-1.3
		c0.2-1.2,0.5-2.5,0.7-3.8c-2-0.1-3.8-0.1-5.5,0.7c-1.8,0.9-2.7,2.4-3,4.4c-0.5,0-1,0-1.5,0c-0.2,1.2-0.4,2.3-0.7,3.5
		c0.5,0,1,0,1.5,0c-0.6,3-1.1,5.9-1.7,8.8c1.7,0,3.3,0,5,0C25.6,91.9,26.1,88.9,26.7,86z"/>  <path class="st1" d="M114.3,90.6l-3.9-7.6c-0.2-0.5-0.7-0.8-1.3-0.8h-5.9c-0.4,0-0.8,0.2-1.1,0.5l-7.8,8.2
		c-0.3,0.3-0.7,0.5-1.1,0.5h-1.4c-0.3,0-0.5,0.2-0.5,0.4L90.7,95h4.2c0.4,0,0.8-0.2,1.1-0.5l7.8-8.2c0.3-0.3,0.7-0.5,1.1-0.5h2.2
		c0.5,0,1.1,0.3,1.3,0.8l3.8,7.6c0.2,0.5,0.8,0.8,1.3,0.8h3.6l0.6-3c0.1-0.4-0.2-0.7-0.6-0.7h-1.4C115,91.3,114.5,91,114.3,90.6z"/>  <path class="st2" d="M99.6,90.6l1.9-2l-2.3-2.8l-2.5,2.6C98.3,88.5,99.2,89.4,99.6,90.6z"/>  <path class="st3" d="M114.9,82.6l-7.8,8.2c-0.3,0.3-0.7,0.5-1.1,0.5l-3.4,0c-0.5,0-1.1-0.3-1.3-0.8L97.6,83
		c-0.2-0.5-0.8-0.8-1.3-0.8H94c-0.2,0-0.4,0.2-0.5,0.4l-0.6,3.2h1.2c0.5,0,1.1,0.3,1.3,0.8l3.8,7.6c0.2,0.5,0.8,0.8,1.3,0.8l7.2,0
		c0.4,0,0.8-0.2,1.1-0.5l7.8-8.2c0.3-0.3,0.7-0.5,1.1-0.5h0.9c0.2,0,0.5-0.2,0.5-0.4l0.6-3.2H116C115.6,82.2,115.2,82.4,114.9,82.6z
		"/>  <path class="st4" d="M112.1,85.7l-1.4,1.4c1.2,0.5,2.1,1.6,2.2,3l1.4-1.5L112.1,85.7z"/>  <path class="st5" d="M111.9,91.9c0.4-0.8,1.3-1.4,2.2-1.7c0,0,0,0,0,0l-2.5-4.8c-0.5,1.2-1.6,2.2-2.8,2.5l2.6,5.1
		C111.5,92.6,111.7,92.2,111.9,91.9z"/> </g> </symbol></svg>