<svg xmlns="http://www.w3.org/2000/svg"><symbol viewBox="0 0 176 152" id="accuracy"><title>12_blu_Accuracy_icon_192</title>  <polygon style="fill:#1B2E5A;" points="136.8,0 117.7,0 58.3,0 39.2,0 0,76 39.2,152 58.3,152 117.7,152 136.8,152 176,76 "/> <path style="fill:#EB1751;" d="M88,120c-24.3,0-43.9-19.7-43.9-43.9S63.7,32.1,88,32.1s43.9,19.7,43.9,43.9v0
	C131.9,100.3,112.2,120,88,120z"/> <path style="fill:#FFFFFF;" d="M88,112.3c-20,0-36.3-16.2-36.3-36.3S68,39.8,88,39.8s36.3,16.2,36.3,36.3v0
	C124.2,96.1,108,112.3,88,112.3z"/> <path style="fill:#D9D8D7;" d="M88,100.3c-13.4,0-24.2-10.8-24.2-24.2S74.6,51.9,88,51.9s24.2,10.8,24.2,24.2c0,0,0,0,0,0
	C112.2,89.4,101.4,100.2,88,100.3z"/> <path style="fill:#EB1751;" d="M88,88.1c-6.6,0-12-5.4-12-12s5.4-12,12-12s12,5.4,12,12S94.6,88.1,88,88.1z"/> <path style="fill:#EB1751;" d="M130.1,34c-1.2-1.2-2.8-2-4.5-2.1c-1.6-0.1-3.1,0.4-4.2,1.5l-0.5,0.5c-1.9,1.9-3.5,4-4.8,6.3
	c-1.3,2.3-2.3,4.9-3,7.5L112,52l4.4-1.1c2.6-0.7,5.1-1.7,7.5-3c2.3-1.3,4.4-2.9,6.3-4.8l0.5-0.5c1.1-1.1,1.6-2.7,1.5-4.2
	C132,36.7,131.2,35.1,130.1,34L130.1,34L130.1,34z"/> <path style="opacity:0.3;enable-background:new    ;" d="M123.2,49.8L89,75.6c-0.4,0.4-0.4,1.1,0,1.4c0.4,0.4,1.1,0.4,1.4,0l0,0
	l33.7-25.8L123.2,49.8z"/> <path style="fill:#FFFFFF;" d="M130.5,32.1L87.8,74.8c-0.3,0.3-0.3,0.9,0.1,1.2c0,0,0.1,0.1,0.1,0.1c0.2,0.4,0.8,0.5,1.2,0.3
	c0,0,0,0,0.1,0l42.7-42.6L130.5,32.1z"/> <polygon style="fill:#343B43;" points="89.9,77.9 96,76 88,68 86,74 "/> </symbol><symbol viewBox="0 0 192 192" id="clock"><title>clock</title> <g> <circle fill="#3A6F80" cx="96" cy="96" r="88"/> <path fill="#EA1751" d="M96,8c48.6,0,88,39.4,88,88c0,24.3-9.8,46.3-25.8,62.2L96,95.9V8z"/> <path fill="#FFFFFF" d="M164.2,96c0,37.7-30.5,68.2-68.2,68.2c-37.7,0-68.2-30.5-68.2-68.2c0-37.7,30.5-68.2,68.2-68.2
		C133.7,27.8,164.2,58.3,164.2,96z"/> <g> <rect x="93.1" y="36.2" fill="#3A6F80" width="5.8" height="13.1"/> <rect x="93.1" y="142.5" fill="#3A6F80" width="5.8" height="13.1"/> </g> <g> <rect x="142.6" y="93" fill="#3A6F80" width="13.1" height="5.8"/> <rect x="36.3" y="93" fill="#3A6F80" width="13.1" height="5.8"/> </g> <g> <rect x="130.7" y="51.8" transform="matrix(0.7071 0.7071 -0.7071 0.7071 80.3635 -77.3487)" fill="#3A6F80" width="5.8" height="13.1"/> <rect x="55.6" y="126.9" transform="matrix(0.707 0.7072 -0.7072 0.707 111.515 -2.2291)" fill="#3A6F80" width="5.8" height="13.1"/> </g> <g> <rect x="55.6" y="51.8" transform="matrix(0.7074 -0.7069 0.7069 0.7074 -24.1397 58.385)" fill="#3A6F80" width="5.8" height="13.1"/> <rect x="130.7" y="126.9" transform="matrix(0.7071 -0.7071 0.7071 0.7071 -55.246 133.5235)" fill="#3A6F80" width="5.8" height="13.1"/> </g> <path fill="#2B2B2B" d="M124.8,122l-20.5-20.2c1.1-1.6,1.8-3.6,1.8-5.7c0-5-3.6-9.1-8.3-9.9V65h-3.5v21.1c-4.7,0.8-8.3,4.9-8.3,9.9
		c0,5.6,4.5,10.1,10.1,10.1c2.2,0,4.2-0.7,5.8-1.9l20.6,20.3L124.8,122z"/> </g> </symbol><symbol viewBox="0 0 176 152" id="expertise"><title>12_blu_Expertise _icon_192</title>  <polygon style="fill:#1B2E5A;" points="136.8,0 117.7,0 58.3,0 39.2,0 0,76 39.2,152 58.3,152 117.7,152 136.8,152 176,76 "/> <rect x="57.5" y="111" transform="matrix(-0.7071 0.7071 -0.7071 -0.7071 185.8218 152.4925)" style="fill:#FFFFFF;" width="7.6" height="7.5"/> <rect x="68.2" y="110.9" transform="matrix(-0.7071 0.7071 -0.7071 -0.7071 204.0344 144.8907)" style="fill:#FFFFFF;" width="7.6" height="7.5"/> <rect x="78.9" y="110.9" transform="matrix(-0.7071 0.7071 -0.7071 -0.7071 222.2199 137.3059)" style="fill:#FFFFFF;" width="7.6" height="7.5"/> <rect x="89.6" y="110.9" transform="matrix(-0.7071 0.7071 -0.7071 -0.7071 240.4225 129.7282)" style="fill:#FFFFFF;" width="7.6" height="7.5"/> <rect x="100.2" y="110.9" transform="matrix(-0.7071 0.7071 -0.7071 -0.7071 258.6251 122.1505)" style="fill:#FFFFFF;" width="7.6" height="7.5"/> <rect x="110.9" y="110.8" transform="matrix(-0.7071 0.7071 -0.7071 -0.7071 276.8106 114.5658)" style="fill:#FFFFFF;" width="7.6" height="7.5"/> <path style="fill:#FFFFFF;" d="M117.5,105.6v-2.3h2.5V32H56v71.3h2.6v2.3H56v9h64v-9L117.5,105.6L117.5,105.6z M67.4,105.6h-4.6
	v-2.3h4.6V105.6z M76.5,105.6h-4.6v-2.3h4.6L76.5,105.6z M85.7,105.6h-4.6v-2.3h4.6V105.6z M94.9,105.6h-4.6v-2.3h4.6L94.9,105.6
	L94.9,105.6z M104.1,105.6h-4.6v-2.3h4.6V105.6z M113.3,105.6h-4.6v-2.3h4.6L113.3,105.6z"/> <rect x="70.1" y="48" style="fill:#EB1751;" width="7.8" height="3.9"/> <rect x="70.1" y="56" style="fill:#EB1751;" width="3.7" height="4"/> <rect x="70" y="67.8" style="fill:#EB1751;" width="4" height="4.2"/> <rect x="70" y="44" style="fill:#EB1751;" width="4" height="4"/> <rect x="65.9" y="64" style="fill:#EB1751;" width="7.9" height="3.9"/> <path style="fill:#EB1751;" d="M73.8,56v4c1.1-0.1,2.1,0.8,2.1,2c0,0,0,0,0,0c0,1.2-1,2.1-2.1,2.1l0,0V68c3.3,0,6-2.7,6-6
	S77.1,56,73.8,56z"/> <path style="fill:#EB1751;" d="M70.2,60v-4c-1.1,0.1-2.1-0.8-2.2-1.9c0,0,0,0,0-0.1c0-1.2,1-2.1,2.1-2.1l0,0V48c-3.3,0-6,2.7-6,6
	C64.2,57.3,66.9,60,70.2,60z"/> <rect x="88" y="44" style="fill:#EB1751;" width="16" height="4"/> <rect x="72" y="84" style="fill:#343B43;" width="32" height="4"/> <rect x="88" y="76" style="fill:#343B43;" width="24" height="4"/> <rect x="88" y="68" style="fill:#343B43;" width="24" height="4"/> <rect x="88" y="60" style="fill:#343B43;" width="24" height="4"/> <rect x="88" y="52" style="fill:#343B43;" width="24" height="4"/> <rect x="80" y="92" style="fill:#343B43;" width="16" height="3.9"/> <rect x="64" y="76" style="fill:#343B43;" width="16" height="3.9"/> </symbol><symbol viewBox="0 0 176 152" id="form-dates-hover"><title>08_on_Dates_icon_192</title>  <polygon style="fill:#EB1751;" points="136.8,0 117.7,0 58.3,0 39.2,0 0,76 39.2,152 58.3,152 117.7,152 136.8,152 176,76 "/> <polygon style="fill:#FFFFFF;" points="12.3,58.5 1.7,38 12.3,17.5 38.7,17.5 49.3,38 38.7,58.5 "/> <path style="fill:#EB1751;" d="M37.8,19l9.8,19l-9.8,19H13.2L3.4,38l9.8-19H37.8 M39.6,16H11.4L0,38l11.4,22h28.2L51,38L39.6,16
	L39.6,16z"/> <path style="fill:#D9154B;" d="M30,33.3c-0.5,0-0.9,0-1.4,0c-3.2,0.1-4.5,1.5-4.9,3h0.1c0.9-0.7,2-1.1,3.1-1c2.6-0.1,4.8,2,4.9,4.7
	c0,0.1,0,0.3,0,0.4c0,3.2-2.6,5.7-5.8,5.7c-0.1,0-0.2,0-0.2,0c-4.5,0-6.5-3.3-6.5-6.9c-0.1-2.6,0.9-5.1,2.8-6.9
	c1.8-1.5,4.1-2.3,6.5-2.3c0.5,0,1,0,1.5,0V33.3L30,33.3z M27.3,40.6c0.2-1.1-0.6-2.1-1.7-2.3c-0.1,0-0.2,0-0.2,0
	c-0.8,0-1.5,0.4-1.8,1.2c-0.1,0.3-0.1,0.6-0.1,0.9c0.1,1.3,0.7,2.6,2.2,2.6C26.7,42.9,27.3,41.9,27.3,40.6z"/> <rect x="71.1" y="46.3" style="fill:#FFFFFF;" width="2.7" height="9.2"/> <rect x="101.8" y="46.3" style="fill:#FFFFFF;" width="2.7" height="9.2"/> <path style="fill:#FFFFFF;" d="M110,49.7H66c-3.3,0-6,2.7-6,6v44c0,3.3,2.7,6,6,6l0,0h44c3.3,0,6-2.7,6-6l0,0v-44
	C116,52.4,113.3,49.7,110,49.7z M113.3,75v24.7c0,1.8-1.5,3.3-3.3,3.3c0,0,0,0,0,0H66c-1.8,0-3.3-1.5-3.3-3.3l0,0v-44
	c0-1.8,1.5-3.3,3.3-3.3c0,0,0,0,0,0h44c1.8,0,3.3,1.5,3.3,3.3l0,0V75z"/> <rect x="94.1" y="63.1" style="fill:#FFFFFF;" width="15.5" height="2.7"/> <rect x="61.3" y="63.1" style="fill:#FFFFFF;" width="53.3" height="2.7"/> <rect x="86.7" y="64.4" style="fill:#FFFFFF;" width="2.7" height="39.8"/> <rect x="61.7" y="77.7" style="fill:#FFFFFF;" width="52.6" height="2.7"/> <rect x="61.7" y="90.3" style="fill:#FFFFFF;" width="52.6" height="2.7"/> <rect x="73.1" y="64.4" style="fill:#FFFFFF;" width="2.7" height="39.8"/> <rect x="99.6" y="64.4" style="fill:#FFFFFF;" width="2.7" height="39.8"/> </symbol><symbol viewBox="0 0 176 152" id="form-dates"><title>08_of_Dates_icon_192</title>  <path style="fill:#EB1751;" d="M134.9,3l37.7,73L135,149H41L3.4,76L41,3H134.9 M136.8,0H39.2L0,76l39.2,76h97.6L176,76L136.8,0
	L136.8,0L136.8,0z"/> <polygon style="fill:#EB1751;" points="39.6,16 34.1,16 16.9,16 11.4,16 0,38 11.4,60 16.9,60 34.1,60 39.6,60 51,38 "/> <path style="fill:#FFFFFF;" d="M30,33.3c-0.5,0-0.9,0-1.4,0c-3.2,0.1-4.5,1.5-4.9,3h0.1c0.9-0.7,2-1.1,3.1-1c2.6-0.1,4.8,2,4.9,4.7
	c0,0.1,0,0.3,0,0.4c0,3.2-2.6,5.7-5.8,5.7c-0.1,0-0.2,0-0.2,0c-4.5,0-6.5-3.3-6.5-6.9c-0.1-2.6,0.9-5.1,2.8-6.9
	c1.8-1.5,4.1-2.3,6.5-2.3c0.5,0,1,0,1.5,0V33.3L30,33.3z M27.3,40.6c0.2-1.1-0.6-2.1-1.7-2.3c-0.1,0-0.2,0-0.2,0
	c-0.8,0-1.5,0.4-1.8,1.2c-0.1,0.3-0.1,0.6-0.1,0.9c0.1,1.3,0.7,2.6,2.2,2.6C26.7,42.9,27.3,41.9,27.3,40.6z"/> <rect x="71.1" y="46.3" style="fill:#929299;" width="2.7" height="9.2"/> <rect x="101.8" y="46.3" style="fill:#929299;" width="2.7" height="9.2"/> <path style="fill:#929299;" d="M110,49.7H66c-3.3,0-6,2.7-6,6v44c0,3.3,2.7,6,6,6l0,0h44c3.3,0,6-2.7,6-6l0,0v-44
	C116,52.4,113.3,49.7,110,49.7z M113.3,75v24.7c0,1.8-1.5,3.3-3.3,3.3c0,0,0,0,0,0H66c-1.8,0-3.3-1.5-3.3-3.3l0,0v-44
	c0-1.8,1.5-3.3,3.3-3.3c0,0,0,0,0,0h44c1.8,0,3.3,1.5,3.3,3.3l0,0V75z"/> <rect x="94.1" y="63.1" style="fill:#929299;" width="15.5" height="2.7"/> <rect x="61.3" y="63.1" style="fill:#929299;" width="53.3" height="2.7"/> <rect x="86.7" y="64.4" style="fill:#929299;" width="2.7" height="39.8"/> <rect x="61.7" y="77.7" style="fill:#929299;" width="52.6" height="2.7"/> <rect x="61.7" y="90.3" style="fill:#929299;" width="52.6" height="2.7"/> <rect x="73.1" y="64.4" style="fill:#929299;" width="2.7" height="39.8"/> <rect x="99.6" y="64.4" style="fill:#929299;" width="2.7" height="39.8"/> </symbol><symbol viewBox="0 0 176 152" id="form-ds-2019-hover"><title>08_on_DS2019_icon_192</title>  <polygon style="fill:#EB1751;" points="136.8,0 117.7,0 58.3,0 39.2,0 0,76 39.2,152 58.3,152 117.7,152 136.8,152 176,76 "/> <polygon style="fill:#FFFFFF;" points="12.3,58.5 1.7,38 12.3,17.5 38.7,17.5 49.3,38 38.7,58.5 "/> <path style="fill:#EB1751;" d="M37.8,19l9.8,19l-9.8,19H13.2L3.4,38l9.8-19H37.8 M39.6,16H11.4L0,38l11.4,22h28.2L51,38L39.6,16
	L39.6,16z"/> <path style="fill:#D9154B;" d="M30.5,33.6h-6.1l-0.2,1.7c0.3,0,0.6,0,0.9,0c1.6-0.1,3.1,0.4,4.4,1.3c1.2,0.9,1.9,2.4,1.8,3.9
	c0,2.9-2.5,5.5-7.1,5.5c-1.6,0-3.1-0.3-4.5-0.9l0.7-3.2c1.1,0.5,2.4,0.7,3.6,0.7c1.3,0,2.9-0.5,2.9-1.9s-1.3-2.2-4.3-2.2
	c-0.7,0-1.4,0-2.1,0.1l1-8.5h9.1L30.5,33.6L30.5,33.6z"/> <path style="fill:#FFFFFF;" d="M85,66.9c-1.8-1.3-4.1-2-7.6-2c-1.9,0-3.8,0.1-5.7,0.4v18.2c1.6,0.2,3.2,0.3,4.8,0.3
	c3.6,0,6.6-0.8,8.6-2.4c2.1-1.9,3.3-4.7,3.1-7.5C88.1,70.6,86.9,68.3,85,66.9z M77.4,80.5c-0.5,0-1,0-1.5-0.1V68.3
	c0.6-0.1,1.3-0.2,1.9-0.2c3.6,0,5.9,2,5.8,5.9C83.7,78.4,81.2,80.5,77.4,80.5L77.4,80.5z"/> <path style="fill:#FFFFFF;" d="M104.3,78.1c0-2.6-1.5-4.3-4.8-5.5c-2.4-0.9-3.4-1.4-3.4-2.6c0-1,0.9-1.8,2.7-1.8
	c1.3,0,2.7,0.3,3.9,0.9l0.9-3.4c-1.5-0.6-3.1-1-4.7-0.9c-4.4,0-7,2.4-7,5.6c0,2.7,2,4.4,5.1,5.5c2.2,0.8,3.1,1.5,3.1,2.6s-1,2-2.9,2
	c-1.6,0-3.2-0.4-4.7-1.2l-0.9,3.5c1.6,0.8,3.4,1.2,5.3,1.1C101.9,83.9,104.3,81.2,104.3,78.1z"/> <path style="fill:#FFFFFF;" d="M74.7,93.3l0.8-0.7c1.3-1.2,2.4-2.4,2.4-3.9s-1.1-2.9-3.2-2.9c-1.1,0-2.1,0.3-3,0.9l0.6,1.5
	c0.6-0.5,1.3-0.7,2-0.8c0.7-0.1,1.4,0.4,1.5,1.1c0,0.1,0,0.2,0,0.3c0,1.1-1,2.1-3,3.9l-1.2,1.1v1.3h6.5v-1.8L74.7,93.3L74.7,93.3
	L74.7,93.3z"/> <path style="fill:#FFFFFF;" d="M83.6,85.8c-2.4,0-3.5,2.1-3.5,4.7s1.1,4.7,3.4,4.7s3.5-1.9,3.5-4.8C87,88,86,85.8,83.6,85.8z
	 M83.6,93.7c-0.8,0-1.3-1-1.3-3.1s0.5-3.1,1.3-3.1s1.3,1.1,1.3,3.1S84.4,93.7,83.6,93.7L83.6,93.7z"/> <polygon style="fill:#FFFFFF;" points="89.3,87.1 89.7,88.7 91.4,87.9 91.5,87.9 91.5,95.1 93.5,95.1 93.5,86 91.8,86 "/> <path style="fill:#FFFFFF;" d="M100.5,85.8c-1.8-0.1-3.4,1.4-3.4,3.2c0,0,0,0.1,0,0.1c-0.1,1.5,1.1,2.8,2.6,2.9c0.1,0,0.2,0,0.3,0
	c0.7,0,1.3-0.2,1.8-0.7l0,0c-0.2,0.7-0.6,1.3-1.2,1.7c-0.5,0.3-1.2,0.5-1.8,0.6c-0.3,0-0.6,0-0.9,0v1.7c0.3,0,0.7,0,1,0
	c2.8,0.1,5.1-2.1,5.1-4.9c0-0.2,0-0.4,0-0.6C104,87.6,102.9,85.8,100.5,85.8z M101.7,89.8c-0.3,0.4-0.7,0.6-1.2,0.6
	c-0.7,0-1.3-0.6-1.3-1.3c0-0.1,0-0.1,0-0.2c-0.1-0.8,0.4-1.5,1.1-1.6c0,0,0.1,0,0.1,0c1,0,1.3,1,1.3,1.9
	C101.8,89.5,101.8,89.7,101.7,89.8L101.7,89.8z"/> <path style="fill:#FFFFFF;" d="M110,41.4h-8.9c0.1,0.9,0,1.8-0.2,2.7h9.2c1.8,0,3.3,1.5,3.3,3.3l0,0V110c0,1.8-1.5,3.3-3.3,3.3H66
	c-1.8,0-3.3-1.5-3.3-3.3V47.4c0-1.8,1.5-3.3,3.3-3.3l0,0h9.1c-0.2-0.9-0.3-1.8-0.2-2.7H66c-3.3,0-6,2.7-6,6V110c0,3.3,2.7,6,6,6h44
	c3.3,0,6-2.7,6-6V47.4C116,44.1,113.3,41.4,110,41.4z"/> <path style="fill:#FFFFFF;" d="M102.4,42.6V42c0-3.3-2.7-6-6-6H79.6c-3.3,0-6,2.7-6,6v1.9c0,3.3,2.7,6,6,6h16.8c3.3,0,6-2.7,6-6
	v-2.7c-0.5-0.4-0.9-0.8-1.3-1.3c-0.4,0.6-0.9,1.1-1.4,1.5v2.6c0,1.8-1.5,3.3-3.3,3.3H79.6c-1.8,0-3.3-1.5-3.3-3.3v0V42
	c0-1.8,1.5-3.3,3.3-3.3l0,0h16.8c1.8,0,3.3,1.5,3.3,3.3v0v0.7"/> </symbol><symbol viewBox="0 0 176 152" id="form-ds-2019"><title>08_of_DS2019_icon_192</title>  <path style="fill:#EB1751;" d="M134.9,3l37.7,73L135,149H41L3.4,76L41,3H134.9 M136.8,0H39.2L0,76l39.2,76h97.6L176,76L136.8,0
	L136.8,0L136.8,0z"/> <polygon style="fill:#EB1751;" points="39.6,16 34.1,16 16.9,16 11.4,16 0,38 11.4,60 16.9,60 34.1,60 39.6,60 51,38 "/> <path style="fill:#FFFFFF;" d="M30.5,33.6h-6.1l-0.2,1.7c0.3,0,0.6,0,0.9,0c1.6-0.1,3.1,0.4,4.4,1.3c1.2,0.9,1.9,2.4,1.8,3.9
	c0,2.9-2.5,5.5-7.1,5.5c-1.6,0-3.1-0.3-4.5-0.9l0.7-3.2c1.1,0.5,2.4,0.7,3.6,0.7c1.3,0,2.9-0.5,2.9-1.9s-1.3-2.2-4.3-2.2
	c-0.7,0-1.4,0-2.1,0.1l1-8.5h9.1L30.5,33.6L30.5,33.6z"/> <path style="fill:#929299;" d="M85,66.9c-1.8-1.3-4.1-2-7.6-2c-1.9,0-3.8,0.1-5.7,0.4v18.2c1.6,0.2,3.2,0.3,4.8,0.3
	c3.6,0,6.6-0.8,8.6-2.4c2.1-1.9,3.3-4.7,3.1-7.5C88.1,70.6,86.9,68.3,85,66.9z M77.4,80.5c-0.5,0-1,0-1.5-0.1V68.3
	c0.6-0.1,1.3-0.2,1.9-0.2c3.6,0,5.9,2,5.8,5.9C83.7,78.4,81.2,80.5,77.4,80.5L77.4,80.5z"/> <path style="fill:#929299;" d="M104.3,78.1c0-2.6-1.5-4.3-4.8-5.5c-2.4-0.9-3.4-1.4-3.4-2.6c0-1,0.9-1.8,2.7-1.8
	c1.3,0,2.7,0.3,3.9,0.9l0.9-3.4c-1.5-0.6-3.1-1-4.7-0.9c-4.4,0-7,2.4-7,5.6c0,2.7,2,4.4,5.1,5.5c2.2,0.8,3.1,1.5,3.1,2.6s-1,2-2.9,2
	c-1.6,0-3.2-0.4-4.7-1.2l-0.9,3.5c1.6,0.8,3.4,1.2,5.3,1.1C101.9,83.9,104.3,81.2,104.3,78.1z"/> <path style="fill:#929299;" d="M74.7,93.3l0.8-0.7c1.3-1.2,2.4-2.4,2.4-3.9s-1.1-2.9-3.2-2.9c-1.1,0-2.1,0.3-3,0.9l0.6,1.5
	c0.6-0.5,1.3-0.7,2-0.8c0.7-0.1,1.4,0.4,1.5,1.1c0,0.1,0,0.2,0,0.3c0,1.1-1,2.1-3,3.9l-1.2,1.1v1.3h6.5v-1.8L74.7,93.3L74.7,93.3
	L74.7,93.3z"/> <path style="fill:#929299;" d="M83.6,85.8c-2.4,0-3.5,2.1-3.5,4.7s1.1,4.7,3.4,4.7s3.5-1.9,3.5-4.8C87,88,86,85.8,83.6,85.8z
	 M83.6,93.7c-0.8,0-1.3-1-1.3-3.1s0.5-3.1,1.3-3.1s1.3,1.1,1.3,3.1S84.4,93.7,83.6,93.7L83.6,93.7z"/> <polygon style="fill:#929299;" points="89.3,87.1 89.7,88.7 91.4,87.9 91.5,87.9 91.5,95.1 93.5,95.1 93.5,86 91.8,86 "/> <path style="fill:#929299;" d="M100.5,85.8c-1.8-0.1-3.4,1.4-3.4,3.2c0,0,0,0.1,0,0.1c-0.1,1.5,1.1,2.8,2.6,2.9c0.1,0,0.2,0,0.3,0
	c0.7,0,1.3-0.2,1.8-0.7l0,0c-0.2,0.7-0.6,1.3-1.2,1.7c-0.5,0.3-1.2,0.5-1.8,0.6c-0.3,0-0.6,0-0.9,0v1.7c0.3,0,0.7,0,1,0
	c2.8,0.1,5.1-2.1,5.1-4.9c0-0.2,0-0.4,0-0.6C104,87.6,102.9,85.8,100.5,85.8z M101.7,89.8c-0.3,0.4-0.7,0.6-1.2,0.6
	c-0.7,0-1.3-0.6-1.3-1.3c0-0.1,0-0.1,0-0.2c-0.1-0.8,0.4-1.5,1.1-1.6c0,0,0.1,0,0.1,0c1,0,1.3,1,1.3,1.9
	C101.8,89.5,101.8,89.7,101.7,89.8L101.7,89.8z"/> <path style="fill:#929299;" d="M110,41.4h-8.9c0.1,0.9,0,1.8-0.2,2.7h9.2c1.8,0,3.3,1.5,3.3,3.3l0,0V110c0,1.8-1.5,3.3-3.3,3.3H66
	c-1.8,0-3.3-1.5-3.3-3.3V47.4c0-1.8,1.5-3.3,3.3-3.3l0,0h9.1c-0.2-0.9-0.3-1.8-0.2-2.7H66c-3.3,0-6,2.7-6,6V110c0,3.3,2.7,6,6,6h44
	c3.3,0,6-2.7,6-6V47.4C116,44.1,113.3,41.4,110,41.4z"/> <path style="fill:#929299;" d="M102.4,42.6V42c0-3.3-2.7-6-6-6H79.6c-3.3,0-6,2.7-6,6v1.9c0,3.3,2.7,6,6,6h16.8c3.3,0,6-2.7,6-6
	v-2.7c-0.5-0.4-0.9-0.8-1.3-1.3c-0.4,0.6-0.9,1.1-1.4,1.5v2.6c0,1.8-1.5,3.3-3.3,3.3H79.6c-1.8,0-3.3-1.5-3.3-3.3v0V42
	c0-1.8,1.5-3.3,3.3-3.3l0,0h16.8c1.8,0,3.3,1.5,3.3,3.3v0v0.7"/> </symbol><symbol viewBox="0 0 176 152" id="form-pasport-hover"><title>08_on_Passport_icon_192</title>  <polygon style="fill:#EB1751;" points="136.8,0 117.7,0 58.3,0 39.2,0 0,76 39.2,152 58.3,152 117.7,152 136.8,152 176,76 "/> <polygon style="fill:#FFFFFF;" points="12.3,58.5 1.7,38 12.3,17.5 38.7,17.5 49.3,38 38.7,58.5 "/> <path style="fill:#EB1751;" d="M37.8,19l9.8,19l-9.8,19H13.2L3.4,38l9.8-19H37.8 M39.6,16H11.4L0,38l11.4,22h28.2L51,38L39.6,16
	L39.6,16z"/> <path style="fill:#D9154B;" d="M20.5,41.7c1.2,0.6,2.4,0.9,3.7,0.9c1.5,0,2.5-0.5,2.5-1.7c0-1.3-1.3-1.9-2.8-1.9h-1.6v-3.1h1.5
	c1.1,0,2.5-0.3,2.5-1.4c0-0.8-0.7-1.3-2.1-1.3c-1.2,0-2.3,0.3-3.3,0.9l-0.8-3.1c1.6-0.8,3.4-1.2,5.1-1.2c3.5,0,5.5,1.7,5.5,4
	c0,1.7-1.2,3.2-2.9,3.6l0,0c1.9,0.2,3.3,1.8,3.3,3.7c0,2.9-2.6,4.8-6.7,4.8c-1.7,0.1-3.4-0.3-4.9-1.1L20.5,41.7z"/> <rect x="65.6" y="86.9" style="fill:#FFFFFF;" width="8.7" height="2"/> <rect x="59.3" y="82.8" style="fill:#FFFFFF;" width="21.2" height="2"/> <rect x="59.3" y="78.7" style="fill:#FFFFFF;" width="21.2" height="2.1"/> <rect x="59.3" y="68.5" style="fill:#FFFFFF;" width="21.2" height="6.1"/> <rect x="99.5" y="93" style="fill:#FFFFFF;" width="13.2" height="2"/> <rect x="97.2" y="88.9" style="fill:#FFFFFF;" width="17.7" height="2.1"/> <path style="fill:#FFFFFF;" d="M112.3,62.4H99.9c-2.4,0-4.4,2-4.4,4.4v12.4c0,2.4,2,4.4,4.4,4.4h0h12.4c2.4,0,4.4-2,4.4-4.4V66.8
	C116.7,64.3,114.7,62.4,112.3,62.4C112.3,62.4,112.3,62.4,112.3,62.4z M114.7,81v-1.8c0,1.3-1.1,2.4-2.4,2.4H99.9
	c-1.3,0-2.4-1.1-2.4-2.4V66.8c0-1.3,1.1-2.4,2.4-2.4h12.4c1.3,0,2.4,1.1,2.4,2.4L114.7,81L114.7,81z"/> <path style="fill:#FFFFFF;" d="M106.2,76.3c-3.3,0-6,3-6,6.6h12C112.3,79.3,109.6,76.3,106.2,76.3z"/> <path style="fill:#FFFFFF;" d="M109.8,71.6c0,2-1.6,3.6-3.6,3.6c-2,0-3.6-1.6-3.6-3.6c0-2,1.6-3.6,3.6-3.6
	C108.2,68,109.8,69.6,109.8,71.6C109.8,71.6,109.8,71.6,109.8,71.6z"/> <path style="fill:#FFFFFF;" d="M83.7,50.7h-2.5c-0.4,0.4-0.8,0.8-1.2,1.2c0.5,0.4,1,0.8,1.4,1.3h2.3c1.7,0,3,1.3,3,3v45.1
	c0,1.7-1.3,3-3,3H56.2c-1.7,0-3-1.3-3-3V56.1c0-1.7,1.3-3,3-3h26.5c0.4-0.5,0.8-0.9,1.3-1.2c-0.5-0.3-0.9-0.8-1.3-1.2H56.2
	c-3,0-5.4,2.4-5.4,5.4l0,0v45.1c0,3,2.4,5.4,5.4,5.4l0,0h27.6c3,0,5.4-2.4,5.4-5.4v0V56.1C89.2,53.1,86.7,50.7,83.7,50.7z"/> <path style="fill:#FFFFFF;" d="M119.8,50.7h-2.5c-0.4,0.4-0.8,0.8-1.2,1.2c0.5,0.4,1,0.8,1.4,1.3h2.3c1.7,0,3,1.3,3,3v45.1
	c0,1.7-1.3,3-3,3H92.3c-1.7,0-3-1.3-3-3V56.1c0-1.7,1.3-3,3-3h26.5c0.4-0.5,0.8-0.9,1.3-1.2c-0.5-0.3-0.9-0.8-1.3-1.2H92.3
	c-3,0-5.4,2.4-5.4,5.4v0v45.1c0,3,2.4,5.4,5.4,5.4h0h27.6c3,0,5.4-2.4,5.4-5.4V56.1C125.3,53.1,122.9,50.7,119.8,50.7z"/> </symbol><symbol viewBox="0 0 176 152" id="form-pasport"><title>08_of_Passport_icon_192</title>  <path style="fill:#EB1751;" d="M134.9,3l37.7,73L135,149H41L3.4,76L41,3H134.9 M136.8,0H39.2L0,76l39.2,76h97.6L176,76L136.8,0
	L136.8,0L136.8,0z"/> <polygon style="fill:#EB1751;" points="39.6,16 34.1,16 16.9,16 11.4,16 0,38 11.4,60 16.9,60 34.1,60 39.6,60 51,38 "/> <path style="fill:#FFFFFF;" d="M20.5,41.7c1.2,0.6,2.4,0.9,3.7,0.9c1.5,0,2.5-0.5,2.5-1.7c0-1.3-1.3-1.9-2.8-1.9h-1.6v-3.1h1.5
	c1.1,0,2.5-0.3,2.5-1.4c0-0.8-0.7-1.3-2.1-1.3c-1.2,0-2.3,0.3-3.3,0.9l-0.8-3.1c1.6-0.8,3.4-1.2,5.1-1.2c3.5,0,5.5,1.7,5.5,4
	c0,1.7-1.2,3.2-2.9,3.6l0,0c1.9,0.2,3.3,1.8,3.3,3.7c0,2.9-2.6,4.8-6.7,4.8c-1.7,0.1-3.4-0.3-4.9-1.1L20.5,41.7z"/> <rect x="65.6" y="86.9" style="fill:#929299;" width="8.7" height="2"/> <rect x="59.3" y="82.8" style="fill:#929299;" width="21.2" height="2"/> <rect x="59.3" y="78.7" style="fill:#929299;" width="21.2" height="2.1"/> <rect x="59.3" y="68.5" style="fill:#929299;" width="21.2" height="6.1"/> <rect x="99.5" y="93" style="fill:#929299;" width="13.2" height="2"/> <rect x="97.2" y="88.9" style="fill:#929299;" width="17.7" height="2.1"/> <path style="fill:#929299;" d="M112.3,62.4H99.9c-2.4,0-4.4,2-4.4,4.4v12.4c0,2.4,2,4.4,4.4,4.4h0h12.4c2.4,0,4.4-2,4.4-4.4V66.8
	C116.7,64.3,114.7,62.4,112.3,62.4C112.3,62.4,112.3,62.4,112.3,62.4z M114.7,81v-1.8c0,1.3-1.1,2.4-2.4,2.4H99.9
	c-1.3,0-2.4-1.1-2.4-2.4V66.8c0-1.3,1.1-2.4,2.4-2.4h12.4c1.3,0,2.4,1.1,2.4,2.4L114.7,81L114.7,81z"/> <path style="fill:#929299;" d="M106.2,76.3c-3.3,0-6,3-6,6.6h12C112.3,79.3,109.6,76.3,106.2,76.3z"/> <path style="fill:#929299;" d="M109.8,71.6c0,2-1.6,3.6-3.6,3.6c-2,0-3.6-1.6-3.6-3.6c0-2,1.6-3.6,3.6-3.6
	C108.2,68,109.8,69.6,109.8,71.6C109.8,71.6,109.8,71.6,109.8,71.6z"/> <path style="fill:#929299;" d="M83.7,50.7h-2.5c-0.4,0.4-0.8,0.8-1.2,1.2c0.5,0.4,1,0.8,1.4,1.3h2.3c1.7,0,3,1.3,3,3v45.1
	c0,1.7-1.3,3-3,3H56.2c-1.7,0-3-1.3-3-3V56.1c0-1.7,1.3-3,3-3h26.5c0.4-0.5,0.8-0.9,1.3-1.2c-0.5-0.3-0.9-0.8-1.3-1.2H56.2
	c-3,0-5.4,2.4-5.4,5.4l0,0v45.1c0,3,2.4,5.4,5.4,5.4l0,0h27.6c3,0,5.4-2.4,5.4-5.4v0V56.1C89.2,53.1,86.7,50.7,83.7,50.7z"/> <path style="fill:#929299;" d="M119.8,50.7h-2.5c-0.4,0.4-0.8,0.8-1.2,1.2c0.5,0.4,1,0.8,1.4,1.3h2.3c1.7,0,3,1.3,3,3v45.1
	c0,1.7-1.3,3-3,3H92.3c-1.7,0-3-1.3-3-3V56.1c0-1.7,1.3-3,3-3h26.5c0.4-0.5,0.8-0.9,1.3-1.2c-0.5-0.3-0.9-0.8-1.3-1.2H92.3
	c-3,0-5.4,2.4-5.4,5.4v0v45.1c0,3,2.4,5.4,5.4,5.4h0h27.6c3,0,5.4-2.4,5.4-5.4V56.1C125.3,53.1,122.9,50.7,119.8,50.7z"/> </symbol><symbol viewBox="0 0 176 152" id="form-sscard-hover"><title>08_on_SSCard_icon_192</title>  <polygon style="fill:#EB1751;" points="136.8,0 117.7,0 58.3,0 39.2,0 0,76 39.2,152 58.3,152 117.7,152 136.8,152 176,76 "/> <polygon style="fill:#FFFFFF;" points="12.3,58.5 1.7,38 12.3,17.5 38.7,17.5 49.3,38 38.7,58.5 "/> <path style="fill:#EB1751;" d="M37.8,19l9.8,19l-9.8,19H13.2L3.4,38l9.8-19H37.8 M39.6,16H11.4L0,38l11.4,22h28.2L51,38L39.6,16
	L39.6,16z"/> <path style="fill:#D9154B;" d="M19.7,45.9v-2.6l2.2-1.9c3.2-2.7,4.8-4.4,4.8-6c0-1.1-0.7-1.9-2.3-1.9c-1.2,0.1-2.4,0.5-3.3,1.3
	l-1.2-3.1c1.6-1.1,3.5-1.7,5.4-1.6c3.6,0,5.8,2,5.8,5c0,2.5-1.8,4.5-3.6,6l-1.5,1.2l0,0h5.4v3.5H19.7V45.9z"/> <path style="fill:#FFFFFF;" d="M119.9,50.7h-39c-0.3,0.5-0.7,0.9-1.2,1.3c0.5,0.4,1,0.9,1.4,1.4h38.8c1.7,0.1,3,1.6,2.9,3.3v44
	c0.1,1.7-1.2,3.2-2.9,3.3H56.1c-1.7-0.1-3-1.6-3-3.3v-44c-0.1-1.7,1.2-3.2,3-3.3h26.2c0.4-0.5,0.8-1,1.3-1.4
	c-0.5-0.4-0.9-0.8-1.3-1.3H56.1c-3,0-5.4,2.7-5.4,6v44c0,3.3,2.4,6,5.4,6h63.8c3,0,5.4-2.7,5.4-6v-44
	C125.3,53.4,122.9,50.7,119.9,50.7z"/> <rect x="79.6" y="89.1" style="fill:#FFFFFF;" width="16.7" height="2.3"/> <rect x="67.7" y="84.6" style="fill:#FFFFFF;" width="40.5" height="2.3"/> <rect x="67.7" y="80.1" style="fill:#FFFFFF;" width="40.5" height="2.3"/> <rect x="67.7" y="68.8" style="fill:#FFFFFF;" width="40.5" height="6.8"/> </symbol><symbol viewBox="0 0 176 152" id="form-sscard"><title>08_of_SSCard_icon_192</title>  <path style="fill:#EB1751;" d="M134.9,3l37.7,73L135,149H41L3.4,76L41,3H134.9 M136.8,0H39.2L0,76l39.2,76h97.6L176,76L136.8,0
	L136.8,0L136.8,0z"/> <polygon style="fill:#EB1751;" points="39.6,16 34.1,16 16.9,16 11.4,16 0,38 11.4,60 16.9,60 34.1,60 39.6,60 51,38 "/> <path style="fill:#FFFFFF;" d="M19.7,45.9v-2.6l2.2-1.9c3.2-2.7,4.8-4.4,4.8-6c0-1.1-0.7-1.9-2.3-1.9c-1.2,0.1-2.4,0.5-3.3,1.3
	l-1.2-3.1c1.6-1.1,3.5-1.7,5.4-1.6c3.6,0,5.8,2,5.8,5c0,2.5-1.8,4.5-3.6,6l-1.5,1.2l0,0h5.4v3.5H19.7V45.9z"/> <path style="fill:#929299;" d="M119.9,50.7h-39c-0.3,0.5-0.7,0.9-1.2,1.3c0.5,0.4,1,0.9,1.4,1.4h38.8c1.7,0.1,3,1.6,2.9,3.3v44
	c0.1,1.7-1.2,3.2-2.9,3.3H56.1c-1.7-0.1-3-1.6-3-3.3v-44c-0.1-1.7,1.2-3.2,3-3.3h26.2c0.4-0.5,0.8-1,1.3-1.4
	c-0.5-0.4-0.9-0.8-1.3-1.3H56.1c-3,0-5.4,2.7-5.4,6v44c0,3.3,2.4,6,5.4,6h63.8c3,0,5.4-2.7,5.4-6v-44
	C125.3,53.4,122.9,50.7,119.9,50.7z"/> <rect x="79.6" y="89.1" style="fill:#929299;" width="16.7" height="2.3"/> <rect x="67.7" y="84.6" style="fill:#929299;" width="40.5" height="2.3"/> <rect x="67.7" y="80.1" style="fill:#929299;" width="40.5" height="2.3"/> <rect x="67.7" y="68.8" style="fill:#929299;" width="40.5" height="6.8"/> </symbol><symbol viewBox="0 0 176 152" id="form-visa-hover"><title>08_on_Visa_icon_192</title>  <polygon style="fill:#EB1751;" points="136.8,0 117.7,0 58.3,0 39.2,0 0,76 39.2,152 58.3,152 117.7,152 136.8,152 176,76 "/> <polygon style="fill:#FFFFFF;" points="12.3,58.5 1.7,38 12.3,17.5 38.7,17.5 49.3,38 38.7,58.5 "/> <path style="fill:#EB1751;" d="M37.8,19l9.8,19l-9.8,19H13.2L3.4,38l9.8-19H37.8 M39.6,16H11.4L0,38l11.4,22h28.2L51,38L39.6,16
	L39.6,16z"/> <path style="fill:#D9154B;" d="M26,45.8v-3.5h-6.8v-2.8l5.4-9.3H30v8.9h1.7v3.2H30v3.5H26z M26,39.1v-2.7c0-1,0.1-2,0.1-3.1H26
	c-0.5,1-0.9,2-1.5,3.1L23.1,39l0,0L26,39.1L26,39.1z"/> <path style="fill:#FFFFFF;" d="M72.1,82.8c-4,0-7.3,3.6-7.3,8.1h14.7C79.5,86.4,76.2,82.8,72.1,82.8z"/> <path style="fill:#FFFFFF;" d="M76.5,77.1c0,2.4-2,4.4-4.4,4.4c-2.4,0-4.4-2-4.4-4.4c0-2.4,2-4.4,4.4-4.4
	C74.6,72.6,76.5,74.6,76.5,77.1C76.5,77,76.5,77.1,76.5,77.1z"/> <path style="fill:#FFFFFF;" d="M79.5,65.8H64.4c-3,0-5.4,2.4-5.4,5.4v15.1c0,3,2.4,5.4,5.4,5.4h15.1c3,0,5.4-2.4,5.4-5.4V71.2
	C84.9,68.2,82.4,65.8,79.5,65.8z M82.4,88.5v-2.2c0,1.6-1.3,2.9-2.9,2.9H64.4c-1.6,0-2.9-1.3-2.9-2.9V71.2c0-1.6,1.3-2.9,2.9-2.9
	h15.1c1.6,0,2.9,1.3,2.9,2.9V88.5z"/> <rect x="90.7" y="88.9" style="fill:#FFFFFF;" width="13.2" height="2"/> <rect x="90.7" y="84.8" style="fill:#FFFFFF;" width="26.3" height="2"/> <rect x="90.7" y="80.8" style="fill:#FFFFFF;" width="26.3" height="2"/> <rect x="90.7" y="76.7" style="fill:#FFFFFF;" width="26.3" height="2"/> <rect x="90.7" y="66.6" style="fill:#FFFFFF;" width="26.3" height="6.1"/> <path style="fill:#FFFFFF;" d="M119.9,50.7h-39c-0.3,0.5-0.7,0.9-1.2,1.3c0.5,0.4,1,0.9,1.4,1.4h38.8c1.7,0.1,3,1.6,2.9,3.3v44
	c0.1,1.7-1.2,3.2-2.9,3.3H56.1c-1.7-0.1-3-1.6-3-3.3v-44c-0.1-1.7,1.2-3.2,3-3.3h26.2c0.4-0.5,0.8-1,1.3-1.4
	c-0.5-0.4-0.9-0.8-1.3-1.3H56.1c-3,0-5.4,2.7-5.4,6v44c0,3.3,2.4,6,5.4,6h63.8c3,0,5.4-2.7,5.4-6v-44
	C125.3,53.4,122.9,50.7,119.9,50.7z"/> </symbol><symbol viewBox="0 0 176 152" id="form-visa"><title>08_of_Visa_icon_192</title>  <path style="fill:#EB1751;" d="M134.9,3l37.7,73L135,149H41L3.4,76L41,3H134.9 M136.8,0H39.2L0,76l39.2,76h97.6L176,76L136.8,0
	L136.8,0L136.8,0z"/> <polygon style="fill:#EB1751;" points="39.6,16 34.1,16 16.9,16 11.4,16 0,38 11.4,60 16.9,60 34.1,60 39.6,60 51,38 "/> <path style="fill:#929299;" d="M72.1,82.8c-4,0-7.3,3.6-7.3,8.1h14.7C79.5,86.4,76.2,82.8,72.1,82.8z"/> <path style="fill:#929299;" d="M76.5,77.1c0,2.4-2,4.4-4.4,4.4c-2.4,0-4.4-2-4.4-4.4c0-2.4,2-4.4,4.4-4.4
	C74.6,72.6,76.5,74.6,76.5,77.1C76.5,77,76.5,77.1,76.5,77.1z"/> <path style="fill:#929299;" d="M79.5,65.8H64.4c-3,0-5.4,2.4-5.4,5.4v15.1c0,3,2.4,5.4,5.4,5.4h15.1c3,0,5.4-2.4,5.4-5.4V71.2
	C84.9,68.2,82.4,65.8,79.5,65.8z M82.4,88.5v-2.2c0,1.6-1.3,2.9-2.9,2.9H64.4c-1.6,0-2.9-1.3-2.9-2.9V71.2c0-1.6,1.3-2.9,2.9-2.9
	h15.1c1.6,0,2.9,1.3,2.9,2.9V88.5z"/> <rect x="90.7" y="88.9" style="fill:#929299;" width="13.2" height="2"/> <rect x="90.7" y="84.8" style="fill:#929299;" width="26.3" height="2"/> <rect x="90.7" y="80.8" style="fill:#929299;" width="26.3" height="2"/> <rect x="90.7" y="76.7" style="fill:#929299;" width="26.3" height="2"/> <rect x="90.7" y="66.6" style="fill:#929299;" width="26.3" height="6.1"/> <path style="fill:#929299;" d="M119.9,50.7h-39c-0.3,0.5-0.7,0.9-1.2,1.3c0.5,0.4,1,0.9,1.4,1.4h38.8c1.7,0.1,3,1.6,2.9,3.3v44
	c0.1,1.7-1.2,3.2-2.9,3.3H56.1c-1.7-0.1-3-1.6-3-3.3v-44c-0.1-1.7,1.2-3.2,3-3.3h26.2c0.4-0.5,0.8-1,1.3-1.4
	c-0.5-0.4-0.9-0.8-1.3-1.3H56.1c-3,0-5.4,2.7-5.4,6v44c0,3.3,2.4,6,5.4,6h63.8c3,0,5.4-2.7,5.4-6v-44
	C125.3,53.4,122.9,50.7,119.9,50.7z"/> <path style="fill:#FFFFFF;" d="M26,45.8v-3.5h-6.8v-2.8l5.4-9.3H30v8.9h1.7v3.2H30v3.5H26z M26,39.1v-2.7c0-1,0.1-2,0.1-3.1H26
	c-0.5,1-0.9,2-1.5,3.1L23.1,39l0,0L26,39.1L26,39.1z"/> </symbol><symbol viewBox="0 0 176 152" id="form-w2-hover"><title>08_on_FormW2_icon_192</title>  <polygon style="fill:#EB1751;" points="136.8,0 117.7,0 58.3,0 39.2,0 0,76 39.2,152 58.3,152 117.7,152 136.8,152 176,76 "/> <polygon style="fill:#FFFFFF;" points="12.3,58.5 1.7,38 12.3,17.5 38.7,17.5 49.3,38 38.7,58.5 "/> <path style="fill:#EB1751;" d="M37.8,19l9.8,19l-9.8,19H13.2L3.4,38l9.8-19H37.8 M39.6,16H11.4L0,38l11.4,22h28.2L51,38L39.6,16
	L39.6,16z"/> <path style="fill:#FFFFFF;" d="M75,86l-3.3-14.6h4.2l0.8,5.4c0.3,1.7,0.5,3.6,0.7,5.1l0,0c0.2-1.6,0.5-3.4,0.9-5.2l0.9-5.3h4.2
	l1,5.6c0.3,1.7,0.4,3.2,0.7,4.8l0,0c0.2-1.6,0.5-3.3,0.7-5.1l0.9-5.3h4L87,86h-4.3l-1-5.7c-0.2-1.3-0.4-2.6-0.6-4.4l0,0
	c-0.2,1.7-0.4,3.1-0.7,4.4L79.3,86H75z"/> <path style="fill:#FFFFFF;" d="M94,86v-2.4l1.9-1.7c2.8-2.5,4.3-3.9,4.3-5.4c0-1-0.7-1.8-2.1-1.8c-1.1,0.1-2.1,0.5-3,1.1l-1.1-2.8
	c1.4-1,3.1-1.5,4.8-1.5c3.3,0,5.2,1.8,5.2,4.5c0,2.3-1.6,4.1-3.3,5.4l-1.4,1.1l0,0h4.9V86H94z"/> <path style="fill:#FFFFFF;" d="M110,41.4h-8.9c0.1,0.9,0,1.8-0.2,2.7h9.2c1.8,0,3.3,1.5,3.3,3.3l0,0V110c0,1.8-1.5,3.3-3.3,3.3H66
	c-1.8,0-3.3-1.5-3.3-3.3V47.4c0-1.8,1.5-3.3,3.3-3.3l0,0h9.1c-0.2-0.9-0.3-1.8-0.2-2.7H66c-3.3,0-6,2.7-6,6V110c0,3.3,2.7,6,6,6h44
	c3.3,0,6-2.7,6-6V47.4C116,44.1,113.3,41.4,110,41.4z"/> <path style="fill:#FFFFFF;" d="M102.4,42.6V42c0-3.3-2.7-6-6-6H79.6c-3.3,0-6,2.7-6,6v1.9c0,3.3,2.7,6,6,6h16.8c3.3,0,6-2.7,6-6
	v-2.7c-0.5-0.4-0.9-0.8-1.3-1.3c-0.4,0.6-0.9,1.1-1.4,1.5v2.6c0,1.8-1.5,3.3-3.3,3.3H79.6c-1.8,0-3.3-1.5-3.3-3.3v0V42
	c0-1.8,1.5-3.3,3.3-3.3l0,0h16.8c1.8,0,3.3,1.5,3.3,3.3v0v0.7"/> <path style="fill:#D9154B;" d="M23.3,33.2L23.3,33.2l-3.1,1.4l-0.7-3.2l4.5-2h3.5V45h-4.2V33.2z"/> </symbol><symbol viewBox="0 0 176 152" id="form-w2"><title>08_of_FormW2_icon_192</title>  <path style="fill:#EB1751;" d="M134.9,3l37.7,73L135,149H41L3.4,76L41,3H134.9 M136.8,0H39.2L0,76l39.2,76h97.6L176,76L136.8,0
	L136.8,0L136.8,0z"/> <polygon style="fill:#EB1751;" points="39.6,16 34.1,16 16.9,16 11.4,16 0,38 11.4,60 16.9,60 34.1,60 39.6,60 51,38 "/> <path style="fill:#929299;" d="M75,86l-3.3-14.6h4.2l0.8,5.4c0.3,1.7,0.5,3.6,0.7,5.1l0,0c0.2-1.6,0.5-3.4,0.9-5.2l0.9-5.3h4.2
	l1,5.6c0.3,1.7,0.4,3.2,0.7,4.8l0,0c0.2-1.6,0.5-3.3,0.7-5.1l0.9-5.3h4L87,86h-4.3l-1-5.7c-0.2-1.3-0.4-2.6-0.6-4.4l0,0
	c-0.2,1.7-0.4,3.1-0.7,4.4L79.3,86H75z"/> <path style="fill:#929299;" d="M94,86v-2.4l1.9-1.7c2.8-2.5,4.3-3.9,4.3-5.4c0-1-0.7-1.8-2.1-1.8c-1.1,0.1-2.1,0.5-3,1.1l-1.1-2.8
	c1.4-1,3.1-1.5,4.8-1.5c3.3,0,5.2,1.8,5.2,4.5c0,2.3-1.6,4.1-3.3,5.4l-1.4,1.1l0,0h4.9V86H94z"/> <path style="fill:#929299;" d="M110,41.4h-8.9c0.1,0.9,0,1.8-0.2,2.7h9.2c1.8,0,3.3,1.5,3.3,3.3l0,0V110c0,1.8-1.5,3.3-3.3,3.3H66
	c-1.8,0-3.3-1.5-3.3-3.3V47.4c0-1.8,1.5-3.3,3.3-3.3l0,0h9.1c-0.2-0.9-0.3-1.8-0.2-2.7H66c-3.3,0-6,2.7-6,6V110c0,3.3,2.7,6,6,6h44
	c3.3,0,6-2.7,6-6V47.4C116,44.1,113.3,41.4,110,41.4z"/> <path style="fill:#929299;" d="M102.4,42.6V42c0-3.3-2.7-6-6-6H79.6c-3.3,0-6,2.7-6,6v1.9c0,3.3,2.7,6,6,6h16.8c3.3,0,6-2.7,6-6
	v-2.7c-0.5-0.4-0.9-0.8-1.3-1.3c-0.4,0.6-0.9,1.1-1.4,1.5v2.6c0,1.8-1.5,3.3-3.3,3.3H79.6c-1.8,0-3.3-1.5-3.3-3.3v0V42
	c0-1.8,1.5-3.3,3.3-3.3l0,0h16.8c1.8,0,3.3,1.5,3.3,3.3v0v0.7"/> <path style="fill:#FFFFFF;" d="M23.3,33.2L23.3,33.2l-3.1,1.4l-0.7-3.2l4.5-2h3.5V45h-4.2V33.2z"/> </symbol><symbol viewBox="0 0 175.5 152" id="hiw-01"><title>07_col_Create_icon_192</title>  <polygon style="fill:#EA1751;" points="0,76 43.9,0 131.6,0 175.5,76 131.6,152 43.9,152 "/> <polygon style="opacity:0.1;enable-background:new    ;" points="77.2,152 131.6,152 164.7,94.7 105.6,35.6 72.6,95.2 73.8,96.4 
	43.5,118.2 "/> <circle style="fill:#44B1B5;" cx="123.3" cy="111.2" r="11.4"/> <circle style="fill:#44B1B5;" cx="52.4" cy="111.2" r="11.4"/> <path style="fill:#44B1B5;" d="M134.8,110.3c0-20.2-16.3-36.5-36.5-36.5c-3.6,0-7.1,0.5-10.5,1.5c-19.3-5.8-39.7,5.2-45.5,24.5
	c-1,3.4-1.5,7-1.5,10.5"/> <rect x="51.6" y="103.9" style="fill:#44B1B5;" width="71.7" height="18.7"/> <polygon style="fill:#FFFFFF;" points="107.4,75 95.5,63.9 87.8,71.8 80,63.9 68.1,75 80,96.2 87.8,86.5 95.5,96.2 "/> <circle style="fill:#F0CCAF;" cx="87.8" cy="60.1" r="24.5"/> <path style="fill:none;" d="M109,59.5c-12.5,0-23.9-7.1-29.4-18.3c-4.1,7.7-11,13.4-19.3,16c-0.4,15.3,11.6,28.1,27,28.5
	c15.3,0.4,28.1-11.6,28.5-27l0,0C113.5,59.2,111.3,59.5,109,59.5z"/> <path style="fill:#AA6125;" d="M109,59.5c2.3,0,4.5-0.2,6.8-0.7c0-0.5,0.1-1.1,0.1-1.6c0-15.3-12.4-27.7-27.7-27.8
	c-1.6,0-3.3,0.1-4.9,0.4c-0.5,4-1.7,7.9-3.6,11.4C85.1,52.4,96.5,59.5,109,59.5z"/> <path style="fill:#AA6125;" d="M79.6,41.2c1.9-3.5,3.1-7.4,3.6-11.4c-13.2,2.4-22.9,13.9-22.9,27.3c0,0,0,0,0,0.1
	C68.6,54.6,75.5,48.9,79.6,41.2z"/> </symbol><symbol viewBox="0 0 175.5 152" id="hiw-02"><title>07_col_Answer_icon_192</title><path fill="#EA1751" d="M0 76L43.9 0h87.7l43.9 76-43.9 76H43.9"/><path opacity=".1" d="M173.7 79.1L126.6 32l-76.2 3.6v50l-.4 35.8L80.7 152h50.9"/><path d="M121.9 29.9H54.2c-3.4 0-6.2 2.8-6.2 6.2v80.6c0 3.4 2.7 6.2 6.2 6.3H122.1c3.4 0 6.2-2.8 6.2-6.2V36.1c-.2-3.4-2.9-6.2-6.4-6.2zm-63.6 85.9c-3.1 0-5.7-2.6-5.7-5.7s2.6-5.7 5.7-5.7 5.7 2.6 5.7 5.7c0 3.2-2.6 5.7-5.7 5.7zm0-16.6c-3.1 0-5.7-2.6-5.7-5.7s2.6-5.7 5.7-5.7 5.7 2.6 5.7 5.7c0 3.2-2.6 5.7-5.7 5.7zm0-16.6c-3.1 0-5.7-2.6-5.7-5.7s2.6-5.7 5.7-5.7 5.7 2.6 5.7 5.7c0 3.2-2.6 5.7-5.7 5.7zm0-16.5c-3.1 0-5.7-2.6-5.7-5.7s2.6-5.7 5.7-5.7 5.7 2.6 5.7 5.7-2.6 5.7-5.7 5.7zm0-16.6c-3.1 0-5.7-2.6-5.7-5.7s2.6-5.7 5.7-5.7 5.7 2.6 5.7 5.7-2.6 5.7-5.7 5.7z" fill="#FFF"/><g opacity=".5" fill="#BCC2C6"><path d="M69.2 41.2h52.2v1.5H69.2zM69.2 48.7h52.2v1.5H69.2zM69.2 56.2h52.2v1.5H69.2zM69.2 63.8h52.2v1.5H69.2zM69.2 71.3h52.2v1.5H69.2zM69.2 78.8h52.2v1.5H69.2zM69.2 86.4h52.2v1.5H69.2zM69.2 93.9h52.2v1.5H69.2zM69.2 101.4h52.2v1.5H69.2zM69.2 109h52.2v1.5H69.2z"/></g><path d="M139.2 59.5c-1.9-1-4.2-.3-5.3 1.6l-3.8 7 6.8 3.7 3.8-7c1.1-1.9.4-4.3-1.5-5.3z" fill="#FFCC02"/><path d="M99.9 132c1.1.6 2.5.2 3.1-.9l2.3-4.2-4.1-2.2-2.3 4.2c-.6 1.1-.2 2.5 1 3.1z" fill="#2B2B2B"/><circle cx="132.1" cy="72.6" r="8.3" fill="#356272"/><path d="M124.8 68.6l-25.6 47.3c-2.2 4-.7 9.1 3.3 11.3 4 2.2 9.1.7 11.3-3.4l25.6-47.3-14.6-7.9z" fill="#3A6F80"/><path fill="#356272" d="M137.904 79.31l-1.05 1.934-14.678-7.964 1.05-1.934zM135.912 82.937l-1.05 1.934-14.68-7.963 1.05-1.934z"/><path fill="#2B2B2B" d="M137.9 79.3l-1.5 2.7 1 .6-6.7 12.3 1.7 1 8.1-15.1"/><path d="M139.2 59.5c-1.9-1-4.2-.3-5.3 1.6l-1.8 3.2c-3.1 0-5.9 1.6-7.4 4.3l-25.6 47.3c-1.8 3.3-1.2 7.3 1.5 9.9l-1.6 3c-.6 1.1-.2 2.5.9 3.1l39.3-72.4z" opacity=".5" fill="#CBCBCB"/></symbol><symbol viewBox="0 0 175.5 152" id="hiw-03"><title>07_col_Verification_icon_192</title>  <polygon style="fill:#EB1751;" points="50.4,85.6 50.4,35.6 118.6,43 166.8,91.2 175.5,76 131.6,0 43.9,0 0,76 43.9,152 80.7,152 
	50,121.4 "/> <polygon style="fill:#EB1751;" points="166.8,91.2 118.6,43 50.4,35.6 50.4,85.6 50,121.4 80.7,152 131.6,152 "/> <polygon style="opacity:0.1;enable-background:new    ;" points="166.8,91.2 118.6,43 50.4,35.6 50.4,85.6 50,121.4 80.7,152 
	131.6,152 "/> <polygon style="fill:none;" points="0,76 43.9,0 131.6,0 175.5,76 131.6,152 43.9,152 "/> <path style="fill:#FFFFFF;" d="M106.6,29.5H53.4c-2.9,0-5.3,2.4-5.3,5.3l0,0v82.5c0,2.9,2.4,5.3,5.3,5.3h68.7c2.9,0,5.3-2.4,5.3-5.3
	v-65L106.6,29.5z"/> <path style="fill:#E6E6E6;" d="M106.6,29.5v18.2c0,4.5,2.9,4.5,6.3,4.5h14.5L106.6,29.5z"/> <rect x="61.2" y="70.1" style="fill:#2B2B2B;" width="53.2" height="6.3"/> <rect x="61.2" y="85.2" style="fill:#2B2B2B;" width="53.2" height="6.3"/> <rect x="61.2" y="100.4" style="fill:#2B2B2B;" width="53.2" height="6.3"/> <rect x="61.2" y="54.9" style="fill:#2B2B2B;" width="36.5" height="6.3"/> <rect x="61.2" y="70.1" style="fill:#2B2B2B;" width="36.5" height="6.3"/> <rect x="61.2" y="85.2" style="fill:#2B2B2B;" width="36.5" height="6.3"/> <path style="fill:#2B2B2B;" d="M127.5,94.4l13,22.2c1.1,1.9,0.5,4.3-1.4,5.4c-1.9,1.1-4.3,0.5-5.4-1.4l0,0l-13-22.2L127.5,94.4z"/> <path style="fill:#BDC3C7;" d="M132.9,71.7c-5.6-9.5-17.8-12.7-27.4-7.1s-12.7,17.8-7.1,27.4s17.8,12.7,27.4,7.1c0,0,0,0,0,0
	C135.3,93.5,138.5,81.2,132.9,71.7z M122.9,94.3c-6.9,4-15.7,1.7-19.8-5.2s-1.7-15.7,5.2-19.8s15.7-1.7,19.8,5.2c0,0,0,0,0,0
	C132.1,81.4,129.8,90.2,122.9,94.3L122.9,94.3z"/> <circle style="fill:#FFFFFF;" cx="115.6" cy="81.8" r="14.4"/> <path style="fill:#2B2B2B;" d="M121.4,81.1h-20.2c-0.2,4.1,1.4,8.2,4.4,11.1h15.8V81.1z"/> <path style="fill:#2B2B2B;" d="M121.4,68.6c-5.4-2.4-11.7-1.2-15.9,3h15.9V68.6z"/> </symbol><symbol viewBox="0 0 175.5 152" id="hiw-04"><title>07_col_Calculation_icon_192</title>  <polygon style="fill:none;" points="172.6,81 172.6,81 175.5,76 131.6,0 175.5,76 "/> <polygon style="fill:#EB1751;" points="52.3,121.1 52.7,85.5 52.7,35.6 123.4,31.2 172.6,81 175.5,76 131.6,0 43.9,0 0,76 43.9,152 
	83.2,152 "/> <polygon style="opacity:0.1;enable-background:new    ;" points="131.6,152 172.6,81 172.6,81 "/> <polygon style="fill:#EB1751;" points="123.4,31.2 52.7,35.6 52.7,85.5 52.3,121.1 83.2,152 131.6,152 172.6,81 "/> <polygon style="opacity:0.1;enable-background:new    ;" points="123.4,31.2 52.7,35.6 52.7,85.5 52.3,121.1 83.2,152 131.6,152 
	172.6,81 "/> <path style="fill:#FFFFFF;" d="M51,117.8c0,2.6,2.1,4.7,4.7,4.7h0h64.1c2.6,0,4.7-2.1,4.7-4.7v0V54.5H51V117.8L51,117.8z"/> <path style="fill:#356272;" d="M124.6,54.5V34.2c0-2.6-2.1-4.7-4.7-4.7l0,0H55.7c-2.6,0-4.7,2.1-4.7,4.7v20.3H124.6L124.6,54.5z"/> <rect x="57.3" y="35.4" style="fill:#BDC3C7;" width="60.6" height="13.5"/> <rect x="57.3" y="59.5" style="fill:#356272;" width="11.7" height="11.7"/> <rect x="73.7" y="59.5" style="fill:#356272;" width="11.7" height="11.7"/> <rect x="90.1" y="59.5" style="fill:#356272;" width="11.7" height="11.7"/> <rect x="106.4" y="59.5" style="fill:#1B2E5A;" width="11.7" height="11.7"/> <rect x="57.3" y="74.9" style="fill:#356272;" width="11.7" height="11.7"/> <rect x="73.7" y="74.9" style="fill:#356272;" width="11.7" height="11.7"/> <rect x="90.1" y="74.9" style="fill:#356272;" width="11.7" height="11.7"/> <rect x="106.4" y="74.9" style="fill:#1B2E5A;" width="11.7" height="11.7"/> <rect x="57.3" y="90.3" style="fill:#356272;" width="11.7" height="11.7"/> <rect x="73.7" y="90.3" style="fill:#356272;" width="11.7" height="11.7"/> <rect x="90.1" y="90.3" style="fill:#356272;" width="11.7" height="11.7"/> <rect x="57.3" y="105.7" style="fill:#356272;" width="11.7" height="11.7"/> <rect x="73.7" y="105.7" style="fill:#356272;" width="11.7" height="11.7"/> <rect x="90.1" y="105.7" style="fill:#356272;" width="11.7" height="11.7"/> <rect x="106.4" y="90.3" style="fill:#EB1751;" width="11.7" height="27.1"/> </symbol><symbol viewBox="0 0 175.7 151.9" id="hiw-05"><title>07_col_Return_icon_192</title>  <polygon style="fill:none;" points="172.2,81.7 172.2,81.7 175.5,76 131.6,0 175.5,76 "/> <polygon style="fill:#EB1751;" points="47.6,114.8 72.9,74.9 74.5,80.6 129.9,39.3 172.2,81.7 175.5,76 131.6,0 43.9,0 0,76 
	43.9,152 84.8,152 "/> <polygon style="opacity:0.1;enable-background:new    ;" points="131.6,152 172.2,81.7 172.2,81.7 "/> <polygon style="fill:#EB1751;" points="129.9,39.3 74.5,80.6 72.9,74.9 47.6,114.8 84.8,152 131.6,152 172.2,81.7 "/> <polygon style="opacity:0.1;enable-background:new    ;" points="129.9,39.3 74.5,80.6 72.9,74.9 47.6,114.8 84.8,152 131.6,152 
	172.2,81.7 "/> <path style="fill:#B8123E;" d="M87.8,20.1h-0.1V76H31.9c0,30.9,25,55.9,55.9,55.9s55.9-25,55.9-55.9S118.6,20.1,87.8,20.1z"/> <circle style="fill:#F4AB2D;" cx="87.8" cy="76" r="44.2"/> <circle style="fill:#D7A041;" cx="87.8" cy="76" r="30.8"/> <path style="fill:#D69320;" d="M66,97.8c12.1,11.9,31.7,11.7,43.6-0.4c11.8-12,11.8-31.2,0-43.2"/> <path style="fill:#B06205;" d="M88.5,73c-1.3-0.5-2.6-1.2-3.8-2c-0.7-0.5-1-1.3-1-2.2c0-0.9,0.3-1.8,1-2.4c0.7-0.7,1.7-1,2.7-1
	c1.1-0.1,2.3,0.3,3.2,1c0.7,0.7,1.3,1.5,1.9,2.3l4.2-4.2c-0.4-0.8-1-1.5-1.7-2.1c-4.4-3.3-10.3-3.3-14.7-0.1
	c-1.9,1.5-2.9,3.9-2.8,6.3c-0.1,2.3,0.8,4.5,2.4,6.1c2.3,1.8,4.8,3.1,7.5,4c1.2,0.4,2.4,1.1,3.4,1.9c0.7,0.7,1,1.6,1,2.5
	c0,0.9-0.3,1.7-1,2.3c-0.8,0.7-1.9,1-2.9,0.9c-1.3,0.1-2.6-0.3-3.6-1.1c-0.8-0.8-2.3-2.8-2.3-2.8l-4.1,4.1c0.5,1.1,1.2,2.1,2.2,2.8
	c2.2,1.7,5,2.6,7.8,2.5c2.7,0.1,5.3-0.7,7.4-2.3c1.9-1.6,2.9-3.9,2.8-6.4c0.1-2.3-0.8-4.6-2.4-6.3C93.6,75.1,91.2,73.8,88.5,73z"/> <rect x="84.5" y="56.1" style="fill:#B06205;" width="6" height="6"/> <rect x="84.5" y="89.9" style="fill:#B06205;" width="6" height="6"/> </symbol><symbol viewBox="0 0 176 128" id="pay-amex"><title>15_col_Amex_icon_192</title>  <path style="fill:#2A9FCF;" d="M12,0h152c6.6,0,12,5.4,12,12v104c0,6.6-5.4,12-12,12H12c-6.6,0-12-5.4-12-12V12C0,5.4,5.4,0,12,0z"/> <path style="fill:#FFFFFF;" d="M90.4,44.3c0.7-0.4,1.1-1.2,1-2c0.1-0.8-0.3-1.5-1-1.8c-0.7-0.3-1.6-0.4-2.3-0.3H82v4.6h6
	C88.8,44.8,89.7,44.7,90.4,44.3z"/> <polygon style="fill:#FFFFFF;" points="9.1,47.6 15.9,47.6 12.5,39.4 "/> <path style="fill:#FFFFFF;" d="M44.8,57v3.6h41.3v-7.5h0.8c0.6,0,0.7,0.1,0.7,1v6.6H109v-1.8c2.5,1.2,5.2,1.8,7.9,1.8h9l1.9-4.6h4.3
	l1.9,4.6h17.3v-4.4l2.6,4.4h13.9V31.7h-13.7v3.4l-1.9-3.4H138v3.4l-1.8-3.4h-19c-2.9-0.1-5.7,0.4-8.3,1.7v-1.7H95.8v1.7
	c-1.6-1.2-3.6-1.8-5.6-1.7h-48L39,39.2l-3.3-7.5H20.5v3.4l-1.7-3.4H6L0,45.4v15.2h8.5l1.9-4.6h4.3l1.9,4.6h16.6v-3.5l1.5,3.5h8.6
	L44.8,57z M109.9,38.2c1.6-1.7,4.1-2.4,7.5-2.4h4.8v4.4h-4.7c-1.8,0-2.8,0.3-3.8,1.2c-1,1.3-1.5,3-1.4,4.7c0,2.2,0.4,3.8,1.4,4.8
	c1,0.8,2.2,1.2,3.4,1.1h2.2l7-16.3h7.4l8.4,19.6V35.8h7.6l8.7,14.4V35.8h5.1v20.7h-7L147,41v15.5h-10.1l-1.9-4.6h-10.3l-1.9,4.6
	h-5.8c-2.4,0-5.5-0.5-7.2-2.3s-2.6-4.1-2.6-7.9C107.3,43.3,107.8,40.5,109.9,38.2L109.9,38.2z M99.8,35.8h5.1v20.7h-5.1V35.8
	L99.8,35.8z M77.1,35.8h11.4c2.5,0,4.4,0.1,6,1c1.7,0.9,2.6,2.7,2.5,4.6c0.1,2.4-1.3,4.5-3.5,5.5c1,0.4,1.8,1,2.4,1.8
	c0.7,1,0.8,1.9,0.8,3.8v4.1h-5v-2.5c0-1.2,0.1-3-0.8-4c-0.8-0.7-1.8-0.9-3.6-0.9H82v7.5h-4.9V35.8L77.1,35.8z M57.1,35.8h16.6v4.3
	H62v3.7h11.3v4.3H62v4.1h11.6v4.3H57.1L57.1,35.8L57.1,35.8z M36.8,56.5l-7.2-16.2v16.2H19.5l-1.9-4.6H7.3l-1.9,4.6H0l8.9-20.7h7.4
	l8.4,19.6V35.8h8.1l6.5,14.1l5.9-14.1h8.3v20.7h-5.1V40.3l-7.2,16.2H36.8z"/> <polygon style="fill:#FFFFFF;" points="129.9,39.4 126.5,47.6 133.3,47.6 "/> <path style="fill:#FFFFFF;" d="M166.8,67.3c-2.2-0.1-4.4,0.5-6.2,1.7v-1.7h-13.6c-2.1,0-4.7,0.6-5.9,1.7v-1.7H117V69
	c-1.9-1.4-5.2-1.7-6.7-1.7H94.4V69c-1.5-1.5-4.9-1.7-7-1.7H69.6l-4.1,4.4l-3.8-4.4H35v28.9h26.2l4.2-4.5l4,4.5h16.1v-6.8H87
	c2.3,0.1,4.7-0.2,6.9-1v7.8h13.3v-7.5h0.6c0.8,0,0.9,0.1,0.9,0.9v6.7h40.4c2.6,0,5.2-0.7,6.7-1.8v1.8h12.8c2.5,0.1,5-0.4,7.3-1.3
	v-5.4c-1.2,1.8-3.6,2.7-6.7,2.7h-9.6v-4.4h9.5c0.7,0.1,1.4-0.1,2-0.5c0.4-0.3,0.6-0.8,0.6-1.3c0-0.5-0.2-1-0.6-1.4
	c-0.5-0.4-1.1-0.5-1.7-0.5c-4.6-0.2-10.4,0.1-10.4-6.4c0-3,1.9-6.2,7.1-6.2h9.9v-4.1H166.8z M87.2,85.2h-6.2v7h-9.6l-6.1-6.8
	l-6.3,6.8H39.5V71.5h19.9l6.1,6.8l6.3-6.8h15.8c3.9,0,8.3,1.1,8.3,6.8S91.6,85.2,87.2,85.2L87.2,85.2z M117,84.3
	c0.7,1,0.8,2,0.8,3.8v4.1h-5v-2.6c0-1.2,0.1-3.1-0.8-4c-0.7-0.8-1.8-0.9-3.6-0.9h-5.3v7.6h-5V71.5h11.4c2.5,0,4.3,0.1,6,1
	c1.7,0.9,2.7,2.7,2.5,4.6c0.1,2.4-1.3,4.6-3.5,5.5C115.5,82.9,116.4,83.5,117,84.3L117,84.3z M137.4,75.7h-11.6v3.8h11.3v4.2h-11.3
	v4.1h11.6v4.3h-16.5V71.5h16.5L137.4,75.7L137.4,75.7z M150,92.2h-9.6v-4.4h9.6c0.7,0.1,1.4-0.1,2-0.5c0.4-0.3,0.6-0.8,0.6-1.3
	c0-0.5-0.2-1-0.6-1.4c-0.5-0.4-1.1-0.5-1.8-0.5c-4.6-0.2-10.4,0.1-10.4-6.4c0-3,1.9-6.2,7.1-6.2h9.9v4.4h-9.1c-0.7-0.1-1.4,0-2,0.4
	c-0.8,0.6-1,1.6-0.4,2.4c0.2,0.3,0.4,0.5,0.7,0.6c0.6,0.2,1.3,0.3,1.9,0.3l2.7,0.1c2.7,0.1,4.5,0.5,5.7,1.7c1.1,1.2,1.6,2.8,1.5,4.4
	C157.7,90.1,155,92.2,150,92.2z"/> <polygon style="fill:#FFFFFF;" points="76.2,90.3 76.2,73.7 68.6,81.8 "/> <polygon style="fill:#FFFFFF;" points="44.4,75.7 44.4,79.5 55.2,79.5 55.2,83.7 44.4,83.7 44.4,87.9 56.5,87.9 62.2,81.8 
	56.8,75.7 "/> <path style="fill:#FFFFFF;" d="M111.6,76.1c-0.7-0.3-1.5-0.4-2.3-0.4h-6.1v4.6h6c0.8,0.1,1.7-0.1,2.4-0.4c0.7-0.4,1-1.2,1-2
	C112.6,77.2,112.3,76.5,111.6,76.1z"/> <path style="fill:#FFFFFF;" d="M87.5,75.7h-6.4V81h6.4c1.9,0,3.1-0.9,3.1-2.7S89.3,75.7,87.5,75.7z"/> <path style="fill:#FFFFFF;" d="M165,76.2c-0.5,0.3-0.8,0.9-0.7,1.5c0,0.7,0.4,1.3,1.1,1.5c0.6,0.2,1.3,0.3,1.9,0.3l2.7,0.1
	c2.7,0.1,4.5,0.5,5.6,1.7c0.2,0.2,0.3,0.3,0.5,0.5v-5.9h-9C166.3,75.8,165.6,75.9,165,76.2z"/> </symbol><symbol viewBox="0 0 176 128" id="pay-dinnersclub"><title>15_col_DinersClub_icon_192</title>  <path style="fill:#0069A9;" d="M12,0h152c6.6,0,12,5.4,12,12v104c0,6.6-5.4,12-12,12H12c-6.6,0-12-5.4-12-12V12C0,5.4,5.4,0,12,0z"/> <circle style="fill:#FFFFFF;" cx="100" cy="64" r="32"/> <rect x="76" y="32" style="fill:#FFFFFF;" width="24" height="64"/> <circle style="fill:#FFFFFF;" cx="76" cy="64" r="32"/> <circle style="fill:#0069A9;" cx="76" cy="64" r="28"/> <circle style="fill:#FFFFFF;" cx="76" cy="64" r="20"/> <rect x="72" y="40" style="fill:#0069A9;" width="8" height="48"/> </symbol><symbol viewBox="0 0 176 128" id="pay-discover"><title>15_col_Discover_icon_192</title>  <path style="fill:#F6E7D6;" d="M164,0H12C5.4,0,0,5.4,0,12v104c0,6.6,5.4,12,12,12h29c99.3-16,135-48.7,135-48.7V12
	C176,5.4,170.6,0,164,0z"/> <path style="fill:#F38121;" d="M164,128c6.6,0,12-5.4,12-12V79.3c0,0-35.8,32.7-135,48.7H164z"/> <path style="fill:#F38121;" d="M91.7,53.4c-5.9-0.1-10.8,4.6-10.9,10.5c0,0,0,0,0,0c-0.2,6,4.5,11,10.5,11.3c6,0.2,11-4.5,11.3-10.5
	S98,53.6,92,53.4C91.9,53.4,91.8,53.4,91.7,53.4z"/> <path style="fill:#000003;" d="M29.8,53.8H24v20.4h5.8c2.6,0.1,5.2-0.7,7.3-2.4c2.3-1.9,3.7-4.8,3.7-7.8
	C40.8,58,36.3,53.8,29.8,53.8z M34.5,69.1c-1.3,1.1-2.9,1.6-5.5,1.6h-1V57.2h1.1c2.6,0,4.1,0.5,5.5,1.7c1.4,1.3,2.2,3.2,2.2,5.1
	C36.7,65.9,35.9,67.8,34.5,69.1L34.5,69.1z"/> <rect x="42.7" y="53.8" style="fill:#000003;" width="4" height="20.4"/> <path style="fill:#000003;" d="M56.4,61.6c-2.4-0.9-3.1-1.5-3.1-2.6c0-1.3,1.3-2.3,3-2.3c1.3,0,2.5,0.6,3.2,1.7l2.1-2.7
	c-1.6-1.5-3.8-2.3-6-2.3c-3.6,0-6.4,2.5-6.4,5.8c0,2.8,1.3,4.3,5,5.6c0.9,0.3,1.9,0.7,2.7,1.2c0.7,0.4,1.2,1.2,1.2,2.1
	c0,1.6-1.3,2.9-2.9,2.9c-0.1,0-0.1,0-0.2,0c-1.9,0-3.6-1-4.3-2.7l-2.6,2.5c1.5,2.5,4.2,4,7.1,3.9c4.1,0,7-2.8,7-6.7
	C62.2,64.7,60.9,63.2,56.4,61.6z"/> <path style="fill:#000003;" d="M63.5,64c-0.1,5.8,4.6,10.6,10.5,10.7c0.1,0,0.2,0,0.3,0c1.7,0,3.5-0.4,5-1.2v-4.7
	c-1.2,1.4-3,2.2-4.8,2.2c-3.7,0.1-6.8-2.8-6.9-6.5c0-0.2,0-0.4,0-0.5c-0.1-3.7,2.8-6.9,6.6-7c0,0,0.1,0,0.1,0c1.9,0,3.7,0.8,5,2.3
	v-4.8c-1.5-0.8-3.2-1.3-4.9-1.3c-5.9-0.1-10.8,4.7-10.9,10.6C63.5,63.9,63.5,64,63.5,64z"/> <polygon style="fill:#000003;" points="111.5,67.5 106.1,53.8 101.7,53.8 110.4,74.7 112.5,74.7 121.4,53.8 117,53.8 "/> <polygon style="fill:#000003;" points="123.2,74.2 134.5,74.2 134.5,70.7 127.1,70.7 127.1,65.2 134.2,65.2 134.2,61.7 127.1,61.7 
	127.1,57.2 134.5,57.2 134.5,53.8 123.2,53.8 "/> <path style="fill:#000003;" d="M150.2,59.8c0-3.8-2.6-6-7.2-6h-5.9v20.4h4V66h0.5l5.5,8.2h4.9l-6.4-8.6
	C148.4,65.2,150.4,62.7,150.2,59.8z M142.2,63.2h-1.2V57h1.2c2.5,0,3.8,1,3.8,3S144.8,63.2,142.2,63.2L142.2,63.2z"/> </symbol><symbol viewBox="0 0 176 128" id="pay-jcb"><title>15_col_JCB_icon_192</title>  <path style="fill:#F1F1F1;" d="M12,0h152c6.6,0,12,5.4,12,12v104c0,6.6-5.4,12-12,12H12c-6.6,0-12-5.4-12-12V12C0,5.4,5.4,0,12,0z"/> <path style="fill:#E3002E;" d="M72,100h18.2c6.4,0,13.8-5.6,13.8-12.9V28H86.4C78.2,28,72,32.9,72,41.3V100L72,100z"/> <path style="fill:#0066BC;" d="M36,100h18.2c6.4,0,13.8-5.6,13.8-12.9V28H50.4C42.2,28,36,32.9,36,41.3V100L36,100z"/> <path style="fill:#4DB123;" d="M108,100h18.2c6.4,0,13.8-5.6,13.8-12.9V28h-17.6c-8.2,0-14.4,4.9-14.4,13.3L108,100L108,100z"/> <path style="fill:#F1F1F1;" d="M52.1,65c0.2,3.6-2.6,6.6-6.2,6.8c-0.1,0-0.2,0-0.3,0c-3.5,0.1-6.4-2.4-7.1-5.8H34
	c1.3,5.6,7.2,10,13.9,10c6.2,0,14.5-3.8,14.5-11V52H52.1V65z"/> <path style="fill:#F1F1F1;" d="M128.8,64.2c2.7,0,5.1-2.6,5.1-5.6s-2.4-5.6-5.1-5.6H106v22h22.8c3,0,5.4-2.4,5.4-5.4
	S131.8,64.2,128.8,64.2z M114.7,55.4h7.1c2.1,0.2,3.6,2.1,3.4,4.2c-0.2,1.8-1.6,3.2-3.4,3.4h-7.1V55.4z M121.9,72.6h-7.2V65h7.2
	c2.1,0.2,3.6,2.1,3.4,4.2C125.1,71,123.7,72.4,121.9,72.6L121.9,72.6z"/> <path style="fill:#F1F1F1;" d="M70,64c0,6,4.5,11,10,11h17.4v-3.8c-3.3,0.8-6.7,1.3-10.1,1.4c-4.3,0-7.8-3.8-7.8-8.6
	s3.4-8.6,7.8-8.6c3.4,0.2,6.8,0.7,10.1,1.6v-4H80C74.5,53,70,58,70,64z"/> </symbol><symbol viewBox="0 0 176 128" id="pay-mastercard"><title>15_col_Mastercard_icon_192</title>  <path style="fill:#4361C2;" d="M12,0h152c6.6,0,12,5.4,12,12v104c0,6.6-5.4,12-12,12H12c-6.6,0-12-5.4-12-12V12C0,5.4,5.4,0,12,0z"/> <path style="fill:#FFAE38;" d="M108,36c-15.5,0-28,12.5-28,28s12.5,28,28,28s28-12.5,28-28c0-15.4-12.4-28-27.8-28
	C108.1,36,108.1,36,108,36z"/> <path style="fill:#EA3636;" d="M80,64c0-0.7,0-1.3,0.1-2h15.8c-0.1-1.3-0.3-2.7-0.6-4H80.7c0.3-1.4,0.7-2.7,1.2-4h12.3
	c-0.5-1.4-1.2-2.7-1.9-4h-8.5c0.8-1.4,1.8-2.8,2.8-4h2.9c-0.4-0.6-0.9-1.1-1.4-1.6c-10.8-11-28.5-11.2-39.6-0.4S37.2,72.5,48,83.6
	S76.5,94.8,87.6,84c0.1-0.1,0.3-0.3,0.4-0.4c0.5-0.5,1-1,1.4-1.6h-2.9c-1.1-1.2-2-2.6-2.8-4h8.5c0.7-1.3,1.4-2.6,1.9-4H81.8
	c-0.5-1.3-0.9-2.6-1.2-4h14.7c0.3-1.3,0.5-2.7,0.6-4H80.1C80,65.3,80,64.7,80,64z"/> </symbol><symbol viewBox="0 0 176 128" id="pay-paypal"><title>15_col_PayPal_icon_192</title>  <path style="fill:#F6F5F3;" d="M12,0h152c6.6,0,12,5.4,12,12v104c0,6.6-5.4,12-12,12H12c-6.6,0-12-5.4-12-12V12C0,5.4,5.4,0,12,0z"/> <path style="fill:#243B81;" d="M39.4,46.7h-10c-0.7,0-1.3,0.5-1.4,1.2l-4,25.6c-0.1,0.5,0.2,0.9,0.7,1c0.1,0,0.1,0,0.2,0h4.8
	c0.7,0,1.3-0.5,1.4-1.2l1-6.7c0.1-0.7,0.7-1.2,1.4-1.2h3.2c6.6,0,10.3-3.2,11.3-9.6c0.5-2.8,0-5-1.3-6.5
	C45.2,47.6,42.7,46.7,39.4,46.7 M40.5,56.2c-0.5,3.6-3.3,3.6-5.9,3.6h-1.5l1.1-6.8c0.1-0.4,0.4-0.7,0.8-0.7h0.7c1.8,0,3.5,0,4.4,1
	C40.6,54.1,40.8,55.2,40.5,56.2"/> <path style="fill:#243B81;" d="M69.1,55.4h-4.8c-0.4,0-0.8,0.3-0.8,0.7l-0.2,1.5L63,57.1c-1-1.5-3.3-1.9-5.6-1.9
	c-5.5,0.1-10,4.2-10.6,9.6c-0.5,2.6,0.1,5.3,1.8,7.4c1.5,1.7,3.7,2.6,6,2.5c2.5,0,4.9-1,6.6-2.7l-0.2,1.3c-0.1,0.5,0.2,0.9,0.7,1
	c0.1,0,0.1,0,0.2,0H66c0.7,0,1.3-0.5,1.4-1.2L70,56.5c0.1-0.5-0.2-0.9-0.7-1C69.2,55.5,69.2,55.5,69.1,55.4 M62.5,65
	c-0.4,2.7-2.7,4.7-5.4,4.6c-1.2,0.1-2.4-0.4-3.2-1.3c-0.7-1-1-2.2-0.8-3.4c0.4-2.7,2.7-4.6,5.3-4.5c1.2-0.1,2.4,0.3,3.2,1.2
	C62.4,62.5,62.7,63.8,62.5,65"/> <path style="fill:#243B81;" d="M94.5,55.5h-4.8c-0.5,0-0.9,0.2-1.1,0.6L82,66.5l-2.8-10c-0.2-0.6-0.7-1-1.3-1h-4.7
	c-0.5,0-0.8,0.4-0.8,0.8c0,0.1,0,0.2,0,0.3l5.3,16.3l-5,7.1c-0.3,0.4-0.2,0.9,0.2,1.2c0.1,0.1,0.3,0.2,0.5,0.2h4.8
	c0.5,0,0.9-0.2,1.1-0.6l15.9-23.9c0.3-0.4,0.2-0.9-0.2-1.2C94.8,55.6,94.7,55.5,94.5,55.5"/> <path style="fill:#199BD7;" d="M110.4,46.7h-10c-0.7,0-1.3,0.5-1.4,1.2l-4,25.5c-0.1,0.5,0.2,0.9,0.7,1c0.1,0,0.1,0,0.2,0h5.2
	c0.5,0,0.9-0.3,1-0.8l1.1-7c0.1-0.7,0.7-1.2,1.4-1.2h3.2c6.6,0,10.3-3.2,11.3-9.6c0.4-2.8,0-5-1.3-6.5
	C116.3,47.6,113.8,46.7,110.4,46.7 M111.6,56.1c-0.5,3.6-3.3,3.6-5.9,3.6h-1.5l1-6.8c0.1-0.4,0.4-0.7,0.8-0.7h0.7c1.8,0,3.5,0,4.4,1
	C111.6,54.1,111.8,55.1,111.6,56.1"/> <path style="fill:#199BD7;" d="M140.1,55.4h-4.8c-0.4,0-0.8,0.3-0.8,0.7l-0.2,1.5l-0.3-0.5c-1-1.5-3.3-1.9-5.6-1.9
	c-5.4,0.1-10,4.2-10.6,9.6c-0.5,2.6,0.1,5.3,1.8,7.4c1.5,1.7,3.7,2.6,6,2.5c2.5,0,4.9-1,6.6-2.7l-0.2,1.3c-0.1,0.5,0.2,0.9,0.7,1
	c0.1,0,0.1,0,0.2,0h4.3c0.7,0,1.3-0.5,1.4-1.2l2.6-16.7c0.1-0.5-0.2-0.9-0.7-1C140.3,55.4,140.2,55.4,140.1,55.4 M133.5,65
	c-0.4,2.7-2.7,4.7-5.4,4.6c-1.2,0.1-2.4-0.4-3.2-1.3c-0.7-1-1-2.2-0.8-3.4c0.4-2.7,2.6-4.7,5.3-4.7c1.2-0.1,2.4,0.4,3.2,1.3
	C133.4,62.5,133.7,63.8,133.5,65"/> <path style="fill:#199BD7;" d="M145.8,47.4l-4.1,26c-0.1,0.5,0.2,0.9,0.7,1c0.1,0,0.1,0,0.2,0h4.1c0.7,0,1.3-0.5,1.4-1.2l4-25.5
	c0.1-0.5-0.2-0.9-0.7-1c-0.1,0-0.1,0-0.2,0h-4.6C146.1,46.7,145.8,47,145.8,47.4"/> </symbol><symbol viewBox="0 0 176 128" id="pay-sage"><title>15_col_Sagepay_icon_192</title>  <path style="fill:#0B8A6E;" d="M12,0h152c6.6,0,12,5.4,12,12v104c0,6.6-5.4,12-12,12H12c-6.6,0-12-5.4-12-12V12C0,5.4,5.4,0,12,0z"/> <path style="fill:#FFFFFF;" d="M140,61c0-4.5-3.4-12.9-14.5-12.9c-3.7,0-7.3,1.3-10.1,3.6v-3.2h-7.4v3.2c-1.7-1.7-3.9-2.8-6.3-3.4
	c-2.6-0.4-5.2-0.2-7.7,0.6c-2.2,0.6-4.1,1.9-5.5,3.6c-3.1-3.5-8-4.2-11.9-4.4c-4.4-0.2-8.9,0.4-12.4,3c-3.8-2-8-3.1-12.3-3.1
	c-4.2,0-8.1,1-11,3.4c-0.9,0.8-1.6,1.7-2,2.9c-0.9,2.3-0.7,4.8,0.5,6.9c2.1,2.8,4.4,4,8.6,4.5c3.7,0.4,6.2,0.3,8.9,0.8
	c1.3,0.2,2.4,1.3,2.5,2.6c0,1.7-2.3,4.4-7.8,4c-4.6-0.3-6.3-1-10.7-3.8l-4.9,4c0,0,0.8,0.7,1.4,1.1s1.1,0.7,1.7,1l0,0
	c5.2,2.8,11.1,3.9,16.9,3c2.7-0.4,5.4-1.4,7.7-2.9c2.8,2.4,6.4,3.5,10.1,3.2c3.7-0.2,6.4,0,9-3v3H90v-3c0.6,0.5,1.3,1,1.9,1.4
	c4.6,2.8,11.8,1.7,16.1-1.6v3.9c-0.1,2.4-2.3,4-4.6,4.9c-3.9,1.6-7.5,0.2-10.7-2.1l-5.4,3.7c1.4,1.4,3.1,2.6,4.9,3.3
	c5.7,2.5,12.2,2.1,17.5-1.1c3.1-1.9,4.3-4.2,5.1-7.8c0.3-1.6,0.5-3.3,0.5-4.9l0,0c0,0,0-0.1,0-0.1l0.2,0.1c1.5,1.1,3.1,2,4.9,2.5
	c3.7,1.1,7.6,1.1,11.3,0c1.9-0.5,3.6-1.3,5.2-2.4l0,0c0.8-0.6,1.6-1.3,2.4-2l-4.7-3.5c-1.9,1.6-4.2,2.6-6.6,3
	c-3.1,0.4-6.6-0.2-8.6-2.3c-1-1.1-1.4-1.5-1.4-4.4H140V61z M93,63.1c0.1-1.7,0.2-3.4,0.4-5.2c0.1-0.8,1.1-1.9,2.5-2.7
	c2.4-1.4,5.4-1.6,8-0.6c1.9,0.7,3.4,2.1,3.5,3.8s0.3,3.1,0.4,4.5c0.1,1.7,0,3.5-0.3,5.2c-0.3,1.1-0.9,2.1-1.8,2.8
	c-1.5,1.2-3.4,1.8-5.3,1.7c-3.1-0.2-5.8-1.4-6.7-3.2C93.1,68.1,92.9,65.7,93,63.1z M79.9,72.7c-2.2,0.6-4.4,0.7-6.6,0.4
	c-2.2-0.3-4.3-0.4-5.1-2.4c-0.5-0.9-0.3-2,0.3-2.8c1.1-1.4,3.7-1.7,5.3-1.7h8.6C82.6,68.5,83.3,71.7,79.9,72.7L79.9,72.7z
	 M54.6,60.4c-3.4-0.2-6.6-0.3-8.3-1.6c-1-0.8-0.8-3.1,0.6-3.9c1.8-0.9,3.8-1.3,5.8-1.1c3.1,0.2,6,1.1,8.6,2.8l3-2.8
	c0,0,3.1,2.9,3.1,2.8c3.6-2.6,4.9-2.5,8.3-2.5c4.7,0,6,0.9,6.7,1.9c0.4,0.7,0,4.3,0,4.3s-4.1,0.1-7.1,0c-2-0.1-4.1,0-6.1,0.3
	c-1.9,0.3-3.6,1.1-5.1,2.4c-0.8-0.6-1.7-1.1-2.6-1.5C59,60.3,57.3,60.5,54.6,60.4z M118.1,60.2c-0.1-1.3,0.4-2.6,1.2-3.7
	c1.5-2.2,4.3-2.9,6.9-2.9s5.3,0.6,6.8,2.7c1,1,1.5,2.4,1.4,3.9L118.1,60.2z"/> </symbol><symbol viewBox="0 0 176 128" id="pay-visa"><title>15_col_Visa_icon_192</title>  <path style="fill:#F8F8F8;" d="M12,0h152c6.6,0,12,5.4,12,12v104c0,6.6-5.4,12-12,12H12c-6.6,0-12-5.4-12-12V12C0,5.4,5.4,0,12,0z"/> <path style="fill:#09599D;" d="M62.3,45.4l-9.5,25.5l-1-5.2c-2.5-6.6-7.2-12.2-13.4-15.6l8.6,32.7h10.2l15.2-37.3L62.3,45.4"/> <polyline style="fill:#09599D;" points="70.3,82.7 76.4,45.3 86.1,45.3 80,82.7 70.3,82.7 "/> <path style="fill:#09599D;" d="M115,46.3c-2.8-1.1-5.7-1.6-8.7-1.6c-9.6,0-16.3,5.1-16.3,12.3c-0.1,5.4,4.8,8.4,8.5,10.2s5,3,5,4.6
	c0,2.5-3,3.6-5.8,3.6c-3.1,0.1-6.3-0.6-9.1-2l-1.3-0.6L86,81.2c3.4,1.3,7.1,2,10.8,2c10.1,0,16.7-5,16.8-12.8
	c0-4.3-2.5-7.5-8.1-10.2c-3.4-1.7-5.4-2.9-5.4-4.6c0-1.6,1.8-3.2,5.5-3.2c2.5-0.1,5,0.4,7.2,1.4l0.9,0.4L115,46.3"/> <path style="fill:#09599D;" d="M139.8,45.4h-7.5c-2.3,0-4,0.7-5.1,3.1l-14.3,34.3h10.1c0,0,1.7-4.6,2-5.6h12.4
	c0.3,1.3,1.2,5.6,1.2,5.6h9L139.8,45.4 M127.9,69.5c0.8-2.1,3.9-10.5,3.9-10.5s0.8-2.2,1.3-3.6l0.6,3.2c0,0,1.9,8.9,2.2,10.8
	L127.9,69.5L127.9,69.5z"/> <path style="fill:#E49603;" d="M44,45.4H28.5L28.4,46c12.1,3.1,20.1,10.7,23.4,19.7l-3.4-17.2C47.8,46.1,46.1,45.4,44,45.4z"/> <path style="fill:#09599D;" d="M176,36V12c0-6.6-5.4-12-12-12H12C5.4,0,0,5.4,0,12v24H176z"/> <path style="fill:#E49603;" d="M0,92v24c0,6.6,5.4,12,12,12h152c6.6,0,12-5.4,12-12V92H0z"/> </symbol><symbol viewBox="0 0 156 176" id="pdf"><title>14_col_PDF_icon_192</title>  <path style="fill:#494949;" d="M124.2,0H20v176h136V35.9L124.2,0z M146,38.5h-25.8V9.3L146,38.5z M146.8,166.9H29.2V9.1H111v38.5
	h35.8L146.8,166.9L146.8,166.9z"/> <rect y="28" style="fill:#EB1751;" width="99.8" height="52"/> <path style="fill:#FFFFFF;" d="M12,67.9V40h11.9c2.5-0.1,5,0.7,6.9,2.3c1.7,1.5,2.7,3.8,2.6,6.1c0.1,2.3-0.9,4.6-2.6,6.1
	c-1.9,1.6-4.4,2.5-7,2.4h-6.3v11.1H12z M17.6,51.9h5.9c2.7,0,4.3-1.2,4.3-3.5S26.2,45,23.5,45h-5.9L17.6,51.9L17.6,51.9z"/> <path style="fill:#FFFFFF;" d="M37.7,67.9V40h10.2c4-0.2,7.9,1.2,10.8,3.9c2.8,2.6,4.3,6.3,4.2,10.1c0.1,3.8-1.4,7.5-4.2,10.1
	c-3,2.7-6.8,4-10.8,3.9L37.7,67.9L37.7,67.9z M43.3,62.8h4.1c6.1,0,9.7-3.3,9.7-8.8s-3.6-8.8-9.7-8.8h-4.1L43.3,62.8z"/> <path style="fill:#FFFFFF;" d="M68,67.9V40h20v5.2H73.6v5.7h11.1v5.1H73.6v12H68z"/> <rect x="43.7" y="96" style="fill:#494949;" width="88.3" height="9.1"/> <rect x="43.7" y="115.4" style="fill:#494949;" width="88.3" height="9.1"/> <rect x="43.7" y="134.9" style="fill:#494949;" width="88.3" height="9.1"/> </symbol><symbol viewBox="0 0 176 176" id="ru-flag"><title>ru-flag</title> <path style="fill:#1565C0;" d="M5,58.7c-3.2,9.2-5,19-5,29.3s1.8,20.2,5,29.3h166c3.2-9.2,5-19,5-29.3s-1.8-20.2-5-29.3H5z"/> <path style="fill:#FFFFFF;" d="M88,0C49.7,0,17.1,24.5,5,58.7h166C158.9,24.5,126.3,0,88,0z"/> <path style="fill:#C53030;" d="M88,176c38.3,0,70.9-24.5,83-58.7H5C17.1,151.5,49.7,176,88,176z"/> </symbol><symbol viewBox="0 0 176 152" id="simplicity"><title>simplicity</title> <path fill="#1B2E5A" d="M136.8 0H39.2L0 76l39.2 76h97.6L176 76"/> <path fill="#D9D8D7" d="M75.1 103.7H101V116H75.1z"/> <path fill="#FFF" d="M68.9 116h38.3v4H68.9z"/> <path d="M44.1 92V35.1c0-.8.3-1.6.9-2.2.6-.6 1.4-.9 2.2-.9h81.7c.8 0 1.6.3 2.2.9.6.6.9 1.4.9 2.2V92H44.1z" fill="#999"/> <path fill="#FFF" d="M48 44h80v44H48zm84 56.7c0 .8-.3 1.6-.9 2.2-.6.6-1.4.9-2.2.9H47.2c-.8 0-1.6-.3-2.2-.9-.6-.6-.9-1.4-.9-2.2V92H132v8.7z"/> <path d="M128 48H48v-9.7c0-.6.3-1.3.8-1.7.6-.5 1.3-.7 2-.7h74.3c.7 0 1.4.2 2 .7.5.4.8 1 .8 1.7l.1 9.7z" fill="#F2F2F2"/> <path fill="#EB1751" d="M76.3 51.7h24V68h-24zM56 72h64v15.9H56zm48-20h16v16h-16zm-48 0h16v16H56z"/> <ellipse cx="54.1" cy="42.3" rx="2" ry="2.1" fill="#EB1751"/> <ellipse cx="60.2" cy="42.3" rx="2" ry="2.1" fill="#EB1751"/> <ellipse cx="66.3" cy="42.3" rx="2" ry="2.1" fill="#EB1751"/> <path d="M115.2 76.6l-4.1-10 10.1 4-4 2.1"/> <path d="M120.755 75.048l-1.13 1.13-3.324-3.322 1.134-1.132z"/> </symbol><symbol viewBox="0 0 176 152" id="support"><title>12_blu_Support _icon_192</title>  <g> <polygon style="fill:#1B2E5A;" points="136.8,0 117.7,0 58.3,0 39.2,0 0,76 39.2,152 58.3,152 117.7,152 136.8,152 176,76 	"/> </g> <g> <path style="fill:#EB1751;" d="M120,88c9.4-0.7,16-8.6,16-18.2s-6.6-17.2-16-17.8"/> </g> <g> <path style="fill:#EB1751;" d="M56,52c-9.4,0.7-16,8.6-16,18.2S46.7,87.3,56,88"/> </g> <g> <path style="fill:#FFFFFF;" d="M86,108h4c4.4,0,8,3.6,8,8v0c0,4.4-3.6,8-8,8h-4c-4.4,0-8-3.6-8-8v0C78,111.6,81.6,108,86,108z"/> </g> <g> <path style="fill:#FFFFFF;" d="M88,120c-2.2,0-4-1.8-4-4s1.8-4,4-4c15.4,0,28-11.9,28-26.5v-19C116,51.9,103.4,40,88,40
		S60,51.9,60,66.5V84c0,2.2-1.8,4-4,4s-4-1.8-4-4V66.5C52,47.5,68.1,32,88,32s36,15.5,36,34.5v19C124,104.5,107.9,120,88,120z"/> </g> </symbol><symbol viewBox="0 0 176 67.2" id="tax-logo"><title>0_Logo_icon_192</title>  <path style="fill:#221E1F;" d="M70.6,0h11.3v2.6h-4.3v17.2h-2.6V2.6h-4.4V0z"/> <path style="fill:#221E1F;" d="M89.2,14.2h-3.4l-1.3,5.5h-2.6L86.5,0h2l4.7,19.7h-2.6L89.2,14.2z M86.4,11.7h2.3l-1.1-4.8L86.4,11.7
	z"/> <path style="fill:#221E1F;" d="M104.1,0h2.8l-4.7,9.9l4.7,9.9H104l-3.3-6.9l-3.3,6.9h-2.9l4.7-9.9L94.7,0h2.8l3.2,6.9L104.1,0z"/> <path style="fill:#221E1F;" d="M78.5,47.6H81v14.4c0,1.4,0.3,2,0.7,2.4c0.3,0.3,0.8,0.4,1.2,0.3c0.4,0,0.9-0.1,1.2-0.3
	c0.6-0.7,0.8-1.5,0.7-2.4V47.6h2.5v14.4c0.1,1.3-0.3,2.7-1.1,3.8c-1.7,1.9-4.6,2-6.5,0.2c-0.1-0.1-0.2-0.2-0.2-0.2
	c-0.8-1.1-1.2-2.4-1.1-3.8L78.5,47.6z"/> <path style="fill:#221E1F;" d="M89.6,60.4h2.5v1.2c-0.1,0.9,0.1,1.8,0.6,2.5c0.1,0.2,0.3,0.3,0.5,0.4c0.3,0.1,0.7,0.2,1.1,0.2
	c0.7,0,1.4-0.4,1.8-1c0.3-0.6,0.4-1.2,0.3-1.9c0-0.7-0.2-1.5-0.8-2c-0.5-0.4-1-0.8-1.6-1l-0.5-0.2c-0.9-0.3-1.7-0.8-2.4-1.4
	c-1.1-1-1.7-2.4-1.6-3.9c-0.1-1.5,0.4-2.9,1.3-4.1c0.9-1,2.1-1.6,3.4-1.5c1.4-0.1,2.7,0.5,3.6,1.5c0.8,1.2,1.2,2.6,1.2,4.1v1.2h-2.6
	v-1.2c0-1.5-0.3-2.3-0.8-2.7c-0.4-0.3-0.9-0.4-1.4-0.4c-0.8,0-1.6,0.5-1.8,1.3c-0.2,0.6-0.4,1.2-0.3,1.8c0,0.7,0.3,1.5,0.8,2
	c0.5,0.5,1.1,0.8,1.7,1.1l0.4,0.2c0.9,0.3,1.6,0.8,2.3,1.4c1.1,1,1.7,2.4,1.7,3.9c0,3-1.7,5.4-4.7,5.4s-4.7-2.1-4.7-5.6L89.6,60.4
	L89.6,60.4z"/> <polygon style="fill:#EA1651;" points="159.7,0 110.3,0 116.8,13.4 166.2,13.4 "/> <polygon style="fill:#EA1651;" points="126.6,33.6 123.3,40.3 172.7,40.3 176,33.6 172.7,26.9 123.3,26.9 "/> <polygon style="fill:#EA1651;" points="110.3,67.2 159.7,67.2 166.2,53.7 116.8,53.7 "/> <path style="fill:#1B2D5A;" d="M65.7,0H16.3L0,33.6l16.3,33.6h49.4L49.4,33.6L65.7,0z M35.3,46.1L27,41.8l-8.2,4.3l1.6-9.1l-6.6-6.4
	l9.2-1.3L27,21l4.1,8.3l9.2,1.3L33.7,37L35.3,46.1z"/> <path style="fill:#221E1F;" d="M78.7,27v0.6h-4.2v5.8h4.2V34h-4.2v6.4h-0.6V27H78.7z"/> <path style="fill:#221E1F;" d="M86.2,40.4h-0.7v-3.7c0.1-1.3-0.8-2.4-2-2.5c-0.2,0-0.3,0-0.5,0h-1.8v6.3h-0.6V27H83
	c2.2,0,3.1,1.1,3.1,3.6c0.1,0.9-0.2,1.9-0.7,2.7c-0.2,0.3-0.5,0.5-0.8,0.6c0.3,0.1,0.5,0.3,0.7,0.5c0.6,0.6,1,1.5,0.9,2.4L86.2,40.4
	L86.2,40.4z M81.2,33.5H83c1.8,0,2.5-0.9,2.5-2.9s-0.7-2.9-2.5-2.9h-1.8L81.2,33.5L81.2,33.5z"/> <path style="fill:#221E1F;" d="M88,30.6c0-2.3,1-3.6,2.9-3.6s2.9,1.2,2.9,3.6v6.3c0.1,1-0.2,2.1-0.9,2.9c-0.5,0.5-1.2,0.7-1.9,0.7
	c-0.7,0-1.4-0.2-1.9-0.7c-0.7-0.8-1-1.8-0.9-2.9V30.6z M88.6,36.9c0,2,0.7,2.9,2.2,2.9s2.3-0.9,2.3-2.9v-6.3c0-2.1-0.8-2.9-2.3-2.9
	s-2.3,0.9-2.3,2.9L88.6,36.9L88.6,36.9z"/> <path style="fill:#221E1F;" d="M99.4,40.5l-3.1-10.9v10.9h-0.6V27h0.6l3.5,12l3.4-12h0.6v13.4H103V29.6l-3.1,10.9L99.4,40.5
	L99.4,40.5z"/> </symbol><symbol viewBox="0 0 176 152" id="time"><title>12_blu_Time_icon_192</title>  <polygon style="fill:#1B2E5A;" points="136.8,0 117.7,0 58.3,0 39.2,0 0,76 39.2,152 58.3,152 117.7,152 136.8,152 176,76 "/> <path style="fill:#FFFFFF;" d="M88,32c-24.3,0-44,19.7-44,44s19.7,44,44,44s44-19.7,44-44S112.3,32,88,32z"/> <circle style="fill:#E5E5E5;" cx="88" cy="76" r="36"/> <path style="fill:#EB1751;" d="M118.9,94.4c10.2-17.1,4.6-39.2-12.5-49.4C100.8,41.8,94.5,40,88,40v36L118.9,94.4z"/> <polygon style="fill:#EB1751;" points="88,40 88,40 88,40 "/> <rect x="85.9" y="56" style="fill:#343B43;" width="4.1" height="16"/> <rect x="98.7" y="73.6" transform="matrix(-0.5066 0.8622 -0.8622 -0.5066 223.7203 38.9517)" style="fill:#343B43;" width="4.1" height="19.8"/> <circle style="fill:#343B43;" cx="88" cy="76" r="8"/> <circle style="fill:#FFFFFF;" cx="88" cy="76" r="4"/> <circle style="fill:#EB1751;" cx="88" cy="76" r="2.1"/> <circle style="fill:#343B43;" cx="88" cy="46" r="2"/> <circle style="fill:#343B43;" cx="73" cy="50" r="2"/> <circle style="fill:#343B43;" cx="62" cy="61" r="2"/> <circle style="fill:#343B43;" cx="58" cy="76" r="2"/> <circle style="fill:#343B43;" cx="62" cy="91" r="2"/> <path style="fill:#343B43;" d="M74,100.3c1,0.6,1.3,1.8,0.7,2.7c-0.6,1-1.8,1.3-2.7,0.7c-1-0.6-1.3-1.8-0.7-2.7c0,0,0,0,0,0
	C71.8,100,73,99.7,74,100.3z"/> <circle style="fill:#343B43;" cx="88" cy="106" r="2"/> <path style="fill:#343B43;" d="M102,100.3c1-0.5,2.2-0.2,2.7,0.7c0.6,1,0.2,2.2-0.7,2.7c-1,0.6-2.2,0.2-2.7-0.7S101,100.8,102,100.3
	C102,100.3,102,100.3,102,100.3z"/> <path style="fill:#343B43;" d="M112.3,90c0.5-1,1.8-1.3,2.7-0.7c1,0.5,1.3,1.8,0.7,2.7c-0.5,1-1.8,1.3-2.7,0.7
	C112,92.2,111.7,91,112.3,90L112.3,90z"/> <circle style="fill:#343B43;" cx="118" cy="76" r="2"/> <path style="fill:#343B43;" d="M112.3,62c-0.6-1-0.2-2.2,0.7-2.7s2.2-0.2,2.7,0.7c0.5,1,0.2,2.2-0.7,2.7C114,63.3,112.8,63,112.3,62
	C112.3,62,112.3,62,112.3,62z"/> <path style="fill:#343B43;" d="M102,51.7c-1-0.5-1.3-1.8-0.7-2.7c0.5-1,1.8-1.3,2.7-0.7c1,0.5,1.3,1.8,0.7,2.7c0,0,0,0,0,0
	C104.2,52,103,52.3,102,51.7z"/> </symbol><symbol viewBox="0 0 508.6 152" id="tps-yourfica"><title>09_col_StateTax_icon_192</title>  <polygon style="fill:#132140;" points="0,76 43.9,0 421.6,0 421.6,152 43.9,152 "/> <polygon style="fill:#FFFFFF;" points="333.1,76 377,0 464.8,0 508.6,76 464.8,152 377,152 "/> <polygon style="opacity:0.1;enable-background:new    ;" points="501.4,88.5 455.1,42.1 413.6,80.2 426,92.6 386.4,109.6 430.1,152 
	464.8,152 "/> <circle style="fill:#F3AA2D;" cx="420.9" cy="76" r="48.2"/> <circle style="fill:#D69F41;" cx="420.9" cy="76" r="33.6"/> <path style="fill:#D59220;" d="M397.1,99.8c13.1,13.1,34.4,13.1,47.5,0s13.1-34.4,0-47.5"/> <path style="fill:#AF6205;" d="M421.7,72.8c-1.5-0.6-2.9-1.3-4.1-2.2c-0.7-0.6-1.1-1.5-1.1-2.4c0-1,0.4-1.9,1.1-2.6
	c0.8-0.7,1.9-1.1,2.9-1c1.2-0.1,2.4,0.3,3.4,1c0.7,0.8,1.4,1.7,2.1,2.6l4.6-4.6c-0.5-0.9-1.1-1.6-1.8-2.3c-2.3-1.9-5.2-2.8-8.1-2.7
	c-2.9-0.1-5.7,0.8-7.9,2.6c-2,1.7-3.2,4.2-3.1,6.9c-0.2,2.5,0.8,4.9,2.7,6.6c2.5,1.9,5.2,3.4,8.2,4.3c1.4,0.5,2.6,1.2,3.8,2.1
	c0.7,0.7,1.1,1.7,1,2.8c0,1-0.4,1.9-1.1,2.6c-0.9,0.7-2.1,1.1-3.2,1c-1.4,0.1-2.8-0.3-3.9-1.2c-0.8-0.8-2.6-3.1-2.6-3.1l-4.4,4.4
	c0.5,1.2,1.4,2.3,2.4,3.1c2.4,1.8,5.4,2.8,8.5,2.7c2.9,0.1,5.8-0.7,8.1-2.5c2-1.7,3.2-4.3,3-7c0.2-2.5-0.7-5-2.5-6.9
	C427.2,75.1,424.6,73.6,421.7,72.8z"/> <rect x="417.4" y="54.3" style="fill:#AF6205;" width="6.5" height="6.5"/> <rect x="417.4" y="91.2" style="fill:#AF6205;" width="6.5" height="6.5"/> <g> <path style="fill:#FFFFFF;" d="M66.2,69.1V60l-7-13.1h5.7l2.3,5.3c0.7,1.6,1.2,2.8,1.7,4.3h0.1c0.5-1.4,1-2.7,1.7-4.3l2.2-5.3h5.6
		l-7.3,13v9.3H66.2z"/> <path style="fill:#FFFFFF;" d="M99.7,57.8c0,7.3-4.4,11.7-10.9,11.7c-6.6,0-10.5-5-10.5-11.3c0-6.7,4.3-11.7,10.8-11.7
		C96,46.5,99.7,51.7,99.7,57.8z M83.6,58.1c0,4.4,2,7.4,5.4,7.4c3.4,0,5.3-3.2,5.3-7.6c0-4-1.9-7.4-5.4-7.4
		C85.6,50.5,83.6,53.8,83.6,58.1z"/> <path style="fill:#FFFFFF;" d="M108,46.9v12.8c0,3.8,1.5,5.8,4,5.8c2.6,0,4.1-1.8,4.1-5.8V46.9h5v12.5c0,6.9-3.5,10.1-9.3,10.1
		c-5.6,0-8.9-3.1-8.9-10.2V46.9H108z"/> <path style="fill:#FFFFFF;" d="M125.5,47.2c1.6-0.3,4-0.5,6.7-0.5c3.3,0,5.6,0.5,7.2,1.7c1.3,1.1,2,2.6,2,4.7c0,2.8-2,4.8-3.9,5.5
		v0.1c1.6,0.6,2.4,2.1,3,4.2c0.7,2.5,1.4,5.4,1.8,6.3h-5.1c-0.4-0.6-0.9-2.4-1.6-5.2c-0.6-2.8-1.6-3.5-3.6-3.6h-1.5v8.7h-5V47.2z
		 M130.5,56.8h2c2.5,0,4-1.3,4-3.2c0-2-1.4-3.1-3.7-3.1c-1.2,0-1.9,0.1-2.3,0.2V56.8z"/> <path style="fill:#FFFFFF;" d="M151.8,46.9h13.6V51h-8.5v5.1h8v4.1h-8v8.9h-5V46.9z"/> <path style="fill:#FFFFFF;" d="M174.2,46.9v22.2h-5V46.9H174.2z"/> <path style="fill:#FFFFFF;" d="M194.9,68.5c-0.9,0.5-3,1-5.7,1c-7.7,0-11.7-4.8-11.7-11.1c0-7.6,5.4-11.8,12.1-11.8
		c2.6,0,4.6,0.5,5.5,1l-1,4c-1-0.4-2.4-0.8-4.2-0.8c-4,0-7.1,2.4-7.1,7.4c0,4.5,2.6,7.3,7.1,7.3c1.5,0,3.2-0.3,4.2-0.7L194.9,68.5z"/> <path style="fill:#FFFFFF;" d="M203.7,63.4l-1.6,5.7h-5.2l6.8-22.2h6.6l6.9,22.2h-5.4l-1.7-5.7H203.7z M209.3,59.7L208,55
		c-0.4-1.3-0.8-3-1.1-4.3h-0.1c-0.3,1.3-0.7,3-1,4.3l-1.3,4.7H209.3z"/> <path style="fill:#FFFFFF;" d="M229.8,51.1h-6v-4.2H241v4.2h-6.1v18h-5V51.1z"/> <path style="fill:#FFFFFF;" d="M246.4,63.4l-1.6,5.7h-5.2l6.8-22.2h6.6l6.9,22.2h-5.4l-1.7-5.7H246.4z M252.1,59.7l-1.4-4.7
		c-0.4-1.3-0.8-3-1.1-4.3h-0.1c-0.3,1.3-0.7,3-1,4.3l-1.3,4.7H252.1z"/> <path style="fill:#FFFFFF;" d="M273.8,69.1l-2-4c-0.8-1.6-1.4-2.7-2-4h-0.1c-0.5,1.3-1,2.4-1.7,4l-1.8,4h-5.7l6.4-11.3l-6.2-11h5.8
		l1.9,4.1c0.7,1.4,1.2,2.4,1.7,3.7h0.1c0.5-1.4,1-2.4,1.5-3.7l1.9-4.1h5.7L273,57.8l6.6,11.4H273.8z"/> <path style="fill:#FFFFFF;" d="M61,86.8c1.6-0.3,4-0.5,6.7-0.5c3.3,0,5.6,0.5,7.2,1.7c1.3,1.1,2,2.6,2,4.7c0,2.8-2,4.8-3.9,5.5v0.1
		c1.6,0.6,2.4,2.1,3,4.2c0.7,2.5,1.4,5.4,1.8,6.3h-5.1c-0.4-0.6-0.9-2.4-1.6-5.2c-0.6-2.8-1.6-3.5-3.6-3.6H66v8.7h-5V86.8z M66,96.4
		h2c2.5,0,4-1.3,4-3.2c0-2-1.4-3.1-3.7-3.1c-1.2,0-1.9,0.1-2.3,0.2V96.4z"/> <path style="fill:#FFFFFF;" d="M93.8,99.3h-8.2v5.3h9.1v4.1H80.6V86.5h13.7v4.1h-8.7v4.6h8.2V99.3z"/> <path style="fill:#FFFFFF;" d="M102.6,90.7h-6v-4.2h17.1v4.2h-6.1v18h-5V90.7z"/> <path style="fill:#FFFFFF;" d="M121.5,86.5v12.8c0,3.8,1.5,5.8,4,5.8c2.6,0,4.1-1.8,4.1-5.8V86.5h5V99c0,6.9-3.5,10.1-9.3,10.1
		c-5.6,0-8.9-3.1-8.9-10.2V86.5H121.5z"/> <path style="fill:#FFFFFF;" d="M138.9,86.8c1.6-0.3,4-0.5,6.7-0.5c3.3,0,5.6,0.5,7.2,1.7c1.3,1.1,2,2.6,2,4.7c0,2.8-2,4.8-3.9,5.5
		v0.1c1.6,0.6,2.4,2.1,3,4.2c0.7,2.5,1.4,5.4,1.8,6.3h-5.1c-0.4-0.6-0.9-2.4-1.6-5.2c-0.6-2.8-1.6-3.5-3.6-3.6h-1.5v8.7h-5V86.8z
		 M143.9,96.4h2c2.5,0,4-1.3,4-3.2c0-2-1.4-3.1-3.7-3.1c-1.2,0-1.9,0.1-2.3,0.2V96.4z"/> <path style="fill:#FFFFFF;" d="M158.5,108.7V86.5h5.9l4.6,8.2c1.3,2.3,2.6,5.1,3.6,7.6h0.1c-0.3-2.9-0.4-5.9-0.4-9.3v-6.5h4.6v22.2
		h-5.3l-4.8-8.6c-1.3-2.4-2.8-5.2-3.9-7.9l-0.1,0c0.1,2.9,0.2,6.1,0.2,9.7v6.7H158.5z"/> </g> </symbol><symbol viewBox="0 0 495.6 152" id="tps-yourform"><title>09_col_StateTax_icon_192</title>  <polygon style="fill:#132140;" points="495.6,76 451.8,0 74,0 74,152 451.8,152 "/> <polygon style="fill:#FFFFFF;" points="0,76 43.9,0 131.6,0 175.5,76 131.6,152 43.9,152 "/> <polygon style="opacity:0.1;enable-background:new    ;" points="173,80.3 122.7,30 73,75.6 87.9,90.6 53.6,122.1 83.6,152 
	131.6,152 "/> <path style="fill:#F1B555;" d="M118.5,28H57.9c-3,0-6.1,2.1-6.1,5.1V118c0,3,3.2,6,6.1,6h60.6c3,0,5.3-3.1,5.3-6V33.1
	c0-2.8-2.2-5-4.9-5.1C118.7,28,118.6,28,118.5,28z"/> <path style="fill:#FFFFFF;" d="M57.7,32h59.2c0.5,0,0.9,0.4,0.9,0.9v84.2c0,0.5-0.4,0.9-0.9,0.9H57.7c-0.5,0-0.9-0.4-0.9-0.9V32.9
	C56.8,32.4,57.2,32,57.7,32z"/> <circle style="fill:#47A8C9;" cx="73.8" cy="40.6" r="3.1"/> <path style="fill:#313435;" d="M107.5,24H88.7c-0.1,0-0.3,0-0.4,0s-0.3,0-0.5,0H68.9c-1.5,0-3.2,1.2-3.2,2.7v7.2
	c0.2,1.7,1.5,3,3.2,3.1h18.8c0.1,0,0.3,0,0.4,0s0.3,0,0.4,0h18.8c1.5,0,2.3-1.6,2.3-3.1v-7.2C109.8,25.2,109,24,107.5,24z"/> <path style="fill:#E4E4E4;" d="M73.9,31h-0.2c-1.2,0.1-2.1,1.2-2,2.4v7.3c-0.1,1.2,0.8,2.2,2,2.3h0.1c1.2,0,1.9-1.1,1.9-2.3v-7.3
	C75.8,32.2,75.1,31,73.9,31z"/> <circle style="fill:#47A8C9;" cx="102.6" cy="40.6" r="3.1"/> <path style="fill:#E4E4E4;" d="M102.5,31L102.5,31c1.3,0.1,2.3,1.1,2.2,2.4v7.3c0,1.2-0.9,2.3-2.1,2.3h-0.1c-1.2,0-1.8-1.1-1.8-2.3
	v-7.3C100.8,32.2,101.3,31,102.5,31z"/> <rect x="65.8" y="51" style="fill:#454B4C;" width="7" height="7"/> <rect x="76.8" y="51" style="fill:#454B4C;" width="33" height="3"/> <rect x="76.8" y="55" style="fill:#454B4C;" width="33" height="3"/> <rect x="76.8" y="64" style="fill:#454B4C;" width="33" height="3"/> <rect x="76.8" y="69" style="fill:#454B4C;" width="33" height="3"/> <rect x="65.8" y="78" style="fill:#454B4C;" width="7" height="7"/> <rect x="76.8" y="78" style="fill:#454B4C;" width="33" height="3"/> <rect x="76.8" y="82" style="fill:#454B4C;" width="33" height="3"/> <rect x="65.8" y="92" style="fill:#454B4C;" width="7" height="7"/> <rect x="76.8" y="92" style="fill:#454B4C;" width="33" height="3"/> <rect x="76.8" y="97" style="fill:#454B4C;" width="33" height="2"/> <path style="fill:#E84140;" d="M69.4,68.9c0.3,0.4,0.3,0.9,0,1.3l0,0c-0.4,0.3-0.9,0.3-1.3,0L64.9,67c-0.3-0.4-0.3-0.9,0-1.3l0,0
	c0.4-0.3,0.9-0.3,1.3,0L69.4,68.9z"/> <path style="fill:#E84140;" d="M68,69l4.6-4.6c0.3-0.3,0.8-0.3,1.1,0l0.1,0.1c0.3,0.3,0.3,0.8,0,1.1l-4.6,4.6
	c-0.3,0.3-0.8,0.3-1.1,0L68,70.1C67.7,69.8,67.7,69.3,68,69z"/> <polygon style="fill:#E1A94F;" points="117.8,103 117.8,118 102.1,118 "/> <path style="fill:#CBD5D5;" d="M104.2,103c-1,0.7-1.9,1.6-2.5,2.7l0.4,12.3l15.6-15H104.2z"/> <path style="fill:#CBD5D5;" d="M102.6,106.9l1,0.3c0.8,0.1,1.6-0.5,1.7-1.3c0-0.1,0-0.1,0-0.2l0.6-1.9c0-1-1.4-0.8-2.4-0.8l0,0
	c-1,0-1.8,0.8-1.8,1.8l0,0C101.8,105.7,101.6,106.9,102.6,106.9z"/> <g> <path style="fill:#FFFFFF;" d="M196.1,67v-9.6l-7.4-13.8h6l2.4,5.6c0.7,1.7,1.2,2.9,1.8,4.5h0.1c0.5-1.5,1.1-2.8,1.8-4.5l2.4-5.6
		h5.9l-7.7,13.6V67H196.1z"/> <path style="fill:#FFFFFF;" d="M231.4,55.1c0,7.7-4.6,12.3-11.5,12.3c-6.9,0-11-5.2-11-11.9c0-7,4.5-12.2,11.4-12.2
		C227.5,43.2,231.4,48.6,231.4,55.1z M214.5,55.4c0,4.6,2.2,7.8,5.7,7.8c3.6,0,5.6-3.4,5.6-7.9c0-4.2-2-7.8-5.7-7.8
		C216.6,47.4,214.5,50.8,214.5,55.4z"/> <path style="fill:#FFFFFF;" d="M240.1,43.6v13.5c0,4,1.5,6.1,4.2,6.1c2.8,0,4.3-1.9,4.3-6.1V43.6h5.3v13.1c0,7.2-3.6,10.7-9.8,10.7
		c-5.9,0-9.4-3.3-9.4-10.7v-13H240.1z"/> <path style="fill:#FFFFFF;" d="M258.5,43.9c1.7-0.3,4.2-0.5,7-0.5c3.5,0,5.9,0.5,7.6,1.8c1.4,1.1,2.2,2.7,2.2,4.9
		c0,3-2.1,5-4.1,5.8V56c1.6,0.7,2.5,2.2,3.1,4.4c0.7,2.6,1.5,5.7,1.9,6.6h-5.4c-0.4-0.7-0.9-2.6-1.6-5.4c-0.6-2.9-1.6-3.7-3.8-3.7
		h-1.6V67h-5.2V43.9z M263.8,54h2.1c2.6,0,4.2-1.3,4.2-3.4c0-2.2-1.5-3.2-3.9-3.3c-1.3,0-2,0.1-2.4,0.2V54z"/> <path style="fill:#FFFFFF;" d="M286.1,43.6h14.3V48h-9v5.3h8.4v4.3h-8.4V67h-5.3V43.6z"/> <path style="fill:#FFFFFF;" d="M325.8,55.1c0,7.7-4.6,12.3-11.5,12.3c-6.9,0-11-5.2-11-11.9c0-7,4.5-12.2,11.4-12.2
		C321.9,43.2,325.8,48.6,325.8,55.1z M308.9,55.4c0,4.6,2.2,7.8,5.7,7.8c3.6,0,5.6-3.4,5.6-7.9c0-4.2-2-7.8-5.7-7.8
		C311,47.4,308.9,50.8,308.9,55.4z"/> <path style="fill:#FFFFFF;" d="M329.3,43.9c1.7-0.3,4.2-0.5,7-0.5c3.5,0,5.9,0.5,7.6,1.8c1.4,1.1,2.2,2.7,2.2,4.9
		c0,3-2.1,5-4.1,5.8V56c1.6,0.7,2.5,2.2,3.1,4.4c0.7,2.6,1.5,5.7,1.9,6.6h-5.4c-0.4-0.7-0.9-2.6-1.6-5.4c-0.6-2.9-1.6-3.7-3.8-3.7
		h-1.6V67h-5.2V43.9z M334.5,54h2.1c2.6,0,4.2-1.3,4.2-3.4c0-2.2-1.5-3.2-3.9-3.3c-1.3,0-2,0.1-2.4,0.2V54z"/> <path style="fill:#FFFFFF;" d="M369.6,58c-0.1-2.8-0.2-6.2-0.2-9.6h-0.1c-0.7,3-1.7,6.3-2.6,9.1l-2.8,9.1h-4.1l-2.5-9.1
		c-0.8-2.7-1.6-6.1-2.1-9.1H355c-0.1,3.2-0.2,6.8-0.4,9.7l-0.4,8.9h-4.9l1.5-23.4h7l2.3,7.8c0.7,2.7,1.5,5.6,2,8.4h0.1
		c0.7-2.7,1.5-5.8,2.2-8.4l2.5-7.8h6.9l1.3,23.4H370L369.6,58z"/> <path style="fill:#FFFFFF;" d="M189.5,102.7c0-2.7,1.6-4.6,4-5.7V97c-2.2-1.1-3.3-2.9-3.3-4.9c0-3.8,3.4-6.3,7.9-6.3
		c5.3,0,7.5,3.1,7.5,5.8c0,1.9-1,3.9-3.3,5v0.1c2.2,0.8,4.1,2.7,4.1,5.6c0,4.1-3.4,6.8-8.7,6.8C192.1,109,189.5,105.8,189.5,102.7z
		 M201.2,102.6c0-2-1.5-3.2-3.5-3.7c-1.7,0.5-2.7,1.7-2.7,3.4c0,1.6,1.2,3.2,3.2,3.2C199.9,105.4,201.2,104.2,201.2,102.6z
		 M195.2,91.9c0,1.5,1.4,2.5,3.2,3.1c1.2-0.3,2.3-1.5,2.3-2.9c0-1.4-0.8-2.8-2.7-2.8C196.2,89.3,195.2,90.5,195.2,91.9z"/> <path style="fill:#FFFFFF;" d="M208.8,102.7c0-2.7,1.6-4.6,4-5.7V97c-2.2-1.1-3.3-2.9-3.3-4.9c0-3.8,3.4-6.3,7.9-6.3
		c5.3,0,7.5,3.1,7.5,5.8c0,1.9-1,3.9-3.3,5v0.1c2.2,0.8,4.1,2.7,4.1,5.6c0,4.1-3.4,6.8-8.7,6.8C211.4,109,208.8,105.8,208.8,102.7z
		 M220.4,102.6c0-2-1.5-3.2-3.5-3.7c-1.7,0.5-2.7,1.7-2.7,3.4c0,1.6,1.2,3.2,3.2,3.2C219.2,105.4,220.4,104.2,220.4,102.6z
		 M214.5,91.9c0,1.5,1.4,2.5,3.2,3.1c1.2-0.3,2.3-1.5,2.3-2.9c0-1.4-0.8-2.8-2.7-2.8C215.4,89.3,214.5,90.5,214.5,91.9z"/> <path style="fill:#FFFFFF;" d="M237.7,108.6v-5.4h-10v-3.4l8.5-13.7h6.5v13.2h2.7v4h-2.7v5.4H237.7z M237.7,99.3v-5
		c0-1.4,0.1-2.7,0.2-4.2h-0.1c-0.7,1.5-1.3,2.8-2.1,4.2l-3,4.9v0.1H237.7z"/> <path style="fill:#FFFFFF;" d="M248.6,103.5c0.9,0.5,3.1,1.4,5.2,1.4c2.7,0,4.1-1.3,4.1-3c0-2.2-2.2-3.2-4.5-3.2h-2.2v-3.8h2
		c1.8,0,4-0.7,4-2.6c0-1.4-1.1-2.4-3.3-2.4c-1.8,0-3.8,0.8-4.7,1.4l-1.1-3.8c1.4-0.9,4.1-1.7,7-1.7c4.8,0,7.5,2.5,7.5,5.6
		c0,2.4-1.4,4.3-4.1,5.2v0.1c2.7,0.5,4.9,2.5,4.9,5.5c0,4-3.5,6.9-9.2,6.9c-2.9,0-5.4-0.8-6.7-1.6L248.6,103.5z"/> </g> </symbol><symbol viewBox="0 0 495.6 152" id="tps-youritin"><title>09_col_StateTax_icon_192</title>  <polygon style="fill:#132140;" points="495.6,76 451.8,0 74,0 74,152 451.8,152 "/> <polygon style="fill:#FFFFFF;" points="0,76 43.9,0 131.6,0 175.5,76 131.6,152 43.9,152 "/> <polygon style="opacity:0.1;enable-background:new    ;" points="171.2,83.4 131.8,44 120.6,54.2 59.5,70.4 71.6,82.5 43.8,108 
	87.8,152 88.6,152 89.9,151.8 94.2,152 131.6,152 "/> <rect x="43.8" y="44" style="fill:#44B1B5;" width="88" height="64"/> <path style="fill:#FFFFFF;" d="M126.8,48H48.5c-0.7,0-0.7,0.5-0.7,1.1v53.8c0,0.6,0.1,1.1,0.7,1.1h78.3c0.5,0,1-0.4,1-0.9
	c0-0.1,0-0.1,0-0.2V49.1C127.8,48.5,127.4,48.1,126.8,48C126.8,48,126.8,48,126.8,48z"/> <path style="fill:#313435;" d="M108.6,38H94.5c0-3.4-2.8-6.2-6.2-6.2S82,34.6,82,38H66.9c-1.7,0.1-3.1,1.5-3.2,3.2v7.7
	c0.1,1.7,1.5,3,3.2,3.1h20.4c0.2,0,0.3,0,0.5,0c0.2,0,0.3,0,0.5,0h20.4c1.7-0.1,3.1-1.4,3.2-3.1v-7.7
	C111.7,39.5,110.3,38.1,108.6,38z M88.2,35.4c1.5,0,2.8,1.2,2.8,2.8s-1.2,2.8-2.8,2.8s-2.8-1.2-2.8-2.8S86.7,35.4,88.2,35.4
	L88.2,35.4z"/> <rect x="89.8" y="76" style="fill:#454B4C;" width="31" height="3"/> <rect x="89.8" y="82" style="fill:#454B4C;" width="31" height="3"/> <rect x="89.8" y="88" style="fill:#454B4C;" width="21" height="3"/> <rect x="89.8" y="58" style="fill:#454B4C;" width="4" height="15"/> <rect x="105.8" y="58" style="fill:#454B4C;" width="4" height="15"/> <rect x="111.8" y="58" style="fill:#454B4C;" width="3" height="15"/> <rect x="117.8" y="58" style="fill:#454B4C;" width="3" height="15"/> <rect x="97.8" y="58" style="fill:#454B4C;" width="4" height="15"/> <rect x="95.8" y="58" style="fill:#454B4C;" width="8" height="3"/> <polygon style="fill:#454B4C;" points="117.8,73 111.8,58 114.8,58 120.8,73 "/> <circle style="fill:#44B1B5;" cx="78.8" cy="86.8" r="3.5"/> <circle style="fill:#44B1B5;" cx="57.1" cy="86.8" r="3.5"/> <path style="fill:#44B1B5;" d="M82.3,86.5c0-6.2-5-11.2-11.2-11.2c-1.1,0-2.2,0.2-3.2,0.5C62,74,55.8,77.4,54,83.3
	c-0.3,1-0.5,2.1-0.5,3.2"/> <rect x="56.8" y="84.5" style="fill:#44B1B5;" width="21.9" height="5.7"/> <polygon style="fill:#FFFFFF;" points="73.9,75.7 70.3,72.3 67.9,74.7 65.5,72.3 61.9,75.7 65.5,82.2 67.9,79.2 70.3,82.2 "/> <circle style="fill:#F0CCAF;" cx="67.9" cy="71.2" r="7.5"/> <g> <path style="fill:none;" d="M74.4,71c-3.9,0-7.3-2.3-9-5.6c-1.2,2.3-3.3,4.1-5.9,4.9c0,4.7,3.8,8.5,8.5,8.5c4.5,0,8.2-3.5,8.5-8
		C75.8,70.9,75.1,71,74.4,71z"/> <path style="fill:#AA6125;" d="M74.4,71c0.7,0,1.4-0.1,2.1-0.2c0-0.2,0-0.3,0-0.5c0-4.7-3.8-8.5-8.5-8.5c-0.5,0-1,0.1-1.5,0.1
		c-0.2,1.2-0.5,2.4-1.1,3.5C67,68.7,70.4,71,74.4,71z"/> <path style="fill:#AA6125;" d="M65.4,65.4c0.6-1.1,0.9-2.2,1.1-3.5c-4,0.7-7,4.2-7,8.3c0,0,0,0,0,0C62,69.5,64.2,67.7,65.4,65.4z"/> </g> <g> <path style="fill:#FFFFFF;" d="M197.1,65.5v-9.1l-7-13.1h5.7l2.3,5.3c0.7,1.6,1.2,2.8,1.7,4.3h0.1c0.5-1.4,1-2.7,1.7-4.3l2.2-5.3
		h5.6l-7.3,13v9.3H197.1z"/> <path style="fill:#FFFFFF;" d="M230.7,54.1c0,7.3-4.4,11.7-10.9,11.7c-6.6,0-10.5-5-10.5-11.3c0-6.7,4.3-11.7,10.8-11.7
		C226.9,42.9,230.7,48,230.7,54.1z M214.6,54.4c0,4.4,2,7.4,5.4,7.4c3.4,0,5.3-3.2,5.3-7.6c0-4-1.9-7.4-5.4-7.4
		C216.6,46.9,214.6,50.1,214.6,54.4z"/> <path style="fill:#FFFFFF;" d="M239,43.3v12.8c0,3.8,1.5,5.8,4,5.8c2.6,0,4.1-1.8,4.1-5.8V43.3h5v12.5c0,6.9-3.5,10.1-9.3,10.1
		c-5.6,0-8.9-3.1-8.9-10.2V43.3H239z"/> <path style="fill:#FFFFFF;" d="M256.5,43.6c1.6-0.3,4-0.5,6.7-0.5c3.3,0,5.6,0.5,7.2,1.7c1.3,1.1,2,2.6,2,4.7c0,2.8-2,4.8-3.9,5.5
		v0.1c1.6,0.6,2.4,2.1,3,4.2c0.7,2.5,1.4,5.4,1.8,6.3h-5.1c-0.4-0.6-0.9-2.4-1.6-5.2c-0.6-2.8-1.6-3.5-3.6-3.6h-1.5v8.7h-5V43.6z
		 M261.4,53.1h2c2.5,0,4-1.3,4-3.2c0-2-1.4-3.1-3.7-3.1c-1.2,0-1.9,0.1-2.3,0.2V53.1z"/> <path style="fill:#FFFFFF;" d="M287.7,43.3v22.2h-5V43.3H287.7z"/> <path style="fill:#FFFFFF;" d="M296.4,47.5h-6v-4.2h17.1v4.2h-6.1v18h-5V47.5z"/> <path style="fill:#FFFFFF;" d="M315.2,43.3v22.2h-5V43.3H315.2z"/> <path style="fill:#FFFFFF;" d="M319.6,65.5V43.3h5.9l4.6,8.2c1.3,2.3,2.6,5.1,3.6,7.6h0.1c-0.3-2.9-0.4-5.9-0.4-9.3v-6.5h4.6v22.2
		h-5.3l-4.8-8.6c-1.3-2.4-2.8-5.2-3.9-7.9l-0.1,0c0.1,2.9,0.2,6.1,0.2,9.7v6.7H319.6z"/> <path style="fill:#FFFFFF;" d="M197.1,99.4l-1.6,5.7h-5.2l6.8-22.2h6.6l6.9,22.2h-5.4l-1.7-5.7H197.1z M202.8,95.6l-1.4-4.7
		c-0.4-1.3-0.8-3-1.1-4.3h-0.1c-0.3,1.3-0.7,3-1,4.3l-1.3,4.7H202.8z"/> <path style="fill:#FFFFFF;" d="M213.6,83.2c1.6-0.3,3.7-0.5,6.8-0.5c3.1,0,5.3,0.6,6.8,1.8c1.4,1.1,2.4,3,2.4,5.1
		c0,2.2-0.7,4-2,5.3c-1.7,1.6-4.3,2.3-7.2,2.3c-0.7,0-1.3,0-1.7-0.1v8h-5V83.2z M218.6,93.3c0.4,0.1,1,0.1,1.7,0.1
		c2.7,0,4.3-1.4,4.3-3.6c0-2-1.4-3.3-3.9-3.3c-1,0-1.7,0.1-2.1,0.2V93.3z"/> <path style="fill:#FFFFFF;" d="M232.8,83.2c1.6-0.3,3.7-0.5,6.8-0.5c3.1,0,5.3,0.6,6.8,1.8c1.4,1.1,2.4,3,2.4,5.1
		c0,2.2-0.7,4-2,5.3c-1.7,1.6-4.3,2.3-7.2,2.3c-0.7,0-1.3,0-1.7-0.1v8h-5V83.2z M237.7,93.3c0.4,0.1,1,0.1,1.7,0.1
		c2.7,0,4.3-1.4,4.3-3.6c0-2-1.4-3.3-3.9-3.3c-1,0-1.7,0.1-2.1,0.2V93.3z"/> <path style="fill:#FFFFFF;" d="M251.9,82.9h5v18h8.8v4.2h-13.9V82.9z"/> <path style="fill:#FFFFFF;" d="M273.8,82.9v22.2h-5V82.9H273.8z"/> <path style="fill:#FFFFFF;" d="M294.5,104.5c-0.9,0.5-3,1-5.7,1c-7.7,0-11.7-4.8-11.7-11.1c0-7.6,5.4-11.8,12.1-11.8
		c2.6,0,4.6,0.5,5.5,1l-1,4c-1-0.4-2.4-0.8-4.2-0.8c-4,0-7.1,2.4-7.1,7.4c0,4.5,2.6,7.3,7.1,7.3c1.5,0,3.2-0.3,4.2-0.7L294.5,104.5z
		"/> <path style="fill:#FFFFFF;" d="M303.3,99.4l-1.6,5.7h-5.2l6.8-22.2h6.6l6.9,22.2h-5.4l-1.7-5.7H303.3z M309,95.6l-1.4-4.7
		c-0.4-1.3-0.8-3-1.1-4.3h-0.1c-0.3,1.3-0.7,3-1,4.3l-1.3,4.7H309z"/> <path style="fill:#FFFFFF;" d="M321.4,87.1h-6v-4.2h17.1v4.2h-6.1v18h-5V87.1z"/> <path style="fill:#FFFFFF;" d="M340.2,82.9v22.2h-5V82.9H340.2z"/> <path style="fill:#FFFFFF;" d="M364.9,93.7c0,7.3-4.4,11.7-10.9,11.7c-6.6,0-10.5-5-10.5-11.3c0-6.7,4.3-11.7,10.8-11.7
		C361.2,82.5,364.9,87.6,364.9,93.7z M348.9,94c0,4.4,2,7.4,5.4,7.4c3.4,0,5.3-3.2,5.3-7.6c0-4-1.9-7.4-5.4-7.4
		C350.8,86.5,348.9,89.7,348.9,94z"/> <path style="fill:#FFFFFF;" d="M368.2,105.1V82.9h5.9l4.6,8.2c1.3,2.3,2.6,5.1,3.6,7.6h0.1c-0.3-2.9-0.4-5.9-0.4-9.3v-6.5h4.6v22.2
		h-5.3l-4.8-8.6c-1.3-2.4-2.8-5.2-3.9-7.9l-0.1,0c0.1,2.9,0.2,6.1,0.2,9.7v6.7H368.2z"/> </g> </symbol><symbol viewBox="0 0 508.6 152" id="tps-yourrefund"><title>09_col_StateTax_icon_192</title>  <polygon style="fill:#132140;" points="0,76 43.9,0 421.6,0 421.6,152 43.9,152 "/> <polygon style="fill:#FFFFFF;" points="333.1,76 377,0 464.8,0 508.6,76 464.8,152 377,152 "/> <polygon style="opacity:0.1;enable-background:new    ;" points="506.6,79.5 456.3,29.2 405.7,75.7 420.9,90.8 385.9,122.9 415,152 
	464.8,152 "/> <path style="fill:#44B1B5;" d="M388.2,28.1c-0.9,0-1.7,0.4-2.4,1c-0.6,0.6-1,1.5-1,2.4v89.1c0,0.9,0.4,1.8,1,2.4
	c0.6,0.6,1.5,1,2.4,1h65.6c0.9,0,1.7-0.4,2.4-1c0.6-0.6,1-1.5,1-2.4V31.4c0-0.9-0.4-1.8-1-2.4c-0.6-0.6-1.5-1-2.4-1L388.2,28.1
	L388.2,28.1z"/> <rect x="392.3" y="32.9" style="fill:#FFFFFF;" width="57.5" height="86.1"/> <path style="fill:#343B43;" d="M427.9,28.1c0-3.7-3-6.8-6.8-6.8s-6.8,3-6.8,6.8l0,0h-5.7V36h24.8v-7.9H427.9z M418.2,28.1
	c0-1.6,1.3-2.9,2.9-2.9s2.9,1.3,2.9,2.9H418.2L418.2,28.1z"/> <polygon style="fill:#EA1751;" points="463.8,70.8 460.5,67.4 457.1,64.1 422.5,98.8 425.8,102.1 429.1,105.4 432.5,108.8 
	467.1,74.1 "/> <rect x="420.3" y="84.1" transform="matrix(-0.7071 0.7071 -0.7071 -0.7071 820.4398 -166.9679)" style="opacity:0.25;enable-background:new    ;" width="49" height="4.7"/> <rect x="423.6" y="87.4" transform="matrix(-0.707 0.7072 -0.7072 -0.707 828.4489 -163.7276)" style="opacity:0.5;enable-background:new    ;" width="49" height="4.7"/> <polygon style="fill:#E5E4E4;" points="432.5,108.8 423.4,111.2 420,107.9 422.5,98.8 "/> <polygon style="fill:#CBCAC9;" points="432.5,108.8 429.1,105.4 422.3,110.1 423.4,111.2 "/> <polygon style="fill:#495057;" points="423.4,111.2 418.8,112.4 420,107.9 "/> <polygon style="fill:#FFFFFF;" points="467.1,67.4 467.1,67.4 460.5,60.8 457.1,64.1 463.8,70.8 463.8,70.8 467.1,74.1 470.5,70.8 
	"/> <rect x="464.8" y="68.4" transform="matrix(-0.7072 0.707 -0.707 -0.7072 847.5715 -209.4152)" style="fill:#E5E4E4;" width="4.7" height="4.7"/> <rect x="459.8" y="61.1" transform="matrix(-0.7072 0.707 -0.707 -0.7072 835.4857 -214.4128)" style="fill:#FFFFFF;" width="4.7" height="9.4"/> <path style="fill:#495057;" d="M471.3,60c-2.8-2.8-7.2-2.8-10,0l-0.8,0.8l6.7,6.7l3.3,3.3l0.8-0.8C474,67.2,474,62.8,471.3,60
	C471.3,60,471.3,60,471.3,60z"/> <path style="fill:#343B43;" d="M471.3,70l-0.8,0.8l-3.3-3.3l0.8-0.8c2.1-2.1,2.7-5.3,1.4-8c3.5,1.7,5,5.9,3.3,9.4
	C472.3,68.8,471.8,69.4,471.3,70z"/> <path style="fill:#495057;" d="M467.9,66.7l-0.8,0.8l-6.7-6.7l0.8-0.8c2.1-2.1,5.3-2.6,8-1.4C470.5,61.3,470,64.5,467.9,66.7z"/> <rect x="399.3" y="52.9" style="fill:#495057;" width="44.8" height="4"/> <rect x="399.3" y="68.8" style="fill:#495057;" width="42.8" height="4"/> <rect x="399.3" y="60.8" style="fill:#495057;" width="44.8" height="4"/> <rect x="399.3" y="43.8" style="fill:#EA1751;" width="19.5" height="4"/> <rect x="399.3" y="76.7" style="fill:#495057;" width="34.9" height="4"/> <rect x="399.3" y="100.5" style="fill:#495057;" width="11.1" height="4"/> <rect x="399.3" y="84.7" style="fill:#495057;" width="27" height="4"/> <rect x="399.3" y="92.6" style="fill:#495057;" width="19" height="4"/> <g> <path style="fill:#FFFFFF;" d="M67,68.8v-9.1l-7-13.1h5.7l2.3,5.3c0.7,1.6,1.2,2.8,1.7,4.3h0.1c0.5-1.4,1-2.7,1.7-4.3l2.2-5.3h5.6
		l-7.3,13v9.3H67z"/> <path style="fill:#FFFFFF;" d="M100.6,57.4c0,7.3-4.4,11.7-10.9,11.7c-6.6,0-10.5-5-10.5-11.3c0-6.7,4.3-11.7,10.8-11.7
		C96.8,46.2,100.6,51.3,100.6,57.4z M84.5,57.7c0,4.4,2,7.4,5.4,7.4c3.4,0,5.3-3.2,5.3-7.6c0-4-1.9-7.4-5.4-7.4
		C86.5,50.2,84.5,53.4,84.5,57.7z"/> <path style="fill:#FFFFFF;" d="M108.9,46.5v12.8c0,3.8,1.5,5.8,4,5.8c2.6,0,4.1-1.8,4.1-5.8V46.5h5V59c0,6.9-3.5,10.1-9.3,10.1
		c-5.6,0-8.9-3.1-8.9-10.2V46.5H108.9z"/> <path style="fill:#FFFFFF;" d="M126.4,46.8c1.6-0.3,4-0.5,6.7-0.5c3.3,0,5.6,0.5,7.2,1.7c1.3,1.1,2,2.6,2,4.7c0,2.8-2,4.8-3.9,5.5
		v0.1c1.6,0.6,2.4,2.1,3,4.2c0.7,2.5,1.4,5.4,1.8,6.3H138c-0.4-0.6-0.9-2.4-1.6-5.2c-0.6-2.8-1.6-3.5-3.6-3.6h-1.5v8.7h-5V46.8z
		 M131.3,56.4h2c2.5,0,4-1.3,4-3.2c0-2-1.4-3.1-3.7-3.1c-1.2,0-1.9,0.1-2.3,0.2V56.4z"/> <path style="fill:#FFFFFF;" d="M152.8,63.6c1.4,0.7,3.4,1.4,5.6,1.4c2.3,0,3.5-1,3.5-2.4c0-1.4-1.1-2.2-3.7-3.1
		c-3.7-1.3-6.1-3.3-6.1-6.6c0-3.8,3.2-6.7,8.4-6.7c2.5,0,4.4,0.5,5.7,1.1l-1.1,4.1c-0.9-0.4-2.5-1.1-4.7-1.1s-3.2,1-3.2,2.1
		c0,1.4,1.3,2,4.1,3.1c3.9,1.5,5.8,3.5,5.8,6.6c0,3.7-2.9,6.9-9,6.9c-2.5,0-5-0.7-6.3-1.4L152.8,63.6z"/> <path style="fill:#FFFFFF;" d="M174.7,50.8h-6v-4.2h17.1v4.2h-6.1v18h-5V50.8z"/> <path style="fill:#FFFFFF;" d="M191.3,63.1l-1.6,5.7h-5.2l6.8-22.2h6.6l6.9,22.2h-5.4l-1.7-5.7H191.3z M196.9,59.3l-1.4-4.7
		c-0.4-1.3-0.8-3-1.1-4.3h-0.1c-0.3,1.3-0.7,3-1,4.3l-1.3,4.7H196.9z"/> <path style="fill:#FFFFFF;" d="M209.3,50.8h-6v-4.2h17.1v4.2h-6.1v18h-5V50.8z"/> <path style="fill:#FFFFFF;" d="M236.3,59.4h-8.2v5.3h9.1v4.1h-14.2V46.5h13.7v4.1h-8.7v4.6h8.2V59.4z"/> <path style="fill:#FFFFFF;" d="M250.4,50.8h-6v-4.2h17.1v4.2h-6.1v18h-5V50.8z"/> <path style="fill:#FFFFFF;" d="M267,63.1l-1.6,5.7h-5.2l6.8-22.2h6.6l6.9,22.2h-5.4l-1.7-5.7H267z M272.6,59.3l-1.4-4.7
		c-0.4-1.3-0.8-3-1.1-4.3h-0.1c-0.3,1.3-0.7,3-1,4.3l-1.3,4.7H272.6z"/> <path style="fill:#FFFFFF;" d="M294.4,68.8l-2-4c-0.8-1.6-1.4-2.7-2-4h-0.1c-0.5,1.3-1,2.4-1.7,4l-1.8,4H281l6.4-11.3l-6.2-11h5.8
		l1.9,4.1c0.7,1.4,1.2,2.4,1.7,3.7h0.1c0.5-1.4,1-2.4,1.5-3.7l1.9-4.1h5.7l-6.3,10.9l6.6,11.4H294.4z"/> <path style="fill:#FFFFFF;" d="M61.8,86.4c1.6-0.3,4-0.5,6.7-0.5c3.3,0,5.6,0.5,7.2,1.7c1.3,1.1,2,2.6,2,4.7c0,2.8-2,4.8-3.9,5.5
		V98c1.6,0.6,2.4,2.1,3,4.2c0.7,2.5,1.4,5.4,1.8,6.3h-5.1c-0.4-0.6-0.9-2.4-1.6-5.2c-0.6-2.8-1.6-3.5-3.6-3.6h-1.5v8.7h-5V86.4z
		 M66.8,96h2c2.5,0,4-1.3,4-3.2c0-2-1.4-3.1-3.7-3.1c-1.2,0-1.9,0.1-2.3,0.2V96z"/> <path style="fill:#FFFFFF;" d="M94.6,99h-8.2v5.3h9.1v4.1H81.4V86.1h13.7v4.1h-8.7v4.6h8.2V99z"/> <path style="fill:#FFFFFF;" d="M103.5,90.4h-6v-4.2h17.1v4.2h-6.1v18h-5V90.4z"/> <path style="fill:#FFFFFF;" d="M122.3,86.1v12.8c0,3.8,1.5,5.8,4,5.8c2.6,0,4.1-1.8,4.1-5.8V86.1h5v12.5c0,6.9-3.5,10.1-9.3,10.1
		c-5.6,0-8.9-3.1-8.9-10.2V86.1H122.3z"/> <path style="fill:#FFFFFF;" d="M139.8,86.4c1.6-0.3,4-0.5,6.7-0.5c3.3,0,5.6,0.5,7.2,1.7c1.3,1.1,2,2.6,2,4.7c0,2.8-2,4.8-3.9,5.5
		V98c1.6,0.6,2.4,2.1,3,4.2c0.7,2.5,1.4,5.4,1.8,6.3h-5.1c-0.4-0.6-0.9-2.4-1.6-5.2c-0.6-2.8-1.6-3.5-3.6-3.6h-1.5v8.7h-5V86.4z
		 M144.8,96h2c2.5,0,4-1.3,4-3.2c0-2-1.4-3.1-3.7-3.1c-1.2,0-1.9,0.1-2.3,0.2V96z"/> <path style="fill:#FFFFFF;" d="M159.4,108.4V86.1h5.9l4.6,8.2c1.3,2.3,2.6,5.1,3.6,7.6h0.1c-0.3-2.9-0.4-5.9-0.4-9.3v-6.5h4.6v22.2
		h-5.3l-4.8-8.6c-1.3-2.4-2.8-5.2-3.9-7.9l-0.1,0c0.1,2.9,0.2,6.1,0.2,9.7v6.7H159.4z"/> </g> </symbol><symbol viewBox="0 0 176 176.1" id="ua-flag"><title>ua-flag</title> <path style="fill:#1E88E5;" d="M176,88c-0.1-48.6-39.4-87.9-88-87.9C41.8,0.1,4,35.6,0.3,80.8V88H176z"/> <path style="fill:#FDD835;" d="M176,88.1H0.3v7.3C4,140.6,41.8,176.1,88,176.1C136.6,176.1,176,136.7,176,88.1z"/> </symbol><symbol viewBox="0 0 176 176" id="us-flag"><title>01_US flag_icon_192</title><circle cx="88" cy="88" r="88" fill="#FFF"/><path fill="#0D47A1" d="M88.3 0H88c-3.9 0-7.9.3-11.8.8v3.6h-7.9V2.2C56.6 4.9 45.6 9.9 35.9 17.1v3H32c-3.1 2.6-6 5.3-8.7 8.3h4.9v8h-7.9v-4.5C9.7 44.5 2.9 60 .8 76.5H4v7.7H.1C0 85.4 0 86.7 0 88v.3h88.3V0zM12 68.2H4.4v-7.7H12v7.7zm8 15.9h-7.5v-7.5H20v7.5zm0-32h-7.5v-7.5H20v7.5zm8.2 16.2h-7.9v-8h7.9v8zM35.9 84h-7.3v-7.3h7.3V84zm0-32h-7.3v-7.3h7.3V52zm8.3 16.3h-7.9v-8h7.9v8zm0-32h-7.9v-8h7.9v8zM52 84.1h-7.5v-7.5H52v7.5zm0-32h-7.5v-7.5H52v7.5zm0-31.9h-7.5v-7.5H52v7.5zm8.2 48.1h-7.9v-8h7.9v8zm0-32h-7.9v-8h7.9v8zM68 84.1h-7.4v-7.5H68v7.5zm0-32h-7.4v-7.5H68v7.5zm0-32h-7.4v-7.5H68v7.5zm8.2 48.2h-7.9v-8h7.9v8zm0-32h-7.9v-8h7.9v8zM84 84h-7.3v-7.3H84V84zm0-32h-7.3v-7.3H84V52zm0-31.9h-7.3v-7.4H84v7.4z"/><path fill="#C43030" d="M88 24.3h60.8c-6.9-6.6-14.7-12-23.3-16H88v16zM88 56.3h82.1c-2.2-5.6-4.9-11-8.1-16H88v16zM88 88.3h88V88c0-5.3-.5-10.5-1.4-15.7H88v16zM6.1 120.3h163.7c2-5.2 3.6-10.5 4.6-16H1.5c1 5.5 2.6 10.9 4.6 16zM28 152.3h120c5.1-4.8 9.7-10.2 13.5-16h-147c3.8 5.9 8.4 11.3 13.5 16zM88 176c12.4 0 24.7-2.6 36-7.7H52c11.3 5.1 23.6 7.7 36 7.7z"/></symbol><symbol viewBox="0 0 176 152" id="value"><title>12_blu_Value_icon_192</title>  <polygon style="fill:#1B2E5A;" points="136.8,0 117.7,0 58.3,0 39.2,0 0,76 39.2,152 58.3,152 117.7,152 136.8,152 176,76 "/> <path style="fill:#FFFFFF;" d="M100,32H76c0,8.8-7.2,16-16,16v68.9c0,0.8,0.3,1.6,0.8,2.2c0.5,0.6,1.3,0.9,2.1,0.9h50.2
	c0.8,0,1.5-0.3,2.1-0.9c0.6-0.6,0.9-1.4,0.8-2.2V48C107.2,48,100,40.8,100,32z M88,49.4c-1.9,0-3.4-1.5-3.5-3.3
	c0-1.9,1.5-3.4,3.3-3.5c1.9,0,3.4,1.5,3.5,3.3c0,0,0,0,0,0.1C91.4,47.9,89.9,49.4,88,49.4L88,49.4z"/> <circle style="fill:#EB1751;" cx="88" cy="80" r="20"/> <rect x="76" y="78.5" transform="matrix(-0.7071 0.7071 -0.7071 -0.7071 206.7978 74.3384)" style="fill:#FFFFFF;" width="24.1" height="3"/> <path style="fill:#FFFFFF;" d="M93.3,90c-2.6,0-4.7-2.1-4.7-4.7c0-2.6,2.1-4.7,4.7-4.7c2.6,0,4.7,2.1,4.7,4.7
	C98,87.9,95.9,90,93.3,90z M93.3,83.6c-1,0-1.7,0.8-1.7,1.7s0.8,1.7,1.7,1.7s1.7-0.8,1.7-1.7C95,84.4,94.3,83.6,93.3,83.6
	C93.3,83.6,93.3,83.6,93.3,83.6L93.3,83.6z"/> <path style="fill:#FFFFFF;" d="M82.7,79.4c-2.6,0-4.7-2.1-4.7-4.7c0-2.6,2.1-4.7,4.7-4.7c2.6,0,4.7,2.1,4.7,4.7
	C87.4,77.3,85.3,79.4,82.7,79.4z M82.7,73c-1,0-1.7,0.8-1.7,1.7s0.8,1.7,1.7,1.7s1.7-0.8,1.7-1.7C84.4,73.8,83.6,73,82.7,73L82.7,73
	z"/> <path style="fill:#CCCBCA;" d="M88,40c-3.3,0-6,2.7-6,6c0,3.3,2.7,6,6,6s6-2.7,6-6C94,42.7,91.3,40,88,40z M88,48c-1.1,0-2-0.9-2-2
	s0.9-2,2-2s2,0.9,2,2S89.1,48,88,48z"/> </symbol></svg>