<?xml version="1.0" encoding="utf-8"?>
<!-- Generator: Adobe Illustrator 17.1.0, SVG Export Plug-In . SVG Version: 6.00 Build 0)  -->
<!DOCTYPE svg PUBLIC "-//W3C//DTD SVG 1.1//EN" "http://www.w3.org/Graphics/SVG/1.1/DTD/svg11.dtd">
<svg version="1.1" id="Слой_1" xmlns="http://www.w3.org/2000/svg" xmlns:xlink="http://www.w3.org/1999/xlink" x="0px" y="0px"
	 width="176px" height="152px" viewBox="0 0 176 152" style="enable-background:new 0 0 176 152;" xml:space="preserve">
<title>12_blu_Accuracy_icon_192</title>
<polygon style="fill:#1B2E5A;" points="136.8,0 117.7,0 58.3,0 39.2,0 0,76 39.2,152 58.3,152 117.7,152 136.8,152 176,76 "/>
<path style="fill:#EB1751;" d="M88,120c-24.3,0-43.9-19.7-43.9-43.9S63.7,32.1,88,32.1s43.9,19.7,43.9,43.9v0
	C131.9,100.3,112.2,120,88,120z"/>
<path style="fill:#FFFFFF;" d="M88,112.3c-20,0-36.3-16.2-36.3-36.3S68,39.8,88,39.8s36.3,16.2,36.3,36.3v0
	C124.2,96.1,108,112.3,88,112.3z"/>
<path style="fill:#D9D8D7;" d="M88,100.3c-13.4,0-24.2-10.8-24.2-24.2S74.6,51.9,88,51.9s24.2,10.8,24.2,24.2c0,0,0,0,0,0
	C112.2,89.4,101.4,100.2,88,100.3z"/>
<path style="fill:#EB1751;" d="M88,88.1c-6.6,0-12-5.4-12-12s5.4-12,12-12s12,5.4,12,12S94.6,88.1,88,88.1z"/>
<path style="fill:#EB1751;" d="M130.1,34c-1.2-1.2-2.8-2-4.5-2.1c-1.6-0.1-3.1,0.4-4.2,1.5l-0.5,0.5c-1.9,1.9-3.5,4-4.8,6.3
	c-1.3,2.3-2.3,4.9-3,7.5L112,52l4.4-1.1c2.6-0.7,5.1-1.7,7.5-3c2.3-1.3,4.4-2.9,6.3-4.8l0.5-0.5c1.1-1.1,1.6-2.7,1.5-4.2
	C132,36.7,131.2,35.1,130.1,34L130.1,34L130.1,34z"/>
<path style="opacity:0.3;enable-background:new    ;" d="M123.2,49.8L89,75.6c-0.4,0.4-0.4,1.1,0,1.4c0.4,0.4,1.1,0.4,1.4,0l0,0
	l33.7-25.8L123.2,49.8z"/>
<path style="fill:#FFFFFF;" d="M130.5,32.1L87.8,74.8c-0.3,0.3-0.3,0.9,0.1,1.2c0,0,0.1,0.1,0.1,0.1c0.2,0.4,0.8,0.5,1.2,0.3
	c0,0,0,0,0.1,0l42.7-42.6L130.5,32.1z"/>
<polygon style="fill:#343B43;" points="89.9,77.9 96,76 88,68 86,74 "/>
</svg>
