<?xml version="1.0" encoding="utf-8"?>
<!-- Generator: Adobe Illustrator 17.1.0, SVG Export Plug-In . SVG Version: 6.00 Build 0)  -->
<!DOCTYPE svg PUBLIC "-//W3C//DTD SVG 1.1//EN" "http://www.w3.org/Graphics/SVG/1.1/DTD/svg11.dtd" [
	<!ENTITY ns_flows "http://ns.adobe.com/Flows/1.0/">
	<!ENTITY ns_extend "http://ns.adobe.com/Extensibility/1.0/">
	<!ENTITY ns_ai "http://ns.adobe.com/AdobeIllustrator/10.0/">
	<!ENTITY ns_graphs "http://ns.adobe.com/Graphs/1.0/">
]>
<svg version="1.1" id="Слой_14" xmlns:x="&ns_extend;" xmlns:i="&ns_ai;" xmlns:graph="&ns_graphs;"
	 xmlns="http://www.w3.org/2000/svg" xmlns:xlink="http://www.w3.org/1999/xlink" xmlns:a="http://ns.adobe.com/AdobeSVGViewerExtensions/3.0/"
	 x="0px" y="0px" width="192px" height="192px" viewBox="0 0 192 192" enable-background="new 0 0 192 192" xml:space="preserve">
<g>
	<circle fill="#3A6F80" cx="96" cy="96" r="88"/>
	<path fill="#EA1751" d="M96,8c48.6,0,88,39.4,88,88c0,24.3-9.8,46.3-25.8,62.2L96,95.9V8z"/>
	<path fill="#FFFFFF" d="M164.2,96c0,37.7-30.5,68.2-68.2,68.2c-37.7,0-68.2-30.5-68.2-68.2c0-37.7,30.5-68.2,68.2-68.2
		C133.7,27.8,164.2,58.3,164.2,96z"/>
	<g>
		<rect x="93.1" y="36.2" fill="#3A6F80" width="5.8" height="13.1"/>
		<rect x="93.1" y="142.5" fill="#3A6F80" width="5.8" height="13.1"/>
	</g>
	<g>
		<rect x="142.6" y="93" fill="#3A6F80" width="13.1" height="5.8"/>
		<rect x="36.3" y="93" fill="#3A6F80" width="13.1" height="5.8"/>
	</g>
	<g>
		
			<rect x="130.7" y="51.8" transform="matrix(0.7071 0.7071 -0.7071 0.7071 80.3635 -77.3487)" fill="#3A6F80" width="5.8" height="13.1"/>
		
			<rect x="55.6" y="126.9" transform="matrix(0.707 0.7072 -0.7072 0.707 111.515 -2.2291)" fill="#3A6F80" width="5.8" height="13.1"/>
	</g>
	<g>
		
			<rect x="55.6" y="51.8" transform="matrix(0.7074 -0.7069 0.7069 0.7074 -24.1397 58.385)" fill="#3A6F80" width="5.8" height="13.1"/>
		
			<rect x="130.7" y="126.9" transform="matrix(0.7071 -0.7071 0.7071 0.7071 -55.246 133.5235)" fill="#3A6F80" width="5.8" height="13.1"/>
	</g>
	<path fill="#2B2B2B" d="M124.8,122l-20.5-20.2c1.1-1.6,1.8-3.6,1.8-5.7c0-5-3.6-9.1-8.3-9.9V65h-3.5v21.1c-4.7,0.8-8.3,4.9-8.3,9.9
		c0,5.6,4.5,10.1,10.1,10.1c2.2,0,4.2-0.7,5.8-1.9l20.6,20.3L124.8,122z"/>
</g>
</svg>
