<?xml version="1.0" encoding="utf-8"?>
<!-- Generator: Adobe Illustrator 17.1.0, SVG Export Plug-In . SVG Version: 6.00 Build 0)  -->
<!DOCTYPE svg PUBLIC "-//W3C//DTD SVG 1.1//EN" "http://www.w3.org/Graphics/SVG/1.1/DTD/svg11.dtd">
<svg version="1.1" id="Слой_1" xmlns="http://www.w3.org/2000/svg" xmlns:xlink="http://www.w3.org/1999/xlink" x="0px" y="0px"
	 width="176px" height="152px" viewBox="0 0 176 152" style="enable-background:new 0 0 176 152;" xml:space="preserve">
<title>12_blu_Expertise _icon_192</title>
<polygon style="fill:#1B2E5A;" points="136.8,0 117.7,0 58.3,0 39.2,0 0,76 39.2,152 58.3,152 117.7,152 136.8,152 176,76 "/>
<rect x="57.5" y="111" transform="matrix(-0.7071 0.7071 -0.7071 -0.7071 185.8218 152.4925)" style="fill:#FFFFFF;" width="7.6" height="7.5"/>
<rect x="68.2" y="110.9" transform="matrix(-0.7071 0.7071 -0.7071 -0.7071 204.0344 144.8907)" style="fill:#FFFFFF;" width="7.6" height="7.5"/>
<rect x="78.9" y="110.9" transform="matrix(-0.7071 0.7071 -0.7071 -0.7071 222.2199 137.3059)" style="fill:#FFFFFF;" width="7.6" height="7.5"/>
<rect x="89.6" y="110.9" transform="matrix(-0.7071 0.7071 -0.7071 -0.7071 240.4225 129.7282)" style="fill:#FFFFFF;" width="7.6" height="7.5"/>
<rect x="100.2" y="110.9" transform="matrix(-0.7071 0.7071 -0.7071 -0.7071 258.6251 122.1505)" style="fill:#FFFFFF;" width="7.6" height="7.5"/>
<rect x="110.9" y="110.8" transform="matrix(-0.7071 0.7071 -0.7071 -0.7071 276.8106 114.5658)" style="fill:#FFFFFF;" width="7.6" height="7.5"/>
<path style="fill:#FFFFFF;" d="M117.5,105.6v-2.3h2.5V32H56v71.3h2.6v2.3H56v9h64v-9L117.5,105.6L117.5,105.6z M67.4,105.6h-4.6
	v-2.3h4.6V105.6z M76.5,105.6h-4.6v-2.3h4.6L76.5,105.6z M85.7,105.6h-4.6v-2.3h4.6V105.6z M94.9,105.6h-4.6v-2.3h4.6L94.9,105.6
	L94.9,105.6z M104.1,105.6h-4.6v-2.3h4.6V105.6z M113.3,105.6h-4.6v-2.3h4.6L113.3,105.6z"/>
<rect x="70.1" y="48" style="fill:#EB1751;" width="7.8" height="3.9"/>
<rect x="70.1" y="56" style="fill:#EB1751;" width="3.7" height="4"/>
<rect x="70" y="67.8" style="fill:#EB1751;" width="4" height="4.2"/>
<rect x="70" y="44" style="fill:#EB1751;" width="4" height="4"/>
<rect x="65.9" y="64" style="fill:#EB1751;" width="7.9" height="3.9"/>
<path style="fill:#EB1751;" d="M73.8,56v4c1.1-0.1,2.1,0.8,2.1,2c0,0,0,0,0,0c0,1.2-1,2.1-2.1,2.1l0,0V68c3.3,0,6-2.7,6-6
	S77.1,56,73.8,56z"/>
<path style="fill:#EB1751;" d="M70.2,60v-4c-1.1,0.1-2.1-0.8-2.2-1.9c0,0,0,0,0-0.1c0-1.2,1-2.1,2.1-2.1l0,0V48c-3.3,0-6,2.7-6,6
	C64.2,57.3,66.9,60,70.2,60z"/>
<rect x="88" y="44" style="fill:#EB1751;" width="16" height="4"/>
<rect x="72" y="84" style="fill:#343B43;" width="32" height="4"/>
<rect x="88" y="76" style="fill:#343B43;" width="24" height="4"/>
<rect x="88" y="68" style="fill:#343B43;" width="24" height="4"/>
<rect x="88" y="60" style="fill:#343B43;" width="24" height="4"/>
<rect x="88" y="52" style="fill:#343B43;" width="24" height="4"/>
<rect x="80" y="92" style="fill:#343B43;" width="16" height="3.9"/>
<rect x="64" y="76" style="fill:#343B43;" width="16" height="3.9"/>
</svg>
