<?xml version="1.0" encoding="utf-8"?>
<!-- Generator: Adobe Illustrator 17.1.0, SVG Export Plug-In . SVG Version: 6.00 Build 0)  -->
<!DOCTYPE svg PUBLIC "-//W3C//DTD SVG 1.1//EN" "http://www.w3.org/Graphics/SVG/1.1/DTD/svg11.dtd">
<svg version="1.1" id="Слой_1" xmlns="http://www.w3.org/2000/svg" xmlns:xlink="http://www.w3.org/1999/xlink" x="0px" y="0px"
	 width="176px" height="152px" viewBox="0 0 176 152" style="enable-background:new 0 0 176 152;" xml:space="preserve">
<title>08_of_Passport_icon_192</title>
<path style="fill:#EB1751;" d="M134.9,3l37.7,73L135,149H41L3.4,76L41,3H134.9 M136.8,0H39.2L0,76l39.2,76h97.6L176,76L136.8,0
	L136.8,0L136.8,0z"/>
<polygon style="fill:#EB1751;" points="39.6,16 34.1,16 16.9,16 11.4,16 0,38 11.4,60 16.9,60 34.1,60 39.6,60 51,38 "/>
<path style="fill:#FFFFFF;" d="M20.5,41.7c1.2,0.6,2.4,0.9,3.7,0.9c1.5,0,2.5-0.5,2.5-1.7c0-1.3-1.3-1.9-2.8-1.9h-1.6v-3.1h1.5
	c1.1,0,2.5-0.3,2.5-1.4c0-0.8-0.7-1.3-2.1-1.3c-1.2,0-2.3,0.3-3.3,0.9l-0.8-3.1c1.6-0.8,3.4-1.2,5.1-1.2c3.5,0,5.5,1.7,5.5,4
	c0,1.7-1.2,3.2-2.9,3.6l0,0c1.9,0.2,3.3,1.8,3.3,3.7c0,2.9-2.6,4.8-6.7,4.8c-1.7,0.1-3.4-0.3-4.9-1.1L20.5,41.7z"/>
<rect x="65.6" y="86.9" style="fill:#929299;" width="8.7" height="2"/>
<rect x="59.3" y="82.8" style="fill:#929299;" width="21.2" height="2"/>
<rect x="59.3" y="78.7" style="fill:#929299;" width="21.2" height="2.1"/>
<rect x="59.3" y="68.5" style="fill:#929299;" width="21.2" height="6.1"/>
<rect x="99.5" y="93" style="fill:#929299;" width="13.2" height="2"/>
<rect x="97.2" y="88.9" style="fill:#929299;" width="17.7" height="2.1"/>
<path style="fill:#929299;" d="M112.3,62.4H99.9c-2.4,0-4.4,2-4.4,4.4v12.4c0,2.4,2,4.4,4.4,4.4h0h12.4c2.4,0,4.4-2,4.4-4.4V66.8
	C116.7,64.3,114.7,62.4,112.3,62.4C112.3,62.4,112.3,62.4,112.3,62.4z M114.7,81v-1.8c0,1.3-1.1,2.4-2.4,2.4H99.9
	c-1.3,0-2.4-1.1-2.4-2.4V66.8c0-1.3,1.1-2.4,2.4-2.4h12.4c1.3,0,2.4,1.1,2.4,2.4L114.7,81L114.7,81z"/>
<path style="fill:#929299;" d="M106.2,76.3c-3.3,0-6,3-6,6.6h12C112.3,79.3,109.6,76.3,106.2,76.3z"/>
<path style="fill:#929299;" d="M109.8,71.6c0,2-1.6,3.6-3.6,3.6c-2,0-3.6-1.6-3.6-3.6c0-2,1.6-3.6,3.6-3.6
	C108.2,68,109.8,69.6,109.8,71.6C109.8,71.6,109.8,71.6,109.8,71.6z"/>
<path style="fill:#929299;" d="M83.7,50.7h-2.5c-0.4,0.4-0.8,0.8-1.2,1.2c0.5,0.4,1,0.8,1.4,1.3h2.3c1.7,0,3,1.3,3,3v45.1
	c0,1.7-1.3,3-3,3H56.2c-1.7,0-3-1.3-3-3V56.1c0-1.7,1.3-3,3-3h26.5c0.4-0.5,0.8-0.9,1.3-1.2c-0.5-0.3-0.9-0.8-1.3-1.2H56.2
	c-3,0-5.4,2.4-5.4,5.4l0,0v45.1c0,3,2.4,5.4,5.4,5.4l0,0h27.6c3,0,5.4-2.4,5.4-5.4v0V56.1C89.2,53.1,86.7,50.7,83.7,50.7z"/>
<path style="fill:#929299;" d="M119.8,50.7h-2.5c-0.4,0.4-0.8,0.8-1.2,1.2c0.5,0.4,1,0.8,1.4,1.3h2.3c1.7,0,3,1.3,3,3v45.1
	c0,1.7-1.3,3-3,3H92.3c-1.7,0-3-1.3-3-3V56.1c0-1.7,1.3-3,3-3h26.5c0.4-0.5,0.8-0.9,1.3-1.2c-0.5-0.3-0.9-0.8-1.3-1.2H92.3
	c-3,0-5.4,2.4-5.4,5.4v0v45.1c0,3,2.4,5.4,5.4,5.4h0h27.6c3,0,5.4-2.4,5.4-5.4V56.1C125.3,53.1,122.9,50.7,119.8,50.7z"/>
</svg>
