<?xml version="1.0" encoding="utf-8"?>
<!-- Generator: Adobe Illustrator 17.1.0, SVG Export Plug-In . SVG Version: 6.00 Build 0)  -->
<!DOCTYPE svg PUBLIC "-//W3C//DTD SVG 1.1//EN" "http://www.w3.org/Graphics/SVG/1.1/DTD/svg11.dtd">
<svg version="1.1" id="Слой_1" xmlns="http://www.w3.org/2000/svg" xmlns:xlink="http://www.w3.org/1999/xlink" x="0px" y="0px"
	 width="176px" height="152px" viewBox="0 0 176 152" style="enable-background:new 0 0 176 152;" xml:space="preserve">
<title>08_on_DS2019_icon_192</title>
<polygon style="fill:#EB1751;" points="136.8,0 117.7,0 58.3,0 39.2,0 0,76 39.2,152 58.3,152 117.7,152 136.8,152 176,76 "/>
<polygon style="fill:#FFFFFF;" points="12.3,58.5 1.7,38 12.3,17.5 38.7,17.5 49.3,38 38.7,58.5 "/>
<path style="fill:#EB1751;" d="M37.8,19l9.8,19l-9.8,19H13.2L3.4,38l9.8-19H37.8 M39.6,16H11.4L0,38l11.4,22h28.2L51,38L39.6,16
	L39.6,16z"/>
<path style="fill:#D9154B;" d="M30.5,33.6h-6.1l-0.2,1.7c0.3,0,0.6,0,0.9,0c1.6-0.1,3.1,0.4,4.4,1.3c1.2,0.9,1.9,2.4,1.8,3.9
	c0,2.9-2.5,5.5-7.1,5.5c-1.6,0-3.1-0.3-4.5-0.9l0.7-3.2c1.1,0.5,2.4,0.7,3.6,0.7c1.3,0,2.9-0.5,2.9-1.9s-1.3-2.2-4.3-2.2
	c-0.7,0-1.4,0-2.1,0.1l1-8.5h9.1L30.5,33.6L30.5,33.6z"/>
<path style="fill:#FFFFFF;" d="M85,66.9c-1.8-1.3-4.1-2-7.6-2c-1.9,0-3.8,0.1-5.7,0.4v18.2c1.6,0.2,3.2,0.3,4.8,0.3
	c3.6,0,6.6-0.8,8.6-2.4c2.1-1.9,3.3-4.7,3.1-7.5C88.1,70.6,86.9,68.3,85,66.9z M77.4,80.5c-0.5,0-1,0-1.5-0.1V68.3
	c0.6-0.1,1.3-0.2,1.9-0.2c3.6,0,5.9,2,5.8,5.9C83.7,78.4,81.2,80.5,77.4,80.5L77.4,80.5z"/>
<path style="fill:#FFFFFF;" d="M104.3,78.1c0-2.6-1.5-4.3-4.8-5.5c-2.4-0.9-3.4-1.4-3.4-2.6c0-1,0.9-1.8,2.7-1.8
	c1.3,0,2.7,0.3,3.9,0.9l0.9-3.4c-1.5-0.6-3.1-1-4.7-0.9c-4.4,0-7,2.4-7,5.6c0,2.7,2,4.4,5.1,5.5c2.2,0.8,3.1,1.5,3.1,2.6s-1,2-2.9,2
	c-1.6,0-3.2-0.4-4.7-1.2l-0.9,3.5c1.6,0.8,3.4,1.2,5.3,1.1C101.9,83.9,104.3,81.2,104.3,78.1z"/>
<path style="fill:#FFFFFF;" d="M74.7,93.3l0.8-0.7c1.3-1.2,2.4-2.4,2.4-3.9s-1.1-2.9-3.2-2.9c-1.1,0-2.1,0.3-3,0.9l0.6,1.5
	c0.6-0.5,1.3-0.7,2-0.8c0.7-0.1,1.4,0.4,1.5,1.1c0,0.1,0,0.2,0,0.3c0,1.1-1,2.1-3,3.9l-1.2,1.1v1.3h6.5v-1.8L74.7,93.3L74.7,93.3
	L74.7,93.3z"/>
<path style="fill:#FFFFFF;" d="M83.6,85.8c-2.4,0-3.5,2.1-3.5,4.7s1.1,4.7,3.4,4.7s3.5-1.9,3.5-4.8C87,88,86,85.8,83.6,85.8z
	 M83.6,93.7c-0.8,0-1.3-1-1.3-3.1s0.5-3.1,1.3-3.1s1.3,1.1,1.3,3.1S84.4,93.7,83.6,93.7L83.6,93.7z"/>
<polygon style="fill:#FFFFFF;" points="89.3,87.1 89.7,88.7 91.4,87.9 91.5,87.9 91.5,95.1 93.5,95.1 93.5,86 91.8,86 "/>
<path style="fill:#FFFFFF;" d="M100.5,85.8c-1.8-0.1-3.4,1.4-3.4,3.2c0,0,0,0.1,0,0.1c-0.1,1.5,1.1,2.8,2.6,2.9c0.1,0,0.2,0,0.3,0
	c0.7,0,1.3-0.2,1.8-0.7l0,0c-0.2,0.7-0.6,1.3-1.2,1.7c-0.5,0.3-1.2,0.5-1.8,0.6c-0.3,0-0.6,0-0.9,0v1.7c0.3,0,0.7,0,1,0
	c2.8,0.1,5.1-2.1,5.1-4.9c0-0.2,0-0.4,0-0.6C104,87.6,102.9,85.8,100.5,85.8z M101.7,89.8c-0.3,0.4-0.7,0.6-1.2,0.6
	c-0.7,0-1.3-0.6-1.3-1.3c0-0.1,0-0.1,0-0.2c-0.1-0.8,0.4-1.5,1.1-1.6c0,0,0.1,0,0.1,0c1,0,1.3,1,1.3,1.9
	C101.8,89.5,101.8,89.7,101.7,89.8L101.7,89.8z"/>
<path style="fill:#FFFFFF;" d="M110,41.4h-8.9c0.1,0.9,0,1.8-0.2,2.7h9.2c1.8,0,3.3,1.5,3.3,3.3l0,0V110c0,1.8-1.5,3.3-3.3,3.3H66
	c-1.8,0-3.3-1.5-3.3-3.3V47.4c0-1.8,1.5-3.3,3.3-3.3l0,0h9.1c-0.2-0.9-0.3-1.8-0.2-2.7H66c-3.3,0-6,2.7-6,6V110c0,3.3,2.7,6,6,6h44
	c3.3,0,6-2.7,6-6V47.4C116,44.1,113.3,41.4,110,41.4z"/>
<path style="fill:#FFFFFF;" d="M102.4,42.6V42c0-3.3-2.7-6-6-6H79.6c-3.3,0-6,2.7-6,6v1.9c0,3.3,2.7,6,6,6h16.8c3.3,0,6-2.7,6-6
	v-2.7c-0.5-0.4-0.9-0.8-1.3-1.3c-0.4,0.6-0.9,1.1-1.4,1.5v2.6c0,1.8-1.5,3.3-3.3,3.3H79.6c-1.8,0-3.3-1.5-3.3-3.3v0V42
	c0-1.8,1.5-3.3,3.3-3.3l0,0h16.8c1.8,0,3.3,1.5,3.3,3.3v0v0.7"/>
</svg>
