<?xml version="1.0" encoding="utf-8"?>
<!-- Generator: Adobe Illustrator 17.1.0, SVG Export Plug-In . SVG Version: 6.00 Build 0)  -->
<!DOCTYPE svg PUBLIC "-//W3C//DTD SVG 1.1//EN" "http://www.w3.org/Graphics/SVG/1.1/DTD/svg11.dtd">
<svg version="1.1" id="Слой_1" xmlns="http://www.w3.org/2000/svg" xmlns:xlink="http://www.w3.org/1999/xlink" x="0px" y="0px"
	 width="176px" height="152px" viewBox="0 0 176 152" style="enable-background:new 0 0 176 152;" xml:space="preserve">
<title>08_of_FormW2_icon_192</title>
<path style="fill:#EB1751;" d="M134.9,3l37.7,73L135,149H41L3.4,76L41,3H134.9 M136.8,0H39.2L0,76l39.2,76h97.6L176,76L136.8,0
	L136.8,0L136.8,0z"/>
<polygon style="fill:#EB1751;" points="39.6,16 34.1,16 16.9,16 11.4,16 0,38 11.4,60 16.9,60 34.1,60 39.6,60 51,38 "/>
<path style="fill:#929299;" d="M75,86l-3.3-14.6h4.2l0.8,5.4c0.3,1.7,0.5,3.6,0.7,5.1l0,0c0.2-1.6,0.5-3.4,0.9-5.2l0.9-5.3h4.2
	l1,5.6c0.3,1.7,0.4,3.2,0.7,4.8l0,0c0.2-1.6,0.5-3.3,0.7-5.1l0.9-5.3h4L87,86h-4.3l-1-5.7c-0.2-1.3-0.4-2.6-0.6-4.4l0,0
	c-0.2,1.7-0.4,3.1-0.7,4.4L79.3,86H75z"/>
<path style="fill:#929299;" d="M94,86v-2.4l1.9-1.7c2.8-2.5,4.3-3.9,4.3-5.4c0-1-0.7-1.8-2.1-1.8c-1.1,0.1-2.1,0.5-3,1.1l-1.1-2.8
	c1.4-1,3.1-1.5,4.8-1.5c3.3,0,5.2,1.8,5.2,4.5c0,2.3-1.6,4.1-3.3,5.4l-1.4,1.1l0,0h4.9V86H94z"/>
<path style="fill:#929299;" d="M110,41.4h-8.9c0.1,0.9,0,1.8-0.2,2.7h9.2c1.8,0,3.3,1.5,3.3,3.3l0,0V110c0,1.8-1.5,3.3-3.3,3.3H66
	c-1.8,0-3.3-1.5-3.3-3.3V47.4c0-1.8,1.5-3.3,3.3-3.3l0,0h9.1c-0.2-0.9-0.3-1.8-0.2-2.7H66c-3.3,0-6,2.7-6,6V110c0,3.3,2.7,6,6,6h44
	c3.3,0,6-2.7,6-6V47.4C116,44.1,113.3,41.4,110,41.4z"/>
<path style="fill:#929299;" d="M102.4,42.6V42c0-3.3-2.7-6-6-6H79.6c-3.3,0-6,2.7-6,6v1.9c0,3.3,2.7,6,6,6h16.8c3.3,0,6-2.7,6-6
	v-2.7c-0.5-0.4-0.9-0.8-1.3-1.3c-0.4,0.6-0.9,1.1-1.4,1.5v2.6c0,1.8-1.5,3.3-3.3,3.3H79.6c-1.8,0-3.3-1.5-3.3-3.3v0V42
	c0-1.8,1.5-3.3,3.3-3.3l0,0h16.8c1.8,0,3.3,1.5,3.3,3.3v0v0.7"/>
<path style="fill:#FFFFFF;" d="M23.3,33.2L23.3,33.2l-3.1,1.4l-0.7-3.2l4.5-2h3.5V45h-4.2V33.2z"/>
</svg>
