<?xml version="1.0" encoding="utf-8"?>
<!-- Generator: Adobe Illustrator 17.1.0, SVG Export Plug-In . SVG Version: 6.00 Build 0)  -->
<!DOCTYPE svg PUBLIC "-//W3C//DTD SVG 1.1//EN" "http://www.w3.org/Graphics/SVG/1.1/DTD/svg11.dtd">
<svg version="1.1" id="Слой_1" xmlns="http://www.w3.org/2000/svg" xmlns:xlink="http://www.w3.org/1999/xlink" x="0px" y="0px"
	 width="176px" height="152px" viewBox="0 0 176 152" style="enable-background:new 0 0 176 152;" xml:space="preserve">
<title>08_of_Visa_icon_192</title>
<path style="fill:#EB1751;" d="M134.9,3l37.7,73L135,149H41L3.4,76L41,3H134.9 M136.8,0H39.2L0,76l39.2,76h97.6L176,76L136.8,0
	L136.8,0L136.8,0z"/>
<polygon style="fill:#EB1751;" points="39.6,16 34.1,16 16.9,16 11.4,16 0,38 11.4,60 16.9,60 34.1,60 39.6,60 51,38 "/>
<path style="fill:#929299;" d="M72.1,82.8c-4,0-7.3,3.6-7.3,8.1h14.7C79.5,86.4,76.2,82.8,72.1,82.8z"/>
<path style="fill:#929299;" d="M76.5,77.1c0,2.4-2,4.4-4.4,4.4c-2.4,0-4.4-2-4.4-4.4c0-2.4,2-4.4,4.4-4.4
	C74.6,72.6,76.5,74.6,76.5,77.1C76.5,77,76.5,77.1,76.5,77.1z"/>
<path style="fill:#929299;" d="M79.5,65.8H64.4c-3,0-5.4,2.4-5.4,5.4v15.1c0,3,2.4,5.4,5.4,5.4h15.1c3,0,5.4-2.4,5.4-5.4V71.2
	C84.9,68.2,82.4,65.8,79.5,65.8z M82.4,88.5v-2.2c0,1.6-1.3,2.9-2.9,2.9H64.4c-1.6,0-2.9-1.3-2.9-2.9V71.2c0-1.6,1.3-2.9,2.9-2.9
	h15.1c1.6,0,2.9,1.3,2.9,2.9V88.5z"/>
<rect x="90.7" y="88.9" style="fill:#929299;" width="13.2" height="2"/>
<rect x="90.7" y="84.8" style="fill:#929299;" width="26.3" height="2"/>
<rect x="90.7" y="80.8" style="fill:#929299;" width="26.3" height="2"/>
<rect x="90.7" y="76.7" style="fill:#929299;" width="26.3" height="2"/>
<rect x="90.7" y="66.6" style="fill:#929299;" width="26.3" height="6.1"/>
<path style="fill:#929299;" d="M119.9,50.7h-39c-0.3,0.5-0.7,0.9-1.2,1.3c0.5,0.4,1,0.9,1.4,1.4h38.8c1.7,0.1,3,1.6,2.9,3.3v44
	c0.1,1.7-1.2,3.2-2.9,3.3H56.1c-1.7-0.1-3-1.6-3-3.3v-44c-0.1-1.7,1.2-3.2,3-3.3h26.2c0.4-0.5,0.8-1,1.3-1.4
	c-0.5-0.4-0.9-0.8-1.3-1.3H56.1c-3,0-5.4,2.7-5.4,6v44c0,3.3,2.4,6,5.4,6h63.8c3,0,5.4-2.7,5.4-6v-44
	C125.3,53.4,122.9,50.7,119.9,50.7z"/>
<path style="fill:#FFFFFF;" d="M26,45.8v-3.5h-6.8v-2.8l5.4-9.3H30v8.9h1.7v3.2H30v3.5H26z M26,39.1v-2.7c0-1,0.1-2,0.1-3.1H26
	c-0.5,1-0.9,2-1.5,3.1L23.1,39l0,0L26,39.1L26,39.1z"/>
</svg>
