<?xml version="1.0" encoding="utf-8"?>
<!-- Generator: Adobe Illustrator 17.1.0, SVG Export Plug-In . SVG Version: 6.00 Build 0)  -->
<!DOCTYPE svg PUBLIC "-//W3C//DTD SVG 1.1//EN" "http://www.w3.org/Graphics/SVG/1.1/DTD/svg11.dtd">
<svg version="1.1" id="Слой_1" xmlns="http://www.w3.org/2000/svg" xmlns:xlink="http://www.w3.org/1999/xlink" x="0px" y="0px"
	 width="176px" height="152px" viewBox="0 0 176 152" style="enable-background:new 0 0 176 152;" xml:space="preserve">
<title>08_of_SSCard_icon_192</title>
<path style="fill:#EB1751;" d="M134.9,3l37.7,73L135,149H41L3.4,76L41,3H134.9 M136.8,0H39.2L0,76l39.2,76h97.6L176,76L136.8,0
	L136.8,0L136.8,0z"/>
<polygon style="fill:#EB1751;" points="39.6,16 34.1,16 16.9,16 11.4,16 0,38 11.4,60 16.9,60 34.1,60 39.6,60 51,38 "/>
<path style="fill:#FFFFFF;" d="M19.7,45.9v-2.6l2.2-1.9c3.2-2.7,4.8-4.4,4.8-6c0-1.1-0.7-1.9-2.3-1.9c-1.2,0.1-2.4,0.5-3.3,1.3
	l-1.2-3.1c1.6-1.1,3.5-1.7,5.4-1.6c3.6,0,5.8,2,5.8,5c0,2.5-1.8,4.5-3.6,6l-1.5,1.2l0,0h5.4v3.5H19.7V45.9z"/>
<path style="fill:#929299;" d="M119.9,50.7h-39c-0.3,0.5-0.7,0.9-1.2,1.3c0.5,0.4,1,0.9,1.4,1.4h38.8c1.7,0.1,3,1.6,2.9,3.3v44
	c0.1,1.7-1.2,3.2-2.9,3.3H56.1c-1.7-0.1-3-1.6-3-3.3v-44c-0.1-1.7,1.2-3.2,3-3.3h26.2c0.4-0.5,0.8-1,1.3-1.4
	c-0.5-0.4-0.9-0.8-1.3-1.3H56.1c-3,0-5.4,2.7-5.4,6v44c0,3.3,2.4,6,5.4,6h63.8c3,0,5.4-2.7,5.4-6v-44
	C125.3,53.4,122.9,50.7,119.9,50.7z"/>
<rect x="79.6" y="89.1" style="fill:#929299;" width="16.7" height="2.3"/>
<rect x="67.7" y="84.6" style="fill:#929299;" width="40.5" height="2.3"/>
<rect x="67.7" y="80.1" style="fill:#929299;" width="40.5" height="2.3"/>
<rect x="67.7" y="68.8" style="fill:#929299;" width="40.5" height="6.8"/>
</svg>
