<?xml version="1.0" encoding="utf-8"?>
<!-- Generator: Adobe Illustrator 17.1.0, SVG Export Plug-In . SVG Version: 6.00 Build 0)  -->
<!DOCTYPE svg PUBLIC "-//W3C//DTD SVG 1.1//EN" "http://www.w3.org/Graphics/SVG/1.1/DTD/svg11.dtd">
<svg version="1.1" id="Слой_1" xmlns="http://www.w3.org/2000/svg" xmlns:xlink="http://www.w3.org/1999/xlink" x="0px" y="0px"
	 width="176px" height="152px" viewBox="0 0 176 152" style="enable-background:new 0 0 176 152;" xml:space="preserve">
<title>08_on_SSCard_icon_192</title>
<polygon style="fill:#EB1751;" points="136.8,0 117.7,0 58.3,0 39.2,0 0,76 39.2,152 58.3,152 117.7,152 136.8,152 176,76 "/>
<polygon style="fill:#FFFFFF;" points="12.3,58.5 1.7,38 12.3,17.5 38.7,17.5 49.3,38 38.7,58.5 "/>
<path style="fill:#EB1751;" d="M37.8,19l9.8,19l-9.8,19H13.2L3.4,38l9.8-19H37.8 M39.6,16H11.4L0,38l11.4,22h28.2L51,38L39.6,16
	L39.6,16z"/>
<path style="fill:#D9154B;" d="M19.7,45.9v-2.6l2.2-1.9c3.2-2.7,4.8-4.4,4.8-6c0-1.1-0.7-1.9-2.3-1.9c-1.2,0.1-2.4,0.5-3.3,1.3
	l-1.2-3.1c1.6-1.1,3.5-1.7,5.4-1.6c3.6,0,5.8,2,5.8,5c0,2.5-1.8,4.5-3.6,6l-1.5,1.2l0,0h5.4v3.5H19.7V45.9z"/>
<path style="fill:#FFFFFF;" d="M119.9,50.7h-39c-0.3,0.5-0.7,0.9-1.2,1.3c0.5,0.4,1,0.9,1.4,1.4h38.8c1.7,0.1,3,1.6,2.9,3.3v44
	c0.1,1.7-1.2,3.2-2.9,3.3H56.1c-1.7-0.1-3-1.6-3-3.3v-44c-0.1-1.7,1.2-3.2,3-3.3h26.2c0.4-0.5,0.8-1,1.3-1.4
	c-0.5-0.4-0.9-0.8-1.3-1.3H56.1c-3,0-5.4,2.7-5.4,6v44c0,3.3,2.4,6,5.4,6h63.8c3,0,5.4-2.7,5.4-6v-44
	C125.3,53.4,122.9,50.7,119.9,50.7z"/>
<rect x="79.6" y="89.1" style="fill:#FFFFFF;" width="16.7" height="2.3"/>
<rect x="67.7" y="84.6" style="fill:#FFFFFF;" width="40.5" height="2.3"/>
<rect x="67.7" y="80.1" style="fill:#FFFFFF;" width="40.5" height="2.3"/>
<rect x="67.7" y="68.8" style="fill:#FFFFFF;" width="40.5" height="6.8"/>
</svg>
