<?xml version="1.0" encoding="utf-8"?>
<!-- Generator: Adobe Illustrator 17.1.0, SVG Export Plug-In . SVG Version: 6.00 Build 0)  -->
<!DOCTYPE svg PUBLIC "-//W3C//DTD SVG 1.1//EN" "http://www.w3.org/Graphics/SVG/1.1/DTD/svg11.dtd">
<svg version="1.1" id="Слой_1" xmlns="http://www.w3.org/2000/svg" xmlns:xlink="http://www.w3.org/1999/xlink" x="0px" y="0px"
	 width="176px" height="152px" viewBox="0 0 176 152" style="enable-background:new 0 0 176 152;" xml:space="preserve">
<title>08_on_Dates_icon_192</title>
<polygon style="fill:#EB1751;" points="136.8,0 117.7,0 58.3,0 39.2,0 0,76 39.2,152 58.3,152 117.7,152 136.8,152 176,76 "/>
<polygon style="fill:#FFFFFF;" points="12.3,58.5 1.7,38 12.3,17.5 38.7,17.5 49.3,38 38.7,58.5 "/>
<path style="fill:#EB1751;" d="M37.8,19l9.8,19l-9.8,19H13.2L3.4,38l9.8-19H37.8 M39.6,16H11.4L0,38l11.4,22h28.2L51,38L39.6,16
	L39.6,16z"/>
<path style="fill:#D9154B;" d="M30,33.3c-0.5,0-0.9,0-1.4,0c-3.2,0.1-4.5,1.5-4.9,3h0.1c0.9-0.7,2-1.1,3.1-1c2.6-0.1,4.8,2,4.9,4.7
	c0,0.1,0,0.3,0,0.4c0,3.2-2.6,5.7-5.8,5.7c-0.1,0-0.2,0-0.2,0c-4.5,0-6.5-3.3-6.5-6.9c-0.1-2.6,0.9-5.1,2.8-6.9
	c1.8-1.5,4.1-2.3,6.5-2.3c0.5,0,1,0,1.5,0V33.3L30,33.3z M27.3,40.6c0.2-1.1-0.6-2.1-1.7-2.3c-0.1,0-0.2,0-0.2,0
	c-0.8,0-1.5,0.4-1.8,1.2c-0.1,0.3-0.1,0.6-0.1,0.9c0.1,1.3,0.7,2.6,2.2,2.6C26.7,42.9,27.3,41.9,27.3,40.6z"/>
<rect x="71.1" y="46.3" style="fill:#FFFFFF;" width="2.7" height="9.2"/>
<rect x="101.8" y="46.3" style="fill:#FFFFFF;" width="2.7" height="9.2"/>
<path style="fill:#FFFFFF;" d="M110,49.7H66c-3.3,0-6,2.7-6,6v44c0,3.3,2.7,6,6,6l0,0h44c3.3,0,6-2.7,6-6l0,0v-44
	C116,52.4,113.3,49.7,110,49.7z M113.3,75v24.7c0,1.8-1.5,3.3-3.3,3.3c0,0,0,0,0,0H66c-1.8,0-3.3-1.5-3.3-3.3l0,0v-44
	c0-1.8,1.5-3.3,3.3-3.3c0,0,0,0,0,0h44c1.8,0,3.3,1.5,3.3,3.3l0,0V75z"/>
<rect x="94.1" y="63.1" style="fill:#FFFFFF;" width="15.5" height="2.7"/>
<rect x="61.3" y="63.1" style="fill:#FFFFFF;" width="53.3" height="2.7"/>
<rect x="86.7" y="64.4" style="fill:#FFFFFF;" width="2.7" height="39.8"/>
<rect x="61.7" y="77.7" style="fill:#FFFFFF;" width="52.6" height="2.7"/>
<rect x="61.7" y="90.3" style="fill:#FFFFFF;" width="52.6" height="2.7"/>
<rect x="73.1" y="64.4" style="fill:#FFFFFF;" width="2.7" height="39.8"/>
<rect x="99.6" y="64.4" style="fill:#FFFFFF;" width="2.7" height="39.8"/>
</svg>
