<?xml version="1.0" encoding="utf-8"?>
<!-- Generator: Adobe Illustrator 17.1.0, SVG Export Plug-In . SVG Version: 6.00 Build 0)  -->
<!DOCTYPE svg PUBLIC "-//W3C//DTD SVG 1.1//EN" "http://www.w3.org/Graphics/SVG/1.1/DTD/svg11.dtd">
<svg version="1.1" id="Слой_1" xmlns="http://www.w3.org/2000/svg" xmlns:xlink="http://www.w3.org/1999/xlink" x="0px" y="0px"
	 width="175.7px" height="151.9px" viewBox="0 0 175.7 151.9" style="enable-background:new 0 0 175.7 151.9;" xml:space="preserve"
	>
<title>07_col_Return_icon_192</title>
<polygon style="fill:none;" points="172.2,81.7 172.2,81.7 175.5,76 131.6,0 175.5,76 "/>
<polygon style="fill:#EB1751;" points="47.6,114.8 72.9,74.9 74.5,80.6 129.9,39.3 172.2,81.7 175.5,76 131.6,0 43.9,0 0,76 
	43.9,152 84.8,152 "/>
<polygon style="opacity:0.1;enable-background:new    ;" points="131.6,152 172.2,81.7 172.2,81.7 "/>
<polygon style="fill:#EB1751;" points="129.9,39.3 74.5,80.6 72.9,74.9 47.6,114.8 84.8,152 131.6,152 172.2,81.7 "/>
<polygon style="opacity:0.1;enable-background:new    ;" points="129.9,39.3 74.5,80.6 72.9,74.9 47.6,114.8 84.8,152 131.6,152 
	172.2,81.7 "/>
<path style="fill:#B8123E;" d="M87.8,20.1h-0.1V76H31.9c0,30.9,25,55.9,55.9,55.9s55.9-25,55.9-55.9S118.6,20.1,87.8,20.1z"/>
<circle style="fill:#F4AB2D;" cx="87.8" cy="76" r="44.2"/>
<circle style="fill:#D7A041;" cx="87.8" cy="76" r="30.8"/>
<path style="fill:#D69320;" d="M66,97.8c12.1,11.9,31.7,11.7,43.6-0.4c11.8-12,11.8-31.2,0-43.2"/>
<path style="fill:#B06205;" d="M88.5,73c-1.3-0.5-2.6-1.2-3.8-2c-0.7-0.5-1-1.3-1-2.2c0-0.9,0.3-1.8,1-2.4c0.7-0.7,1.7-1,2.7-1
	c1.1-0.1,2.3,0.3,3.2,1c0.7,0.7,1.3,1.5,1.9,2.3l4.2-4.2c-0.4-0.8-1-1.5-1.7-2.1c-4.4-3.3-10.3-3.3-14.7-0.1
	c-1.9,1.5-2.9,3.9-2.8,6.3c-0.1,2.3,0.8,4.5,2.4,6.1c2.3,1.8,4.8,3.1,7.5,4c1.2,0.4,2.4,1.1,3.4,1.9c0.7,0.7,1,1.6,1,2.5
	c0,0.9-0.3,1.7-1,2.3c-0.8,0.7-1.9,1-2.9,0.9c-1.3,0.1-2.6-0.3-3.6-1.1c-0.8-0.8-2.3-2.8-2.3-2.8l-4.1,4.1c0.5,1.1,1.2,2.1,2.2,2.8
	c2.2,1.7,5,2.6,7.8,2.5c2.7,0.1,5.3-0.7,7.4-2.3c1.9-1.6,2.9-3.9,2.8-6.4c0.1-2.3-0.8-4.6-2.4-6.3C93.6,75.1,91.2,73.8,88.5,73z"/>
<rect x="84.5" y="56.1" style="fill:#B06205;" width="6" height="6"/>
<rect x="84.5" y="89.9" style="fill:#B06205;" width="6" height="6"/>
</svg>
