<?xml version="1.0" encoding="utf-8"?>
<!-- Generator: Adobe Illustrator 17.1.0, SVG Export Plug-In . SVG Version: 6.00 Build 0)  -->
<!DOCTYPE svg PUBLIC "-//W3C//DTD SVG 1.1//EN" "http://www.w3.org/Graphics/SVG/1.1/DTD/svg11.dtd">
<svg version="1.1" id="Слой_1" xmlns="http://www.w3.org/2000/svg" xmlns:xlink="http://www.w3.org/1999/xlink" x="0px" y="0px"
	 width="175.5px" height="152px" viewBox="0 0 175.5 152" style="enable-background:new 0 0 175.5 152;" xml:space="preserve">
<title>07_col_Calculation_icon_192</title>
<polygon style="fill:none;" points="172.6,81 172.6,81 175.5,76 131.6,0 175.5,76 "/>
<polygon style="fill:#EB1751;" points="52.3,121.1 52.7,85.5 52.7,35.6 123.4,31.2 172.6,81 175.5,76 131.6,0 43.9,0 0,76 43.9,152 
	83.2,152 "/>
<polygon style="opacity:0.1;enable-background:new    ;" points="131.6,152 172.6,81 172.6,81 "/>
<polygon style="fill:#EB1751;" points="123.4,31.2 52.7,35.6 52.7,85.5 52.3,121.1 83.2,152 131.6,152 172.6,81 "/>
<polygon style="opacity:0.1;enable-background:new    ;" points="123.4,31.2 52.7,35.6 52.7,85.5 52.3,121.1 83.2,152 131.6,152 
	172.6,81 "/>
<path style="fill:#FFFFFF;" d="M51,117.8c0,2.6,2.1,4.7,4.7,4.7h0h64.1c2.6,0,4.7-2.1,4.7-4.7v0V54.5H51V117.8L51,117.8z"/>
<path style="fill:#356272;" d="M124.6,54.5V34.2c0-2.6-2.1-4.7-4.7-4.7l0,0H55.7c-2.6,0-4.7,2.1-4.7,4.7v20.3H124.6L124.6,54.5z"/>
<rect x="57.3" y="35.4" style="fill:#BDC3C7;" width="60.6" height="13.5"/>
<rect x="57.3" y="59.5" style="fill:#356272;" width="11.7" height="11.7"/>
<rect x="73.7" y="59.5" style="fill:#356272;" width="11.7" height="11.7"/>
<rect x="90.1" y="59.5" style="fill:#356272;" width="11.7" height="11.7"/>
<rect x="106.4" y="59.5" style="fill:#1B2E5A;" width="11.7" height="11.7"/>
<rect x="57.3" y="74.9" style="fill:#356272;" width="11.7" height="11.7"/>
<rect x="73.7" y="74.9" style="fill:#356272;" width="11.7" height="11.7"/>
<rect x="90.1" y="74.9" style="fill:#356272;" width="11.7" height="11.7"/>
<rect x="106.4" y="74.9" style="fill:#1B2E5A;" width="11.7" height="11.7"/>
<rect x="57.3" y="90.3" style="fill:#356272;" width="11.7" height="11.7"/>
<rect x="73.7" y="90.3" style="fill:#356272;" width="11.7" height="11.7"/>
<rect x="90.1" y="90.3" style="fill:#356272;" width="11.7" height="11.7"/>
<rect x="57.3" y="105.7" style="fill:#356272;" width="11.7" height="11.7"/>
<rect x="73.7" y="105.7" style="fill:#356272;" width="11.7" height="11.7"/>
<rect x="90.1" y="105.7" style="fill:#356272;" width="11.7" height="11.7"/>
<rect x="106.4" y="90.3" style="fill:#EB1751;" width="11.7" height="27.1"/>
</svg>
