<?xml version="1.0" encoding="utf-8"?>
<!-- Generator: Adobe Illustrator 17.1.0, SVG Export Plug-In . SVG Version: 6.00 Build 0)  -->
<!DOCTYPE svg PUBLIC "-//W3C//DTD SVG 1.1//EN" "http://www.w3.org/Graphics/SVG/1.1/DTD/svg11.dtd">
<svg version="1.1" id="Слой_1" xmlns="http://www.w3.org/2000/svg" xmlns:xlink="http://www.w3.org/1999/xlink" x="0px" y="0px"
	 width="175.5px" height="152px" viewBox="0 0 175.5 152" style="enable-background:new 0 0 175.5 152;" xml:space="preserve">
<title>07_col_Verification_icon_192</title>
<polygon style="fill:#EB1751;" points="50.4,85.6 50.4,35.6 118.6,43 166.8,91.2 175.5,76 131.6,0 43.9,0 0,76 43.9,152 80.7,152 
	50,121.4 "/>
<polygon style="fill:#EB1751;" points="166.8,91.2 118.6,43 50.4,35.6 50.4,85.6 50,121.4 80.7,152 131.6,152 "/>
<polygon style="opacity:0.1;enable-background:new    ;" points="166.8,91.2 118.6,43 50.4,35.6 50.4,85.6 50,121.4 80.7,152 
	131.6,152 "/>
<polygon style="fill:none;" points="0,76 43.9,0 131.6,0 175.5,76 131.6,152 43.9,152 "/>
<path style="fill:#FFFFFF;" d="M106.6,29.5H53.4c-2.9,0-5.3,2.4-5.3,5.3l0,0v82.5c0,2.9,2.4,5.3,5.3,5.3h68.7c2.9,0,5.3-2.4,5.3-5.3
	v-65L106.6,29.5z"/>
<path style="fill:#E6E6E6;" d="M106.6,29.5v18.2c0,4.5,2.9,4.5,6.3,4.5h14.5L106.6,29.5z"/>
<rect x="61.2" y="70.1" style="fill:#2B2B2B;" width="53.2" height="6.3"/>
<rect x="61.2" y="85.2" style="fill:#2B2B2B;" width="53.2" height="6.3"/>
<rect x="61.2" y="100.4" style="fill:#2B2B2B;" width="53.2" height="6.3"/>
<rect x="61.2" y="54.9" style="fill:#2B2B2B;" width="36.5" height="6.3"/>
<rect x="61.2" y="70.1" style="fill:#2B2B2B;" width="36.5" height="6.3"/>
<rect x="61.2" y="85.2" style="fill:#2B2B2B;" width="36.5" height="6.3"/>
<path style="fill:#2B2B2B;" d="M127.5,94.4l13,22.2c1.1,1.9,0.5,4.3-1.4,5.4c-1.9,1.1-4.3,0.5-5.4-1.4l0,0l-13-22.2L127.5,94.4z"/>
<path style="fill:#BDC3C7;" d="M132.9,71.7c-5.6-9.5-17.8-12.7-27.4-7.1s-12.7,17.8-7.1,27.4s17.8,12.7,27.4,7.1c0,0,0,0,0,0
	C135.3,93.5,138.5,81.2,132.9,71.7z M122.9,94.3c-6.9,4-15.7,1.7-19.8-5.2s-1.7-15.7,5.2-19.8s15.7-1.7,19.8,5.2c0,0,0,0,0,0
	C132.1,81.4,129.8,90.2,122.9,94.3L122.9,94.3z"/>
<circle style="fill:#FFFFFF;" cx="115.6" cy="81.8" r="14.4"/>
<path style="fill:#2B2B2B;" d="M121.4,81.1h-20.2c-0.2,4.1,1.4,8.2,4.4,11.1h15.8V81.1z"/>
<path style="fill:#2B2B2B;" d="M121.4,68.6c-5.4-2.4-11.7-1.2-15.9,3h15.9V68.6z"/>
</svg>
