<?xml version="1.0" encoding="utf-8"?>
<!-- Generator: Adobe Illustrator 17.1.0, SVG Export Plug-In . SVG Version: 6.00 Build 0)  -->
<!DOCTYPE svg PUBLIC "-//W3C//DTD SVG 1.1//EN" "http://www.w3.org/Graphics/SVG/1.1/DTD/svg11.dtd">
<svg version="1.1" id="Слой_1" xmlns="http://www.w3.org/2000/svg" xmlns:xlink="http://www.w3.org/1999/xlink" x="0px" y="0px"
	 width="175.5px" height="152px" viewBox="0 0 175.5 152" style="enable-background:new 0 0 175.5 152;" xml:space="preserve">
<title>07_col_Create_icon_192</title>
<polygon style="fill:#EA1751;" points="0,76 43.9,0 131.6,0 175.5,76 131.6,152 43.9,152 "/>
<polygon style="opacity:0.1;enable-background:new    ;" points="77.2,152 131.6,152 164.7,94.7 105.6,35.6 72.6,95.2 73.8,96.4 
	43.5,118.2 "/>
<circle style="fill:#44B1B5;" cx="123.3" cy="111.2" r="11.4"/>
<circle style="fill:#44B1B5;" cx="52.4" cy="111.2" r="11.4"/>
<path style="fill:#44B1B5;" d="M134.8,110.3c0-20.2-16.3-36.5-36.5-36.5c-3.6,0-7.1,0.5-10.5,1.5c-19.3-5.8-39.7,5.2-45.5,24.5
	c-1,3.4-1.5,7-1.5,10.5"/>
<rect x="51.6" y="103.9" style="fill:#44B1B5;" width="71.7" height="18.7"/>
<polygon style="fill:#FFFFFF;" points="107.4,75 95.5,63.9 87.8,71.8 80,63.9 68.1,75 80,96.2 87.8,86.5 95.5,96.2 "/>
<circle style="fill:#F0CCAF;" cx="87.8" cy="60.1" r="24.5"/>
<path style="fill:none;" d="M109,59.5c-12.5,0-23.9-7.1-29.4-18.3c-4.1,7.7-11,13.4-19.3,16c-0.4,15.3,11.6,28.1,27,28.5
	c15.3,0.4,28.1-11.6,28.5-27l0,0C113.5,59.2,111.3,59.5,109,59.5z"/>
<path style="fill:#AA6125;" d="M109,59.5c2.3,0,4.5-0.2,6.8-0.7c0-0.5,0.1-1.1,0.1-1.6c0-15.3-12.4-27.7-27.7-27.8
	c-1.6,0-3.3,0.1-4.9,0.4c-0.5,4-1.7,7.9-3.6,11.4C85.1,52.4,96.5,59.5,109,59.5z"/>
<path style="fill:#AA6125;" d="M79.6,41.2c1.9-3.5,3.1-7.4,3.6-11.4c-13.2,2.4-22.9,13.9-22.9,27.3c0,0,0,0,0,0.1
	C68.6,54.6,75.5,48.9,79.6,41.2z"/>
</svg>
