737 bytes - 41.32% saving
<svg xmlns="http://www.w3.org/2000/svg" width="175.5" height="152" viewBox="0 0 175.5 152"><title>07_col_Answer_icon_192</title><path fill="#EA1751" d="M0 76L43.9 0h87.7l43.9 76-43.9 76H43.9"/><path opacity=".1" d="M173.7 79.1L126.6 32l-76.2 3.6v50l-.4 35.8L80.7 152h50.9"/><path d="M121.9 29.9H54.2c-3.4 0-6.2 2.8-6.2 6.2v80.6c0 3.4 2.7 6.2 6.2 6.3H122.1c3.4 0 6.2-2.8 6.2-6.2V36.1c-.2-3.4-2.9-6.2-6.4-6.2zm-63.6 85.9c-3.1 0-5.7-2.6-5.7-5.7s2.6-5.7 5.7-5.7 5.7 2.6 5.7 5.7c0 3.2-2.6 5.7-5.7 5.7zm0-16.6c-3.1 0-5.7-2.6-5.7-5.7s2.6-5.7 5.7-5.7 5.7 2.6 5.7 5.7c0 3.2-2.6 5.7-5.7 5.7zm0-16.6c-3.1 0-5.7-2.6-5.7-5.7s2.6-5.7 5.7-5.7 5.7 2.6 5.7 5.7c0 3.2-2.6 5.7-5.7 5.7zm0-16.5c-3.1 0-5.7-2.6-5.7-5.7s2.6-5.7 5.7-5.7 5.7 2.6 5.7 5.7-2.6 5.7-5.7 5.7zm0-16.6c-3.1 0-5.7-2.6-5.7-5.7s2.6-5.7 5.7-5.7 5.7 2.6 5.7 5.7-2.6 5.7-5.7 5.7z" fill="#FFF"/><g opacity=".5" fill="#BCC2C6"><path d="M69.2 41.2h52.2v1.5H69.2zM69.2 48.7h52.2v1.5H69.2zM69.2 56.2h52.2v1.5H69.2zM69.2 63.8h52.2v1.5H69.2zM69.2 71.3h52.2v1.5H69.2zM69.2 78.8h52.2v1.5H69.2zM69.2 86.4h52.2v1.5H69.2zM69.2 93.9h52.2v1.5H69.2zM69.2 101.4h52.2v1.5H69.2zM69.2 109h52.2v1.5H69.2z"/></g><path d="M139.2 59.5c-1.9-1-4.2-.3-5.3 1.6l-3.8 7 6.8 3.7 3.8-7c1.1-1.9.4-4.3-1.5-5.3z" fill="#FFCC02"/><path d="M99.9 132c1.1.6 2.5.2 3.1-.9l2.3-4.2-4.1-2.2-2.3 4.2c-.6 1.1-.2 2.5 1 3.1z" fill="#2B2B2B"/><circle cx="132.1" cy="72.6" r="8.3" fill="#356272"/><path d="M124.8 68.6l-25.6 47.3c-2.2 4-.7 9.1 3.3 11.3 4 2.2 9.1.7 11.3-3.4l25.6-47.3-14.6-7.9z" fill="#3A6F80"/><path fill="#356272" d="M137.904 79.31l-1.05 1.934-14.678-7.964 1.05-1.934zM135.912 82.937l-1.05 1.934-14.68-7.963 1.05-1.934z"/><path fill="#2B2B2B" d="M137.9 79.3l-1.5 2.7 1 .6-6.7 12.3 1.7 1 8.1-15.1"/><path d="M139.2 59.5c-1.9-1-4.2-.3-5.3 1.6l-1.8 3.2c-3.1 0-5.9 1.6-7.4 4.3l-25.6 47.3c-1.8 3.3-1.2 7.3 1.5 9.9l-1.6 3c-.6 1.1-.2 2.5.9 3.1l39.3-72.4z" opacity=".5" fill="#CBCBCB"/></svg>