<?xml version="1.0" encoding="utf-8"?>
<!-- Generator: Adobe Illustrator 17.1.0, SVG Export Plug-In . SVG Version: 6.00 Build 0)  -->
<!DOCTYPE svg PUBLIC "-//W3C//DTD SVG 1.1//EN" "http://www.w3.org/Graphics/SVG/1.1/DTD/svg11.dtd">
<svg version="1.1" id="Слой_1" xmlns="http://www.w3.org/2000/svg" xmlns:xlink="http://www.w3.org/1999/xlink" x="0px" y="0px"
	 width="176px" height="128px" viewBox="0 0 176 128" style="enable-background:new 0 0 176 128;" xml:space="preserve">
<title>15_col_Sagepay_icon_192</title>
<path style="fill:#0B8A6E;" d="M12,0h152c6.6,0,12,5.4,12,12v104c0,6.6-5.4,12-12,12H12c-6.6,0-12-5.4-12-12V12C0,5.4,5.4,0,12,0z"
	/>
<path style="fill:#FFFFFF;" d="M140,61c0-4.5-3.4-12.9-14.5-12.9c-3.7,0-7.3,1.3-10.1,3.6v-3.2h-7.4v3.2c-1.7-1.7-3.9-2.8-6.3-3.4
	c-2.6-0.4-5.2-0.2-7.7,0.6c-2.2,0.6-4.1,1.9-5.5,3.6c-3.1-3.5-8-4.2-11.9-4.4c-4.4-0.2-8.9,0.4-12.4,3c-3.8-2-8-3.1-12.3-3.1
	c-4.2,0-8.1,1-11,3.4c-0.9,0.8-1.6,1.7-2,2.9c-0.9,2.3-0.7,4.8,0.5,6.9c2.1,2.8,4.4,4,8.6,4.5c3.7,0.4,6.2,0.3,8.9,0.8
	c1.3,0.2,2.4,1.3,2.5,2.6c0,1.7-2.3,4.4-7.8,4c-4.6-0.3-6.3-1-10.7-3.8l-4.9,4c0,0,0.8,0.7,1.4,1.1s1.1,0.7,1.7,1l0,0
	c5.2,2.8,11.1,3.9,16.9,3c2.7-0.4,5.4-1.4,7.7-2.9c2.8,2.4,6.4,3.5,10.1,3.2c3.7-0.2,6.4,0,9-3v3H90v-3c0.6,0.5,1.3,1,1.9,1.4
	c4.6,2.8,11.8,1.7,16.1-1.6v3.9c-0.1,2.4-2.3,4-4.6,4.9c-3.9,1.6-7.5,0.2-10.7-2.1l-5.4,3.7c1.4,1.4,3.1,2.6,4.9,3.3
	c5.7,2.5,12.2,2.1,17.5-1.1c3.1-1.9,4.3-4.2,5.1-7.8c0.3-1.6,0.5-3.3,0.5-4.9l0,0c0,0,0-0.1,0-0.1l0.2,0.1c1.5,1.1,3.1,2,4.9,2.5
	c3.7,1.1,7.6,1.1,11.3,0c1.9-0.5,3.6-1.3,5.2-2.4l0,0c0.8-0.6,1.6-1.3,2.4-2l-4.7-3.5c-1.9,1.6-4.2,2.6-6.6,3
	c-3.1,0.4-6.6-0.2-8.6-2.3c-1-1.1-1.4-1.5-1.4-4.4H140V61z M93,63.1c0.1-1.7,0.2-3.4,0.4-5.2c0.1-0.8,1.1-1.9,2.5-2.7
	c2.4-1.4,5.4-1.6,8-0.6c1.9,0.7,3.4,2.1,3.5,3.8s0.3,3.1,0.4,4.5c0.1,1.7,0,3.5-0.3,5.2c-0.3,1.1-0.9,2.1-1.8,2.8
	c-1.5,1.2-3.4,1.8-5.3,1.7c-3.1-0.2-5.8-1.4-6.7-3.2C93.1,68.1,92.9,65.7,93,63.1z M79.9,72.7c-2.2,0.6-4.4,0.7-6.6,0.4
	c-2.2-0.3-4.3-0.4-5.1-2.4c-0.5-0.9-0.3-2,0.3-2.8c1.1-1.4,3.7-1.7,5.3-1.7h8.6C82.6,68.5,83.3,71.7,79.9,72.7L79.9,72.7z
	 M54.6,60.4c-3.4-0.2-6.6-0.3-8.3-1.6c-1-0.8-0.8-3.1,0.6-3.9c1.8-0.9,3.8-1.3,5.8-1.1c3.1,0.2,6,1.1,8.6,2.8l3-2.8
	c0,0,3.1,2.9,3.1,2.8c3.6-2.6,4.9-2.5,8.3-2.5c4.7,0,6,0.9,6.7,1.9c0.4,0.7,0,4.3,0,4.3s-4.1,0.1-7.1,0c-2-0.1-4.1,0-6.1,0.3
	c-1.9,0.3-3.6,1.1-5.1,2.4c-0.8-0.6-1.7-1.1-2.6-1.5C59,60.3,57.3,60.5,54.6,60.4z M118.1,60.2c-0.1-1.3,0.4-2.6,1.2-3.7
	c1.5-2.2,4.3-2.9,6.9-2.9s5.3,0.6,6.8,2.7c1,1,1.5,2.4,1.4,3.9L118.1,60.2z"/>
</svg>
