<?xml version="1.0" encoding="utf-8"?>
<!-- Generator: Adobe Illustrator 17.1.0, SVG Export Plug-In . SVG Version: 6.00 Build 0)  -->
<!DOCTYPE svg PUBLIC "-//W3C//DTD SVG 1.1//EN" "http://www.w3.org/Graphics/SVG/1.1/DTD/svg11.dtd">
<svg version="1.1" id="Слой_1" xmlns="http://www.w3.org/2000/svg" xmlns:xlink="http://www.w3.org/1999/xlink" x="0px" y="0px"
	 width="176px" height="128px" viewBox="0 0 176 128" style="enable-background:new 0 0 176 128;" xml:space="preserve">
<title>15_col_Mastercard_icon_192</title>
<path style="fill:#4361C2;" d="M12,0h152c6.6,0,12,5.4,12,12v104c0,6.6-5.4,12-12,12H12c-6.6,0-12-5.4-12-12V12C0,5.4,5.4,0,12,0z"
	/>
<path style="fill:#FFAE38;" d="M108,36c-15.5,0-28,12.5-28,28s12.5,28,28,28s28-12.5,28-28c0-15.4-12.4-28-27.8-28
	C108.1,36,108.1,36,108,36z"/>
<path style="fill:#EA3636;" d="M80,64c0-0.7,0-1.3,0.1-2h15.8c-0.1-1.3-0.3-2.7-0.6-4H80.7c0.3-1.4,0.7-2.7,1.2-4h12.3
	c-0.5-1.4-1.2-2.7-1.9-4h-8.5c0.8-1.4,1.8-2.8,2.8-4h2.9c-0.4-0.6-0.9-1.1-1.4-1.6c-10.8-11-28.5-11.2-39.6-0.4S37.2,72.5,48,83.6
	S76.5,94.8,87.6,84c0.1-0.1,0.3-0.3,0.4-0.4c0.5-0.5,1-1,1.4-1.6h-2.9c-1.1-1.2-2-2.6-2.8-4h8.5c0.7-1.3,1.4-2.6,1.9-4H81.8
	c-0.5-1.3-0.9-2.6-1.2-4h14.7c0.3-1.3,0.5-2.7,0.6-4H80.1C80,65.3,80,64.7,80,64z"/>
</svg>
