<?xml version="1.0" encoding="utf-8"?>
<!-- Generator: Adobe Illustrator 17.1.0, SVG Export Plug-In . SVG Version: 6.00 Build 0)  -->
<!DOCTYPE svg PUBLIC "-//W3C//DTD SVG 1.1//EN" "http://www.w3.org/Graphics/SVG/1.1/DTD/svg11.dtd">
<svg version="1.1" id="Слой_1" xmlns="http://www.w3.org/2000/svg" xmlns:xlink="http://www.w3.org/1999/xlink" x="0px" y="0px"
	 width="176px" height="128px" viewBox="0 0 176 128" style="enable-background:new 0 0 176 128;" xml:space="preserve">
<title>15_col_Discover_icon_192</title>
<path style="fill:#F6E7D6;" d="M164,0H12C5.4,0,0,5.4,0,12v104c0,6.6,5.4,12,12,12h29c99.3-16,135-48.7,135-48.7V12
	C176,5.4,170.6,0,164,0z"/>
<path style="fill:#F38121;" d="M164,128c6.6,0,12-5.4,12-12V79.3c0,0-35.8,32.7-135,48.7H164z"/>
<path style="fill:#F38121;" d="M91.7,53.4c-5.9-0.1-10.8,4.6-10.9,10.5c0,0,0,0,0,0c-0.2,6,4.5,11,10.5,11.3c6,0.2,11-4.5,11.3-10.5
	S98,53.6,92,53.4C91.9,53.4,91.8,53.4,91.7,53.4z"/>
<path style="fill:#000003;" d="M29.8,53.8H24v20.4h5.8c2.6,0.1,5.2-0.7,7.3-2.4c2.3-1.9,3.7-4.8,3.7-7.8
	C40.8,58,36.3,53.8,29.8,53.8z M34.5,69.1c-1.3,1.1-2.9,1.6-5.5,1.6h-1V57.2h1.1c2.6,0,4.1,0.5,5.5,1.7c1.4,1.3,2.2,3.2,2.2,5.1
	C36.7,65.9,35.9,67.8,34.5,69.1L34.5,69.1z"/>
<rect x="42.7" y="53.8" style="fill:#000003;" width="4" height="20.4"/>
<path style="fill:#000003;" d="M56.4,61.6c-2.4-0.9-3.1-1.5-3.1-2.6c0-1.3,1.3-2.3,3-2.3c1.3,0,2.5,0.6,3.2,1.7l2.1-2.7
	c-1.6-1.5-3.8-2.3-6-2.3c-3.6,0-6.4,2.5-6.4,5.8c0,2.8,1.3,4.3,5,5.6c0.9,0.3,1.9,0.7,2.7,1.2c0.7,0.4,1.2,1.2,1.2,2.1
	c0,1.6-1.3,2.9-2.9,2.9c-0.1,0-0.1,0-0.2,0c-1.9,0-3.6-1-4.3-2.7l-2.6,2.5c1.5,2.5,4.2,4,7.1,3.9c4.1,0,7-2.8,7-6.7
	C62.2,64.7,60.9,63.2,56.4,61.6z"/>
<path style="fill:#000003;" d="M63.5,64c-0.1,5.8,4.6,10.6,10.5,10.7c0.1,0,0.2,0,0.3,0c1.7,0,3.5-0.4,5-1.2v-4.7
	c-1.2,1.4-3,2.2-4.8,2.2c-3.7,0.1-6.8-2.8-6.9-6.5c0-0.2,0-0.4,0-0.5c-0.1-3.7,2.8-6.9,6.6-7c0,0,0.1,0,0.1,0c1.9,0,3.7,0.8,5,2.3
	v-4.8c-1.5-0.8-3.2-1.3-4.9-1.3c-5.9-0.1-10.8,4.7-10.9,10.6C63.5,63.9,63.5,64,63.5,64z"/>
<polygon style="fill:#000003;" points="111.5,67.5 106.1,53.8 101.7,53.8 110.4,74.7 112.5,74.7 121.4,53.8 117,53.8 "/>
<polygon style="fill:#000003;" points="123.2,74.2 134.5,74.2 134.5,70.7 127.1,70.7 127.1,65.2 134.2,65.2 134.2,61.7 127.1,61.7 
	127.1,57.2 134.5,57.2 134.5,53.8 123.2,53.8 "/>
<path style="fill:#000003;" d="M150.2,59.8c0-3.8-2.6-6-7.2-6h-5.9v20.4h4V66h0.5l5.5,8.2h4.9l-6.4-8.6
	C148.4,65.2,150.4,62.7,150.2,59.8z M142.2,63.2h-1.2V57h1.2c2.5,0,3.8,1,3.8,3S144.8,63.2,142.2,63.2L142.2,63.2z"/>
</svg>
