<?xml version="1.0" encoding="utf-8"?>
<!-- Generator: Adobe Illustrator 17.1.0, SVG Export Plug-In . SVG Version: 6.00 Build 0)  -->
<!DOCTYPE svg PUBLIC "-//W3C//DTD SVG 1.1//EN" "http://www.w3.org/Graphics/SVG/1.1/DTD/svg11.dtd">
<svg version="1.1" id="Слой_1" xmlns="http://www.w3.org/2000/svg" xmlns:xlink="http://www.w3.org/1999/xlink" x="0px" y="0px"
	 width="176px" height="128px" viewBox="0 0 176 128" style="enable-background:new 0 0 176 128;" xml:space="preserve">
<title>15_col_Amex_icon_192</title>
<path style="fill:#2A9FCF;" d="M12,0h152c6.6,0,12,5.4,12,12v104c0,6.6-5.4,12-12,12H12c-6.6,0-12-5.4-12-12V12C0,5.4,5.4,0,12,0z"
	/>
<path style="fill:#FFFFFF;" d="M90.4,44.3c0.7-0.4,1.1-1.2,1-2c0.1-0.8-0.3-1.5-1-1.8c-0.7-0.3-1.6-0.4-2.3-0.3H82v4.6h6
	C88.8,44.8,89.7,44.7,90.4,44.3z"/>
<polygon style="fill:#FFFFFF;" points="9.1,47.6 15.9,47.6 12.5,39.4 "/>
<path style="fill:#FFFFFF;" d="M44.8,57v3.6h41.3v-7.5h0.8c0.6,0,0.7,0.1,0.7,1v6.6H109v-1.8c2.5,1.2,5.2,1.8,7.9,1.8h9l1.9-4.6h4.3
	l1.9,4.6h17.3v-4.4l2.6,4.4h13.9V31.7h-13.7v3.4l-1.9-3.4H138v3.4l-1.8-3.4h-19c-2.9-0.1-5.7,0.4-8.3,1.7v-1.7H95.8v1.7
	c-1.6-1.2-3.6-1.8-5.6-1.7h-48L39,39.2l-3.3-7.5H20.5v3.4l-1.7-3.4H6L0,45.4v15.2h8.5l1.9-4.6h4.3l1.9,4.6h16.6v-3.5l1.5,3.5h8.6
	L44.8,57z M109.9,38.2c1.6-1.7,4.1-2.4,7.5-2.4h4.8v4.4h-4.7c-1.8,0-2.8,0.3-3.8,1.2c-1,1.3-1.5,3-1.4,4.7c0,2.2,0.4,3.8,1.4,4.8
	c1,0.8,2.2,1.2,3.4,1.1h2.2l7-16.3h7.4l8.4,19.6V35.8h7.6l8.7,14.4V35.8h5.1v20.7h-7L147,41v15.5h-10.1l-1.9-4.6h-10.3l-1.9,4.6
	h-5.8c-2.4,0-5.5-0.5-7.2-2.3s-2.6-4.1-2.6-7.9C107.3,43.3,107.8,40.5,109.9,38.2L109.9,38.2z M99.8,35.8h5.1v20.7h-5.1V35.8
	L99.8,35.8z M77.1,35.8h11.4c2.5,0,4.4,0.1,6,1c1.7,0.9,2.6,2.7,2.5,4.6c0.1,2.4-1.3,4.5-3.5,5.5c1,0.4,1.8,1,2.4,1.8
	c0.7,1,0.8,1.9,0.8,3.8v4.1h-5v-2.5c0-1.2,0.1-3-0.8-4c-0.8-0.7-1.8-0.9-3.6-0.9H82v7.5h-4.9V35.8L77.1,35.8z M57.1,35.8h16.6v4.3
	H62v3.7h11.3v4.3H62v4.1h11.6v4.3H57.1L57.1,35.8L57.1,35.8z M36.8,56.5l-7.2-16.2v16.2H19.5l-1.9-4.6H7.3l-1.9,4.6H0l8.9-20.7h7.4
	l8.4,19.6V35.8h8.1l6.5,14.1l5.9-14.1h8.3v20.7h-5.1V40.3l-7.2,16.2H36.8z"/>
<polygon style="fill:#FFFFFF;" points="129.9,39.4 126.5,47.6 133.3,47.6 "/>
<path style="fill:#FFFFFF;" d="M166.8,67.3c-2.2-0.1-4.4,0.5-6.2,1.7v-1.7h-13.6c-2.1,0-4.7,0.6-5.9,1.7v-1.7H117V69
	c-1.9-1.4-5.2-1.7-6.7-1.7H94.4V69c-1.5-1.5-4.9-1.7-7-1.7H69.6l-4.1,4.4l-3.8-4.4H35v28.9h26.2l4.2-4.5l4,4.5h16.1v-6.8H87
	c2.3,0.1,4.7-0.2,6.9-1v7.8h13.3v-7.5h0.6c0.8,0,0.9,0.1,0.9,0.9v6.7h40.4c2.6,0,5.2-0.7,6.7-1.8v1.8h12.8c2.5,0.1,5-0.4,7.3-1.3
	v-5.4c-1.2,1.8-3.6,2.7-6.7,2.7h-9.6v-4.4h9.5c0.7,0.1,1.4-0.1,2-0.5c0.4-0.3,0.6-0.8,0.6-1.3c0-0.5-0.2-1-0.6-1.4
	c-0.5-0.4-1.1-0.5-1.7-0.5c-4.6-0.2-10.4,0.1-10.4-6.4c0-3,1.9-6.2,7.1-6.2h9.9v-4.1H166.8z M87.2,85.2h-6.2v7h-9.6l-6.1-6.8
	l-6.3,6.8H39.5V71.5h19.9l6.1,6.8l6.3-6.8h15.8c3.9,0,8.3,1.1,8.3,6.8S91.6,85.2,87.2,85.2L87.2,85.2z M117,84.3
	c0.7,1,0.8,2,0.8,3.8v4.1h-5v-2.6c0-1.2,0.1-3.1-0.8-4c-0.7-0.8-1.8-0.9-3.6-0.9h-5.3v7.6h-5V71.5h11.4c2.5,0,4.3,0.1,6,1
	c1.7,0.9,2.7,2.7,2.5,4.6c0.1,2.4-1.3,4.6-3.5,5.5C115.5,82.9,116.4,83.5,117,84.3L117,84.3z M137.4,75.7h-11.6v3.8h11.3v4.2h-11.3
	v4.1h11.6v4.3h-16.5V71.5h16.5L137.4,75.7L137.4,75.7z M150,92.2h-9.6v-4.4h9.6c0.7,0.1,1.4-0.1,2-0.5c0.4-0.3,0.6-0.8,0.6-1.3
	c0-0.5-0.2-1-0.6-1.4c-0.5-0.4-1.1-0.5-1.8-0.5c-4.6-0.2-10.4,0.1-10.4-6.4c0-3,1.9-6.2,7.1-6.2h9.9v4.4h-9.1c-0.7-0.1-1.4,0-2,0.4
	c-0.8,0.6-1,1.6-0.4,2.4c0.2,0.3,0.4,0.5,0.7,0.6c0.6,0.2,1.3,0.3,1.9,0.3l2.7,0.1c2.7,0.1,4.5,0.5,5.7,1.7c1.1,1.2,1.6,2.8,1.5,4.4
	C157.7,90.1,155,92.2,150,92.2z"/>
<polygon style="fill:#FFFFFF;" points="76.2,90.3 76.2,73.7 68.6,81.8 "/>
<polygon style="fill:#FFFFFF;" points="44.4,75.7 44.4,79.5 55.2,79.5 55.2,83.7 44.4,83.7 44.4,87.9 56.5,87.9 62.2,81.8 
	56.8,75.7 "/>
<path style="fill:#FFFFFF;" d="M111.6,76.1c-0.7-0.3-1.5-0.4-2.3-0.4h-6.1v4.6h6c0.8,0.1,1.7-0.1,2.4-0.4c0.7-0.4,1-1.2,1-2
	C112.6,77.2,112.3,76.5,111.6,76.1z"/>
<path style="fill:#FFFFFF;" d="M87.5,75.7h-6.4V81h6.4c1.9,0,3.1-0.9,3.1-2.7S89.3,75.7,87.5,75.7z"/>
<path style="fill:#FFFFFF;" d="M165,76.2c-0.5,0.3-0.8,0.9-0.7,1.5c0,0.7,0.4,1.3,1.1,1.5c0.6,0.2,1.3,0.3,1.9,0.3l2.7,0.1
	c2.7,0.1,4.5,0.5,5.6,1.7c0.2,0.2,0.3,0.3,0.5,0.5v-5.9h-9C166.3,75.8,165.6,75.9,165,76.2z"/>
</svg>
