<?xml version="1.0" encoding="utf-8"?>
<!-- Generator: Adobe Illustrator 17.1.0, SVG Export Plug-In . SVG Version: 6.00 Build 0)  -->
<!DOCTYPE svg PUBLIC "-//W3C//DTD SVG 1.1//EN" "http://www.w3.org/Graphics/SVG/1.1/DTD/svg11.dtd">
<svg version="1.1" id="Слой_1" xmlns="http://www.w3.org/2000/svg" xmlns:xlink="http://www.w3.org/1999/xlink" x="0px" y="0px"
	 width="176px" height="128px" viewBox="0 0 176 128" style="enable-background:new 0 0 176 128;" xml:space="preserve">
<title>15_col_PayPal_icon_192</title>
<path style="fill:#F6F5F3;" d="M12,0h152c6.6,0,12,5.4,12,12v104c0,6.6-5.4,12-12,12H12c-6.6,0-12-5.4-12-12V12C0,5.4,5.4,0,12,0z"
	/>
<path style="fill:#243B81;" d="M39.4,46.7h-10c-0.7,0-1.3,0.5-1.4,1.2l-4,25.6c-0.1,0.5,0.2,0.9,0.7,1c0.1,0,0.1,0,0.2,0h4.8
	c0.7,0,1.3-0.5,1.4-1.2l1-6.7c0.1-0.7,0.7-1.2,1.4-1.2h3.2c6.6,0,10.3-3.2,11.3-9.6c0.5-2.8,0-5-1.3-6.5
	C45.2,47.6,42.7,46.7,39.4,46.7 M40.5,56.2c-0.5,3.6-3.3,3.6-5.9,3.6h-1.5l1.1-6.8c0.1-0.4,0.4-0.7,0.8-0.7h0.7c1.8,0,3.5,0,4.4,1
	C40.6,54.1,40.8,55.2,40.5,56.2"/>
<path style="fill:#243B81;" d="M69.1,55.4h-4.8c-0.4,0-0.8,0.3-0.8,0.7l-0.2,1.5L63,57.1c-1-1.5-3.3-1.9-5.6-1.9
	c-5.5,0.1-10,4.2-10.6,9.6c-0.5,2.6,0.1,5.3,1.8,7.4c1.5,1.7,3.7,2.6,6,2.5c2.5,0,4.9-1,6.6-2.7l-0.2,1.3c-0.1,0.5,0.2,0.9,0.7,1
	c0.1,0,0.1,0,0.2,0H66c0.7,0,1.3-0.5,1.4-1.2L70,56.5c0.1-0.5-0.2-0.9-0.7-1C69.2,55.5,69.2,55.5,69.1,55.4 M62.5,65
	c-0.4,2.7-2.7,4.7-5.4,4.6c-1.2,0.1-2.4-0.4-3.2-1.3c-0.7-1-1-2.2-0.8-3.4c0.4-2.7,2.7-4.6,5.3-4.5c1.2-0.1,2.4,0.3,3.2,1.2
	C62.4,62.5,62.7,63.8,62.5,65"/>
<path style="fill:#243B81;" d="M94.5,55.5h-4.8c-0.5,0-0.9,0.2-1.1,0.6L82,66.5l-2.8-10c-0.2-0.6-0.7-1-1.3-1h-4.7
	c-0.5,0-0.8,0.4-0.8,0.8c0,0.1,0,0.2,0,0.3l5.3,16.3l-5,7.1c-0.3,0.4-0.2,0.9,0.2,1.2c0.1,0.1,0.3,0.2,0.5,0.2h4.8
	c0.5,0,0.9-0.2,1.1-0.6l15.9-23.9c0.3-0.4,0.2-0.9-0.2-1.2C94.8,55.6,94.7,55.5,94.5,55.5"/>
<path style="fill:#199BD7;" d="M110.4,46.7h-10c-0.7,0-1.3,0.5-1.4,1.2l-4,25.5c-0.1,0.5,0.2,0.9,0.7,1c0.1,0,0.1,0,0.2,0h5.2
	c0.5,0,0.9-0.3,1-0.8l1.1-7c0.1-0.7,0.7-1.2,1.4-1.2h3.2c6.6,0,10.3-3.2,11.3-9.6c0.4-2.8,0-5-1.3-6.5
	C116.3,47.6,113.8,46.7,110.4,46.7 M111.6,56.1c-0.5,3.6-3.3,3.6-5.9,3.6h-1.5l1-6.8c0.1-0.4,0.4-0.7,0.8-0.7h0.7c1.8,0,3.5,0,4.4,1
	C111.6,54.1,111.8,55.1,111.6,56.1"/>
<path style="fill:#199BD7;" d="M140.1,55.4h-4.8c-0.4,0-0.8,0.3-0.8,0.7l-0.2,1.5l-0.3-0.5c-1-1.5-3.3-1.9-5.6-1.9
	c-5.4,0.1-10,4.2-10.6,9.6c-0.5,2.6,0.1,5.3,1.8,7.4c1.5,1.7,3.7,2.6,6,2.5c2.5,0,4.9-1,6.6-2.7l-0.2,1.3c-0.1,0.5,0.2,0.9,0.7,1
	c0.1,0,0.1,0,0.2,0h4.3c0.7,0,1.3-0.5,1.4-1.2l2.6-16.7c0.1-0.5-0.2-0.9-0.7-1C140.3,55.4,140.2,55.4,140.1,55.4 M133.5,65
	c-0.4,2.7-2.7,4.7-5.4,4.6c-1.2,0.1-2.4-0.4-3.2-1.3c-0.7-1-1-2.2-0.8-3.4c0.4-2.7,2.6-4.7,5.3-4.7c1.2-0.1,2.4,0.4,3.2,1.3
	C133.4,62.5,133.7,63.8,133.5,65"/>
<path style="fill:#199BD7;" d="M145.8,47.4l-4.1,26c-0.1,0.5,0.2,0.9,0.7,1c0.1,0,0.1,0,0.2,0h4.1c0.7,0,1.3-0.5,1.4-1.2l4-25.5
	c0.1-0.5-0.2-0.9-0.7-1c-0.1,0-0.1,0-0.2,0h-4.6C146.1,46.7,145.8,47,145.8,47.4"/>
</svg>
