<?xml version="1.0" encoding="utf-8"?>
<!-- Generator: Adobe Illustrator 17.1.0, SVG Export Plug-In . SVG Version: 6.00 Build 0)  -->
<!DOCTYPE svg PUBLIC "-//W3C//DTD SVG 1.1//EN" "http://www.w3.org/Graphics/SVG/1.1/DTD/svg11.dtd">
<svg version="1.1" id="Слой_1" xmlns="http://www.w3.org/2000/svg" xmlns:xlink="http://www.w3.org/1999/xlink" x="0px" y="0px"
	 width="176px" height="128px" viewBox="0 0 176 128" style="enable-background:new 0 0 176 128;" xml:space="preserve">
<title>15_col_JCB_icon_192</title>
<path style="fill:#F1F1F1;" d="M12,0h152c6.6,0,12,5.4,12,12v104c0,6.6-5.4,12-12,12H12c-6.6,0-12-5.4-12-12V12C0,5.4,5.4,0,12,0z"
	/>
<path style="fill:#E3002E;" d="M72,100h18.2c6.4,0,13.8-5.6,13.8-12.9V28H86.4C78.2,28,72,32.9,72,41.3V100L72,100z"/>
<path style="fill:#0066BC;" d="M36,100h18.2c6.4,0,13.8-5.6,13.8-12.9V28H50.4C42.2,28,36,32.9,36,41.3V100L36,100z"/>
<path style="fill:#4DB123;" d="M108,100h18.2c6.4,0,13.8-5.6,13.8-12.9V28h-17.6c-8.2,0-14.4,4.9-14.4,13.3L108,100L108,100z"/>
<path style="fill:#F1F1F1;" d="M52.1,65c0.2,3.6-2.6,6.6-6.2,6.8c-0.1,0-0.2,0-0.3,0c-3.5,0.1-6.4-2.4-7.1-5.8H34
	c1.3,5.6,7.2,10,13.9,10c6.2,0,14.5-3.8,14.5-11V52H52.1V65z"/>
<path style="fill:#F1F1F1;" d="M128.8,64.2c2.7,0,5.1-2.6,5.1-5.6s-2.4-5.6-5.1-5.6H106v22h22.8c3,0,5.4-2.4,5.4-5.4
	S131.8,64.2,128.8,64.2z M114.7,55.4h7.1c2.1,0.2,3.6,2.1,3.4,4.2c-0.2,1.8-1.6,3.2-3.4,3.4h-7.1V55.4z M121.9,72.6h-7.2V65h7.2
	c2.1,0.2,3.6,2.1,3.4,4.2C125.1,71,123.7,72.4,121.9,72.6L121.9,72.6z"/>
<path style="fill:#F1F1F1;" d="M70,64c0,6,4.5,11,10,11h17.4v-3.8c-3.3,0.8-6.7,1.3-10.1,1.4c-4.3,0-7.8-3.8-7.8-8.6
	s3.4-8.6,7.8-8.6c3.4,0.2,6.8,0.7,10.1,1.6v-4H80C74.5,53,70,58,70,64z"/>
</svg>
