<?xml version="1.0" encoding="utf-8"?>
<!-- Generator: Adobe Illustrator 17.1.0, SVG Export Plug-In . SVG Version: 6.00 Build 0)  -->
<!DOCTYPE svg PUBLIC "-//W3C//DTD SVG 1.1//EN" "http://www.w3.org/Graphics/SVG/1.1/DTD/svg11.dtd">
<svg version="1.1" id="Слой_1" xmlns="http://www.w3.org/2000/svg" xmlns:xlink="http://www.w3.org/1999/xlink" x="0px" y="0px"
	 width="176px" height="128px" viewBox="0 0 176 128" style="enable-background:new 0 0 176 128;" xml:space="preserve">
<title>15_col_Visa_icon_192</title>
<path style="fill:#F8F8F8;" d="M12,0h152c6.6,0,12,5.4,12,12v104c0,6.6-5.4,12-12,12H12c-6.6,0-12-5.4-12-12V12C0,5.4,5.4,0,12,0z"
	/>
<path style="fill:#09599D;" d="M62.3,45.4l-9.5,25.5l-1-5.2c-2.5-6.6-7.2-12.2-13.4-15.6l8.6,32.7h10.2l15.2-37.3L62.3,45.4"/>
<polyline style="fill:#09599D;" points="70.3,82.7 76.4,45.3 86.1,45.3 80,82.7 70.3,82.7 "/>
<path style="fill:#09599D;" d="M115,46.3c-2.8-1.1-5.7-1.6-8.7-1.6c-9.6,0-16.3,5.1-16.3,12.3c-0.1,5.4,4.8,8.4,8.5,10.2s5,3,5,4.6
	c0,2.5-3,3.6-5.8,3.6c-3.1,0.1-6.3-0.6-9.1-2l-1.3-0.6L86,81.2c3.4,1.3,7.1,2,10.8,2c10.1,0,16.7-5,16.8-12.8
	c0-4.3-2.5-7.5-8.1-10.2c-3.4-1.7-5.4-2.9-5.4-4.6c0-1.6,1.8-3.2,5.5-3.2c2.5-0.1,5,0.4,7.2,1.4l0.9,0.4L115,46.3"/>
<path style="fill:#09599D;" d="M139.8,45.4h-7.5c-2.3,0-4,0.7-5.1,3.1l-14.3,34.3h10.1c0,0,1.7-4.6,2-5.6h12.4
	c0.3,1.3,1.2,5.6,1.2,5.6h9L139.8,45.4 M127.9,69.5c0.8-2.1,3.9-10.5,3.9-10.5s0.8-2.2,1.3-3.6l0.6,3.2c0,0,1.9,8.9,2.2,10.8
	L127.9,69.5L127.9,69.5z"/>
<path style="fill:#E49603;" d="M44,45.4H28.5L28.4,46c12.1,3.1,20.1,10.7,23.4,19.7l-3.4-17.2C47.8,46.1,46.1,45.4,44,45.4z"/>
<path style="fill:#09599D;" d="M176,36V12c0-6.6-5.4-12-12-12H12C5.4,0,0,5.4,0,12v24H176z"/>
<path style="fill:#E49603;" d="M0,92v24c0,6.6,5.4,12,12,12h152c6.6,0,12-5.4,12-12V92H0z"/>
</svg>
