<?xml version="1.0" encoding="utf-8"?>
<!-- Generator: Adobe Illustrator 17.1.0, SVG Export Plug-In . SVG Version: 6.00 Build 0)  -->
<!DOCTYPE svg PUBLIC "-//W3C//DTD SVG 1.1//EN" "http://www.w3.org/Graphics/SVG/1.1/DTD/svg11.dtd">
<svg version="1.1" id="Слой_1" xmlns="http://www.w3.org/2000/svg" xmlns:xlink="http://www.w3.org/1999/xlink" x="0px" y="0px"
	 width="156px" height="176px" viewBox="0 0 156 176" style="enable-background:new 0 0 156 176;" xml:space="preserve">
<title>14_col_PDF_icon_192</title>
<path style="fill:#494949;" d="M124.2,0H20v176h136V35.9L124.2,0z M146,38.5h-25.8V9.3L146,38.5z M146.8,166.9H29.2V9.1H111v38.5
	h35.8L146.8,166.9L146.8,166.9z"/>
<rect y="28" style="fill:#EB1751;" width="99.8" height="52"/>
<path style="fill:#FFFFFF;" d="M12,67.9V40h11.9c2.5-0.1,5,0.7,6.9,2.3c1.7,1.5,2.7,3.8,2.6,6.1c0.1,2.3-0.9,4.6-2.6,6.1
	c-1.9,1.6-4.4,2.5-7,2.4h-6.3v11.1H12z M17.6,51.9h5.9c2.7,0,4.3-1.2,4.3-3.5S26.2,45,23.5,45h-5.9L17.6,51.9L17.6,51.9z"/>
<path style="fill:#FFFFFF;" d="M37.7,67.9V40h10.2c4-0.2,7.9,1.2,10.8,3.9c2.8,2.6,4.3,6.3,4.2,10.1c0.1,3.8-1.4,7.5-4.2,10.1
	c-3,2.7-6.8,4-10.8,3.9L37.7,67.9L37.7,67.9z M43.3,62.8h4.1c6.1,0,9.7-3.3,9.7-8.8s-3.6-8.8-9.7-8.8h-4.1L43.3,62.8z"/>
<path style="fill:#FFFFFF;" d="M68,67.9V40h20v5.2H73.6v5.7h11.1v5.1H73.6v12H68z"/>
<rect x="43.7" y="96" style="fill:#494949;" width="88.3" height="9.1"/>
<rect x="43.7" y="115.4" style="fill:#494949;" width="88.3" height="9.1"/>
<rect x="43.7" y="134.9" style="fill:#494949;" width="88.3" height="9.1"/>
</svg>
