<svg xmlns="http://www.w3.org/2000/svg" width="176" height="152" viewBox="0 0 176 152">
  <path fill="#1B2E5A" d="M136.8 0H39.2L0 76l39.2 76h97.6L176 76"/>
  <path fill="#D9D8D7" d="M75.1 103.7H101V116H75.1z"/>
  <path fill="#FFF" d="M68.9 116h38.3v4H68.9z"/>
  <path d="M44.1 92V35.1c0-.8.3-1.6.9-2.2.6-.6 1.4-.9 2.2-.9h81.7c.8 0 1.6.3 2.2.9.6.6.9 1.4.9 2.2V92H44.1z" fill="#999"/>
  <path fill="#FFF" d="M48 44h80v44H48zm84 56.7c0 .8-.3 1.6-.9 2.2-.6.6-1.4.9-2.2.9H47.2c-.8 0-1.6-.3-2.2-.9-.6-.6-.9-1.4-.9-2.2V92H132v8.7z"/>
  <path d="M128 48H48v-9.7c0-.6.3-1.3.8-1.7.6-.5 1.3-.7 2-.7h74.3c.7 0 1.4.2 2 .7.5.4.8 1 .8 1.7l.1 9.7z" fill="#F2F2F2"/>
  <path fill="#EB1751" d="M76.3 51.7h24V68h-24zM56 72h64v15.9H56zm48-20h16v16h-16zm-48 0h16v16H56z"/>
  <ellipse cx="54.1" cy="42.3" rx="2" ry="2.1" fill="#EB1751"/>
  <ellipse cx="60.2" cy="42.3" rx="2" ry="2.1" fill="#EB1751"/>
  <ellipse cx="66.3" cy="42.3" rx="2" ry="2.1" fill="#EB1751"/>
  <path d="M115.2 76.6l-4.1-10 10.1 4-4 2.1"/>
  <path d="M120.755 75.048l-1.13 1.13-3.324-3.322 1.134-1.132z"/>
</svg>
