<?xml version="1.0" encoding="utf-8"?>
<!-- Generator: Adobe Illustrator 17.1.0, SVG Export Plug-In . SVG Version: 6.00 Build 0)  -->
<!DOCTYPE svg PUBLIC "-//W3C//DTD SVG 1.1//EN" "http://www.w3.org/Graphics/SVG/1.1/DTD/svg11.dtd">
<svg version="1.1" id="Слой_1" xmlns="http://www.w3.org/2000/svg" xmlns:xlink="http://www.w3.org/1999/xlink" x="0px" y="0px"
	 width="176px" height="152px" viewBox="0 0 176 152" style="enable-background:new 0 0 176 152;" xml:space="preserve">
<title>12_blu_Support _icon_192</title>
<g>
	<polygon style="fill:#1B2E5A;" points="136.8,0 117.7,0 58.3,0 39.2,0 0,76 39.2,152 58.3,152 117.7,152 136.8,152 176,76 	"/>
</g>
<g>
	<path style="fill:#EB1751;" d="M120,88c9.4-0.7,16-8.6,16-18.2s-6.6-17.2-16-17.8"/>
</g>
<g>
	<path style="fill:#EB1751;" d="M56,52c-9.4,0.7-16,8.6-16,18.2S46.7,87.3,56,88"/>
</g>
<g>
	<path style="fill:#FFFFFF;" d="M86,108h4c4.4,0,8,3.6,8,8v0c0,4.4-3.6,8-8,8h-4c-4.4,0-8-3.6-8-8v0C78,111.6,81.6,108,86,108z"/>
</g>
<g>
	<path style="fill:#FFFFFF;" d="M88,120c-2.2,0-4-1.8-4-4s1.8-4,4-4c15.4,0,28-11.9,28-26.5v-19C116,51.9,103.4,40,88,40
		S60,51.9,60,66.5V84c0,2.2-1.8,4-4,4s-4-1.8-4-4V66.5C52,47.5,68.1,32,88,32s36,15.5,36,34.5v19C124,104.5,107.9,120,88,120z"/>
</g>
</svg>
