<?xml version="1.0" encoding="utf-8"?>
<!-- Generator: Adobe Illustrator 17.1.0, SVG Export Plug-In . SVG Version: 6.00 Build 0)  -->
<!DOCTYPE svg PUBLIC "-//W3C//DTD SVG 1.1//EN" "http://www.w3.org/Graphics/SVG/1.1/DTD/svg11.dtd">
<svg version="1.1" id="Слой_1" xmlns="http://www.w3.org/2000/svg" xmlns:xlink="http://www.w3.org/1999/xlink" x="0px" y="0px"
	 width="176px" height="67.2px" viewBox="0 0 176 67.2" style="enable-background:new 0 0 176 67.2;" xml:space="preserve">
<title>0_Logo_icon_192</title>
<path style="fill:#221E1F;" d="M70.6,0h11.3v2.6h-4.3v17.2h-2.6V2.6h-4.4V0z"/>
<path style="fill:#221E1F;" d="M89.2,14.2h-3.4l-1.3,5.5h-2.6L86.5,0h2l4.7,19.7h-2.6L89.2,14.2z M86.4,11.7h2.3l-1.1-4.8L86.4,11.7
	z"/>
<path style="fill:#221E1F;" d="M104.1,0h2.8l-4.7,9.9l4.7,9.9H104l-3.3-6.9l-3.3,6.9h-2.9l4.7-9.9L94.7,0h2.8l3.2,6.9L104.1,0z"/>
<path style="fill:#221E1F;" d="M78.5,47.6H81v14.4c0,1.4,0.3,2,0.7,2.4c0.3,0.3,0.8,0.4,1.2,0.3c0.4,0,0.9-0.1,1.2-0.3
	c0.6-0.7,0.8-1.5,0.7-2.4V47.6h2.5v14.4c0.1,1.3-0.3,2.7-1.1,3.8c-1.7,1.9-4.6,2-6.5,0.2c-0.1-0.1-0.2-0.2-0.2-0.2
	c-0.8-1.1-1.2-2.4-1.1-3.8L78.5,47.6z"/>
<path style="fill:#221E1F;" d="M89.6,60.4h2.5v1.2c-0.1,0.9,0.1,1.8,0.6,2.5c0.1,0.2,0.3,0.3,0.5,0.4c0.3,0.1,0.7,0.2,1.1,0.2
	c0.7,0,1.4-0.4,1.8-1c0.3-0.6,0.4-1.2,0.3-1.9c0-0.7-0.2-1.5-0.8-2c-0.5-0.4-1-0.8-1.6-1l-0.5-0.2c-0.9-0.3-1.7-0.8-2.4-1.4
	c-1.1-1-1.7-2.4-1.6-3.9c-0.1-1.5,0.4-2.9,1.3-4.1c0.9-1,2.1-1.6,3.4-1.5c1.4-0.1,2.7,0.5,3.6,1.5c0.8,1.2,1.2,2.6,1.2,4.1v1.2h-2.6
	v-1.2c0-1.5-0.3-2.3-0.8-2.7c-0.4-0.3-0.9-0.4-1.4-0.4c-0.8,0-1.6,0.5-1.8,1.3c-0.2,0.6-0.4,1.2-0.3,1.8c0,0.7,0.3,1.5,0.8,2
	c0.5,0.5,1.1,0.8,1.7,1.1l0.4,0.2c0.9,0.3,1.6,0.8,2.3,1.4c1.1,1,1.7,2.4,1.7,3.9c0,3-1.7,5.4-4.7,5.4s-4.7-2.1-4.7-5.6L89.6,60.4
	L89.6,60.4z"/>
<polygon style="fill:#EA1651;" points="159.7,0 110.3,0 116.8,13.4 166.2,13.4 "/>
<polygon style="fill:#EA1651;" points="126.6,33.6 123.3,40.3 172.7,40.3 176,33.6 172.7,26.9 123.3,26.9 "/>
<polygon style="fill:#EA1651;" points="110.3,67.2 159.7,67.2 166.2,53.7 116.8,53.7 "/>
<path style="fill:#1B2D5A;" d="M65.7,0H16.3L0,33.6l16.3,33.6h49.4L49.4,33.6L65.7,0z M35.3,46.1L27,41.8l-8.2,4.3l1.6-9.1l-6.6-6.4
	l9.2-1.3L27,21l4.1,8.3l9.2,1.3L33.7,37L35.3,46.1z"/>
<path style="fill:#221E1F;" d="M78.7,27v0.6h-4.2v5.8h4.2V34h-4.2v6.4h-0.6V27H78.7z"/>
<path style="fill:#221E1F;" d="M86.2,40.4h-0.7v-3.7c0.1-1.3-0.8-2.4-2-2.5c-0.2,0-0.3,0-0.5,0h-1.8v6.3h-0.6V27H83
	c2.2,0,3.1,1.1,3.1,3.6c0.1,0.9-0.2,1.9-0.7,2.7c-0.2,0.3-0.5,0.5-0.8,0.6c0.3,0.1,0.5,0.3,0.7,0.5c0.6,0.6,1,1.5,0.9,2.4L86.2,40.4
	L86.2,40.4z M81.2,33.5H83c1.8,0,2.5-0.9,2.5-2.9s-0.7-2.9-2.5-2.9h-1.8L81.2,33.5L81.2,33.5z"/>
<path style="fill:#221E1F;" d="M88,30.6c0-2.3,1-3.6,2.9-3.6s2.9,1.2,2.9,3.6v6.3c0.1,1-0.2,2.1-0.9,2.9c-0.5,0.5-1.2,0.7-1.9,0.7
	c-0.7,0-1.4-0.2-1.9-0.7c-0.7-0.8-1-1.8-0.9-2.9V30.6z M88.6,36.9c0,2,0.7,2.9,2.2,2.9s2.3-0.9,2.3-2.9v-6.3c0-2.1-0.8-2.9-2.3-2.9
	s-2.3,0.9-2.3,2.9L88.6,36.9L88.6,36.9z"/>
<path style="fill:#221E1F;" d="M99.4,40.5l-3.1-10.9v10.9h-0.6V27h0.6l3.5,12l3.4-12h0.6v13.4H103V29.6l-3.1,10.9L99.4,40.5
	L99.4,40.5z"/>
</svg>
