<?xml version="1.0" encoding="utf-8"?>
<!-- Generator: Adobe Illustrator 17.1.0, SVG Export Plug-In . SVG Version: 6.00 Build 0)  -->
<!DOCTYPE svg PUBLIC "-//W3C//DTD SVG 1.1//EN" "http://www.w3.org/Graphics/SVG/1.1/DTD/svg11.dtd">
<svg version="1.1" id="Слой_1" xmlns="http://www.w3.org/2000/svg" xmlns:xlink="http://www.w3.org/1999/xlink" x="0px" y="0px"
	 width="176px" height="152px" viewBox="0 0 176 152" style="enable-background:new 0 0 176 152;" xml:space="preserve">
<title>12_blu_Time_icon_192</title>
<polygon style="fill:#1B2E5A;" points="136.8,0 117.7,0 58.3,0 39.2,0 0,76 39.2,152 58.3,152 117.7,152 136.8,152 176,76 "/>
<path style="fill:#FFFFFF;" d="M88,32c-24.3,0-44,19.7-44,44s19.7,44,44,44s44-19.7,44-44S112.3,32,88,32z"/>
<circle style="fill:#E5E5E5;" cx="88" cy="76" r="36"/>
<path style="fill:#EB1751;" d="M118.9,94.4c10.2-17.1,4.6-39.2-12.5-49.4C100.8,41.8,94.5,40,88,40v36L118.9,94.4z"/>
<polygon style="fill:#EB1751;" points="88,40 88,40 88,40 "/>
<rect x="85.9" y="56" style="fill:#343B43;" width="4.1" height="16"/>
<rect x="98.7" y="73.6" transform="matrix(-0.5066 0.8622 -0.8622 -0.5066 223.7203 38.9517)" style="fill:#343B43;" width="4.1" height="19.8"/>
<circle style="fill:#343B43;" cx="88" cy="76" r="8"/>
<circle style="fill:#FFFFFF;" cx="88" cy="76" r="4"/>
<circle style="fill:#EB1751;" cx="88" cy="76" r="2.1"/>
<circle style="fill:#343B43;" cx="88" cy="46" r="2"/>
<circle style="fill:#343B43;" cx="73" cy="50" r="2"/>
<circle style="fill:#343B43;" cx="62" cy="61" r="2"/>
<circle style="fill:#343B43;" cx="58" cy="76" r="2"/>
<circle style="fill:#343B43;" cx="62" cy="91" r="2"/>
<path style="fill:#343B43;" d="M74,100.3c1,0.6,1.3,1.8,0.7,2.7c-0.6,1-1.8,1.3-2.7,0.7c-1-0.6-1.3-1.8-0.7-2.7c0,0,0,0,0,0
	C71.8,100,73,99.7,74,100.3z"/>
<circle style="fill:#343B43;" cx="88" cy="106" r="2"/>
<path style="fill:#343B43;" d="M102,100.3c1-0.5,2.2-0.2,2.7,0.7c0.6,1,0.2,2.2-0.7,2.7c-1,0.6-2.2,0.2-2.7-0.7S101,100.8,102,100.3
	C102,100.3,102,100.3,102,100.3z"/>
<path style="fill:#343B43;" d="M112.3,90c0.5-1,1.8-1.3,2.7-0.7c1,0.5,1.3,1.8,0.7,2.7c-0.5,1-1.8,1.3-2.7,0.7
	C112,92.2,111.7,91,112.3,90L112.3,90z"/>
<circle style="fill:#343B43;" cx="118" cy="76" r="2"/>
<path style="fill:#343B43;" d="M112.3,62c-0.6-1-0.2-2.2,0.7-2.7s2.2-0.2,2.7,0.7c0.5,1,0.2,2.2-0.7,2.7C114,63.3,112.8,63,112.3,62
	C112.3,62,112.3,62,112.3,62z"/>
<path style="fill:#343B43;" d="M102,51.7c-1-0.5-1.3-1.8-0.7-2.7c0.5-1,1.8-1.3,2.7-0.7c1,0.5,1.3,1.8,0.7,2.7c0,0,0,0,0,0
	C104.2,52,103,52.3,102,51.7z"/>
</svg>
