<?xml version="1.0" encoding="utf-8"?>
<!-- Generator: Adobe Illustrator 17.1.0, SVG Export Plug-In . SVG Version: 6.00 Build 0)  -->
<!DOCTYPE svg PUBLIC "-//W3C//DTD SVG 1.1//EN" "http://www.w3.org/Graphics/SVG/1.1/DTD/svg11.dtd">
<svg version="1.1" id="Слой_1" xmlns="http://www.w3.org/2000/svg" xmlns:xlink="http://www.w3.org/1999/xlink" x="0px" y="0px"
	 width="508.6px" height="152px" viewBox="0 0 508.6 152" style="enable-background:new 0 0 508.6 152;" xml:space="preserve">
<title>09_col_StateTax_icon_192</title>
<polygon style="fill:#132140;" points="0,76 43.9,0 421.6,0 421.6,152 43.9,152 "/>
<polygon style="fill:#FFFFFF;" points="333.1,76 377,0 464.8,0 508.6,76 464.8,152 377,152 "/>
<polygon style="opacity:0.1;enable-background:new    ;" points="501.4,88.5 455.1,42.1 413.6,80.2 426,92.6 386.4,109.6 430.1,152 
	464.8,152 "/>
<circle style="fill:#F3AA2D;" cx="420.9" cy="76" r="48.2"/>
<circle style="fill:#D69F41;" cx="420.9" cy="76" r="33.6"/>
<path style="fill:#D59220;" d="M397.1,99.8c13.1,13.1,34.4,13.1,47.5,0s13.1-34.4,0-47.5"/>
<path style="fill:#AF6205;" d="M421.7,72.8c-1.5-0.6-2.9-1.3-4.1-2.2c-0.7-0.6-1.1-1.5-1.1-2.4c0-1,0.4-1.9,1.1-2.6
	c0.8-0.7,1.9-1.1,2.9-1c1.2-0.1,2.4,0.3,3.4,1c0.7,0.8,1.4,1.7,2.1,2.6l4.6-4.6c-0.5-0.9-1.1-1.6-1.8-2.3c-2.3-1.9-5.2-2.8-8.1-2.7
	c-2.9-0.1-5.7,0.8-7.9,2.6c-2,1.7-3.2,4.2-3.1,6.9c-0.2,2.5,0.8,4.9,2.7,6.6c2.5,1.9,5.2,3.4,8.2,4.3c1.4,0.5,2.6,1.2,3.8,2.1
	c0.7,0.7,1.1,1.7,1,2.8c0,1-0.4,1.9-1.1,2.6c-0.9,0.7-2.1,1.1-3.2,1c-1.4,0.1-2.8-0.3-3.9-1.2c-0.8-0.8-2.6-3.1-2.6-3.1l-4.4,4.4
	c0.5,1.2,1.4,2.3,2.4,3.1c2.4,1.8,5.4,2.8,8.5,2.7c2.9,0.1,5.8-0.7,8.1-2.5c2-1.7,3.2-4.3,3-7c0.2-2.5-0.7-5-2.5-6.9
	C427.2,75.1,424.6,73.6,421.7,72.8z"/>
<rect x="417.4" y="54.3" style="fill:#AF6205;" width="6.5" height="6.5"/>
<rect x="417.4" y="91.2" style="fill:#AF6205;" width="6.5" height="6.5"/>
<g>
	<path style="fill:#FFFFFF;" d="M66.2,69.1V60l-7-13.1h5.7l2.3,5.3c0.7,1.6,1.2,2.8,1.7,4.3h0.1c0.5-1.4,1-2.7,1.7-4.3l2.2-5.3h5.6
		l-7.3,13v9.3H66.2z"/>
	<path style="fill:#FFFFFF;" d="M99.7,57.8c0,7.3-4.4,11.7-10.9,11.7c-6.6,0-10.5-5-10.5-11.3c0-6.7,4.3-11.7,10.8-11.7
		C96,46.5,99.7,51.7,99.7,57.8z M83.6,58.1c0,4.4,2,7.4,5.4,7.4c3.4,0,5.3-3.2,5.3-7.6c0-4-1.9-7.4-5.4-7.4
		C85.6,50.5,83.6,53.8,83.6,58.1z"/>
	<path style="fill:#FFFFFF;" d="M108,46.9v12.8c0,3.8,1.5,5.8,4,5.8c2.6,0,4.1-1.8,4.1-5.8V46.9h5v12.5c0,6.9-3.5,10.1-9.3,10.1
		c-5.6,0-8.9-3.1-8.9-10.2V46.9H108z"/>
	<path style="fill:#FFFFFF;" d="M125.5,47.2c1.6-0.3,4-0.5,6.7-0.5c3.3,0,5.6,0.5,7.2,1.7c1.3,1.1,2,2.6,2,4.7c0,2.8-2,4.8-3.9,5.5
		v0.1c1.6,0.6,2.4,2.1,3,4.2c0.7,2.5,1.4,5.4,1.8,6.3h-5.1c-0.4-0.6-0.9-2.4-1.6-5.2c-0.6-2.8-1.6-3.5-3.6-3.6h-1.5v8.7h-5V47.2z
		 M130.5,56.8h2c2.5,0,4-1.3,4-3.2c0-2-1.4-3.1-3.7-3.1c-1.2,0-1.9,0.1-2.3,0.2V56.8z"/>
	<path style="fill:#FFFFFF;" d="M151.8,46.9h13.6V51h-8.5v5.1h8v4.1h-8v8.9h-5V46.9z"/>
	<path style="fill:#FFFFFF;" d="M174.2,46.9v22.2h-5V46.9H174.2z"/>
	<path style="fill:#FFFFFF;" d="M194.9,68.5c-0.9,0.5-3,1-5.7,1c-7.7,0-11.7-4.8-11.7-11.1c0-7.6,5.4-11.8,12.1-11.8
		c2.6,0,4.6,0.5,5.5,1l-1,4c-1-0.4-2.4-0.8-4.2-0.8c-4,0-7.1,2.4-7.1,7.4c0,4.5,2.6,7.3,7.1,7.3c1.5,0,3.2-0.3,4.2-0.7L194.9,68.5z"
		/>
	<path style="fill:#FFFFFF;" d="M203.7,63.4l-1.6,5.7h-5.2l6.8-22.2h6.6l6.9,22.2h-5.4l-1.7-5.7H203.7z M209.3,59.7L208,55
		c-0.4-1.3-0.8-3-1.1-4.3h-0.1c-0.3,1.3-0.7,3-1,4.3l-1.3,4.7H209.3z"/>
	<path style="fill:#FFFFFF;" d="M229.8,51.1h-6v-4.2H241v4.2h-6.1v18h-5V51.1z"/>
	<path style="fill:#FFFFFF;" d="M246.4,63.4l-1.6,5.7h-5.2l6.8-22.2h6.6l6.9,22.2h-5.4l-1.7-5.7H246.4z M252.1,59.7l-1.4-4.7
		c-0.4-1.3-0.8-3-1.1-4.3h-0.1c-0.3,1.3-0.7,3-1,4.3l-1.3,4.7H252.1z"/>
	<path style="fill:#FFFFFF;" d="M273.8,69.1l-2-4c-0.8-1.6-1.4-2.7-2-4h-0.1c-0.5,1.3-1,2.4-1.7,4l-1.8,4h-5.7l6.4-11.3l-6.2-11h5.8
		l1.9,4.1c0.7,1.4,1.2,2.4,1.7,3.7h0.1c0.5-1.4,1-2.4,1.5-3.7l1.9-4.1h5.7L273,57.8l6.6,11.4H273.8z"/>
	<path style="fill:#FFFFFF;" d="M61,86.8c1.6-0.3,4-0.5,6.7-0.5c3.3,0,5.6,0.5,7.2,1.7c1.3,1.1,2,2.6,2,4.7c0,2.8-2,4.8-3.9,5.5v0.1
		c1.6,0.6,2.4,2.1,3,4.2c0.7,2.5,1.4,5.4,1.8,6.3h-5.1c-0.4-0.6-0.9-2.4-1.6-5.2c-0.6-2.8-1.6-3.5-3.6-3.6H66v8.7h-5V86.8z M66,96.4
		h2c2.5,0,4-1.3,4-3.2c0-2-1.4-3.1-3.7-3.1c-1.2,0-1.9,0.1-2.3,0.2V96.4z"/>
	<path style="fill:#FFFFFF;" d="M93.8,99.3h-8.2v5.3h9.1v4.1H80.6V86.5h13.7v4.1h-8.7v4.6h8.2V99.3z"/>
	<path style="fill:#FFFFFF;" d="M102.6,90.7h-6v-4.2h17.1v4.2h-6.1v18h-5V90.7z"/>
	<path style="fill:#FFFFFF;" d="M121.5,86.5v12.8c0,3.8,1.5,5.8,4,5.8c2.6,0,4.1-1.8,4.1-5.8V86.5h5V99c0,6.9-3.5,10.1-9.3,10.1
		c-5.6,0-8.9-3.1-8.9-10.2V86.5H121.5z"/>
	<path style="fill:#FFFFFF;" d="M138.9,86.8c1.6-0.3,4-0.5,6.7-0.5c3.3,0,5.6,0.5,7.2,1.7c1.3,1.1,2,2.6,2,4.7c0,2.8-2,4.8-3.9,5.5
		v0.1c1.6,0.6,2.4,2.1,3,4.2c0.7,2.5,1.4,5.4,1.8,6.3h-5.1c-0.4-0.6-0.9-2.4-1.6-5.2c-0.6-2.8-1.6-3.5-3.6-3.6h-1.5v8.7h-5V86.8z
		 M143.9,96.4h2c2.5,0,4-1.3,4-3.2c0-2-1.4-3.1-3.7-3.1c-1.2,0-1.9,0.1-2.3,0.2V96.4z"/>
	<path style="fill:#FFFFFF;" d="M158.5,108.7V86.5h5.9l4.6,8.2c1.3,2.3,2.6,5.1,3.6,7.6h0.1c-0.3-2.9-0.4-5.9-0.4-9.3v-6.5h4.6v22.2
		h-5.3l-4.8-8.6c-1.3-2.4-2.8-5.2-3.9-7.9l-0.1,0c0.1,2.9,0.2,6.1,0.2,9.7v6.7H158.5z"/>
</g>
</svg>
