<?xml version="1.0" encoding="utf-8"?>
<!-- Generator: Adobe Illustrator 17.1.0, SVG Export Plug-In . SVG Version: 6.00 Build 0)  -->
<!DOCTYPE svg PUBLIC "-//W3C//DTD SVG 1.1//EN" "http://www.w3.org/Graphics/SVG/1.1/DTD/svg11.dtd">
<svg version="1.1" id="Слой_1" xmlns="http://www.w3.org/2000/svg" xmlns:xlink="http://www.w3.org/1999/xlink" x="0px" y="0px"
	 width="495.6px" height="152px" viewBox="0 0 495.6 152" style="enable-background:new 0 0 495.6 152;" xml:space="preserve">
<title>09_col_StateTax_icon_192</title>
<polygon style="fill:#132140;" points="495.6,76 451.8,0 74,0 74,152 451.8,152 "/>
<polygon style="fill:#FFFFFF;" points="0,76 43.9,0 131.6,0 175.5,76 131.6,152 43.9,152 "/>
<polygon style="opacity:0.1;enable-background:new    ;" points="171.2,83.4 131.8,44 120.6,54.2 59.5,70.4 71.6,82.5 43.8,108 
	87.8,152 88.6,152 89.9,151.8 94.2,152 131.6,152 "/>
<rect x="43.8" y="44" style="fill:#44B1B5;" width="88" height="64"/>
<path style="fill:#FFFFFF;" d="M126.8,48H48.5c-0.7,0-0.7,0.5-0.7,1.1v53.8c0,0.6,0.1,1.1,0.7,1.1h78.3c0.5,0,1-0.4,1-0.9
	c0-0.1,0-0.1,0-0.2V49.1C127.8,48.5,127.4,48.1,126.8,48C126.8,48,126.8,48,126.8,48z"/>
<path style="fill:#313435;" d="M108.6,38H94.5c0-3.4-2.8-6.2-6.2-6.2S82,34.6,82,38H66.9c-1.7,0.1-3.1,1.5-3.2,3.2v7.7
	c0.1,1.7,1.5,3,3.2,3.1h20.4c0.2,0,0.3,0,0.5,0c0.2,0,0.3,0,0.5,0h20.4c1.7-0.1,3.1-1.4,3.2-3.1v-7.7
	C111.7,39.5,110.3,38.1,108.6,38z M88.2,35.4c1.5,0,2.8,1.2,2.8,2.8s-1.2,2.8-2.8,2.8s-2.8-1.2-2.8-2.8S86.7,35.4,88.2,35.4
	L88.2,35.4z"/>
<rect x="89.8" y="76" style="fill:#454B4C;" width="31" height="3"/>
<rect x="89.8" y="82" style="fill:#454B4C;" width="31" height="3"/>
<rect x="89.8" y="88" style="fill:#454B4C;" width="21" height="3"/>
<rect x="89.8" y="58" style="fill:#454B4C;" width="4" height="15"/>
<rect x="105.8" y="58" style="fill:#454B4C;" width="4" height="15"/>
<rect x="111.8" y="58" style="fill:#454B4C;" width="3" height="15"/>
<rect x="117.8" y="58" style="fill:#454B4C;" width="3" height="15"/>
<rect x="97.8" y="58" style="fill:#454B4C;" width="4" height="15"/>
<rect x="95.8" y="58" style="fill:#454B4C;" width="8" height="3"/>
<polygon style="fill:#454B4C;" points="117.8,73 111.8,58 114.8,58 120.8,73 "/>
<circle style="fill:#44B1B5;" cx="78.8" cy="86.8" r="3.5"/>
<circle style="fill:#44B1B5;" cx="57.1" cy="86.8" r="3.5"/>
<path style="fill:#44B1B5;" d="M82.3,86.5c0-6.2-5-11.2-11.2-11.2c-1.1,0-2.2,0.2-3.2,0.5C62,74,55.8,77.4,54,83.3
	c-0.3,1-0.5,2.1-0.5,3.2"/>
<rect x="56.8" y="84.5" style="fill:#44B1B5;" width="21.9" height="5.7"/>
<polygon style="fill:#FFFFFF;" points="73.9,75.7 70.3,72.3 67.9,74.7 65.5,72.3 61.9,75.7 65.5,82.2 67.9,79.2 70.3,82.2 "/>
<circle style="fill:#F0CCAF;" cx="67.9" cy="71.2" r="7.5"/>
<g>
	<path style="fill:none;" d="M74.4,71c-3.9,0-7.3-2.3-9-5.6c-1.2,2.3-3.3,4.1-5.9,4.9c0,4.7,3.8,8.5,8.5,8.5c4.5,0,8.2-3.5,8.5-8
		C75.8,70.9,75.1,71,74.4,71z"/>
	<path style="fill:#AA6125;" d="M74.4,71c0.7,0,1.4-0.1,2.1-0.2c0-0.2,0-0.3,0-0.5c0-4.7-3.8-8.5-8.5-8.5c-0.5,0-1,0.1-1.5,0.1
		c-0.2,1.2-0.5,2.4-1.1,3.5C67,68.7,70.4,71,74.4,71z"/>
	<path style="fill:#AA6125;" d="M65.4,65.4c0.6-1.1,0.9-2.2,1.1-3.5c-4,0.7-7,4.2-7,8.3c0,0,0,0,0,0C62,69.5,64.2,67.7,65.4,65.4z"
		/>
</g>
<g>
	<path style="fill:#FFFFFF;" d="M197.1,65.5v-9.1l-7-13.1h5.7l2.3,5.3c0.7,1.6,1.2,2.8,1.7,4.3h0.1c0.5-1.4,1-2.7,1.7-4.3l2.2-5.3
		h5.6l-7.3,13v9.3H197.1z"/>
	<path style="fill:#FFFFFF;" d="M230.7,54.1c0,7.3-4.4,11.7-10.9,11.7c-6.6,0-10.5-5-10.5-11.3c0-6.7,4.3-11.7,10.8-11.7
		C226.9,42.9,230.7,48,230.7,54.1z M214.6,54.4c0,4.4,2,7.4,5.4,7.4c3.4,0,5.3-3.2,5.3-7.6c0-4-1.9-7.4-5.4-7.4
		C216.6,46.9,214.6,50.1,214.6,54.4z"/>
	<path style="fill:#FFFFFF;" d="M239,43.3v12.8c0,3.8,1.5,5.8,4,5.8c2.6,0,4.1-1.8,4.1-5.8V43.3h5v12.5c0,6.9-3.5,10.1-9.3,10.1
		c-5.6,0-8.9-3.1-8.9-10.2V43.3H239z"/>
	<path style="fill:#FFFFFF;" d="M256.5,43.6c1.6-0.3,4-0.5,6.7-0.5c3.3,0,5.6,0.5,7.2,1.7c1.3,1.1,2,2.6,2,4.7c0,2.8-2,4.8-3.9,5.5
		v0.1c1.6,0.6,2.4,2.1,3,4.2c0.7,2.5,1.4,5.4,1.8,6.3h-5.1c-0.4-0.6-0.9-2.4-1.6-5.2c-0.6-2.8-1.6-3.5-3.6-3.6h-1.5v8.7h-5V43.6z
		 M261.4,53.1h2c2.5,0,4-1.3,4-3.2c0-2-1.4-3.1-3.7-3.1c-1.2,0-1.9,0.1-2.3,0.2V53.1z"/>
	<path style="fill:#FFFFFF;" d="M287.7,43.3v22.2h-5V43.3H287.7z"/>
	<path style="fill:#FFFFFF;" d="M296.4,47.5h-6v-4.2h17.1v4.2h-6.1v18h-5V47.5z"/>
	<path style="fill:#FFFFFF;" d="M315.2,43.3v22.2h-5V43.3H315.2z"/>
	<path style="fill:#FFFFFF;" d="M319.6,65.5V43.3h5.9l4.6,8.2c1.3,2.3,2.6,5.1,3.6,7.6h0.1c-0.3-2.9-0.4-5.9-0.4-9.3v-6.5h4.6v22.2
		h-5.3l-4.8-8.6c-1.3-2.4-2.8-5.2-3.9-7.9l-0.1,0c0.1,2.9,0.2,6.1,0.2,9.7v6.7H319.6z"/>
	<path style="fill:#FFFFFF;" d="M197.1,99.4l-1.6,5.7h-5.2l6.8-22.2h6.6l6.9,22.2h-5.4l-1.7-5.7H197.1z M202.8,95.6l-1.4-4.7
		c-0.4-1.3-0.8-3-1.1-4.3h-0.1c-0.3,1.3-0.7,3-1,4.3l-1.3,4.7H202.8z"/>
	<path style="fill:#FFFFFF;" d="M213.6,83.2c1.6-0.3,3.7-0.5,6.8-0.5c3.1,0,5.3,0.6,6.8,1.8c1.4,1.1,2.4,3,2.4,5.1
		c0,2.2-0.7,4-2,5.3c-1.7,1.6-4.3,2.3-7.2,2.3c-0.7,0-1.3,0-1.7-0.1v8h-5V83.2z M218.6,93.3c0.4,0.1,1,0.1,1.7,0.1
		c2.7,0,4.3-1.4,4.3-3.6c0-2-1.4-3.3-3.9-3.3c-1,0-1.7,0.1-2.1,0.2V93.3z"/>
	<path style="fill:#FFFFFF;" d="M232.8,83.2c1.6-0.3,3.7-0.5,6.8-0.5c3.1,0,5.3,0.6,6.8,1.8c1.4,1.1,2.4,3,2.4,5.1
		c0,2.2-0.7,4-2,5.3c-1.7,1.6-4.3,2.3-7.2,2.3c-0.7,0-1.3,0-1.7-0.1v8h-5V83.2z M237.7,93.3c0.4,0.1,1,0.1,1.7,0.1
		c2.7,0,4.3-1.4,4.3-3.6c0-2-1.4-3.3-3.9-3.3c-1,0-1.7,0.1-2.1,0.2V93.3z"/>
	<path style="fill:#FFFFFF;" d="M251.9,82.9h5v18h8.8v4.2h-13.9V82.9z"/>
	<path style="fill:#FFFFFF;" d="M273.8,82.9v22.2h-5V82.9H273.8z"/>
	<path style="fill:#FFFFFF;" d="M294.5,104.5c-0.9,0.5-3,1-5.7,1c-7.7,0-11.7-4.8-11.7-11.1c0-7.6,5.4-11.8,12.1-11.8
		c2.6,0,4.6,0.5,5.5,1l-1,4c-1-0.4-2.4-0.8-4.2-0.8c-4,0-7.1,2.4-7.1,7.4c0,4.5,2.6,7.3,7.1,7.3c1.5,0,3.2-0.3,4.2-0.7L294.5,104.5z
		"/>
	<path style="fill:#FFFFFF;" d="M303.3,99.4l-1.6,5.7h-5.2l6.8-22.2h6.6l6.9,22.2h-5.4l-1.7-5.7H303.3z M309,95.6l-1.4-4.7
		c-0.4-1.3-0.8-3-1.1-4.3h-0.1c-0.3,1.3-0.7,3-1,4.3l-1.3,4.7H309z"/>
	<path style="fill:#FFFFFF;" d="M321.4,87.1h-6v-4.2h17.1v4.2h-6.1v18h-5V87.1z"/>
	<path style="fill:#FFFFFF;" d="M340.2,82.9v22.2h-5V82.9H340.2z"/>
	<path style="fill:#FFFFFF;" d="M364.9,93.7c0,7.3-4.4,11.7-10.9,11.7c-6.6,0-10.5-5-10.5-11.3c0-6.7,4.3-11.7,10.8-11.7
		C361.2,82.5,364.9,87.6,364.9,93.7z M348.9,94c0,4.4,2,7.4,5.4,7.4c3.4,0,5.3-3.2,5.3-7.6c0-4-1.9-7.4-5.4-7.4
		C350.8,86.5,348.9,89.7,348.9,94z"/>
	<path style="fill:#FFFFFF;" d="M368.2,105.1V82.9h5.9l4.6,8.2c1.3,2.3,2.6,5.1,3.6,7.6h0.1c-0.3-2.9-0.4-5.9-0.4-9.3v-6.5h4.6v22.2
		h-5.3l-4.8-8.6c-1.3-2.4-2.8-5.2-3.9-7.9l-0.1,0c0.1,2.9,0.2,6.1,0.2,9.7v6.7H368.2z"/>
</g>
</svg>
