<?xml version="1.0" encoding="utf-8"?>
<!-- Generator: Adobe Illustrator 17.1.0, SVG Export Plug-In . SVG Version: 6.00 Build 0)  -->
<!DOCTYPE svg PUBLIC "-//W3C//DTD SVG 1.1//EN" "http://www.w3.org/Graphics/SVG/1.1/DTD/svg11.dtd">
<svg version="1.1" id="Слой_1" xmlns="http://www.w3.org/2000/svg" xmlns:xlink="http://www.w3.org/1999/xlink" x="0px" y="0px"
	 width="508.6px" height="152px" viewBox="0 0 508.6 152" style="enable-background:new 0 0 508.6 152;" xml:space="preserve">
<title>09_col_StateTax_icon_192</title>
<polygon style="fill:#132140;" points="0,76 43.9,0 421.6,0 421.6,152 43.9,152 "/>
<polygon style="fill:#FFFFFF;" points="333.1,76 377,0 464.8,0 508.6,76 464.8,152 377,152 "/>
<polygon style="opacity:0.1;enable-background:new    ;" points="506.6,79.5 456.3,29.2 405.7,75.7 420.9,90.8 385.9,122.9 415,152 
	464.8,152 "/>
<path style="fill:#44B1B5;" d="M388.2,28.1c-0.9,0-1.7,0.4-2.4,1c-0.6,0.6-1,1.5-1,2.4v89.1c0,0.9,0.4,1.8,1,2.4
	c0.6,0.6,1.5,1,2.4,1h65.6c0.9,0,1.7-0.4,2.4-1c0.6-0.6,1-1.5,1-2.4V31.4c0-0.9-0.4-1.8-1-2.4c-0.6-0.6-1.5-1-2.4-1L388.2,28.1
	L388.2,28.1z"/>
<rect x="392.3" y="32.9" style="fill:#FFFFFF;" width="57.5" height="86.1"/>
<path style="fill:#343B43;" d="M427.9,28.1c0-3.7-3-6.8-6.8-6.8s-6.8,3-6.8,6.8l0,0h-5.7V36h24.8v-7.9H427.9z M418.2,28.1
	c0-1.6,1.3-2.9,2.9-2.9s2.9,1.3,2.9,2.9H418.2L418.2,28.1z"/>
<polygon style="fill:#EA1751;" points="463.8,70.8 460.5,67.4 457.1,64.1 422.5,98.8 425.8,102.1 429.1,105.4 432.5,108.8 
	467.1,74.1 "/>
<rect x="420.3" y="84.1" transform="matrix(-0.7071 0.7071 -0.7071 -0.7071 820.4398 -166.9679)" style="opacity:0.25;enable-background:new    ;" width="49" height="4.7"/>
<rect x="423.6" y="87.4" transform="matrix(-0.707 0.7072 -0.7072 -0.707 828.4489 -163.7276)" style="opacity:0.5;enable-background:new    ;" width="49" height="4.7"/>
<polygon style="fill:#E5E4E4;" points="432.5,108.8 423.4,111.2 420,107.9 422.5,98.8 "/>
<polygon style="fill:#CBCAC9;" points="432.5,108.8 429.1,105.4 422.3,110.1 423.4,111.2 "/>
<polygon style="fill:#495057;" points="423.4,111.2 418.8,112.4 420,107.9 "/>
<polygon style="fill:#FFFFFF;" points="467.1,67.4 467.1,67.4 460.5,60.8 457.1,64.1 463.8,70.8 463.8,70.8 467.1,74.1 470.5,70.8 
	"/>
<rect x="464.8" y="68.4" transform="matrix(-0.7072 0.707 -0.707 -0.7072 847.5715 -209.4152)" style="fill:#E5E4E4;" width="4.7" height="4.7"/>
<rect x="459.8" y="61.1" transform="matrix(-0.7072 0.707 -0.707 -0.7072 835.4857 -214.4128)" style="fill:#FFFFFF;" width="4.7" height="9.4"/>
<path style="fill:#495057;" d="M471.3,60c-2.8-2.8-7.2-2.8-10,0l-0.8,0.8l6.7,6.7l3.3,3.3l0.8-0.8C474,67.2,474,62.8,471.3,60
	C471.3,60,471.3,60,471.3,60z"/>
<path style="fill:#343B43;" d="M471.3,70l-0.8,0.8l-3.3-3.3l0.8-0.8c2.1-2.1,2.7-5.3,1.4-8c3.5,1.7,5,5.9,3.3,9.4
	C472.3,68.8,471.8,69.4,471.3,70z"/>
<path style="fill:#495057;" d="M467.9,66.7l-0.8,0.8l-6.7-6.7l0.8-0.8c2.1-2.1,5.3-2.6,8-1.4C470.5,61.3,470,64.5,467.9,66.7z"/>
<rect x="399.3" y="52.9" style="fill:#495057;" width="44.8" height="4"/>
<rect x="399.3" y="68.8" style="fill:#495057;" width="42.8" height="4"/>
<rect x="399.3" y="60.8" style="fill:#495057;" width="44.8" height="4"/>
<rect x="399.3" y="43.8" style="fill:#EA1751;" width="19.5" height="4"/>
<rect x="399.3" y="76.7" style="fill:#495057;" width="34.9" height="4"/>
<rect x="399.3" y="100.5" style="fill:#495057;" width="11.1" height="4"/>
<rect x="399.3" y="84.7" style="fill:#495057;" width="27" height="4"/>
<rect x="399.3" y="92.6" style="fill:#495057;" width="19" height="4"/>
<g>
	<path style="fill:#FFFFFF;" d="M67,68.8v-9.1l-7-13.1h5.7l2.3,5.3c0.7,1.6,1.2,2.8,1.7,4.3h0.1c0.5-1.4,1-2.7,1.7-4.3l2.2-5.3h5.6
		l-7.3,13v9.3H67z"/>
	<path style="fill:#FFFFFF;" d="M100.6,57.4c0,7.3-4.4,11.7-10.9,11.7c-6.6,0-10.5-5-10.5-11.3c0-6.7,4.3-11.7,10.8-11.7
		C96.8,46.2,100.6,51.3,100.6,57.4z M84.5,57.7c0,4.4,2,7.4,5.4,7.4c3.4,0,5.3-3.2,5.3-7.6c0-4-1.9-7.4-5.4-7.4
		C86.5,50.2,84.5,53.4,84.5,57.7z"/>
	<path style="fill:#FFFFFF;" d="M108.9,46.5v12.8c0,3.8,1.5,5.8,4,5.8c2.6,0,4.1-1.8,4.1-5.8V46.5h5V59c0,6.9-3.5,10.1-9.3,10.1
		c-5.6,0-8.9-3.1-8.9-10.2V46.5H108.9z"/>
	<path style="fill:#FFFFFF;" d="M126.4,46.8c1.6-0.3,4-0.5,6.7-0.5c3.3,0,5.6,0.5,7.2,1.7c1.3,1.1,2,2.6,2,4.7c0,2.8-2,4.8-3.9,5.5
		v0.1c1.6,0.6,2.4,2.1,3,4.2c0.7,2.5,1.4,5.4,1.8,6.3H138c-0.4-0.6-0.9-2.4-1.6-5.2c-0.6-2.8-1.6-3.5-3.6-3.6h-1.5v8.7h-5V46.8z
		 M131.3,56.4h2c2.5,0,4-1.3,4-3.2c0-2-1.4-3.1-3.7-3.1c-1.2,0-1.9,0.1-2.3,0.2V56.4z"/>
	<path style="fill:#FFFFFF;" d="M152.8,63.6c1.4,0.7,3.4,1.4,5.6,1.4c2.3,0,3.5-1,3.5-2.4c0-1.4-1.1-2.2-3.7-3.1
		c-3.7-1.3-6.1-3.3-6.1-6.6c0-3.8,3.2-6.7,8.4-6.7c2.5,0,4.4,0.5,5.7,1.1l-1.1,4.1c-0.9-0.4-2.5-1.1-4.7-1.1s-3.2,1-3.2,2.1
		c0,1.4,1.3,2,4.1,3.1c3.9,1.5,5.8,3.5,5.8,6.6c0,3.7-2.9,6.9-9,6.9c-2.5,0-5-0.7-6.3-1.4L152.8,63.6z"/>
	<path style="fill:#FFFFFF;" d="M174.7,50.8h-6v-4.2h17.1v4.2h-6.1v18h-5V50.8z"/>
	<path style="fill:#FFFFFF;" d="M191.3,63.1l-1.6,5.7h-5.2l6.8-22.2h6.6l6.9,22.2h-5.4l-1.7-5.7H191.3z M196.9,59.3l-1.4-4.7
		c-0.4-1.3-0.8-3-1.1-4.3h-0.1c-0.3,1.3-0.7,3-1,4.3l-1.3,4.7H196.9z"/>
	<path style="fill:#FFFFFF;" d="M209.3,50.8h-6v-4.2h17.1v4.2h-6.1v18h-5V50.8z"/>
	<path style="fill:#FFFFFF;" d="M236.3,59.4h-8.2v5.3h9.1v4.1h-14.2V46.5h13.7v4.1h-8.7v4.6h8.2V59.4z"/>
	<path style="fill:#FFFFFF;" d="M250.4,50.8h-6v-4.2h17.1v4.2h-6.1v18h-5V50.8z"/>
	<path style="fill:#FFFFFF;" d="M267,63.1l-1.6,5.7h-5.2l6.8-22.2h6.6l6.9,22.2h-5.4l-1.7-5.7H267z M272.6,59.3l-1.4-4.7
		c-0.4-1.3-0.8-3-1.1-4.3h-0.1c-0.3,1.3-0.7,3-1,4.3l-1.3,4.7H272.6z"/>
	<path style="fill:#FFFFFF;" d="M294.4,68.8l-2-4c-0.8-1.6-1.4-2.7-2-4h-0.1c-0.5,1.3-1,2.4-1.7,4l-1.8,4H281l6.4-11.3l-6.2-11h5.8
		l1.9,4.1c0.7,1.4,1.2,2.4,1.7,3.7h0.1c0.5-1.4,1-2.4,1.5-3.7l1.9-4.1h5.7l-6.3,10.9l6.6,11.4H294.4z"/>
	<path style="fill:#FFFFFF;" d="M61.8,86.4c1.6-0.3,4-0.5,6.7-0.5c3.3,0,5.6,0.5,7.2,1.7c1.3,1.1,2,2.6,2,4.7c0,2.8-2,4.8-3.9,5.5
		V98c1.6,0.6,2.4,2.1,3,4.2c0.7,2.5,1.4,5.4,1.8,6.3h-5.1c-0.4-0.6-0.9-2.4-1.6-5.2c-0.6-2.8-1.6-3.5-3.6-3.6h-1.5v8.7h-5V86.4z
		 M66.8,96h2c2.5,0,4-1.3,4-3.2c0-2-1.4-3.1-3.7-3.1c-1.2,0-1.9,0.1-2.3,0.2V96z"/>
	<path style="fill:#FFFFFF;" d="M94.6,99h-8.2v5.3h9.1v4.1H81.4V86.1h13.7v4.1h-8.7v4.6h8.2V99z"/>
	<path style="fill:#FFFFFF;" d="M103.5,90.4h-6v-4.2h17.1v4.2h-6.1v18h-5V90.4z"/>
	<path style="fill:#FFFFFF;" d="M122.3,86.1v12.8c0,3.8,1.5,5.8,4,5.8c2.6,0,4.1-1.8,4.1-5.8V86.1h5v12.5c0,6.9-3.5,10.1-9.3,10.1
		c-5.6,0-8.9-3.1-8.9-10.2V86.1H122.3z"/>
	<path style="fill:#FFFFFF;" d="M139.8,86.4c1.6-0.3,4-0.5,6.7-0.5c3.3,0,5.6,0.5,7.2,1.7c1.3,1.1,2,2.6,2,4.7c0,2.8-2,4.8-3.9,5.5
		V98c1.6,0.6,2.4,2.1,3,4.2c0.7,2.5,1.4,5.4,1.8,6.3h-5.1c-0.4-0.6-0.9-2.4-1.6-5.2c-0.6-2.8-1.6-3.5-3.6-3.6h-1.5v8.7h-5V86.4z
		 M144.8,96h2c2.5,0,4-1.3,4-3.2c0-2-1.4-3.1-3.7-3.1c-1.2,0-1.9,0.1-2.3,0.2V96z"/>
	<path style="fill:#FFFFFF;" d="M159.4,108.4V86.1h5.9l4.6,8.2c1.3,2.3,2.6,5.1,3.6,7.6h0.1c-0.3-2.9-0.4-5.9-0.4-9.3v-6.5h4.6v22.2
		h-5.3l-4.8-8.6c-1.3-2.4-2.8-5.2-3.9-7.9l-0.1,0c0.1,2.9,0.2,6.1,0.2,9.7v6.7H159.4z"/>
</g>
</svg>
