<?xml version="1.0" encoding="utf-8"?>
<!-- Generator: Adobe Illustrator 17.1.0, SVG Export Plug-In . SVG Version: 6.00 Build 0)  -->
<!DOCTYPE svg PUBLIC "-//W3C//DTD SVG 1.1//EN" "http://www.w3.org/Graphics/SVG/1.1/DTD/svg11.dtd">
<svg version="1.1" id="Слой_1" xmlns="http://www.w3.org/2000/svg" xmlns:xlink="http://www.w3.org/1999/xlink" x="0px" y="0px"
	 width="495.6px" height="152px" viewBox="0 0 495.6 152" style="enable-background:new 0 0 495.6 152;" xml:space="preserve">
<title>09_col_StateTax_icon_192</title>
<polygon style="fill:#132140;" points="495.6,76 451.8,0 74,0 74,152 451.8,152 "/>
<polygon style="fill:#FFFFFF;" points="0,76 43.9,0 131.6,0 175.5,76 131.6,152 43.9,152 "/>
<polygon style="opacity:0.1;enable-background:new    ;" points="173,80.3 122.7,30 73,75.6 87.9,90.6 53.6,122.1 83.6,152 
	131.6,152 "/>
<path style="fill:#F1B555;" d="M118.5,28H57.9c-3,0-6.1,2.1-6.1,5.1V118c0,3,3.2,6,6.1,6h60.6c3,0,5.3-3.1,5.3-6V33.1
	c0-2.8-2.2-5-4.9-5.1C118.7,28,118.6,28,118.5,28z"/>
<path style="fill:#FFFFFF;" d="M57.7,32h59.2c0.5,0,0.9,0.4,0.9,0.9v84.2c0,0.5-0.4,0.9-0.9,0.9H57.7c-0.5,0-0.9-0.4-0.9-0.9V32.9
	C56.8,32.4,57.2,32,57.7,32z"/>
<circle style="fill:#47A8C9;" cx="73.8" cy="40.6" r="3.1"/>
<path style="fill:#313435;" d="M107.5,24H88.7c-0.1,0-0.3,0-0.4,0s-0.3,0-0.5,0H68.9c-1.5,0-3.2,1.2-3.2,2.7v7.2
	c0.2,1.7,1.5,3,3.2,3.1h18.8c0.1,0,0.3,0,0.4,0s0.3,0,0.4,0h18.8c1.5,0,2.3-1.6,2.3-3.1v-7.2C109.8,25.2,109,24,107.5,24z"/>
<path style="fill:#E4E4E4;" d="M73.9,31h-0.2c-1.2,0.1-2.1,1.2-2,2.4v7.3c-0.1,1.2,0.8,2.2,2,2.3h0.1c1.2,0,1.9-1.1,1.9-2.3v-7.3
	C75.8,32.2,75.1,31,73.9,31z"/>
<circle style="fill:#47A8C9;" cx="102.6" cy="40.6" r="3.1"/>
<path style="fill:#E4E4E4;" d="M102.5,31L102.5,31c1.3,0.1,2.3,1.1,2.2,2.4v7.3c0,1.2-0.9,2.3-2.1,2.3h-0.1c-1.2,0-1.8-1.1-1.8-2.3
	v-7.3C100.8,32.2,101.3,31,102.5,31z"/>
<rect x="65.8" y="51" style="fill:#454B4C;" width="7" height="7"/>
<rect x="76.8" y="51" style="fill:#454B4C;" width="33" height="3"/>
<rect x="76.8" y="55" style="fill:#454B4C;" width="33" height="3"/>
<rect x="76.8" y="64" style="fill:#454B4C;" width="33" height="3"/>
<rect x="76.8" y="69" style="fill:#454B4C;" width="33" height="3"/>
<rect x="65.8" y="78" style="fill:#454B4C;" width="7" height="7"/>
<rect x="76.8" y="78" style="fill:#454B4C;" width="33" height="3"/>
<rect x="76.8" y="82" style="fill:#454B4C;" width="33" height="3"/>
<rect x="65.8" y="92" style="fill:#454B4C;" width="7" height="7"/>
<rect x="76.8" y="92" style="fill:#454B4C;" width="33" height="3"/>
<rect x="76.8" y="97" style="fill:#454B4C;" width="33" height="2"/>
<path style="fill:#E84140;" d="M69.4,68.9c0.3,0.4,0.3,0.9,0,1.3l0,0c-0.4,0.3-0.9,0.3-1.3,0L64.9,67c-0.3-0.4-0.3-0.9,0-1.3l0,0
	c0.4-0.3,0.9-0.3,1.3,0L69.4,68.9z"/>
<path style="fill:#E84140;" d="M68,69l4.6-4.6c0.3-0.3,0.8-0.3,1.1,0l0.1,0.1c0.3,0.3,0.3,0.8,0,1.1l-4.6,4.6
	c-0.3,0.3-0.8,0.3-1.1,0L68,70.1C67.7,69.8,67.7,69.3,68,69z"/>
<polygon style="fill:#E1A94F;" points="117.8,103 117.8,118 102.1,118 "/>
<path style="fill:#CBD5D5;" d="M104.2,103c-1,0.7-1.9,1.6-2.5,2.7l0.4,12.3l15.6-15H104.2z"/>
<path style="fill:#CBD5D5;" d="M102.6,106.9l1,0.3c0.8,0.1,1.6-0.5,1.7-1.3c0-0.1,0-0.1,0-0.2l0.6-1.9c0-1-1.4-0.8-2.4-0.8l0,0
	c-1,0-1.8,0.8-1.8,1.8l0,0C101.8,105.7,101.6,106.9,102.6,106.9z"/>
<g>
	<path style="fill:#FFFFFF;" d="M196.1,67v-9.6l-7.4-13.8h6l2.4,5.6c0.7,1.7,1.2,2.9,1.8,4.5h0.1c0.5-1.5,1.1-2.8,1.8-4.5l2.4-5.6
		h5.9l-7.7,13.6V67H196.1z"/>
	<path style="fill:#FFFFFF;" d="M231.4,55.1c0,7.7-4.6,12.3-11.5,12.3c-6.9,0-11-5.2-11-11.9c0-7,4.5-12.2,11.4-12.2
		C227.5,43.2,231.4,48.6,231.4,55.1z M214.5,55.4c0,4.6,2.2,7.8,5.7,7.8c3.6,0,5.6-3.4,5.6-7.9c0-4.2-2-7.8-5.7-7.8
		C216.6,47.4,214.5,50.8,214.5,55.4z"/>
	<path style="fill:#FFFFFF;" d="M240.1,43.6v13.5c0,4,1.5,6.1,4.2,6.1c2.8,0,4.3-1.9,4.3-6.1V43.6h5.3v13.1c0,7.2-3.6,10.7-9.8,10.7
		c-5.9,0-9.4-3.3-9.4-10.7v-13H240.1z"/>
	<path style="fill:#FFFFFF;" d="M258.5,43.9c1.7-0.3,4.2-0.5,7-0.5c3.5,0,5.9,0.5,7.6,1.8c1.4,1.1,2.2,2.7,2.2,4.9
		c0,3-2.1,5-4.1,5.8V56c1.6,0.7,2.5,2.2,3.1,4.4c0.7,2.6,1.5,5.7,1.9,6.6h-5.4c-0.4-0.7-0.9-2.6-1.6-5.4c-0.6-2.9-1.6-3.7-3.8-3.7
		h-1.6V67h-5.2V43.9z M263.8,54h2.1c2.6,0,4.2-1.3,4.2-3.4c0-2.2-1.5-3.2-3.9-3.3c-1.3,0-2,0.1-2.4,0.2V54z"/>
	<path style="fill:#FFFFFF;" d="M286.1,43.6h14.3V48h-9v5.3h8.4v4.3h-8.4V67h-5.3V43.6z"/>
	<path style="fill:#FFFFFF;" d="M325.8,55.1c0,7.7-4.6,12.3-11.5,12.3c-6.9,0-11-5.2-11-11.9c0-7,4.5-12.2,11.4-12.2
		C321.9,43.2,325.8,48.6,325.8,55.1z M308.9,55.4c0,4.6,2.2,7.8,5.7,7.8c3.6,0,5.6-3.4,5.6-7.9c0-4.2-2-7.8-5.7-7.8
		C311,47.4,308.9,50.8,308.9,55.4z"/>
	<path style="fill:#FFFFFF;" d="M329.3,43.9c1.7-0.3,4.2-0.5,7-0.5c3.5,0,5.9,0.5,7.6,1.8c1.4,1.1,2.2,2.7,2.2,4.9
		c0,3-2.1,5-4.1,5.8V56c1.6,0.7,2.5,2.2,3.1,4.4c0.7,2.6,1.5,5.7,1.9,6.6h-5.4c-0.4-0.7-0.9-2.6-1.6-5.4c-0.6-2.9-1.6-3.7-3.8-3.7
		h-1.6V67h-5.2V43.9z M334.5,54h2.1c2.6,0,4.2-1.3,4.2-3.4c0-2.2-1.5-3.2-3.9-3.3c-1.3,0-2,0.1-2.4,0.2V54z"/>
	<path style="fill:#FFFFFF;" d="M369.6,58c-0.1-2.8-0.2-6.2-0.2-9.6h-0.1c-0.7,3-1.7,6.3-2.6,9.1l-2.8,9.1h-4.1l-2.5-9.1
		c-0.8-2.7-1.6-6.1-2.1-9.1H355c-0.1,3.2-0.2,6.8-0.4,9.7l-0.4,8.9h-4.9l1.5-23.4h7l2.3,7.8c0.7,2.7,1.5,5.6,2,8.4h0.1
		c0.7-2.7,1.5-5.8,2.2-8.4l2.5-7.8h6.9l1.3,23.4H370L369.6,58z"/>
	<path style="fill:#FFFFFF;" d="M189.5,102.7c0-2.7,1.6-4.6,4-5.7V97c-2.2-1.1-3.3-2.9-3.3-4.9c0-3.8,3.4-6.3,7.9-6.3
		c5.3,0,7.5,3.1,7.5,5.8c0,1.9-1,3.9-3.3,5v0.1c2.2,0.8,4.1,2.7,4.1,5.6c0,4.1-3.4,6.8-8.7,6.8C192.1,109,189.5,105.8,189.5,102.7z
		 M201.2,102.6c0-2-1.5-3.2-3.5-3.7c-1.7,0.5-2.7,1.7-2.7,3.4c0,1.6,1.2,3.2,3.2,3.2C199.9,105.4,201.2,104.2,201.2,102.6z
		 M195.2,91.9c0,1.5,1.4,2.5,3.2,3.1c1.2-0.3,2.3-1.5,2.3-2.9c0-1.4-0.8-2.8-2.7-2.8C196.2,89.3,195.2,90.5,195.2,91.9z"/>
	<path style="fill:#FFFFFF;" d="M208.8,102.7c0-2.7,1.6-4.6,4-5.7V97c-2.2-1.1-3.3-2.9-3.3-4.9c0-3.8,3.4-6.3,7.9-6.3
		c5.3,0,7.5,3.1,7.5,5.8c0,1.9-1,3.9-3.3,5v0.1c2.2,0.8,4.1,2.7,4.1,5.6c0,4.1-3.4,6.8-8.7,6.8C211.4,109,208.8,105.8,208.8,102.7z
		 M220.4,102.6c0-2-1.5-3.2-3.5-3.7c-1.7,0.5-2.7,1.7-2.7,3.4c0,1.6,1.2,3.2,3.2,3.2C219.2,105.4,220.4,104.2,220.4,102.6z
		 M214.5,91.9c0,1.5,1.4,2.5,3.2,3.1c1.2-0.3,2.3-1.5,2.3-2.9c0-1.4-0.8-2.8-2.7-2.8C215.4,89.3,214.5,90.5,214.5,91.9z"/>
	<path style="fill:#FFFFFF;" d="M237.7,108.6v-5.4h-10v-3.4l8.5-13.7h6.5v13.2h2.7v4h-2.7v5.4H237.7z M237.7,99.3v-5
		c0-1.4,0.1-2.7,0.2-4.2h-0.1c-0.7,1.5-1.3,2.8-2.1,4.2l-3,4.9v0.1H237.7z"/>
	<path style="fill:#FFFFFF;" d="M248.6,103.5c0.9,0.5,3.1,1.4,5.2,1.4c2.7,0,4.1-1.3,4.1-3c0-2.2-2.2-3.2-4.5-3.2h-2.2v-3.8h2
		c1.8,0,4-0.7,4-2.6c0-1.4-1.1-2.4-3.3-2.4c-1.8,0-3.8,0.8-4.7,1.4l-1.1-3.8c1.4-0.9,4.1-1.7,7-1.7c4.8,0,7.5,2.5,7.5,5.6
		c0,2.4-1.4,4.3-4.1,5.2v0.1c2.7,0.5,4.9,2.5,4.9,5.5c0,4-3.5,6.9-9.2,6.9c-2.9,0-5.4-0.8-6.7-1.6L248.6,103.5z"/>
</g>
</svg>
