<svg xmlns="http://www.w3.org/2000/svg" width="176" height="176" viewBox="0 0 176 176"><title>01_US flag_icon_192</title><circle cx="88" cy="88" r="88" fill="#FFF"/><path fill="#0D47A1" d="M88.3 0H88c-3.9 0-7.9.3-11.8.8v3.6h-7.9V2.2C56.6 4.9 45.6 9.9 35.9 17.1v3H32c-3.1 2.6-6 5.3-8.7 8.3h4.9v8h-7.9v-4.5C9.7 44.5 2.9 60 .8 76.5H4v7.7H.1C0 85.4 0 86.7 0 88v.3h88.3V0zM12 68.2H4.4v-7.7H12v7.7zm8 15.9h-7.5v-7.5H20v7.5zm0-32h-7.5v-7.5H20v7.5zm8.2 16.2h-7.9v-8h7.9v8zM35.9 84h-7.3v-7.3h7.3V84zm0-32h-7.3v-7.3h7.3V52zm8.3 16.3h-7.9v-8h7.9v8zm0-32h-7.9v-8h7.9v8zM52 84.1h-7.5v-7.5H52v7.5zm0-32h-7.5v-7.5H52v7.5zm0-31.9h-7.5v-7.5H52v7.5zm8.2 48.1h-7.9v-8h7.9v8zm0-32h-7.9v-8h7.9v8zM68 84.1h-7.4v-7.5H68v7.5zm0-32h-7.4v-7.5H68v7.5zm0-32h-7.4v-7.5H68v7.5zm8.2 48.2h-7.9v-8h7.9v8zm0-32h-7.9v-8h7.9v8zM84 84h-7.3v-7.3H84V84zm0-32h-7.3v-7.3H84V52zm0-31.9h-7.3v-7.4H84v7.4z"/><path fill="#C43030" d="M88 24.3h60.8c-6.9-6.6-14.7-12-23.3-16H88v16zM88 56.3h82.1c-2.2-5.6-4.9-11-8.1-16H88v16zM88 88.3h88V88c0-5.3-.5-10.5-1.4-15.7H88v16zM6.1 120.3h163.7c2-5.2 3.6-10.5 4.6-16H1.5c1 5.5 2.6 10.9 4.6 16zM28 152.3h120c5.1-4.8 9.7-10.2 13.5-16h-147c3.8 5.9 8.4 11.3 13.5 16zM88 176c12.4 0 24.7-2.6 36-7.7H52c11.3 5.1 23.6 7.7 36 7.7z"/></svg>