<?xml version="1.0" encoding="utf-8"?>
<!-- Generator: Adobe Illustrator 17.1.0, SVG Export Plug-In . SVG Version: 6.00 Build 0)  -->
<!DOCTYPE svg PUBLIC "-//W3C//DTD SVG 1.1//EN" "http://www.w3.org/Graphics/SVG/1.1/DTD/svg11.dtd">
<svg version="1.1" id="Слой_1" xmlns="http://www.w3.org/2000/svg" xmlns:xlink="http://www.w3.org/1999/xlink" x="0px" y="0px"
	 width="176px" height="152px" viewBox="0 0 176 152" style="enable-background:new 0 0 176 152;" xml:space="preserve">
<title>12_blu_Value_icon_192</title>
<polygon style="fill:#1B2E5A;" points="136.8,0 117.7,0 58.3,0 39.2,0 0,76 39.2,152 58.3,152 117.7,152 136.8,152 176,76 "/>
<path style="fill:#FFFFFF;" d="M100,32H76c0,8.8-7.2,16-16,16v68.9c0,0.8,0.3,1.6,0.8,2.2c0.5,0.6,1.3,0.9,2.1,0.9h50.2
	c0.8,0,1.5-0.3,2.1-0.9c0.6-0.6,0.9-1.4,0.8-2.2V48C107.2,48,100,40.8,100,32z M88,49.4c-1.9,0-3.4-1.5-3.5-3.3
	c0-1.9,1.5-3.4,3.3-3.5c1.9,0,3.4,1.5,3.5,3.3c0,0,0,0,0,0.1C91.4,47.9,89.9,49.4,88,49.4L88,49.4z"/>
<circle style="fill:#EB1751;" cx="88" cy="80" r="20"/>
<rect x="76" y="78.5" transform="matrix(-0.7071 0.7071 -0.7071 -0.7071 206.7978 74.3384)" style="fill:#FFFFFF;" width="24.1" height="3"/>
<path style="fill:#FFFFFF;" d="M93.3,90c-2.6,0-4.7-2.1-4.7-4.7c0-2.6,2.1-4.7,4.7-4.7c2.6,0,4.7,2.1,4.7,4.7
	C98,87.9,95.9,90,93.3,90z M93.3,83.6c-1,0-1.7,0.8-1.7,1.7s0.8,1.7,1.7,1.7s1.7-0.8,1.7-1.7C95,84.4,94.3,83.6,93.3,83.6
	C93.3,83.6,93.3,83.6,93.3,83.6L93.3,83.6z"/>
<path style="fill:#FFFFFF;" d="M82.7,79.4c-2.6,0-4.7-2.1-4.7-4.7c0-2.6,2.1-4.7,4.7-4.7c2.6,0,4.7,2.1,4.7,4.7
	C87.4,77.3,85.3,79.4,82.7,79.4z M82.7,73c-1,0-1.7,0.8-1.7,1.7s0.8,1.7,1.7,1.7s1.7-0.8,1.7-1.7C84.4,73.8,83.6,73,82.7,73L82.7,73
	z"/>
<path style="fill:#CCCBCA;" d="M88,40c-3.3,0-6,2.7-6,6c0,3.3,2.7,6,6,6s6-2.7,6-6C94,42.7,91.3,40,88,40z M88,48c-1.1,0-2-0.9-2-2
	s0.9-2,2-2s2,0.9,2,2S89.1,48,88,48z"/>
</svg>
