<?xml version="1.0" encoding="utf-8"?>
<!-- Generator: Adobe Illustrator 19.2.1, SVG Export Plug-In . SVG Version: 6.00 Build 0)  -->
<svg version="1.1" id="Layer_1" xmlns="http://www.w3.org/2000/svg" xmlns:xlink="http://www.w3.org/1999/xlink" x="0px" y="0px"
	 viewBox="0 0 140 140" style="enable-background:new 0 0 140 140;" xml:space="preserve">
<g>
	<g>
		<path d="M81.4,93.1L77,87c-0.6-0.9-1.5-1.3-2.4-1.3c-1.6,0-3.1,1.2-3.1,3.1v17.4c0,1.7,1.4,3.1,3,3.1c0.1,0,0.3,0,0.4,0
			c4-0.5,7.6-1.7,11.2-3.6c1.6-0.9,2.1-3,1-4.5L81.4,93.1z M76.4,104.1v-9.7l1.2,1.6l4.5,6.3C80.2,103.1,78.3,103.7,76.4,104.1z
			 M104.3,69.2c-1.2-7.5-4.7-14.3-10-19.5c-0.6-0.6-1.4-0.9-2.1-0.9c-0.9,0-1.9,0.4-2.5,1.3L73.2,72.9c-0.8,1.1-0.8,2.5,0,3.6
			l16.5,22.8c0.6,0.8,1.5,1.3,2.5,1.3c0.8,0,1.5-0.3,2.1-0.9c1.4-1.3,2.6-2.8,3.8-4.5C103.6,87.6,105.8,78.4,104.3,69.2z M94.2,92.3
			c-0.6,0.9-1.2,1.6-1.9,2.3l-14.5-20l14.5-20c3.8,4.3,6.3,9.5,7.2,15.3C100.8,77.9,98.9,85.8,94.2,92.3z M86.2,43.8
			c-5-2.7-10.2-4-16.2-4c-19.2,0-34.7,15.7-34.7,34.9c0,17.5,12.9,32.1,29.7,34.5c1.8,0.3,3.5-1.1,3.5-3v-31c0-0.6,0.2-1.3,0.6-1.8
			l18.2-25.1C88.3,46.7,87.8,44.6,86.2,43.8z"/>
	</g>
</g>
</svg>
