<?xml version="1.0" encoding="utf-8"?>
<!-- Generator: Adobe Illustrator 19.2.1, SVG Export Plug-In . SVG Version: 6.00 Build 0)  -->
<svg version="1.1" id="Layer_1" xmlns="http://www.w3.org/2000/svg" xmlns:xlink="http://www.w3.org/1999/xlink" x="0px" y="0px"
	 viewBox="0 0 140 140" style="enable-background:new 0 0 140 140;" xml:space="preserve">
<g>
	<g>
		<path d="M91.2,67.4h-1.6V51.8c0-1.3-1-2.3-2.3-2.3H85v-6.4c0-1.3-1-2.3-2.3-2.3h-8.3V27.3c0-1.3-1-2.3-2.3-2.3
			c-1.3,0-2.3,1-2.3,2.3v13.5h-8.3c-1.3,0-2.3,1-2.3,2.3v6.4h-2.3c-1.3,0-2.3,1-2.3,2.3v15.6h-1.6c-1.3,0-2.3,1-2.3,2.3v43
			c0,1.3,1,2.3,2.3,2.3c1.3,0,2.3-1,2.3-2.3V72h1.6c1.3,0,2.3-1,2.3-2.3V54.1h2.3c1.3,0,2.3-1,2.3-2.3v-6.4h16.6v6.4
			c0,1.3,1,2.3,2.3,2.3h2.3v15.6c0,1.3,1,2.3,2.3,2.3h1.6v40.7c0,1.3,1,2.3,2.3,2.3c1.3,0,2.3-1,2.3-2.3v-43
			C93.5,68.4,92.5,67.4,91.2,67.4z M72.2,70.9c-1.3,0-2.3,1-2.3,2.3v39.5c0,1.3,1,2.3,2.3,2.3c1.3,0,2.3-1,2.3-2.3V73.2
			C74.5,71.9,73.5,70.9,72.2,70.9z M82.1,70.9c-1.3,0-2.3,1-2.3,2.3v39.5c0,1.3,1,2.3,2.3,2.3c1.3,0,2.3-1,2.3-2.3V73.2
			C84.4,71.9,83.3,70.9,82.1,70.9z M62.3,70.9c-1.3,0-2.3,1-2.3,2.3v39.5c0,1.3,1,2.3,2.3,2.3c1.3,0,2.3-1,2.3-2.3V73.2
			C64.6,71.9,63.6,70.9,62.3,70.9z M67.1,54.7c-1.3,0-2.3,1-2.3,2.3v10.1c0,1.3,1,2.3,2.3,2.3c1.3,0,2.3-1,2.3-2.3V57
			C69.4,55.8,68.3,54.7,67.1,54.7z M76.9,54.7c-1.3,0-2.3,1-2.3,2.3v10.1c0,1.3,1,2.3,2.3,2.3c1.3,0,2.3-1,2.3-2.3V57
			C79.3,55.8,78.2,54.7,76.9,54.7z"/>
	</g>
</g>
</svg>
