<?xml version="1.0" encoding="utf-8"?>
<!-- Generator: Adobe Illustrator 19.2.1, SVG Export Plug-In . SVG Version: 6.00 Build 0)  -->
<svg version="1.1" id="Layer_1" xmlns="http://www.w3.org/2000/svg" xmlns:xlink="http://www.w3.org/1999/xlink" x="0px" y="0px"
	 viewBox="0 0 140 140" style="enable-background:new 0 0 140 140;" xml:space="preserve">
<g>
	<g>
		<path d="M69.5,33c-19.9,0-36,16.1-36,36c0,19.9,16.1,36,36,36c19.9,0,36-16.1,36-36C105.5,49.1,89.4,33,69.5,33z M72,99.9v-2.6
			c0-1.4-1.1-2.5-2.5-2.5c-1.4,0-2.5,1.1-2.5,2.5v2.6c-15.1-1.2-27.2-13.3-28.4-28.4h2.6c1.4,0,2.5-1.1,2.5-2.5
			c0-1.4-1.1-2.5-2.5-2.5h-2.6C39.8,51.4,51.9,39.3,67,38.1v2.6c0,1.4,1.1,2.5,2.5,2.5c1.4,0,2.5-1.1,2.5-2.5v-2.6
			c15.1,1.2,27.2,13.3,28.4,28.4h-2.6c-1.4,0-2.5,1.1-2.5,2.5c0,1.4,1.1,2.5,2.5,2.5h2.6C99.2,86.6,87.1,98.7,72,99.9z M71.2,49.9
			c-0.5-1.8-2.9-1.8-3.4,0l-5.3,18.6c-0.1,0.4-0.1,0.7,0,1.1l5.3,18.6c0.5,1.8,2.9,1.8,3.4,0l5.3-18.6c0.1-0.4,0.1-0.7,0-1.1
			L71.2,49.9z M69.5,71.5c-1.4,0-2.5-1.1-2.5-2.5s1.1-2.5,2.5-2.5c1.4,0,2.5,1.1,2.5,2.5S70.9,71.5,69.5,71.5z"/>
	</g>
</g>
</svg>
