<?xml version="1.0" encoding="utf-8"?>
<!-- Generator: Adobe Illustrator 19.2.1, SVG Export Plug-In . SVG Version: 6.00 Build 0)  -->
<svg version="1.1" id="Layer_1" xmlns="http://www.w3.org/2000/svg" xmlns:xlink="http://www.w3.org/1999/xlink" x="0px" y="0px"
	 viewBox="0 0 140 140" style="enable-background:new 0 0 140 140;" xml:space="preserve">
<path d="M106,75.2l-10.1-5.3c1-1.2,1.7-2.7,2.2-4.2c1.8-1,2.9-2.9,2.9-5.1V57c0-1.4-0.5-2.6-1.3-3.6c-0.2-7.4-6.3-13.5-13.8-13.7
	c-0.4-0.1-1-0.1-1.6-0.1h0c-2.7,0-5.2,0.9-7,2.6c-2.3,0.8-4.1,2.7-5,5.3c-0.7,2-0.9,4.3-0.9,5.9c-0.8,1-1.3,2.3-1.3,3.6v3.6
	c0,2.2,1.2,4.1,2.9,5.1c0.5,1.5,1.2,2.9,2.2,4.2L70,72.7l-5.4-2.8c1-1.2,1.7-2.7,2.2-4.2c1.8-1,2.9-2.9,2.9-5.1V57
	c0-1.4-0.5-2.6-1.3-3.6c-0.2-7.4-6.3-13.5-13.8-13.7c-0.4-0.1-1-0.1-1.6-0.1h0c-2.7,0-5.2,0.9-7,2.6c-2.3,0.8-4.1,2.7-5,5.3
	c-0.7,2-0.9,4.3-0.9,5.9c-0.8,1-1.3,2.3-1.3,3.6v3.6c0,2.2,1.2,4.1,2.9,5.1c0.5,1.5,1.2,2.9,2.2,4.2L34,75.2
	c-5,2.7-8.2,7.9-8.2,13.6v4.1c0,4,2.9,7.6,6.9,8.4c7.1,1.5,14.4,2.2,21.7,2.2c5.2,0,10.5-0.4,15.7-1.1c5.2,0.8,10.4,1.1,15.7,1.1
	c7.3,0,14.6-0.7,21.7-2.2c4-0.8,6.9-4.3,6.9-8.4v-4.1C114.2,83.1,111,77.9,106,75.2z M110,92.8c0,2.1-1.5,3.9-3.5,4.3
	c-6.9,1.4-13.8,2.1-20.8,2.1c-7,0-14-0.7-20.8-2.1h0c-2-0.4-3.5-2.2-3.5-4.3v-4.1c0-4.1,2.3-7.9,6-9.9l12.3-6.5v-4.1
	c-1.5-1.4-2.5-3.3-2.8-5.4l-0.1-0.7c-0.2,0.1-0.4,0.1-0.6,0.1c-0.9,0-1.7-0.8-1.7-1.7V57c0-0.8,0.6-1.5,1.5-1.7l-0.2-1.5
	c0-3.2,0.4-7.3,3.9-7.9c1.5-1.8,3.6-2.2,4.9-2.2c0.7,0,1.2,0.1,1.2,0.1c5.5,0,10,4.5,10,10l-0.2,1.5c0.8,0.1,1.5,0.8,1.5,1.7v3.6
	c0,0.9-0.8,1.7-1.7,1.7c-0.2,0-0.4,0-0.6-0.1l-0.1,0.7c-0.3,2.1-1.3,4-2.8,5.4v4.1l12.3,6.5c3.7,1.9,6,5.7,6,9.9V92.8z M30,92.8
	v-4.1c0-4.1,2.3-7.9,6-9.9l12.3-6.5v-4.1c-1.5-1.4-2.5-3.3-2.8-5.4l-0.1-0.7c-0.2,0.1-0.4,0.1-0.6,0.1c-0.9,0-1.7-0.8-1.7-1.7V57
	c0-0.8,0.6-1.5,1.5-1.7l-0.2-1.5c0-3.2,0.4-7.3,3.9-7.9c1.5-1.8,3.6-2.2,4.9-2.2c0.7,0,1.2,0.1,1.2,0.1c5.5,0,10,4.5,10,10l-0.2,1.5
	c0.8,0.1,1.5,0.8,1.5,1.7v3.6c0,0.9-0.8,1.7-1.7,1.7c-0.2,0-0.4,0-0.6-0.1l-0.1,0.7c-0.3,2.1-1.3,4-2.8,5.4v4.1l5.1,2.7l-0.2,0.1
	c-5,2.7-8.2,7.9-8.2,13.6v4.1c0,2.4,1,4.7,2.7,6.2c-1.8,0.1-3.7,0.2-5.5,0.2c-7,0-14-0.7-20.8-2.1C31.5,96.7,30,94.9,30,92.8z"/>
</svg>
