<?xml version="1.0" encoding="utf-8"?>
<!-- Generator: Adobe Illustrator 19.2.1, SVG Export Plug-In . SVG Version: 6.00 Build 0)  -->
<svg version="1.1" id="Layer_1" xmlns="http://www.w3.org/2000/svg" xmlns:xlink="http://www.w3.org/1999/xlink" x="0px" y="0px"
	 viewBox="0 0 140 140" style="enable-background:new 0 0 140 140;" xml:space="preserve">
<g>
	<g>
		<path d="M112.9,66.9c-2.5-1-5.4,0.3-6.4,2.8l-14,35.2H45.3l-14-35.2c-1-2.6-3.9-3.8-6.4-2.8c-2.5,1-3.7,3.9-2.7,6.5l15.2,38.4
			c0.8,1.9,2.6,3.2,4.6,3.2h53.8c2,0,3.8-1.3,4.6-3.2l15.2-38.3C116.7,70.9,115.4,67.9,112.9,66.9z M25.5,56.4c0-2.8-2.2-5-4.9-5
			h-0.1c-2.7,0-4.9,2.2-4.9,5c0,2.8,2.2,5,4.9,5h0.1C23.3,61.4,25.5,59.2,25.5,56.4z M117.9,51.4h-0.1c-2.7,0-4.9,2.2-4.9,5
			c0,2.8,2.2,5,4.9,5h0.1c2.7,0,4.9-2.2,4.9-5C122.8,53.7,120.6,51.4,117.9,51.4z M94.1,54.3h0.1c2.7,0,4.9-2.2,4.9-5
			c0-2.8-2.2-5-4.9-5h-0.1c-2.7,0-4.9,2.2-4.9,5C89.1,52.1,91.3,54.3,94.1,54.3z M68.8,32.7h0.1c2.7,0,4.9-2.2,4.9-5
			c0-2.8-2.2-5-4.9-5h-0.1c-2.7,0-4.9,2.2-4.9,5C63.9,30.5,66.1,32.7,68.8,32.7z M42,54.3h0.1c2.7,0,4.9-2.2,4.9-5
			c0-2.8-2.2-5-4.9-5H42c-2.7,0-4.9,2.2-4.9,5C37.1,52.1,39.3,54.3,42,54.3z M43.9,67.6l7.4,20.3c0.7,2,2.6,3.3,4.6,3.3h26
			c2.1,0,3.9-1.3,4.6-3.3l7.4-20.2c0.9-2.6-0.4-5.5-2.9-6.4c-2.6-1-5.4,0.4-6.3,3l-6.2,17H74V42.1c0-2.8-2.2-5-4.9-5
			c-2.7,0-4.9,2.2-4.9,5v39.1h-4.8l-6.2-17c-0.9-2.6-3.8-3.9-6.3-3C44.3,62.1,43,65,43.9,67.6z"/>
	</g>
</g>
</svg>
