<svg xmlns="http://www.w3.org/2000/svg" viewBox="0 0 176 176"><title>03_skype_icon_192</title><path d="M172.13,96.2A78,78,0,0,0,81.79,18.74,44.69,44.69,0,0,0,17,79.59,78.41,78.41,0,0,0,109.9,173a44.7,44.7,0,0,0,61.25-65A78.2,78.2,0,0,0,172.13,96.2Zm-41.85,34.17q-4.62,6.59-13.57,10.31t-21.16,3.74q-14.69,0-24.23-5.1a31.2,31.2,0,0,1-11-9.8q-4.22-6.11-4.23-11.9a7.61,7.61,0,0,1,2.53-5.75,9.05,9.05,0,0,1,6.47-2.4,8,8,0,0,1,5.38,1.87,14.48,14.48,0,0,1,3.75,5.52,36.09,36.09,0,0,0,4.09,7.27A16.19,16.19,0,0,0,84.51,129,24.6,24.6,0,0,0,95,130.87q8.94,0,14.51-3.82t5.59-9.55a9.62,9.62,0,0,0-3-7.36,19.76,19.76,0,0,0-7.79-4.33c-3.18-1-7.41-2.05-12.75-3.17a100.43,100.43,0,0,1-17.88-5.37,28.61,28.61,0,0,1-11.43-8.4A20.58,20.58,0,0,1,58,75.65a21.37,21.37,0,0,1,4.47-13.37c3-3.89,7.27-6.9,12.92-9a57,57,0,0,1,19.88-3.14,53.29,53.29,0,0,1,15.79,2.07,34.32,34.32,0,0,1,11.06,5.53A23.92,23.92,0,0,1,128.55,65a15.62,15.62,0,0,1,2,7.39A8.82,8.82,0,0,1,121.72,81a7.7,7.7,0,0,1-5.24-1.59,21.32,21.32,0,0,1-3.89-5.19,23.71,23.71,0,0,0-6.5-8.06q-3.79-2.88-12.18-2.89-7.77,0-12.54,3.14C78.18,68.5,76.6,71,76.6,74a7.22,7.22,0,0,0,1.62,4.73,13.27,13.27,0,0,0,4.47,3.42,32.38,32.38,0,0,0,5.75,2.26c1.93,0.53,5.13,1.32,9.6,2.35q8.38,1.8,15.18,4A48.22,48.22,0,0,1,124.79,96a22.37,22.37,0,0,1,7.44,7.87,23.47,23.47,0,0,1,2.68,11.67A25.28,25.28,0,0,1,130.28,130.38Z" transform="translate(-8 -8)"/></svg>