<?xml version="1.0" encoding="utf-8"?>
<!-- Generator: Adobe Illustrator 19.2.1, SVG Export Plug-In . SVG Version: 6.00 Build 0)  -->
<svg version="1.1" id="Layer_1" xmlns="http://www.w3.org/2000/svg" xmlns:xlink="http://www.w3.org/1999/xlink" x="0px" y="0px"
	 viewBox="0 0 140 140" style="enable-background:new 0 0 140 140;" xml:space="preserve">
<path d="M135.4,61.4c-2.6,0-4.6,2-4.6,4.5c0,11.5-7.4,21.3-17.9,25.2c-0.1-0.2-0.2-0.5-0.3-0.7L84.1,42.1c-0.8-1.4-2.4-2.2-4-2.2
	c0,0,0,0,0,0c-1.7,0-3.2,0.8-4,2.2l-5.8,9.7l-5.8-9.7c-0.8-1.4-2.4-2.2-4-2.2c0,0,0,0,0,0c-1.7,0-3.2,0.9-4,2.3L27.9,90.5
	c-0.1,0.2-0.2,0.5-0.3,0.7C17.2,87.3,9.8,77.4,9.8,65.9c0-2.5-2.1-4.5-4.6-4.5c-2.6,0-4.6,2.1-4.6,4.6c0,19.9,16.7,36.1,37.2,36.1
	h65.1c20.5,0,37.2-16.2,37.2-36.1C140,63.5,137.9,61.4,135.4,61.4z M37.7,93.1c-0.2,0-0.4-0.1-0.6-0.1l23.3-39.7l5.8,9.7
	c0.8,1.4,2.4,2.3,4,2.3c0,0,0,0,0,0c1.7,0,3.2-0.9,4-2.3l5.8-9.8l23.3,39.8c-0.2,0-0.4,0.1-0.6,0.1H37.7z"/>
</svg>
