<?xml version="1.0" encoding="utf-8"?>
<!-- Generator: Adobe Illustrator 19.2.1, SVG Export Plug-In . SVG Version: 6.00 Build 0)  -->
<svg version="1.1" id="Layer_1" xmlns="http://www.w3.org/2000/svg" xmlns:xlink="http://www.w3.org/1999/xlink" x="0px" y="0px"
	 viewBox="0 0 140 140" style="enable-background:new 0 0 140 140;" xml:space="preserve">
<path d="M49.4,115.7l51.9-69.4c0.1-0.1,0.2-0.3,0.3-0.4c4.4,2.6,10.1,2.1,14.1-1.4c5-4.5,5.3-12.2,0.9-17.2
	c-4.5-5-12.2-5.5-17.1-1.1c-4,3.6-5,9.2-3,13.9c-0.2,0.1-0.3,0.1-0.5,0.2l-74.5,44c-1,0.6-1.7,1.7-1.9,2.9c-0.2,1.2,0.2,2.4,1,3.3
	L43.2,116c0.8,0.9,2,1.4,3.2,1.4C47.6,117.3,48.7,116.7,49.4,115.7z M60.8,70.6c0.7,1.5,1.6,2.8,2.6,3.9c1.3,1.5,2.8,2.6,4.1,3.4
	l-7.6,10.1c-2.8-1.2-8.3-4.2-10-11L60.8,70.6z M67.8,66.5l14.8-8.7L72.3,71.5C70.8,70.7,68.7,69.2,67.8,66.5z M104.8,32.4
	c1.7-1.5,4.2-1.3,5.7,0.3c1.5,1.7,1.4,4.2-0.3,5.7c-1.7,1.5-4.2,1.3-5.7-0.3C103,36.4,103.2,33.8,104.8,32.4z M29.8,88.9l13-7.7
	c1,2.8,2.5,5.4,4.5,7.6c1.2,1.4,2.6,2.6,4.2,3.7c1.2,0.9,2.4,1.6,3.5,2.1l-9.1,12.2L29.8,88.9z"/>
</svg>
