<?xml version="1.0" encoding="utf-8"?>
<!-- Generator: Adobe Illustrator 19.2.1, SVG Export Plug-In . SVG Version: 6.00 Build 0)  -->
<svg version="1.1" id="Layer_1" xmlns="http://www.w3.org/2000/svg" xmlns:xlink="http://www.w3.org/1999/xlink" x="0px" y="0px"
	 viewBox="0 0 140 140" style="enable-background:new 0 0 140 140;" xml:space="preserve">
<g>
	<g>
		<path d="M105.3,61.5L93.9,41.5C93,40,91.3,39,89.5,39c-1.8,0-3.5,1-4.4,2.5l-7,12.1h4.4l5.8-10.2c0.2-0.4,0.6-0.6,1-0.6
			c0.4,0,0.8,0.2,1,0.6L102,63.4c0.5,0.8-0.1,1.8-1,1.8h-3.5c-0.7,0-1.2,0.5-1.2,1.2v28c0,0.7-0.5,1.2-1.2,1.2H83.9
			c-0.7,0-1.2-0.5-1.2-1.2v-9.6h-3.8v9.6c0,2.8,2.3,5.1,5,5.1h11.1c2.8,0,5-2.3,5-5.1V69h0.9c1.8,0,3.5-1,4.4-2.5
			C106.2,65,106.2,63,105.3,61.5z M50.5,95c-0.2,0.4-0.6,0.6-1,0.6c-0.4,0-0.8-0.2-1-0.6L37,75.1c-0.5-0.8,0.1-1.8,1-1.8h3.5
			c0.7,0,1.2-0.5,1.2-1.2v-28c0-0.7,0.5-1.2,1.2-1.2H55c0.7,0,1.2,0.5,1.2,1.2v9.6h3.8v-9.6c0-2.8-2.3-5.1-5-5.1H43.9
			c-2.8,0-5,2.3-5,5.1v25.4H38c-1.8,0-3.5,1-4.4,2.5c-0.9,1.6-0.9,3.5,0,5.1L45.1,97c0.9,1.6,2.6,2.5,4.4,2.5s3.5-1,4.4-2.5l7-12.1
			h-4.4L50.5,95z M70.2,67.3h-1.8c-2.4,0-4.3-2-4.3-4.4c0-2.4,2-4.4,4.3-4.4h5.9c1.1,0,1.9-0.9,1.9-1.9c0-1.1-0.9-1.9-1.9-1.9h-3.1
			v-1.5c0-1.1-0.9-1.9-1.9-1.9c-1.1,0-1.9,0.9-1.9,1.9v1.6c-4,0.5-7.1,4-7.1,8.1c0,4.5,3.7,8.2,8.2,8.2h1.8c2.4,0,4.3,2,4.3,4.4v0.3
			c0,2.4-2,4.4-4.3,4.4h-7.9c-1.1,0-1.9,0.9-1.9,1.9c0,1.1,0.9,1.9,1.9,1.9h5.1v1.4c0,1.1,0.9,1.9,1.9,1.9c1.1,0,1.9-0.9,1.9-1.9
			v-1.5c4-0.5,7.1-4,7.1-8.1v-0.3C78.3,70.9,74.7,67.3,70.2,67.3z"/>
	</g>
</g>
</svg>
