<?xml version="1.0" encoding="utf-8"?>
<!-- Generator: Adobe Illustrator 19.2.1, SVG Export Plug-In . SVG Version: 6.00 Build 0)  -->
<svg version="1.1" id="Layer_1" xmlns="http://www.w3.org/2000/svg" xmlns:xlink="http://www.w3.org/1999/xlink" x="0px" y="0px"
	 viewBox="0 0 140 140" style="enable-background:new 0 0 140 140;" xml:space="preserve">
<style type="text/css">
	.st0{fill-rule:evenodd;clip-rule:evenodd;}
</style>
<path class="st0" d="M100.8,49.5H39c-2.3,0-4.1-1.8-4.1-4.1c0-2.3,1.8-4.1,4.1-4.1h28.4V39c0-1.4,1.1-2.5,2.5-2.5
	c1.4,0,2.5,1.1,2.5,2.5v2.3h28.4c2.3,0,4.1,1.8,4.1,4.1C104.9,47.7,103,49.5,100.8,49.5z M67.6,54.5v17H48.2v-17H67.6z M53.1,66.5
	h9.6v-7.1h-9.6V66.5z M90.2,80.4H48v-5h42.2V80.4z M72.9,57.5h17.3v5H72.9V57.5z M90.2,71.5H72.9v-5h17.3V71.5z M43.5,83.4
	c0,0.2,0.2,0.4,0.4,0.4h51.9c0.2,0,0.4-0.2,0.4-0.4V50.9h5v32.5c0,3-2.4,5.4-5.4,5.4H72.4v8.5c10,0.3,17.8,2.2,17.8,4.5
	c0,2.5-9.1,4.6-20.3,4.6c-11.2,0-20.3-2-20.3-4.6c0-2.3,7.8-4.3,17.8-4.5v-8.5H43.9c-3,0-5.4-2.4-5.4-5.4V50.9h5V83.4z"/>
</svg>
