<?xml version="1.0" encoding="utf-8"?>
<!-- Generator: Adobe Illustrator 19.2.1, SVG Export Plug-In . SVG Version: 6.00 Build 0)  -->
<svg version="1.1" id="Layer_1" xmlns="http://www.w3.org/2000/svg" xmlns:xlink="http://www.w3.org/1999/xlink" x="0px" y="0px"
	 viewBox="0 0 76.6 67.4" style="enable-background:new 0 0 76.6 67.4;" xml:space="preserve">
<path d="M27.7,20.9c-0.6-0.5-0.4-1.5,0.3-1.7c0.9-0.3,1.8-0.7,2.6-0.7c2.2-0.2,4.5-0.1,6.7,0c2.6,0.1,3.6,1,3.7,3.6
	c0.1,2.7-0.1,5.3-0.1,8c0,0.8,0,1.7,0.2,2.5c0.5,1.9,1.8,2.4,2.9,0.7c2.4-3.6,4.5-7.3,6.5-11.1c0.8-1.6,1.7-2.3,3.4-2.3
	c2.5,0,5-0.1,7.5,0c3,0,4,1.6,2.3,4.1c-2.2,3.4-4.6,6.7-6.9,10.1c-2.1,3-2,3.4,0.6,6.2c2.1,2.2,4.2,4.5,6.1,6.9
	c0.6,0.8,0.8,2.3,0.6,3.4c-0.1,0.5-1.6,0.8-2.5,0.9c-1.7,0.1-3.5-0.2-5.2,0.1c-3.8,0.6-6.4-1.2-8.6-3.9C47.3,47,47,46.4,46.4,46
	c-1-0.8-4.7-5.5-5.4-4.1c-0.7,1.2-0.2,3.8-0.3,5.3c-0.1,2.4-0.3,3.9-3.9,4.1C30,51.8,25,48.5,20.8,43.8c-5.5-6.2-9-13.7-12.6-21.1
	c-0.7-1.4-0.3-2.7,1.6-2.8c2.6-0.1,5.2-0.4,7.7,0c1.1,0.2,2.3,1.5,3,2.6c1.7,2.9,3,5.9,4.6,8.8c0.5,0.9,1.3,1.8,2.1,2.5
	c1,0.9,2.3,0.9,2.4-0.7c0.2-3.4,0.2-6.8,0-10.1C29.3,22.3,28.6,21.7,27.7,20.9z"/>
</svg>
